<?xml version="1.0" encoding="utf-8" ?>
<svg xmlns="http://www.w3.org/2000/svg" xmlns:xlink="http://www.w3.org/1999/xlink" width="512" height="512">
	<path fill="white" transform="scale(0.666667 0.666667)" d="M-0 -0L768 0L768 768L-0 768L0 -0Z"/>
	<path fill="#262324" transform="scale(0.666667 0.666667)" d="M509.063 300.951L511.745 302.187C513.922 303.343 517.747 306.596 518.438 308.964C517.537 309.293 516.523 308.889 515.625 308.577C512.422 307.464 510.525 303.771 509.063 300.951Z"/>
	<path fill="#262324" transform="scale(0.666667 0.666667)" d="M377.26 241.312L378.75 241.205L379.294 241.688C378.867 242.9 378.429 244.137 377.731 245.224C376.835 246.618 375.942 246.88 374.438 247.234C373.718 247.145 373.383 247.036 372.74 246.75C372.206 245.663 372.318 245.069 372.525 243.938C373.757 242.263 375.256 241.67 377.26 241.312Z"/>
	<path fill="#262324" transform="scale(0.666667 0.666667)" d="M718.29 160.312L719.275 160.394C720.271 161.057 721.029 161.623 721.359 162.84C721.895 164.82 722.46 169.945 721.448 171.562L720.188 171.75C719.301 171.328 718.475 170.557 717.861 169.797C716.566 168.195 716.278 165.905 716.458 163.92C716.611 162.239 716.997 161.382 718.29 160.312Z"/>
	<path fill="#262324" transform="scale(0.666667 0.666667)" d="M493.609 282.938L493.991 282.811C494.476 282.739 495.27 282.625 495.682 282.936C496.607 283.634 497.386 285.104 498.01 286.088L502.794 293.974C503.742 295.409 505.801 297.543 506.364 299.062C506.495 299.415 506.431 299.812 506.465 300.188C505.847 300.284 505.188 300.384 504.562 300.313C503.142 300.151 501.884 298.993 500.98 297.976C498.092 294.729 493.4 287.405 493.609 282.938Z"/>
	<path fill="#262324" transform="scale(0.666667 0.666667)" d="M697.218 80.0625L698.625 80.268C699.633 81.0751 699.824 81.1586 700.13 82.4458C700.598 84.4164 701.742 89.4731 701.125 91.3236C700.328 93.7148 698.069 96.5996 696.764 98.8023L695.625 99.7358L694.688 99.6242C693.772 97.2667 693.723 94.3046 693.867 91.7967C694.061 88.4198 694.589 82.4004 697.218 80.0625Z"/>
	<path fill="#262324" transform="scale(0.666667 0.666667)" d="M445.71 213.188L447 213.009C447.402 213.295 447.68 213.462 448.018 213.851C448.61 214.531 448.747 215.466 448.6 216.317C448.147 218.941 444.859 221.19 442.792 222.546C439.183 224.915 435.431 226.271 431.123 225.381L430.47 224.924C429.138 223.951 428.771 223.259 428.527 221.625C428.987 220.604 428.94 220.555 429.938 220.077C431.491 220.225 432.854 220.76 434.306 221.29C439.522 219.793 442.162 217.01 445.71 213.188Z"/>
	<path fill="#262324" transform="scale(0.666667 0.666667)" d="M522.597 450.768C523.462 450.741 523.653 450.539 524.337 451.125C523.988 452.223 523.561 452.84 522.708 453.627C520.978 455.224 518.54 456.188 516.365 457.032C509.055 459.867 501.949 460.872 494.171 460.414C493.197 460.279 492.244 460.256 491.438 459.642C491.999 458.713 492.851 458.499 493.875 458.166C497.932 456.844 502.577 456.431 506.773 455.411L522.597 450.768Z"/>
	<path fill="#262324" transform="scale(0.666667 0.666667)" d="M648.909 448.81C650.121 448.744 650.821 448.796 651.938 449.288C652.648 450.282 652.891 450.303 652.688 451.556C648.888 457.169 636.145 462.661 629.894 464.707C628.563 464.866 627.557 465.232 626.438 464.441C626.006 463.219 625.666 462.31 626.234 461.062C626.371 460.762 626.905 460.115 627.139 459.938C627.806 459.433 629.767 459.163 630.655 458.933C632.862 458.363 634.836 457.699 636.861 456.649C641.133 454.433 644.503 450.865 648.909 448.81Z"/>
	<path fill="#262324" transform="scale(0.666667 0.666667)" d="M308.877 36.9375L309.281 36.8452C313.671 36.3939 325.084 45.2573 328.693 48.1045C330.357 49.4177 333.616 53.0038 333.646 55.3125C333.663 56.6104 333.217 57.1856 332.438 58.1551C331.816 58.4207 331.956 58.4219 331.382 58.4849C327.773 58.881 325.286 56.5085 322.661 54.3891C319.065 51.4862 308.247 43.4022 308 38.4559C307.963 37.7147 308.426 37.47 308.877 36.9375Z"/>
	<path fill="#262324" transform="scale(0.666667 0.666667)" d="M646.769 489.059L648.188 488.871C649.73 488.846 649.937 489.273 650.926 490.312L650.889 491.587C650.342 492.266 649.78 492.937 649.064 493.446C645.908 495.693 641.789 497.117 638.141 498.305C626.391 502.129 614.184 503.736 601.893 502.023L601.534 501.955C600.019 501.658 598.083 501.564 596.957 500.438L596.959 499.5C599.141 497.258 606.312 498.395 609.497 498.26C618.557 497.876 628.134 496.215 636.669 493.099C640.089 491.851 643.286 490.189 646.769 489.059Z"/>
	<path fill="#262324" transform="scale(0.666667 0.666667)" d="M604.176 318.562C605.079 318.676 605.045 318.741 605.729 319.287C609.418 322.23 612.028 326.82 614.419 330.812C621.09 341.949 626.253 353.223 630.463 365.525C631.677 369.074 633.373 373.393 633.72 377.125C633.866 378.69 633.807 378.991 632.812 380.172C632.398 380.109 631.966 379.941 631.564 379.819C629.031 376.736 627.799 371.47 626.488 367.734L620.841 352.746C618.135 346.362 614.816 340.158 611.34 334.165L605.862 325.168C604.747 323.418 603.16 321.418 603.181 319.312L604.176 318.562Z"/>
	<path fill="#262324" transform="scale(0.666667 0.666667)" d="M643.551 505.312L644.812 505.478C645.636 506.516 645.895 506.779 646.127 508.125C645.458 509.428 644.65 510.196 643.462 511.051C634.953 517.18 620.028 521.031 609.77 519.177L609.188 519.067C605.508 518.399 602.496 517.121 599.251 515.291C598.034 514.414 596.524 513.365 595.73 512.062C595.037 510.925 595.311 510.076 595.535 508.875C595.918 508.409 596.008 507.994 596.663 507.988C598.524 507.971 600.809 509.049 602.631 509.531C605.441 510.273 608.344 510.689 611.25 510.763C619.299 510.969 627.186 510.191 634.957 507.998C637.859 507.179 640.558 505.823 643.551 505.312Z"/>
	<path fill="#262324" transform="scale(0.666667 0.666667)" d="M413.473 218.812C413.808 218.796 414.664 218.878 414.938 219.038C415.776 219.53 416.861 220.93 417.589 221.637C423.384 227.275 428.378 234.27 434.722 239.22C442.293 245.127 450.136 247.399 459.754 246.16C465.718 245.392 470.895 243.849 476.25 241.066C481.676 238.247 485.988 234.239 490.081 229.753C491.748 227.926 493.665 225.801 494.394 223.424C494.766 222.213 495.03 221.745 495.938 220.867C497.296 220.522 497.987 220.497 499.196 221.264C500.099 221.836 500.388 221.902 500.613 222.938L499.559 224.42C497.09 227.37 494.887 230.534 492.326 233.41C485.565 241.002 477.671 246.88 467.721 249.514C458.098 252.062 446.686 251.991 437.926 246.817C429.555 241.873 423.054 233.895 417.094 226.38C415.797 224.745 413.431 222.254 413.035 220.201C412.873 219.361 413.024 219.447 413.473 218.812Z"/>
	<path fill="#262324" transform="scale(0.666667 0.666667)" d="M484.143 302.062L484.428 302.011C487.634 301.791 487.778 304.89 490.007 306.024C490.589 306.321 491.598 306.34 492.242 306.314C495.041 306.201 494.219 303.305 496.312 302.529L497.438 303.168C497.958 303.96 498.38 304.749 498.564 305.691C499.176 308.838 498.939 312.578 499.066 315.801C499.293 321.535 499.973 327.034 501.289 332.625C504.446 346.043 509.088 359.447 513.902 372.367C517.22 381.27 522.16 390.582 523.374 400.01C523.434 400.888 523.531 400.49 523.125 401.215L522.692 401.062C519.336 396.463 517.031 391.163 514.644 386.019C510.23 376.509 506.527 366.796 503.162 356.873C500.002 347.551 497.092 337.849 495.495 328.12C494.535 322.274 494.559 316.538 494.562 310.634C490.943 310.87 487.176 310.891 484.266 308.426C483.104 307.441 482.471 306.235 482.597 304.688C482.692 303.521 483.376 302.849 484.143 302.062Z"/>
	<path fill="#262324" transform="scale(0.666667 0.666667)" d="M39.7174 694.662L184.373 694.336L222.217 694.555C228.589 694.588 235.776 693.998 242.062 694.882C243.423 695.073 244.558 695.405 245.541 696.389C245.618 697.58 245.605 697.509 244.845 698.438C241.951 699.161 238.86 699.017 235.894 699.08L222.469 699.327L21.375 702.034C19.9815 701.945 19.5451 701.993 18.6211 700.915C18.4998 699.825 18.2948 699.11 19.0498 698.168C19.7124 697.341 21.0336 696.852 22.0147 696.574C27.4496 695.032 34.0671 695.026 39.7174 694.662Z"/>
	<path fill="#262324" transform="scale(0.666667 0.666667)" d="M49.8034 464.438L50.7877 464.29C52.3001 465.738 52.2986 467.981 52.5052 469.966L53.4567 484.817L53.405 506.003L52.6057 550.125L50.4711 629.59L49.6396 655.39C49.4887 662.779 49.583 670.366 48.4336 677.682C47.92 680.951 46.7838 683.47 44.5295 685.878C43.8913 686.233 43.2443 686.626 42.5395 686.832C41.6789 687.083 41.6471 687.052 40.9132 686.625C40.2568 682.252 41.3746 676.71 41.6561 672.226L43.3485 641.527L46.4606 578.121L47.89 522.438L48.2799 494.876L48.3519 478.666C48.3803 474.398 47.9167 468.253 49.8034 464.438Z"/>
	<path fill="#262324" transform="scale(0.666667 0.666667)" d="M209.703 469.312C210.522 469.094 210.54 469.062 211.312 469.394C212.594 471.069 213.119 472.526 213.379 474.616C214.523 483.814 214.394 493.255 214.404 502.512L214.54 531.922L214.802 639.117L214.882 664.494C214.908 668.802 214.378 673.898 215.474 678.046L216.666 682.824C216.863 684.261 216.385 685.493 215.509 686.62C214.368 688.086 213.191 689.273 211.312 689.543C209.172 689.253 206.87 687.943 205.508 686.279C203.69 684.057 203.931 681.276 205.525 679.043C205.812 678.641 206.743 677.661 206.866 677.26C206.93 677.054 206.814 675.845 206.809 675.587L206.769 670.266L206.961 644.208L207.288 533.311L207.09 496.378C207.076 489.141 206.743 481.635 207.626 474.442C207.866 472.485 208.063 470.601 209.703 469.312Z"/>
	<path fill="#262324" transform="scale(0.666667 0.666667)" d="M484.979 252.938L485.702 252.957C487.076 255.661 487.419 258.44 487.483 261.444C487.821 277.396 484.391 291.51 478.773 306.365C472.1 324.012 462.663 340.506 451.109 355.407C443.06 365.788 433.93 375.275 424.838 384.735L426.284 384.589C428.265 384.353 429.903 384.353 431.857 384.862C435.888 385.912 439.361 389.949 442.624 392.477C445.774 394.918 449.432 397.176 452.187 400.054C453.309 401.227 454.185 402.802 455.031 404.184C457.109 400.565 459.891 397.219 462.31 393.813L473.812 378.244C476.498 374.859 479.056 371.326 482.777 369.021C489.295 375.03 492.264 382.804 496.49 390.375C501.016 398.484 506.446 406.056 513.179 412.479C517.854 416.939 524.41 421.106 531.126 420.793C532.722 420.719 533.595 419.731 534.562 418.546C541.399 410.168 543.789 396.513 542.391 386.012C541.039 375.848 537.343 365.986 533.51 356.529L521.966 330.062C520.648 327.256 519.031 324.577 517.791 321.75L518.438 321.008C519.526 320.636 519.987 320.221 521.062 320.703C527.988 329.443 532.41 341.076 536.688 351.333C540.015 359.311 543.423 367.01 545.468 375.467C547.085 382.154 547.804 389.012 547.429 395.882C546.94 404.824 543.802 416.82 536.701 422.812C534.378 424.774 531.767 425.509 528.75 425.21C512.747 423.626 501.466 408.218 493.84 395.49C490.068 389.196 486.864 382.488 482.142 376.839L479.769 379.067L471.219 390.111C467.602 394.944 464.139 400.072 460.111 404.568C457.921 407.012 455.323 409.173 452.855 411.331C449.846 413.961 445.319 417.408 441.169 417.469C437.948 417.517 434.371 415.119 431.476 413.785C430.795 413.471 429.198 412.592 428.514 412.543C427.639 412.482 426.245 413.08 425.409 413.364C422.851 414.235 420.579 415.404 418.316 416.87C416.547 418.016 414.588 419.901 412.5 420.339C410.837 420.689 409.091 420.094 407.717 419.156C404.649 417.063 404.151 413.031 403.507 409.673C402.85 411.571 401.913 413.651 402.01 415.688C402.124 418.081 403.395 419.953 405.188 421.471C408.502 424.278 413.138 424.08 417.188 423.794L417.735 424.312C417.499 425.163 417.209 425.788 416.575 426.404C415.549 427.4 414.389 427.512 413.016 427.533C408.813 427.595 404.607 426.465 401.61 423.38C399.517 421.226 398.336 417.885 398.553 414.905C398.76 412.073 400.628 409.725 402.453 407.687C406.734 402.911 411.693 399.565 416.8 395.774L426.252 388.218C421.545 388.402 416.82 387.911 412.118 388.234C405.992 388.656 399.832 390.674 394.62 393.937C389.015 397.447 380.777 405.121 379.312 411.858C378.788 414.272 378.477 416.128 379.868 418.312L380.356 418.312C380.333 414.873 380.705 411.63 382.332 408.552C383.207 406.897 384.082 405.722 385.914 405.188L386.553 405.562L385.662 409.216C384.79 413.104 383.434 418.377 385.91 421.923C386.54 422.825 387.501 423.48 388.621 423.561C389.972 423.66 391.138 422.939 392.081 422.062C392.341 419.301 390.028 417.311 389.577 414.657C388.95 410.961 391.204 405.852 393.332 402.925C395.061 400.546 397.026 399.004 399.938 398.599L400.455 399.188C398.987 403.957 395.002 407.463 394.33 412.688C394.138 414.177 394.025 415.721 394.315 417.202C394.677 419.045 395.553 421.182 395.189 423.06C394.877 424.667 393.707 425.862 392.351 426.692C390.843 427.614 388.2 428.481 386.466 428.024L386.062 427.904C383.33 427.157 382.282 424.422 379.782 423.188C377.937 422.278 375.647 420.532 374.862 418.497C374.477 417.497 374.662 415.321 374.716 414.196C374.767 413.121 375.007 412.352 374.438 411.399C373.834 411.944 373.416 412.322 373.059 413.073C372.283 414.703 373.276 416.933 373.837 418.5L373.5 419.174L372.412 419.131C371.723 418.695 370.958 418.237 370.439 417.597C369.161 416.021 369.056 413.346 369.337 411.429C369.694 408.998 371.452 407.087 373.38 405.698C374.415 404.952 375.16 404.481 375.82 403.359C379.516 397.071 386.209 391.633 392.685 388.393C397.621 385.923 402.661 384.482 408.066 383.438C412.113 382.655 415.961 381.963 419.983 383.322L420.385 383.463C433.616 368.162 447.55 352.912 458.532 335.869C467.148 322.498 474.343 306.495 478.255 291.107C479.418 286.534 480.652 281.793 481.281 277.113L482.844 264.342C483.283 260.394 483.563 256.681 484.979 252.938Z"/>
	<path fill="white" transform="scale(0.666667 0.666667)" d="M429.105 390.188L430.13 389.989C432.983 391.634 435.517 393.756 438.152 395.72C442.218 398.75 446.293 401.658 449.79 405.36L446.925 408.938C445.909 410.125 443.213 413.2 441.698 413.566C441.689 413.568 440.979 413.282 440.962 413.275C437.959 412.049 435.218 410.181 432.094 409.238C429.82 408.552 427.774 408.726 425.456 408.923C420.792 410.454 417.696 413.069 413.598 415.597C412.09 416.527 411.34 416.415 409.717 416.041C408.398 414.826 407.624 414.204 407.556 412.275C407.337 406.003 417.791 400.421 422.062 397C424.647 394.93 426.909 392.66 429.105 390.188Z"/>
	<path fill="#262324" transform="scale(0.666667 0.666667)" d="M565.953 654.188C567.683 653.886 569.872 654.387 571.649 654.588C575.884 655.066 580.073 655.473 584.236 656.443C591.371 658.105 598.404 661.164 604.69 664.902C622 675.197 637.521 688.993 653.49 701.209L667.85 712.156C670.146 713.889 673.759 715.921 675.256 718.312L674.893 719.062C674.064 719.296 673.506 719.409 672.663 719.158C667.609 717.659 662.572 713.573 658.259 710.558L618.599 680.483C612.754 676.129 606.642 671.823 600.341 668.164C592.788 663.778 585.073 661.529 576.614 659.606L569.208 686.918L577.757 687.749C582.766 688.23 588.042 689.685 592.621 691.759C600.784 695.454 607.88 701.178 615.021 706.486C619.761 710.008 626.204 714.369 629.708 719.177C630.574 720.365 630.829 720.832 630.606 722.25C631.532 722.797 632.898 722.586 633.971 722.604L641.077 722.724L669.516 723.653L687.31 723.959C688.902 723.997 691.659 723.658 692.872 724.524L692.382 725.062C686.829 725.803 681.156 725.716 675.562 725.985L631.441 727.135L558.82 728.36L522.052 728.743L489.706 729.613L472.439 730.484C470.494 730.524 467.689 730.777 465.909 729.867C465.019 729.413 465.068 728.962 464.798 728.062C465.952 725.532 470.281 725.189 472.831 724.867L496.621 723.051C497.223 723.013 502.1 722.887 502.315 722.689C502.322 722.683 503.357 717.144 503.592 716.438C505.551 710.558 509.939 705.379 514.485 701.313C526.646 690.435 547.711 685.63 563.69 686.509L569.574 658.631C568.299 658.26 566.723 658.002 565.801 657.008C565.542 655.801 565.52 655.343 565.953 654.188Z"/>
	<path fill="white" transform="scale(0.666667 0.666667)" d="M606.191 715.929L606.657 715.898C611.996 715.39 615.831 720.575 620.672 721.834C621.297 721.997 621.743 722.158 622.312 722.45L615.029 722.753L597.429 722.976C600.243 720.257 602.752 717.824 606.191 715.929Z"/>
	<path fill="white" transform="scale(0.666667 0.666667)" d="M555.701 692.407C560.41 691.938 565.47 692.349 570.188 692.625C577.579 693.059 584.864 694.445 591.562 697.679C596.14 699.889 600.221 702.852 604.286 705.87C607.178 708.018 610.349 710.112 612.752 712.816C610.644 712.142 608.463 711.405 606.22 711.562C601.235 711.912 597.61 716.494 594.42 719.877C593.017 721.365 592.062 722.592 589.928 722.812C588.441 722.017 587.971 719.957 587.278 718.5C586.428 716.716 585.488 714.932 584.444 713.254C582.756 710.541 580.754 707.886 578.603 705.522C576.13 702.804 570.377 696.382 566.438 696.77C565.107 696.901 564.643 697.821 563.812 698.747C563.953 700.124 568.121 702.144 569.456 703.294C575.624 708.61 580.911 715.187 584.225 722.652L568.864 722.318L540.132 721.46C542.095 713.818 546.328 706.603 552.393 701.5C554.127 700.041 556.456 699.139 558.025 697.571C558.617 696.979 558.458 696.965 558.48 696.188C557.275 695.273 556.268 695.048 554.719 695.3C549.938 696.08 544.661 701.449 542.021 705.214C539.18 709.267 535.533 715.72 536.459 720.787L536.525 721.125C535.535 721.896 530.934 721.511 529.434 721.521L508.042 722.024C509.386 717.314 511.397 712.952 514.602 709.2C524.313 697.831 541.354 693.503 555.701 692.407Z"/>
	<path fill="#262324" transform="scale(0.666667 0.666667)" d="M216.029 450.694C224.301 450.941 251.814 451.595 257.781 456.227L257.812 456.927L257.401 457.138C255.776 457.786 253.56 457.71 251.812 457.797L240.609 458.098L206.101 457.788L92.2977 457.452L47.0263 457.592L28.4618 457.735C25.6723 457.692 22.6112 457.826 19.8533 457.423C19.5222 457.374 19.02 457.246 18.75 457.106C17.8057 456.616 17.7865 456.184 17.5981 455.25C17.805 454.628 17.8464 454.216 18.3258 453.742C20.222 451.866 25.4961 451.898 28.0411 451.808L94.6077 451.031C93.7863 448.139 93.0898 445.115 92.8312 442.114C92.5859 439.269 92.58 436.366 92.5956 433.51C92.6033 432.085 92.8966 430.218 92.3456 428.91C91.4838 428.446 90.8791 428.242 90.4537 427.312C90.7199 425.868 91.5149 424.602 92.7499 423.765C95.2279 422.085 99.4314 422.622 102.33 422.614C108.229 422.598 114.358 422.339 120.188 423.431C122.428 423.851 125.746 424.761 126.79 427.094C127.415 428.489 126.414 431.686 126.095 433.187C135.023 431.873 142.653 433.735 149.967 439.132C150.973 439.874 153.076 442.158 154.102 442.487C154.687 442.674 156.068 442.43 156.762 442.414L164.336 442.313L200.062 442.502C203.962 442.575 207.861 442.945 211.737 443.357C210.575 442.058 209.324 440.794 208.399 439.312L208.751 438.562C212.765 437.147 218.527 440.24 222.88 440.531C236.577 441.445 250.474 440.217 264.215 440.762C265.069 439.725 265.999 438.73 267.046 437.885C270.281 435.274 273.502 435.784 277.312 436.224C276.698 436.599 276.147 436.979 275.592 437.438L275.614 438.375L275.95 438.65C277.183 439.397 279.679 439.282 281.129 439.329L292.663 439.637L372.114 441.788L479.883 444.687C484.968 444.622 489.495 443.913 494.473 443.051C497.091 442.598 499.18 443.366 501.75 443.877L502.312 443.441C500.43 442.407 498.815 442.299 496.688 442.276C494.138 444.007 421.894 441.706 413.164 441.261L374.562 438.041L339.295 436.714L295.237 435.597L284.062 435.452C281.555 435.485 279.087 435.793 276.584 435.506C270.024 434.754 263.543 435.151 256.965 435.005L248.363 434.848C247.249 434.845 246.171 434.652 245.176 435.188L245.549 436.125L245.141 436.688L242.625 436.823L242.118 436.312L242.271 435C240.651 434.075 234.161 434.698 232.184 435.132C232.476 435.656 232.686 436.132 232.905 436.688C232.568 437.744 232.599 437.68 231.623 438.216C230.281 438.168 229.727 438.413 228.755 437.438L228.904 436.312L230.438 435.274C229.964 434.884 223.807 435.262 222.685 435.262C216.951 435.266 210.731 434.998 205.172 433.51C202.193 432.712 199.454 431.287 196.905 429.572C192.321 426.487 188.718 422.172 185.448 417.778C176.427 405.656 170.367 391.179 167.558 376.337C150.655 375.785 63.4536 377.061 54.7178 370.947C52.4679 369.373 52.1227 361.81 51.8453 359.214L36.5958 213.932L31.5486 180.188L28.1467 161.812C28.0454 161.06 27.8811 159.764 28.4125 159.18C29.3845 158.113 31.0587 157.937 32.4228 157.751C44.3159 156.121 56.6986 156.297 68.699 156.373L126.595 157.932L228.053 159.674L290.904 158.246C299.312 158.052 308.124 157.212 316.5 157.817C318.144 157.936 320.03 158.158 321.338 159.26C323.627 161.189 324.624 165.72 325.466 168.469C328.349 177.877 330.106 187.546 331.824 197.22L336.941 232.124C341.189 272.613 339.535 313.449 337.705 354.03L337.475 364.945C337.461 366.098 337.722 367.98 337.432 369C337.341 369.32 336.891 369.867 336.701 370.06C335.586 371.197 333.243 371.635 331.738 371.865C322.523 373.275 312.682 373.24 303.368 373.772L258.874 376.093L208.573 376.479C212.237 391.631 217.608 406.355 229.126 417.447C233.502 421.662 242.499 429.953 248.928 429.8L279.902 430.17L334.517 431.208L373.445 431.936C375.698 432.02 380.534 431.58 382.433 432.562L382.637 434.812C384.138 436.155 391.593 435.821 393.91 435.944L463.039 437.663L485.653 437.961C489.935 438.034 494.726 437.83 498.938 438.551C501.173 438.933 502.883 439.928 504.572 441.394C504.907 441.686 505.898 442.759 506.23 442.884C506.243 442.889 507.296 442.602 507.335 442.591C511.021 441.58 514.409 439.549 518.095 438.599C519.307 438.287 520.384 438.238 521.625 438.368C521.944 438.952 522.095 438.964 521.952 439.664C521.441 442.165 517.907 444.77 515.812 445.934C512.999 447.497 509.679 448.374 506.607 449.281L491.11 453.686C487.781 454.682 484.614 456.112 481.222 456.909C478.399 457.571 475.511 457.918 472.625 458.157C462.158 459.023 451.505 458.701 441.008 458.68C434.148 458.666 427.134 458.323 420.395 459.841C416.906 460.627 413.652 461.612 411.055 464.236C410.124 465.178 409.261 466.385 408.163 467.127L407.721 467.416L408.414 468.562C408.4 469.763 408.611 471.02 407.954 472.037C405.181 472.593 401.281 471.773 398.422 471.593L380.428 470.688L310.359 467.803L277.312 466.649C273.708 466.522 267.779 467.236 264.562 465.774C263.416 465.253 263.143 464.661 262.764 463.5C260.992 458.06 265.223 450.386 267.586 445.575C265.584 446.262 263.183 447.361 261.091 447.591C258.499 447.876 255.642 447.552 253.015 447.521L238.966 447.602L205.338 448.933L205.031 449.012C199.889 450.205 194.18 448.622 189 449.816C191.335 449.763 193.384 450.223 195.731 450.247C202.237 450.314 209.63 449.664 216.029 450.694Z"/>
	<path fill="white" transform="scale(0.666667 0.666667)" d="M278.78 449.812L279.423 449.631C280.4 449.493 281.3 449.766 282.008 450.375C282.014 450.843 282.056 451.412 281.933 451.875C281.595 453.145 280.928 453.573 279.938 454.27C278.871 454.653 278.447 454.91 277.312 454.717C277.501 452.78 277.803 451.533 278.78 449.812Z"/>
	<path fill="white" transform="scale(0.666667 0.666667)" d="M129.324 438.481C135.584 438.128 139.233 439.796 144.636 442.696L138.281 442.387L128.602 442.232C127.27 442.206 125.57 442.407 124.367 441.842C124.365 440.981 124.676 440.459 125.062 439.706C126.233 438.865 127.928 438.745 129.324 438.481Z"/>
	<path fill="#ACACAF" transform="scale(0.666667 0.666667)" d="M216.029 450.694C213.021 450.952 209.842 450.754 206.817 450.753L188.229 450.559L144.375 450.1L127.774 450.389C125.937 450.416 122.888 450.875 121.197 450.188C121.32 449.872 121.483 449.4 121.688 449.137C121.748 449.06 122.502 448.371 122.66 448.312C123.486 448.007 126.007 448.308 126.977 448.319L145.557 448.837L205.338 448.933L205.031 449.012C199.889 450.205 194.18 448.622 189 449.816C191.335 449.763 193.384 450.223 195.731 450.247C202.237 450.314 209.63 449.664 216.029 450.694Z"/>
	<path fill="white" transform="scale(0.666667 0.666667)" d="M418.892 449.062C423.444 448.458 428.663 448.883 433.272 448.963L457.962 449.416L474.717 449.588C478.641 449.623 482.533 449.523 486.413 450.186C483.706 451.407 481.361 452.075 478.454 452.546C466.023 453.977 453.198 453.38 440.703 453.345L429.636 453.338C427.047 453.348 424.321 453.16 421.828 453.967L417.29 455.062C416.124 455.195 415.41 455.336 414.477 454.629C416.347 453.32 418.13 451.909 418.754 449.617L418.892 449.062Z"/>
	<path fill="white" transform="scale(0.666667 0.666667)" d="M106.782 427.898C111.715 427.724 116.919 428.367 121.8 429.081C118.231 435.61 115.947 443.621 113.549 450.707C110.933 450.767 100.218 451.642 98.4375 450.702L98.155 449.54L97.1425 428.296L103 428.25C102.463 432.474 102.385 439.31 103.564 443.438L104.438 443.588C106.964 440.973 106.493 431.609 106.782 427.898Z"/>
	<path fill="white" transform="scale(0.666667 0.666667)" d="M173.077 376.313L203.745 376.424C204.325 381.476 205.949 386.366 207.671 391.125C211.854 402.683 218.039 413.916 227.46 422.027C229.602 423.87 231.836 425.645 234.156 427.259C235.438 428.152 237.75 429.098 238.645 430.312L236.812 430.454C224.246 430.696 207.551 433.074 197.319 424.384C194.173 421.711 191.692 418.477 189.315 415.131C182.497 405.531 177.737 394.616 174.088 383.468C173.401 381.37 172.121 378.557 171.938 376.377L173.077 376.313Z"/>
	<path fill="white" transform="scale(0.666667 0.666667)" d="M273.007 446.438C274.416 446.25 276.059 446.513 277.504 446.543L287.711 446.765L314.317 447.241L414.926 449.386C411.118 450.565 403.788 451.42 401.045 454.06C399.931 455.133 399.561 456.38 399.661 457.905C399.725 458.881 400.066 459.675 400.84 460.286C402.272 461.418 404.106 461.253 405.811 461.074C406.504 461.001 406.148 460.938 406.803 461.25C406.367 461.74 405.889 462.256 405.562 462.828C405.115 463.613 405.079 464.471 405.317 465.323C405.566 466.215 405.611 465.749 405.375 466.497C402.59 464.522 399.744 464.814 396.469 464.675L267.758 461.049L268.924 459.188C270.557 456.564 271.125 453.088 272.315 450.188C273.206 449.408 273.749 449.33 274.875 449.134C275.611 450.079 274.526 452.653 274.312 453.848C274.048 455.331 273.961 456.695 274.212 458.179C274.838 458.655 275.314 458.724 276.079 458.802C277.925 458.991 280.689 459.244 282.16 457.904C284.381 455.882 285.326 451.396 285.443 448.5C285.297 448.312 285.208 448.06 285.004 447.938C284.705 447.759 282.199 447.882 281.646 447.868C278.805 447.796 275.773 447.756 273.021 447.003L273.007 446.438Z"/>
	<path fill="#262324" transform="scale(0.666667 0.666667)" d="M304.95 448.527L309.68 449.252C308.522 452.618 307.351 455.615 305.438 458.631L304.5 459.415C303.557 459.463 303.01 459.556 302.164 459.065C301.531 457.172 304.253 450.698 304.95 448.527Z"/>
	<path fill="#262324" transform="scale(0.666667 0.666667)" d="M369.064 453.562L369.397 453.527C370.997 453.414 375.461 453.374 376.614 454.312L376.509 456.924C376.379 458.319 375.953 459.414 374.879 460.312C373.346 460.743 369.835 460.812 368.503 459.902C367.973 459.541 367.598 459.214 367.552 458.58C367.408 456.579 367.733 455.089 369.064 453.562Z"/>
	<path fill="#262324" transform="scale(0.666667 0.666667)" d="M385.058 453.562C387.006 453.242 390.978 453.153 392.722 454.042C392.926 454.635 392.969 455.059 392.918 455.688C392.749 457.797 392.551 459.223 390.938 460.618C388.657 461.179 385.665 460.94 383.625 459.759C383.077 458.718 383.085 457.547 383.293 456.375C383.539 454.998 383.987 454.367 385.058 453.562Z"/>
	<path fill="#262324" transform="scale(0.666667 0.666667)" d="M333.415 452.812L333.994 452.632C336.033 452.244 341.371 452.023 342.938 453.182C343.168 455.26 342.846 456.779 341.544 458.438C341.204 458.712 340.84 459.045 340.43 459.207C338.982 459.78 334.545 459.506 333.204 458.875C332.815 458.692 332.86 458.696 332.767 458.245C332.411 456.512 332.491 454.338 333.415 452.812Z"/>
	<path fill="#262324" transform="scale(0.666667 0.666667)" d="M350.943 452.812C353.457 452.376 357.868 452.173 360.206 453.172C360.413 453.63 360.479 453.707 360.562 454.28C360.825 456.082 360.332 458.109 359.269 459.562C356.533 460.538 352.915 459.812 350.079 459.461L350.044 458.79C349.947 456.854 349.59 454.309 350.943 452.812Z"/>
	<path fill="#262324" transform="scale(0.666667 0.666667)" d="M315.615 451.971C317.787 451.866 324.26 451.334 325.876 452.625C326.108 454.797 325.649 456.746 324.562 458.631C324.245 458.975 323.994 459.224 323.517 459.339C321.46 459.838 317.467 459.638 315.739 458.438C314.516 456.594 315.249 453.995 315.615 451.971Z"/>
	<path fill="#262324" transform="scale(0.666667 0.666667)" d="M287.013 447.938C289.482 447.813 292.31 447.667 294.729 448.214C296.004 448.502 296.513 448.371 297.75 448.145C298.994 447.918 299.683 447.578 300.729 448.312L300.761 449.51C300.633 451.559 299.359 457.806 297.938 459.156C296.936 459.04 296.471 459.183 295.732 458.438L297.767 450.938L297.467 449.812C296.028 449.523 295.068 449.427 293.625 449.729C292.747 450.321 292.185 450.771 291.725 451.748C290.728 453.863 292.028 453.329 292.591 454.875C292.181 456.387 291.484 457.701 290.781 459.09L285.197 458.898L288.641 449.438C287.873 448.987 287.493 448.691 287.013 447.938Z"/>
	<path fill="white" transform="scale(0.666667 0.666667)" d="M332.972 246.31C334.137 249.688 333.905 254.679 334.125 258.319C336.242 293.358 333.197 328.36 332.229 363.358L234.441 367.618L144.686 368.527L65.9319 363.879C65.1376 361.961 65.0873 359.337 64.8301 357.265L63.159 341.251L56.1115 263.404L53.0236 235.804L48.8459 207.082C53.8828 206.08 58.4382 203.399 63.4299 202.094C67.7941 200.952 73.5298 200.364 77.5642 202.965C78.9471 203.857 79.866 205.287 80.23 206.877L80.3361 207.375C81.1339 210.988 81.1235 214.616 81.0755 218.301C80.9696 226.431 79.8509 234.947 77.0839 242.625C75.7271 246.389 73.7452 249.962 71.9909 253.557L75.5625 252.236C79.2449 250.398 81.2498 246.334 82.5744 242.633C85.7676 233.711 86.3617 222.913 85.9387 213.496C85.7718 209.78 85.6345 205.737 83.9112 202.352C82.3124 199.212 79.4998 197.026 76.1736 195.953C66.9923 192.993 56.3711 197.853 48.2595 201.921C47.4634 200.779 47.4235 197.518 47.1344 196.048C44.9056 184.721 42.3673 171.664 34.4207 162.891L317.239 162.268C319.766 168.426 321.206 175.335 322.762 181.808C325.783 194.378 328.637 206.833 329.939 219.719C328.275 218.915 326.592 217.911 324.83 217.355C321.565 216.322 316.328 216.274 312.996 216.902C308.771 217.698 302.416 220.653 300.03 224.25C298.611 226.39 297.918 228.608 298.396 231.154C298.51 231.761 298.316 231.923 298.068 232.476L297.057 233.062L297.18 233.707C297.442 235.246 296.751 236.84 296.686 238.399L298.781 239.765L299.221 239.703C301.201 239.409 303.443 238.901 304.625 237.103C305.299 236.076 305.188 235.431 305.027 234.266C303.97 232.607 301.889 232.367 301.238 230.625C302.001 227.693 303.956 226.313 306.466 224.829C311.04 222.123 317.729 220.238 323.019 221.57L330.393 223.916L332.972 246.31Z"/>
	<path fill="#343134" transform="scale(0.666667 0.666667)" d="M296.686 238.399C295.591 237.538 295.332 236.643 295.192 235.302C295.056 234.01 295.046 232.768 295.875 231.708C297.016 231.614 297.101 231.825 298.068 232.476L297.057 233.062L297.18 233.707C297.442 235.246 296.751 236.84 296.686 238.399Z"/>
	<path fill="#262324" transform="scale(0.666667 0.666667)" d="M86.6879 240.562L87.2501 240.456C88.6146 240.279 89.4593 240.491 90.5625 241.268C91.4818 242.552 91.4921 243.32 91.4675 244.875C90.9155 246.257 89.9549 246.685 88.7169 247.421C87.9642 247.553 87.141 247.75 86.3817 247.599C85.5488 247.434 85.3051 247.247 84.8459 246.542C83.9713 245.199 84.1543 243.931 84.4513 242.438C85.1471 241.404 85.5664 241.108 86.6879 240.562Z"/>
	<path fill="#262324" transform="scale(0.666667 0.666667)" d="M121.856 251.438L122.29 251.511C124.255 251.927 126.213 252.834 128.161 253.389C130.93 254.178 137.01 254.763 138.607 257.253C138.411 258.442 138.268 258.542 137.438 259.437C135.793 260.14 133.852 259.911 132.132 259.664L131.438 259.559L130.277 259.388C128.438 259.072 121.814 257.601 120.908 256.314C121.017 254.537 120.77 252.879 121.856 251.438Z"/>
	<path fill="#C9C9C9" transform="scale(0.666667 0.666667)" d="M213.768 203.338C217.265 207.124 221.998 213.264 222.005 218.584C222.007 220.212 221.222 221.134 220.07 222.188L216.938 224.788L216.265 224.467C214.99 224.74 213.87 224.674 212.721 223.924C212.033 223.474 211.65 223.17 210.839 222.928L211.316 222.562L211.502 222.094C212.713 222.245 214.462 223.201 215.441 222.938C216.281 222.712 217.201 222.701 218.064 222.656L217.569 222.414C215.736 221.508 214.165 220.436 212.438 219.409L211.201 218.889C210.702 219.94 210.365 220.291 210.563 221.46C209.197 221.43 207.448 221.61 206.171 221.156C207.125 221.03 208.541 220.864 209.28 220.218C210.218 219.398 210.693 217.608 211.081 216.428C212.503 212.102 213.483 207.886 213.768 203.338Z"/>
	<path fill="#262324" transform="scale(0.666667 0.666667)" d="M200.614 310.907C202.05 310.738 203.557 310.615 204.968 310.986C206.931 311.502 208.932 312.908 209.854 314.756C210.852 316.758 211.17 319.798 210.437 321.914C209.467 324.714 207.359 325.966 204.789 327.129C203.831 327.286 203.019 327.386 202.052 327.237C199.82 326.892 197.486 325.8 196.254 323.82C194.97 321.758 194.653 318.767 195.331 316.453C196.144 313.68 198.237 312.244 200.614 310.907Z"/>
	<path fill="#262324" transform="scale(0.666667 0.666667)" d="M199.874 219.05C199.337 219.706 199.102 220.115 198.188 220.248C197.047 220.413 195.768 220.292 194.908 219.562C194.874 216.713 196.368 213.399 197.038 210.589C197.804 207.373 198.057 203.603 199.307 200.569C200.023 198.833 201.287 197.163 203.109 196.512C204.632 195.968 207.253 196.329 208.676 197.034C211.422 198.396 212.819 200.498 213.768 203.338C213.483 207.886 212.503 212.102 211.081 216.428C210.693 217.608 210.218 219.398 209.28 220.218C208.541 220.864 207.125 221.03 206.171 221.156L205.289 220.224L204.954 219.785C203.809 218.657 201.898 219.155 200.425 219.085L199.874 219.05Z"/>
	<path fill="#C9C9C9" transform="scale(0.666667 0.666667)" d="M199.874 219.05L203.234 209.841C204.089 207.423 204.888 204.467 207 202.851C208.056 202.94 207.982 203.153 208.688 203.878C210.35 208.818 205.849 215.277 205.289 220.224L204.954 219.785C203.809 218.657 201.898 219.155 200.425 219.085L199.874 219.05Z"/>
	<path fill="#262324" transform="scale(0.666667 0.666667)" d="M148.976 214.18C150.299 215.943 151.635 217.741 152.336 219.855C152.879 221.492 152.535 222.365 151.771 223.775C150.858 224.353 150.873 224.404 149.812 224.262C148.015 222.779 147.81 221.011 147.381 218.836C147.355 218.708 147.274 218.198 147.192 218.069C146.858 217.542 146.736 217.541 146.191 217.308C144.885 216.751 143.52 216.287 142.315 215.521C139.565 213.774 137.661 210.136 137.139 206.987C136.837 205.162 137.357 203.316 138.474 201.84C140.248 199.493 142.533 198.315 145.444 198.066C148.167 197.833 151.717 198.145 153.846 200.062C154.654 200.791 155.351 201.681 155.795 202.678C156.984 205.346 156.71 208.609 157.708 211.377C159.183 215.466 163.26 220.175 163.45 224.498C163.51 225.875 163.36 225.971 162.436 226.996C161.296 227.445 160.394 227.794 159.188 227.318C156.742 226.352 156.686 222.088 156.01 219.903L153.733 213.416C152.299 212.956 151.286 212.38 149.862 213.237C149.454 213.483 149.237 213.803 148.976 214.18Z"/>
	<path fill="#ACACAF" transform="scale(0.666667 0.666667)" d="M148.976 214.18C147.476 212.766 145.47 212.971 144.127 211.413C143.188 210.323 142.304 208.415 142.622 206.935C142.947 205.428 143.728 204.811 144.938 204.029C146.514 203.809 148.387 203.546 149.831 204.403C152.789 206.157 153.136 210.393 153.733 213.416C152.299 212.956 151.286 212.38 149.862 213.237C149.454 213.483 149.237 213.803 148.976 214.18Z"/>
	<path fill="#262324" transform="scale(0.666667 0.666667)" d="M90.7749 269.038C95.7805 268.794 101.145 269.123 106.125 269.747C109.277 270.142 112.126 270.709 115.338 270.765C114.23 272.46 113.348 273.952 111.375 274.595L109.125 273.166L108.817 273.562L109.964 274.688C110.183 275.587 110.37 275.601 109.91 276.479C108.1 279.944 101.796 280.594 98.3367 281.58C96.2012 281.333 94.3282 280.551 92.137 280.481C86.1195 280.288 78.0313 282.503 72.4478 280.03C71.6115 279.029 71.4369 278.609 71.2907 277.312C71.529 276.463 71.7353 275.788 72.3193 275.108C76.7432 269.957 84.5226 269.346 90.7749 269.038Z"/>
	<path fill="#262324" transform="scale(0.666667 0.666667)" d="M180.823 198.154C184.196 198.288 187.09 198.331 190.124 199.996C192.312 201.196 193.789 203.283 194.394 205.688C195.145 208.674 194.942 213.647 193.238 216.271C191.448 219.026 188.851 219.891 185.839 220.603C181.588 220.611 177.658 220.541 174.132 217.787C171.647 215.846 171.319 213.155 171.063 210.188C170.804 207.195 170.848 202.967 172.985 200.624C174.992 198.424 178.07 198.349 180.823 198.154Z"/>
	<path fill="#C9C9C9" transform="scale(0.666667 0.666667)" d="M183.042 202.7L187.031 203.315C188.199 204.12 189.43 204.952 189.729 206.438C190.194 208.746 189.903 212.285 188.482 214.228C187.771 215.199 186.615 215.774 185.438 215.937C183.558 216.198 181.572 215.826 179.739 215.431C183.366 215.004 181.457 214.183 182.478 211.849C182.602 211.564 183.645 210.839 183.934 210.589C184.008 207.867 183.75 205.33 183.042 202.7Z"/>
	<path fill="#E5E5E6" transform="scale(0.666667 0.666667)" d="M183.042 202.7L187.031 203.315C186.232 205.758 185.719 208.69 183.934 210.589C184.008 207.867 183.75 205.33 183.042 202.7Z"/>
	<path fill="white" transform="scale(0.666667 0.666667)" d="M179.739 215.431C178.071 214.683 176.587 213.929 175.45 212.438C174.482 211.168 173.904 209.373 174.195 207.791L174.281 207.375C174.553 206.002 174.969 205.121 176.053 204.188C178.132 202.396 180.494 202.469 183.042 202.7C183.75 205.33 184.008 207.867 183.934 210.589C183.645 210.839 182.602 211.564 182.478 211.849C181.457 214.183 183.366 215.004 179.739 215.431Z"/>
	<path fill="#262324" transform="scale(0.666667 0.666667)" d="M179.049 345.508C182.327 345.093 185.769 345.327 189.071 345.363L207.395 345.657C217.761 345.76 228.596 345.057 238.896 345.945C240.598 346.092 242.303 346.296 243.726 347.326C245.54 348.639 246.425 350.337 246.812 352.5C247.171 354.502 246.843 357.034 245.559 358.688C242.434 362.712 233.004 360.882 228.328 361.387C226.789 361.554 224.915 361.927 223.392 361.668C222.299 361.482 222.156 361.203 221.542 360.375C221.504 358.926 221.541 357.161 222.737 356.112C223.844 355.143 225.781 355.151 227.168 355.071L237.562 354.678C238.607 353.68 238.413 353.336 238.518 351.938C238.357 351.662 238.283 351.311 238.034 351.11C237.412 350.606 231.604 350.822 230.515 350.803C224.164 350.69 179.86 350.86 177.583 349.042C176.979 348.56 177.096 348.161 176.971 347.438C177.617 346.319 177.974 346.162 179.049 345.508Z"/>
	<path fill="#262324" transform="scale(0.666667 0.666667)" d="M105.472 214.531C106.954 214.396 108.818 214.3 110.275 214.689C114.045 215.695 116.589 218.113 118.553 221.351L117.074 227.807C116.777 228.701 116.549 229.376 116.718 230.332C117.348 233.897 120.931 237.646 124.208 239.036C125.735 239.683 127.636 239.95 128.983 240.914C129.7 241.427 129.477 241.142 129.63 242.062C128.931 242.501 128.28 242.933 127.646 243.46L128.885 244.376C129.542 244.805 129.396 244.777 129.588 245.485C128.559 246.586 128.651 246.604 127.036 246.716L123.892 246.092C116.324 244.431 104.287 240.81 100.05 233.812C98.0802 230.559 97.3365 227.405 98.3674 223.738C99.5064 219.688 101.818 216.613 105.472 214.531Z"/>
	<path fill="#C9C9C9" transform="scale(0.666667 0.666667)" d="M107.214 220.312C107.855 220.257 107.754 220.238 108.33 220.277C110.584 220.429 111.854 221.038 113.336 222.73C113.946 224.581 112.742 226.964 112.557 228.891C112.22 232.393 114.003 234.917 116.131 237.47L115.688 237.777L114.28 237.192C110.892 235.645 104.602 233.048 103.249 229.37C102.508 227.356 102.986 225.438 103.893 223.55C104.651 221.973 105.581 220.939 107.214 220.312Z"/>
	<path fill="#C9C9C9" transform="scale(0.666667 0.666667)" d="M298.781 239.765L299.221 239.703C301.201 239.409 303.443 238.901 304.625 237.103C305.299 236.076 305.188 235.431 305.027 234.266C303.97 232.607 301.889 232.367 301.238 230.625C302.001 227.693 303.956 226.313 306.466 224.829C311.04 222.123 317.729 220.238 323.019 221.57L330.393 223.916L332.972 246.31L332.613 246.001C330.942 248.437 329.023 249.614 326.131 250.21C321.777 251.107 315.942 251.705 312.021 249.321L310.688 248.494L310.334 248.482C306.331 248.272 302.328 245.459 298.529 245.618C296.325 245.711 294.078 246.916 292.11 247.854C289.363 249.163 286.789 250.343 284.438 252.29C283.471 253.089 282.639 253.515 281.449 253.898L281.307 254.915C282.399 256.016 283.084 256.742 283.053 258.425C283.032 259.515 282.657 260.292 281.816 260.971C280.938 261.681 279.241 262.011 278.16 262.334C277.532 262.708 277.071 263 276.529 263.488C275.759 264.181 274.195 264.654 273.622 265.323C272.793 266.288 271.816 268.73 271.716 269.999L271.691 270.375L271.628 270.95L271.594 271.314L271.177 271.375L270.865 271.881C266.893 267.198 262.837 262.518 258.111 258.567C255.753 256.596 252.93 255.041 250.742 252.916L250.654 252.291C250.276 252.08 249.924 251.895 249.517 251.742L249.188 251.625C248.879 250.842 248.922 250.819 249.167 250.005C250.309 249.99 251.307 249.989 252.409 249.634C251.117 249.607 249.993 249.497 248.741 249.161L248.396 249.064C252.268 249.06 256.372 249.317 260.206 248.784L260.812 248.693C264.106 248.219 268.071 247.277 270.474 244.786C270.702 245.318 270.948 245.909 271.312 246.361C272.041 247.266 274.581 249.077 275.714 249.212C281.835 249.939 291.425 245.492 296.06 241.68C296.933 240.962 297.824 240.364 298.781 239.765Z"/>
	<path fill="#262324" transform="scale(0.666667 0.666667)" d="M267.201 248.062L268.491 247.976C268.674 248.727 268.176 249.47 267.784 250.125C267.23 251.051 266.708 251.501 265.658 251.812L264.367 250.875L264.249 249.938C265.183 248.912 265.911 248.549 267.201 248.062Z"/>
	<path fill="#262324" transform="scale(0.666667 0.666667)" d="M278.16 262.334L275.062 262.046L274.688 261.588C275.456 261.385 276.161 261.113 276.896 260.812C274.621 258.861 271.984 258.888 270.517 255.717C270.692 255.109 270.577 255.036 271.174 254.684C273.194 253.493 278.974 254.394 281.307 254.915C282.399 256.016 283.084 256.742 283.053 258.425C283.032 259.515 282.657 260.292 281.816 260.971C280.938 261.681 279.241 262.011 278.16 262.334Z"/>
	<path fill="#262324" transform="scale(0.666667 0.666667)" d="M310.688 248.494C310.589 247.405 310.468 247.27 311.062 246.376C314.269 246.394 317.627 246.597 320.817 246.323C324.234 246.03 328.802 244.265 332.062 244.832L332.613 246.001C330.942 248.437 329.023 249.614 326.131 250.21C321.777 251.107 315.942 251.705 312.021 249.321L310.688 248.494Z"/>
	<path fill="#262324" transform="scale(0.666667 0.666667)" d="M270.865 271.881C274.341 275.945 278.09 281.166 279.484 286.402C279.529 286.574 279.489 286.796 279.617 286.92C279.924 287.221 288.643 287.485 290.025 287.607C297.78 288.291 303.755 290.861 309.777 295.708C304.403 294.638 299.121 293.533 293.667 292.922C277.182 291.076 260.137 291.452 243.562 291.174L151.957 291.314L114.037 293.755C103.03 294.736 92.0167 296.115 80.9694 296.461C79.427 295.628 78.1009 294.762 77.4412 293.062C77.565 292.762 77.5837 292.391 77.8125 292.16C79.5402 290.415 87.2321 290.29 89.7847 290.031L127.951 286.672C128.059 286.662 128.93 286.588 128.931 286.587C129.147 286.362 129.6 283.27 129.728 282.75C130.514 279.573 131.74 276.501 132.997 273.487C137.039 263.796 141.97 255.304 149.268 247.704C161.959 234.486 179.095 228.187 197.205 227.957C202.606 227.888 208.058 228.658 213.418 228.492C219.822 228.293 227.082 232.6 231.815 236.656C234.866 239.272 237.585 242.233 241.08 244.266C245.515 240.835 247.778 235.097 250.655 230.438C252.172 227.982 254.077 225.575 255.938 223.37C259.808 218.782 265.343 214.084 271.645 213.821C274.018 213.722 276.52 214.76 278.179 216.442C281.179 219.487 281.726 223.21 281.569 227.3C281.253 235.587 276.006 239.662 270.474 244.786C268.071 247.277 264.106 248.219 260.812 248.693L260.206 248.784C256.372 249.317 252.268 249.06 248.396 249.064L248.741 249.161C249.993 249.497 251.117 249.607 252.409 249.634C251.307 249.989 250.309 249.99 249.167 250.005C248.922 250.819 248.879 250.842 249.188 251.625L249.517 251.742C249.924 251.895 250.276 252.08 250.654 252.291L250.742 252.916C252.93 255.041 255.753 256.596 258.111 258.567C262.837 262.518 266.893 267.198 270.865 271.881Z"/>
	<path fill="#E5E5E6" transform="scale(0.666667 0.666667)" d="M200.982 264.418C202.013 266.82 202.23 269.743 202.959 272.284C203.313 273.518 204.088 274.352 204.427 275.687L202.5 275.227C201.155 274.164 200.592 273.302 200.311 271.59C199.97 269.505 199.72 266.186 200.982 264.418Z"/>
	<path fill="white" transform="scale(0.666667 0.666667)" d="M263.567 222.207C266.155 220.608 270.436 218.231 273.562 219.068C274.824 219.406 275.943 220.442 276.439 221.632C277.202 223.462 276.662 226.043 276.115 227.873C272.25 226.59 268.867 223.156 264.755 222.979C264.135 222.952 264.008 222.622 263.567 222.207Z"/>
	<path fill="#C9C9C9" transform="scale(0.666667 0.666667)" d="M276.115 227.873C274.345 232.145 271.74 235.933 268.422 239.163C263.483 243.97 256.393 243.74 249.929 243.679L251.782 236.959C253.707 231.604 258.299 224.726 263.567 222.207C264.008 222.622 264.135 222.952 264.755 222.979C268.867 223.156 272.25 226.59 276.115 227.873Z"/>
	<path fill="white" transform="scale(0.666667 0.666667)" d="M200.982 264.418L201.562 263.377C204.596 262.874 208.053 263.275 211.125 263.416C218.765 263.767 226.726 264.635 234.347 263.952C236.375 266.483 238.537 270.749 238.215 274.125C238.159 274.714 237.984 275.251 237.809 275.812C234.532 277.776 209.558 276.235 204.427 275.687C204.088 274.352 203.313 273.518 202.959 272.284C202.23 269.743 202.013 266.82 200.982 264.418Z"/>
	<path fill="#C9C9C9" transform="scale(0.666667 0.666667)" d="M175.193 284.609L174.958 284.45C173.848 285.01 172.11 284.817 170.853 284.855L161.195 285.114C165.903 277.038 170.659 268.828 176.325 261.38C180.911 255.352 185.444 250.147 192.7 247.519C193.532 252.75 192.78 257.567 190.123 262.123L189.559 263.25L188.714 264.936C188.354 265.645 188.488 265.385 188.038 266.074C187.699 266.595 187.589 267.045 187.309 267.562L186.934 268.125L186.677 268.651C185.457 271.095 183.589 273.52 182.062 275.801L180.811 277.385C179.004 279.505 176.639 282.272 175.193 284.609Z"/>
	<defs>
		<linearGradient id="gradient_0" gradientUnits="userSpaceOnUse" x1="162.839" y1="243.092" x2="248.29401" y2="313.797">
			<stop offset="0" stop-color="#D6D6D7"/>
			<stop offset="1" stop-color="white"/>
		</linearGradient>
	</defs>
	<path fill="url(#gradient_0)" transform="scale(0.666667 0.666667)" d="M192.7 247.519C197.788 246.798 202.655 247.027 207.75 247.351C214.713 247.794 221.682 248.22 227.416 252.682C230.19 254.841 232.049 257.136 233.604 260.289L233.12 259.978C231.949 259.232 230.709 258.463 229.339 258.168C225.851 257.416 221.351 258.192 217.748 258.22L205.001 257.985C207.609 257.207 210.794 256.734 212.168 254.062C212.443 253.529 212.434 253.448 212.55 252.938L212.062 252.314C207.595 252.157 203.932 253.49 200.678 256.599C197.179 259.941 195.275 264.451 195.242 269.273C195.221 272.358 195.915 274.958 198.213 277.141C199.412 278.279 200.86 279.056 202.468 279.44C206.735 280.46 211.894 280.141 216.289 280.249C222.513 280.4 228.91 280.803 235.125 280.507C237.125 280.412 239.476 279.667 240.777 278.062C242.231 276.268 242.025 273.568 241.69 271.432C240.304 262.594 234.383 252.249 227.097 247C224.834 245.37 222.255 244.354 219.562 243.689L218.878 243.515C215.292 242.632 211.291 242.395 207.607 242.163C199.168 241.63 190.936 241.376 183.512 246.025C178.125 249.398 174.119 255.153 170.472 260.248C164.988 267.909 159.145 276.451 155.713 285.256L135.683 286.302C140.924 267.78 152.347 250.639 169.371 241.103C180.451 234.896 191.954 233.466 204.472 234.032C209.657 234.267 215.224 234.753 220.233 236.185C222.749 236.904 225.245 238.187 227.393 239.67C231.472 242.487 234.849 246.888 239.205 249.142C239.323 249.202 240.312 249.732 240.434 249.713C241.011 249.627 242.497 248.736 243.035 248.438L244.009 247.816C245.452 248.265 246.907 248.805 248.396 249.064L248.741 249.161C249.993 249.497 251.117 249.607 252.409 249.634C251.307 249.989 250.309 249.99 249.167 250.005C248.922 250.819 248.879 250.842 249.188 251.625L249.517 251.742C249.924 251.895 250.276 252.08 250.654 252.291L250.742 252.916C249.517 252.422 248.426 251.776 247.093 252.188C246.667 252.683 246.035 253.068 246.134 253.769C246.422 255.804 249.217 257.981 250.659 259.422C254.693 263.452 258.978 267.311 262.692 271.642C266.797 276.429 270.053 281.537 273.453 286.815L175.193 284.609C176.639 282.272 179.004 279.505 180.811 277.385L182.062 275.801C183.589 273.52 185.457 271.095 186.677 268.651L186.934 268.125L187.309 267.562C187.589 267.045 187.699 266.595 188.038 266.074C188.488 265.385 188.354 265.645 188.714 264.936L189.559 263.25L190.123 262.123C192.78 257.567 193.532 252.75 192.7 247.519Z"/>
	<path fill="#262324" transform="scale(0.666667 0.666667)" d="M520.601 18.3648L526.859 19.0165C542.617 21.4306 555.884 36.8342 564.141 49.5317C566.861 53.7155 568.96 58.3767 571.777 62.4639C574.218 66.005 577.937 68.7285 580.541 72.2829C592.253 88.2691 602.069 124.771 598.94 144.587C598.725 145.95 603.995 157.816 604.749 159.968C607.631 168.194 609.761 176.906 613.967 184.58C620.447 196.404 632.725 206.645 643.09 214.997C652.028 222.2 661.207 229.452 667.401 239.311C671.861 246.409 674.248 255.782 672.205 264.056L672.023 264.75L670.296 269.995C665.567 281.271 653.896 290.19 642.821 294.721C652.851 308.41 660.9 323.077 668.588 338.174C674.289 349.371 679.784 360.512 684.001 372.375C685.801 377.439 687.605 382.654 688.945 387.858C689.768 391.055 690.225 394.315 691.222 397.471C691.735 387.605 693.865 378.072 695.842 368.426C699.404 351.051 702.844 328.19 716.226 315.352C720.424 311.324 726.234 308.056 732.23 308.345C734.567 308.458 736.138 308.991 737.762 310.688C738.134 311.763 738.334 312.001 738.015 313.125C737.181 313.961 736.435 314.091 735.328 314.341L734.885 314.438C736.577 315.873 738.117 316.68 739.451 318.573C750.163 333.77 742.308 381.558 739.237 399.823L730.467 448.041L714.049 520.125L703.51 569.623C701.606 577.313 699.709 585.139 696.808 592.525C694.5 598.402 691.914 602.898 686.679 606.579L686.235 606.886C686.925 610.175 687.451 613.235 687.062 616.61C686.58 620.784 685.119 624.677 681.672 627.291C679.495 628.943 676.782 629.962 674.105 630.442C666.625 631.784 658.679 630.996 651.155 630.457C628.77 628.855 606.868 624.854 584.675 621.706L577.985 648.108L580.688 648.745C581.728 649.096 582.81 649.932 583.181 651C583.509 651.946 583.553 652.55 583.121 653.438L582.701 653.511C578.919 653.957 574.022 653.218 570.188 652.839C568.798 652.701 567.544 652.79 566.445 651.879L566.634 650.062C568.184 648.288 571.056 648.405 573.248 648.229L578.166 622.701C575.8 624.879 572.909 626.863 569.667 627.375C566.496 627.876 565.173 627.003 562.765 625.204C561.613 625.928 560.333 626.802 558.986 627.106C556.574 627.649 553.722 627.504 551.238 627.606C543.145 627.939 534.765 628.036 526.682 627.488C516.925 626.828 505.921 624.731 499.197 616.926C496.116 613.349 495.118 610.161 495.475 605.506C495.66 603.094 497.021 596.826 499.104 595.312L499.684 594.938C496.896 594.397 494.047 593.17 491.336 592.289C481.227 589.003 471.583 585.014 462.1 580.205C456.949 577.593 451.743 574.886 447.071 571.473L446.699 571.198L379.706 691.587C377.075 696.187 371.501 701.187 366.188 702.311C362.236 703.146 358.163 700.432 354.969 698.416C354.096 699.872 353.505 701.461 352.633 702.913C351.346 705.054 349.644 706.932 348.003 708.804C350.508 710.859 352.406 713.493 354.173 716.177L357.079 711.773C358.527 709.36 360.038 705.1 362.812 704.256C364.053 704.405 364.416 704.282 365.322 705.188C364.347 711.209 358.856 716.716 355.889 721.961L377.987 721.859C381.082 721.994 386.524 722.05 388.761 724.5L388.157 725.005C383.056 726.124 377.352 725.978 372.129 726.112L347.683 726.778L262.95 730.753C261.777 730.793 260.83 730.716 259.688 730.409L259.208 729.562L259.522 728.625C262.616 725.327 293.245 724.972 299.483 724.577C302.683 713.677 316.078 708.205 325.511 703.734C329.124 702.022 332.767 700.674 335.75 697.908C338.885 694.999 340.962 690.646 342.856 686.864C342.758 685.706 340.459 683.703 339.617 682.76C338.143 684.56 336.727 686.257 334.87 687.685C328.79 692.358 321.174 695.878 314.29 699.188C309.478 701.501 304.804 704.138 299.438 704.816C298.528 704.044 298.298 703.65 297.932 702.562C300.269 700.328 304.928 698.882 307.875 697.433C313.165 694.832 318.703 692.135 323.716 689.044C328.133 686.322 329.82 683.252 332.683 679.125C334.321 676.763 336.161 674.747 337.648 672.244C343.098 663.071 347.153 653.125 351.429 643.373C356.723 631.303 362.816 618.684 365.824 605.821C360.425 615.521 353.881 624.523 347.776 633.777L338.228 648.071C335.802 651.674 333.419 655.461 330.509 658.696C328.239 661.218 325.951 663.077 322.762 664.299C318.429 663.647 315.187 662.334 311.21 660.489L300.7 673.782L303.663 675.005C304.387 675.278 306.807 676.23 307.509 676.132C307.771 676.096 308.589 675.339 308.852 675.132C311.609 672.961 313.933 668.711 317.007 667.287C318.191 667.333 318.376 667.278 319.312 667.972C318.875 671.774 315.984 675.87 314.127 679.14C308.867 688.402 298.468 698.456 287.876 701.125C281.417 702.753 274.067 701.142 267.607 700.167C263.428 699.537 257.943 699.007 254.303 696.711C253.343 696.106 252.482 695.31 252.319 694.155C252.153 692.971 252.753 691.997 253.451 691.104C253.9 690.528 254.233 690.143 254.47 689.438C253.791 688.814 253.42 688.433 253.097 687.562C253.237 687.188 253.321 686.786 253.518 686.438C253.833 685.881 255.042 685.117 255.567 684.758C257.848 683.196 260.256 681.815 262.657 680.449L278.327 671.587C282.258 669.283 286.332 666.9 289.616 663.701C291.814 661.56 293.272 658.844 294.697 656.163C302.226 641.998 305.743 625.675 310.159 610.324C318.351 581.847 327.054 554.158 339.714 527.289C344.188 517.794 348.995 507.678 356.253 499.97C367.104 488.444 383.551 486.558 398.521 485.365L422.439 484.104C423.25 478.51 425.372 473.307 428.945 468.894C431.518 465.715 434.652 463.38 438.706 462.472C444.204 461.241 450.744 462.171 456.392 462.301L493.856 463.064C502.578 463.404 510.689 464.808 519.472 463.845C532.551 462.412 546.158 457.102 554.496 446.505C558.112 441.908 560.561 436.799 562.494 431.3C568.512 414.182 567.125 397.485 564.123 379.968L559.124 358.038C555.587 344.474 551.298 331.595 552.516 317.355C552.92 312.637 553.903 307.721 556.144 303.505C558.288 299.47 562.851 292.434 567.375 291.07C568.59 291.301 568.581 291.367 569.396 292.312C569.377 295.04 565.823 298.218 564.216 300.447C562.716 302.528 561.329 304.753 560.307 307.11C557.938 312.579 557.312 318.254 557.347 324.164C557.419 336.353 561.28 347.327 564.579 358.892C569.866 377.431 573.883 397.46 571.272 416.788C569.957 426.525 566.815 436.941 561.484 445.261C551.861 460.284 535.429 468.008 517.909 469.075C514.006 469.313 509.988 469.29 506.091 468.963C502.652 468.675 498.315 467.649 494.941 468.143C493.261 468.389 492.07 468.941 490.75 470.005C487.276 472.803 485.741 477.237 485.156 481.5C484.889 483.441 484.901 485.354 484.985 487.308C485.212 492.601 486.843 497.639 490.852 501.276C499.512 509.135 515.368 509.362 526.411 508.829C533.379 508.492 540.166 507.099 546.938 505.497C573.641 499.179 597.413 484.77 609.555 459.223C611.051 456.075 612.287 452.835 613.331 449.51C614.553 445.616 615.257 439.625 618 436.603L618.562 436.813C621.955 445.26 618.108 454.365 614.82 462.271C608.974 476.323 601.871 489.269 588.753 497.792C583.679 501.088 578.132 503.409 572.566 505.717C573.046 507.534 574.69 509.59 575.838 511.072C584.039 521.652 595.683 530.897 609.324 532.53C619.804 533.785 632.168 532.653 642.267 529.717C646.382 528.52 650.458 527.032 653.841 524.32C659.638 519.674 663.621 512.633 666.595 505.931C673.817 489.651 677.406 471.429 680.918 454.037C684.347 437.059 687.497 420.327 689.283 403.074C687.166 398.837 686.054 394.176 684.633 389.677L678.208 371.262C673.624 359.743 668.281 348.906 662.618 337.886C649.149 311.675 633.215 284.623 609.422 266.497C598.058 257.84 580.649 246.506 565.572 248.759C542.287 252.238 540.219 277.997 539.625 296.752C539.56 298.792 539.839 304.715 538.757 306.188L538.125 306.019C534.012 300.761 535.422 290.281 536.028 283.978C531.942 287.308 527.172 290.571 522.256 292.548C518.982 293.864 513.751 295.325 510.31 293.771C504.91 291.333 500.227 281.298 498.231 276.041C494.458 266.102 495.112 251.07 499.57 241.476C503.098 233.882 510.739 229.934 517.588 225.763C520.531 223.971 523.444 221.912 526.704 220.755L527.165 220.599C527.114 217.04 527.013 213.831 527.359 210.249C523.237 211.574 519.784 212.018 515.438 211.878C501.605 211.434 491.004 204.888 481.736 195.091C468.286 180.875 460.409 159.597 460.962 140.119L458.058 140.794C454.048 141.615 449.161 142.5 445.168 141.278C442.104 140.34 439.913 138.226 437.489 136.264C435.359 134.541 433.164 132.987 430.88 131.476C430.919 132.323 432.241 134.17 432.657 135.014C434.115 137.971 435.99 141.762 436.524 145.013L436.595 145.5C436.815 146.884 436.967 148.263 436.495 149.625C435.1 153.655 427.453 154.166 423.938 154.97C421.897 155.437 419.811 156.114 417.925 157.022C414.518 158.661 412.277 161.3 409.125 163.102L408.562 162.729C407.92 161.666 407.384 160.742 407.561 159.457C408.322 153.955 419.388 150.322 423.938 149.293C425.963 148.835 431.049 148.741 432.489 147.562C432.432 142.655 428.761 137.91 427.283 133.249C426.876 131.964 426.907 129.504 426.372 128.491C426.185 128.139 425.12 127.342 424.78 127.029L420.272 122.812C416.432 119.105 413.599 115.115 411.324 110.285L411.144 109.895C410.152 112.99 409.043 115.702 406.844 118.163C402.89 122.588 397.412 125.311 391.529 125.678C391.571 130.832 390.7 135.973 391.264 141.12C392.001 147.846 394.287 154.137 397.338 160.149C399.425 164.262 401.943 168.143 403.756 172.398C404.975 175.258 405.693 178.305 406.445 181.313L409.579 172.898L413.727 172.7C413.496 170.824 412.878 166.921 413.965 165.356C415.494 163.151 417.612 161.729 419.985 160.567C425.893 157.673 433 156.311 439.331 154.507C442.767 153.528 446.491 152.082 449.988 151.547C451.664 151.291 452.851 151.54 454.204 152.556C454.715 153.621 454.782 153.717 454.601 154.875C452.378 157.553 444.399 158.235 440.795 159.09L427.861 162.562C425.723 163.2 420.504 164.692 419.581 166.82C418.527 169.25 418.998 172.753 419.805 175.195C420.856 178.373 423.156 184.05 426.274 185.65C425.097 183.031 420.994 176.068 421.644 173.438C422.151 173.251 422.518 173.158 423.063 173.225C423.351 173.26 424.045 173.309 424.3 173.438C425.247 173.917 426.243 175.666 426.807 176.582C428.654 179.575 430.112 182.568 432.245 185.381C433.28 186.747 433.702 187.838 433.376 189.571C432.288 195.354 427.416 200.337 422.624 203.41C418.382 206.131 413.556 207.954 408.822 209.625C406.497 210.445 404.116 211.458 401.63 210.859L401.25 210.756L400.592 211.142C397.496 219.498 394.349 227.559 392.886 236.398C397.803 234.476 402.397 231.507 407.039 228.983C406.828 227.099 405.789 224.555 406.155 222.754C407.199 222.489 407.48 222.65 408.528 222.967C409.45 224.074 409.699 225.04 409.836 226.472C410.384 232.175 407.617 238.973 403.252 242.722C402.022 243.779 400.374 244.313 399.188 245.401C398.238 246.272 397.768 247.617 396.927 248.591C395.861 249.824 394.62 250.868 392.928 250.94C390.75 251.032 389.226 250.352 387.681 248.871C386.47 247.71 385.629 246.706 385.654 244.976C385.669 243.972 385.77 244.494 385.415 243.562C384.403 243.802 383.87 244.063 382.864 243.75C382.778 243.331 382.747 243.311 382.796 242.812C383.082 239.892 386.561 238.17 388.728 236.758C389.725 233.551 390.016 230.218 390.039 226.875C388.298 223.966 383.373 226.159 381.188 223.806C380.211 222.755 380.305 221.819 380.265 220.5C380.938 219.386 381.192 218.903 382.5 218.574C385.358 217.855 389.402 220.847 391.897 222.201C395.008 215.712 396.469 208.392 399.755 202.044C400.099 201.379 399.995 201.801 399.938 200.869L398.888 201.403C397.368 202.038 395.106 201.81 393.652 201.078C392.33 200.413 390.977 199.071 390.116 197.877C388.599 195.771 387.494 193.136 386.413 190.783C384.713 187.083 382.968 183.273 381.801 179.371C381.328 177.79 380.922 175.887 381.75 174.375C385.481 170.719 392.098 169.69 397.116 169.453C388.36 156.386 386.014 142.31 386.345 126.856C378.936 126.972 372.347 124.264 366.863 119.201C361.993 114.706 358.618 108.676 358.426 101.952C358.195 93.843 360.626 86.3872 366.35 80.5067C372.311 74.3816 381.512 70.8036 390.01 70.8174C398.494 70.8311 404.641 73.2827 410.61 79.3006C411.927 77.3111 412.448 74.5676 413.823 72.3846C419.178 63.8877 426.631 56.237 434.296 49.7653C443.936 41.6264 455.642 35.5218 468.347 34.3342C472.888 33.9097 477.491 34.2746 482.023 34.6489C482.605 30.8401 483.467 27.7276 486.007 24.7024C488.232 22.0539 490.895 20.5746 494.357 20.3287C499.606 19.956 504.693 21.8382 508.55 25.38C511.934 28.4877 514.767 33.0438 515.77 37.5431C516.032 38.7207 515.896 40.3831 516.271 41.4498C516.459 41.985 518.736 43.7351 519.245 44.209L529.516 54.1875C545.374 70.7078 555.322 92.4351 560.363 114.557C561.813 120.921 563.142 127.475 563.459 134.006C569.519 129.164 575.674 127.014 583.325 126.166L570.253 77.8298C567.366 70.2533 564.013 62.426 559.897 55.4414C553.011 43.7579 543.088 33.0133 532.008 25.2637C528.341 22.6985 524.693 20.2146 520.601 18.3648Z"/>
	<path fill="white" transform="scale(0.666667 0.666667)" d="M581.313 152.062L582.379 151.942L582.53 152.438C581.849 154.825 581.299 156.826 579.562 158.692C578.786 159.026 579.163 159.013 578.438 158.825L579.048 154.688C579.416 153.311 580.122 152.738 581.313 152.062Z"/>
	<path fill="white" transform="scale(0.666667 0.666667)" d="M573.275 153.562C573.953 153.462 573.566 153.451 574.421 153.75C574.626 155.774 574.219 157.705 573.788 159.677C573.647 160.321 573.525 160.23 573 160.569L571.688 160.008L570.188 158.882C570.051 158.234 569.924 157.996 570.113 157.336C570.606 155.621 571.783 154.444 573.275 153.562Z"/>
	<path fill="#C9C9C9" transform="scale(0.666667 0.666667)" d="M492.784 27.0084L493.571 27.5743L493.389 27.9241C492.472 29.7889 492.481 31.7359 492.845 33.75L492.084 34.294C490.844 34.2097 488.878 34.3459 487.881 33.5625C488.629 31.1617 490.669 28.3585 492.784 27.0084Z"/>
	<path fill="#ACACAF" transform="scale(0.666667 0.666667)" d="M492.784 27.0084C493.681 26.4653 493.684 26.3061 494.69 26.5262L495.015 26.8252C496.124 27.8297 497.226 28.6066 498.511 29.3669L497.051 29.4934L496.413 34.8904L492.084 34.294L492.845 33.75C492.481 31.7359 492.472 29.7889 493.389 27.9241L493.571 27.5743L492.784 27.0084Z"/>
	<path fill="#C9C9C9" transform="scale(0.666667 0.666667)" d="M496.413 34.8904L497.051 29.4934L498.511 29.3669C501.784 31.8729 503.949 34.1203 506.22 37.5687C502.955 36.3459 499.842 35.4892 496.413 34.8904Z"/>
	<path fill="white" transform="scale(0.666667 0.666667)" d="M345.046 714.982L350.347 722.202L338.678 722.682L332.914 723.103C338.508 721.192 341.375 719.614 345.046 714.982Z"/>
	<path fill="white" transform="scale(0.666667 0.666667)" d="M301.752 653.03L307.14 657.543L298.641 666.669L297.562 667.532C295.994 667.313 295.289 666.362 294.135 665.344C294.615 663.809 295.776 662.313 296.604 660.938C298.241 658.216 299.866 655.59 301.752 653.03Z"/>
	<path fill="white" transform="scale(0.666667 0.666667)" d="M568.509 165.188C569.334 165.345 569.649 165.998 570.188 166.617C570.548 167.867 570.148 169.267 569.933 170.524C569.239 174.579 568.129 178.811 566.133 182.438C564.401 185.585 561.184 187.656 557.812 188.613L556.312 188.902L556.026 188.438C560.829 183.239 564.04 178.337 566.402 171.659C567.126 169.611 567.524 167.471 568.383 165.472L568.509 165.188Z"/>
	<path fill="white" transform="scale(0.666667 0.666667)" d="M393.408 82.2721C394.2 82.1427 395.132 82.2491 395.939 82.2572L395.868 82.6875L392.411 84.2711C385.822 87.4731 378.776 92.3787 375.045 98.8561C373.953 100.752 373.27 102.843 372.558 104.903C372.431 105.323 372.151 105.634 371.899 105.989L371.283 105.562C370.973 100.057 373.474 95.3607 376.874 91.207C381.095 86.049 386.791 82.8857 393.408 82.2721Z"/>
	<path fill="white" transform="scale(0.666667 0.666667)" d="M346.533 690.631C349.13 692.508 351.087 694.858 353.117 697.308L346.543 705.188L345.562 705.85C343.338 704.55 341.658 702.579 340.032 700.624L346.533 690.631Z"/>
	<path fill="white" transform="scale(0.666667 0.666667)" d="M292.993 682.688C294.122 682.867 295.617 683.749 296.72 684.206C298.823 685.079 300.709 685.694 302.977 685.971L303.618 686.045C301.043 688.186 298.857 690.878 296.109 692.796L295.617 693.13C293.731 694.434 291.978 695.27 289.858 696.11C286.288 697.317 283.415 697.651 279.666 697.693C285.307 693.289 290.24 690.044 292.864 683.04L292.993 682.688Z"/>
	<path fill="#C9C9C9" transform="scale(0.666667 0.666667)" d="M287.932 681.188C288.598 681.096 288.57 680.964 289.154 681.375C286.785 685.215 283.018 689.226 279.4 691.908C277.518 693.304 274.937 694.895 272.625 695.303C269.913 695.781 265.889 694.737 263.122 694.327C262.36 694.167 261.817 694.026 261.154 693.612L287.932 681.188Z"/>
	<path fill="white" transform="scale(0.666667 0.666667)" d="M535.608 182.382L546.696 191.332C544.422 194.253 541.903 196.458 539.037 198.783L531.821 204.063C533.024 196.806 535.169 189.755 535.608 182.382Z"/>
	<path fill="white" transform="scale(0.666667 0.666667)" d="M388.26 76.6381L393.02 76.861C386.882 79.5514 381.257 80.94 376.093 85.5606C371.725 89.4693 368.114 94.7548 366.751 100.525C366.186 102.913 366.209 105.643 366.088 108.093C366.149 108.494 366 109.007 365.937 109.41L365.265 108.938C363.12 104.444 362.795 99.5562 364.25 94.7751L364.452 94.125C365.362 91.1453 366.915 88.7057 368.82 86.2702C373.419 80.3888 381.07 77.5015 388.26 76.6381Z"/>
	<path fill="white" transform="scale(0.666667 0.666667)" d="M397.737 174.188C398.268 174.214 398.48 174.332 398.947 174.562C400.443 178.702 401.845 183.685 402.394 188.056C402.686 190.377 402.607 193.492 400.996 195.338C400.04 196.432 398.544 197.04 397.125 197.137C395.586 196.665 395.007 196.091 394.073 194.799C390.93 189.503 388.238 183.463 386.348 177.611C390.019 176.129 393.836 174.888 397.737 174.188Z"/>
	<path fill="white" transform="scale(0.666667 0.666667)" d="M680.412 609.97L680.531 610.329C681.444 613.68 682.019 618.262 680.011 621.31C678.259 623.969 674.658 625.851 671.575 626.403C666.863 627.247 663.476 626.04 659.645 623.364C657.717 621.538 656.109 619.771 654.583 617.597C664.525 617.057 672.052 615.659 680.412 609.97Z"/>
	<path fill="#C9C9C9" transform="scale(0.666667 0.666667)" d="M333.543 705.604L340.653 711.935C336.041 716.512 328.414 721.385 322.084 723.023C319.184 723.774 315.947 723.822 312.97 724.017L305.228 724.529C313.006 715.83 323.144 710.561 333.543 705.604Z"/>
	<path fill="white" transform="scale(0.666667 0.666667)" d="M413.286 176.812C413.757 176.802 413.548 176.757 414.038 176.996C415.307 177.614 417.344 182.245 418.192 183.586C419.314 185.36 420.704 187.162 422.365 188.469C423.888 189.666 425.878 190.364 427.662 191.087C423.509 196.867 419.317 199.469 412.969 202.504L402.421 206.642L407.085 194.796L410.629 183.24C411.31 181.027 411.86 178.676 413.286 176.812Z"/>
	<path fill="white" transform="scale(0.666667 0.666667)" d="M573.845 69.4958L575.116 70.8391C578.235 74.3641 580.251 80.3448 581.937 84.7206L589.193 104.763L593.42 120.604C594.465 124.397 596.1 128.447 596.547 132.34C596.732 133.949 596.82 135.831 596.405 137.411C596.01 138.909 595.209 140.465 595.143 142.013C595.062 143.908 594.025 144.612 592.779 145.88C591.775 146.446 591.191 147.04 590.028 146.882C590.61 143.085 591.134 138.855 590.29 135.068C589.86 133.137 588.996 131.385 588.257 129.562L590.062 128.547C590.869 125.303 589.1 126.369 587.753 124.581C587.541 124.298 587.424 123.089 587.333 122.647L585.828 114.267L582.153 96.3994C579.973 87.2395 577.428 78.2082 573.845 69.4958Z"/>
	<path fill="white" transform="scale(0.666667 0.666667)" d="M499.768 595.312C501.568 595.129 503.646 595.748 505.428 596.105L520.128 599.726L540.75 604.457L568.112 609.745L561.955 618.107C560.968 619.504 560.349 621.11 559.656 622.667L520.922 621.479C514.207 620.624 507.307 618.403 503.062 612.785C499.088 607.525 501.358 602.375 502.165 596.438C501.424 595.658 500.77 595.543 499.768 595.312Z"/>
	<path fill="white" transform="scale(0.666667 0.666667)" d="M486.883 38.8125C488.882 38.4885 490.765 38.9304 492.727 39.3172C498.063 40.3696 503.066 42.131 508.06 44.2618C508.714 51.6502 510.264 59.052 511.651 66.3363L515.7 87.9185L518.374 99.7194C518.861 101.713 519.951 104.362 519.657 106.396L518.343 106.514C512.011 106.073 506.695 106.099 500.727 108.423C495.69 87.937 490.235 67.1817 487.731 46.2113C487.438 43.7573 486.668 41.2834 486.883 38.8125Z"/>
	<path fill="white" transform="scale(0.666667 0.666667)" d="M441.862 466.592L485.975 468.301L485.975 468.522C484.098 470.63 482.633 472.645 481.601 475.313C478.72 482.762 478.878 491.62 482.203 498.927C485.481 506.135 492.78 508.716 499.709 511.256C497.919 511.909 494.219 511.417 492.188 511.522C490.583 511.606 488.968 511.984 487.387 512.259L445.118 517.835C435.019 519.482 425.117 521.635 416.062 526.62C410.043 529.934 404.685 534.401 399.741 539.136L395.933 542.775L397.926 538.688C409.822 518.521 434.577 516.726 455.543 514.051C459.78 513.511 464.909 513.428 468.985 512.208C472.815 511.063 478.452 512.03 482.566 511.857C484.979 511.755 487.464 511.128 489.829 510.656C484.388 508.412 478.094 507.641 472.345 506.406C463.321 504.467 454.084 501.43 445.908 497.16C440.529 494.35 432.021 488.738 430.421 482.469C429.658 479.482 431.594 475.215 433.172 472.688C435.365 469.177 437.903 467.482 441.862 466.592Z"/>
	<path fill="white" transform="scale(0.666667 0.666667)" d="M490.059 99.1875L491.011 99.1218C491.408 100.96 491.659 102.831 492.165 104.645L493.847 110.188C493.951 110.536 494.371 111.558 494.352 111.871C494.305 112.64 491.033 116.185 490.44 117.057C488.004 120.636 486.086 124.603 484.627 128.673C480.812 139.314 481.42 152.394 486.278 162.592C492.559 175.775 507.426 185.769 522.349 185.194C524.552 185.11 526.881 184.461 529.036 184.015C529.781 183.862 530.774 183.462 531.49 183.721L527.948 205.328L522.356 205.808L511.688 205.53C500.065 204.422 489.768 196.664 482.629 187.888C472.261 175.143 465.642 158.093 467.345 141.574C468.445 130.912 473.308 117.685 479.836 109.18C482.788 105.334 486.326 102.234 490.059 99.1875Z"/>
	<path fill="white" transform="scale(0.666667 0.666667)" d="M513.604 47.2711C518.796 52.684 524.904 56.8355 529.815 62.6168C544.999 80.4929 553.019 101.715 557.662 124.396L559.456 134.025C559.742 135.996 559.779 138.015 560.229 139.956C561.492 145.409 564.524 150.604 566.071 156.093C562.951 153.77 562.419 148.417 558.375 147.392L557.843 147.938C558.918 152.054 561.36 155.693 562.635 159.718C564.209 164.684 560.011 173.469 557.68 177.719C555.473 181.238 553.098 184.084 550.159 187.011C547.115 185.117 542.085 182.397 539.986 179.561C542.872 176.46 544.306 173.6 546.023 169.738C551.344 157.766 553.349 146.319 548.437 133.829C544.377 123.505 536.848 114.147 526.917 109.03C525.248 108.17 523.463 107.769 521.75 107.032C522.53 105.026 522.545 102.997 522.414 100.875C522.048 94.9103 520.764 88.7815 519.8 82.875L513.604 47.2711Z"/>
	<path fill="white" transform="scale(0.666667 0.666667)" d="M507.204 111.508L510.938 111.313C519.88 111.23 527.224 113.754 533.608 120.137C541.139 127.667 545.657 138.411 545.55 149.063C545.458 158.242 541.057 170.655 534.363 177.077L529.952 174.057L531.121 173.687C532.829 173.126 533.906 172.805 534.726 171.188L534.188 170.545L527.938 170.807C526.777 169.9 525.846 168.526 524.912 167.387C527.51 165.839 529.768 164.276 531.67 161.88C534.184 158.713 536.191 153.777 535.416 149.625C535.167 148.292 534.729 147.879 533.625 147.236L532.988 147.461L532.412 153.017C531.332 158.18 527.821 161.831 523.615 164.672C518.311 158.534 515.399 150.605 511.824 143.438C512.254 142.207 513.428 142.807 514.312 141.566C514.222 140.388 514.304 139.878 513.605 138.901L509.532 138.119C510.864 137.162 512.661 135.757 514.264 135.376C515.573 135.065 517.109 135.821 518.062 136.673C520.616 138.954 522.127 143.1 522.48 146.438C521.326 148.581 517.401 146.896 515.438 147.832L515.438 148.508C515.582 149.483 516.617 150.738 517.357 151.349C519.073 152.765 520.647 152.896 522.769 152.69C524.275 152.545 526.559 151.761 527.327 150.304C527.992 149.04 527.693 146.56 527.408 145.2C526.391 140.352 523.5 134.9 519.142 132.264C516.903 130.91 514.941 130.602 512.424 131.264L511.981 131.386C510.308 132.144 508.486 133.164 507.311 134.606C506.236 135.926 504.72 138.942 505.117 140.669C507.307 150.202 513.587 158.812 518.937 166.81L509.784 160.393C502.108 154.057 498.548 144.741 500.392 134.928C500.936 132.034 502.268 129.025 502.005 126.081L501.375 126.054C498.072 128.991 496.777 134.442 496.498 138.75C495.721 150.764 500.294 160.079 510.714 166.273C513.943 168.192 517.677 169.582 520.743 171.718C523.725 173.795 526.419 176.988 528.778 179.744C520.764 181.321 512.218 179.394 505.152 175.427C497.072 170.891 491.111 163.154 488.6 154.253C485.699 143.969 487.101 133.659 492.325 124.4C494.594 120.378 497.942 115.414 502.136 113.21C503.677 112.401 505.531 111.979 507.204 111.508Z"/>
</svg>
