<?xml version="1.0" encoding="utf-8" ?>
<svg xmlns="http://www.w3.org/2000/svg" xmlns:xlink="http://www.w3.org/1999/xlink" width="512" height="512">
	<path fill="#FEFEFE" transform="scale(0.666667 0.666667)" d="M-0 -0L768 0L768 768L-0 768L0 -0Z"/>
	<path fill="#141314" transform="scale(0.666667 0.666667)" d="M448.427 227.438C449.405 227.198 450.314 227.27 451.312 227.289C452.418 227.895 452.728 228.192 453.305 229.312C452.902 230.664 452.659 230.874 451.688 231.824L450.616 232.312C449.625 232.24 449.329 232.264 448.548 231.57C447.935 231.026 447.635 230.253 447.589 229.45C447.522 228.307 447.706 228.255 448.427 227.438Z"/>
	<path fill="#141314" transform="scale(0.666667 0.666667)" d="M220.156 246.188C220.743 245.997 221.185 245.841 221.812 245.852C224.058 245.89 229.323 246.624 230.944 248.062L230.706 249.188C230.051 249.415 229.523 249.539 228.825 249.517C227.116 249.463 220.91 248.479 219.791 247.312L220.156 246.188Z"/>
	<path fill="#141314" transform="scale(0.666667 0.666667)" d="M596.626 518.438L597.574 518.142C598.356 518.537 599.059 519.203 599.388 520.04C599.83 521.167 599.594 521.864 599.234 522.938C598.21 524.06 597.404 524.624 595.992 525.188L595.473 525.291C594.324 525.432 593.896 525.196 592.994 524.537C593.03 522.251 595.105 520.067 596.626 518.438Z"/>
	<path fill="#1B191A" transform="scale(0.666667 0.666667)" d="M60.9469 546.721C63.803 546.813 66.6252 547.746 69.3899 548.435C66.1172 549.305 63.2057 548.961 60.172 550.806L59.7439 551.073C58.6349 552.27 57.6045 553.417 56.2623 554.364L55.6875 554.256C55.5373 553.36 55.3995 552.557 55.6981 551.664C56.6302 548.877 58.5312 547.967 60.9469 546.721Z"/>
	<path fill="#CAC9CA" transform="scale(0.666667 0.666667)" d="M361.398 340.927C363.499 338.331 366.708 335.802 369.425 333.869C370.025 335.311 370.576 337.097 370.283 338.666C367.803 340.798 365.017 343.059 361.649 343.312C361.191 342.685 361.298 343.053 361.386 342.289C361.482 341.462 361.464 341.789 361.398 340.927Z"/>
	<path fill="#676569" transform="scale(0.666667 0.666667)" d="M318.239 150.106C319.13 145.55 320.423 142.11 322.697 138.07C323.666 140.542 323.216 143.911 323.647 146.625L323.753 147.316L323.82 147.73L323.545 147.94C322.559 148.711 322.212 149.211 321.73 150.38C321.349 151.306 321.129 151.685 320.25 152.26L319.58 152.176L318.239 150.106Z"/>
	<path fill="#141314" transform="scale(0.666667 0.666667)" d="M245.629 372.938C246.689 372.665 247.848 373.058 248.812 373.519C253.42 375.719 256.01 382.512 257.451 387.017L245.355 373.881L245.629 372.938Z"/>
	<path fill="#141314" transform="scale(0.666667 0.666667)" d="M380.193 251.812C380.898 251.729 381.046 251.599 381.705 251.949C383.957 253.143 385.542 255.416 386.243 257.812C385.714 258.873 385.244 259.05 384.269 259.688C383.861 259.806 383.498 259.873 383.075 259.918C381.88 260.045 380.88 259.906 379.965 259.067C379.04 258.219 378.448 256.878 378.422 255.623C378.39 254.033 379.177 252.941 380.193 251.812Z"/>
	<path fill="#141314" transform="scale(0.666667 0.666667)" d="M191.859 326.519C194.167 326.646 196.437 326.687 198.744 326.487L205.37 325.66C205.528 325.64 206.677 325.427 206.812 325.481C207.023 325.564 207.181 325.744 207.365 325.875C207.179 326.897 207.075 327.46 206.438 328.316C202.912 330.32 195.931 330.272 192.076 329.269L191.402 329.08C191.339 327.875 191.193 327.562 191.859 326.519Z"/>
	<path fill="#141314" transform="scale(0.666667 0.666667)" d="M218.195 193.066C219.189 191.85 220.588 190.429 222.188 190.136C224.02 191.819 225.773 199.811 226.084 202.5C225.463 203.485 225.4 203.368 224.25 203.652C223.184 203.32 222.722 202.937 222.166 201.938C220.764 199.419 220.019 196.626 218.496 194.117L218.195 193.066Z"/>
	<path fill="#141314" transform="scale(0.666667 0.666667)" d="M241.082 178.552C242.934 178.462 244.161 178.278 245.615 179.607C246.244 180.181 246.213 180.162 246.255 181C244.586 181.884 242.7 182.134 240.909 182.695C238.899 183.325 237.098 184.265 235.25 185.262C234.708 185.633 234.244 185.869 233.625 186.088C232.181 185.846 231.196 184.591 230.19 183.599C233.855 181.284 236.891 179.686 241.082 178.552Z"/>
	<path fill="#141314" transform="scale(0.666667 0.666667)" d="M218.374 249.188C220.346 249.28 222.278 250.259 224.225 250.643C226.141 251.02 228.18 250.713 230.007 251.438L229.871 252.188C229.485 253.411 228.108 254.156 227.009 254.574L225.934 254.741C222.803 255.155 217.797 254.902 215.284 252.938L215.445 251.823C216.336 250.598 217.026 249.89 218.374 249.188Z"/>
	<path fill="#141314" transform="scale(0.666667 0.666667)" d="M94.2171 438.188C94.7988 438.122 94.8104 438.077 95.2902 438.139C96.5771 438.306 97.5947 438.932 98.3612 439.98C99.4657 441.491 99.5899 442.825 99.1875 444.614C98.5836 447.3 99.3264 452.628 98.1311 454.688C97.1131 454.957 96.9819 455.018 95.9951 454.688C94.2062 451.789 96.0997 447.715 95.2614 444.619C94.9126 443.331 93.5309 442.229 93.0753 441C92.949 440.659 93.0655 439.717 93.0624 439.312L94.2171 438.188Z"/>
	<path fill="#141314" transform="scale(0.666667 0.666667)" d="M545.593 329.438L546.938 329.175C548.048 329.674 548.723 330.196 549.446 331.196C550.664 332.882 550.814 335.257 550.454 337.264C550.26 338.344 549.51 339.582 548.589 340.188C546.926 341.281 544.958 340.954 543.123 340.642C541.848 339.859 540.306 338.986 539.857 337.45C539.562 336.443 539.704 336.282 540.153 335.405C542.065 334.998 543.906 335.4 545.812 335.68L546.362 335.062C546.2 333.312 545.182 332.064 544.844 330.375L545.593 329.438Z"/>
	<path fill="#141314" transform="scale(0.666667 0.666667)" d="M210.322 183.392C211.09 183.316 211.854 183.338 212.625 183.34C213.514 184.036 213.848 184.316 214.207 185.438C212.812 187.573 199.466 190.524 196.031 191.367C194.609 191.552 193.354 191.86 192.065 191.2L191.89 190.312C193.007 188.404 207.302 184.411 210.322 183.392Z"/>
	<path fill="#141314" transform="scale(0.666667 0.666667)" d="M641.897 288.742L642.321 288.706C644.077 288.635 644.619 289.059 645.859 290.185C645.982 291.372 644.821 291.889 643.963 292.658C640.626 295.648 638.746 298.741 636.763 302.734L635.719 303.924C634.982 303.637 635.051 303.816 634.659 303.001C633.614 300.83 634.237 297.074 635.131 294.904C636.529 291.511 638.63 290.125 641.897 288.742Z"/>
	<path fill="#1B191A" transform="scale(0.666667 0.666667)" d="M439.999 8.8125L441.005 8.59702C441.447 8.78234 441.658 8.83547 442.05 9.1875C442.572 9.65606 443.179 10.7567 443.264 11.4484C443.419 12.7176 442.649 14.2167 442.153 15.375C440.467 19.3105 438.372 23.0664 435.728 26.4375C435.106 26.98 435.393 26.8287 434.615 27.1099C433.884 27.3738 433.961 27.2472 433.312 26.9507C432.877 26.0441 432.986 25.1557 433.078 24.179C433.498 19.7147 436.565 11.7487 439.999 8.8125Z"/>
	<path fill="#1B191A" transform="scale(0.666667 0.666667)" d="M486.358 35.9465L488.062 36.0315C488.968 36.8926 489.238 36.9819 489.466 38.25C488.087 41.6778 482.96 43.738 480.066 45.8343C477.161 47.9386 474.676 50.2392 471.512 52.0245L469.312 52.5531L468.667 52.125C468.715 51.6675 468.754 51.245 468.923 50.8125C469.669 48.9033 471.57 47.3812 473.051 46.0383C475.973 43.3894 479.052 40.1444 482.287 37.9357C483.512 37.0995 484.998 36.5303 486.358 35.9465Z"/>
	<path fill="#CAC9CA" transform="scale(0.666667 0.666667)" d="M191.402 329.08C184.942 328.694 178.12 325.749 172.402 322.859C167.378 320.32 157.88 315.231 156.022 309.562L156.375 308.936C157.92 309.187 160.057 311.492 161.346 312.548C163.47 314.287 165.598 315.919 168.007 317.255C173.176 320.123 178.852 322.546 184.46 324.408C186.852 325.203 189.665 325.351 191.859 326.519C191.193 327.562 191.339 327.875 191.402 329.08Z"/>
	<path fill="#1B191A" transform="scale(0.666667 0.666667)" d="M316.507 18.1875C317.222 18.0739 317.375 17.986 318.109 18.2279C319.453 18.6704 320.652 19.8059 321.735 20.6871C325.843 24.0321 329.669 28.3072 331.886 33.1875C331.586 34.3036 331.523 34.2624 330.562 34.9294C329.253 34.8515 327.984 34.2366 326.885 33.546C324.042 31.7596 315.372 25.0324 315.012 21.7446C314.868 20.4305 315.731 19.1631 316.507 18.1875Z"/>
	<path fill="#1B191A" transform="scale(0.666667 0.666667)" d="M627.598 452.062C628.406 451.825 628.969 451.758 629.787 451.932C632.125 452.429 634.768 454.065 635.929 456.188C636.66 457.523 636.882 459.231 636.306 460.657C635.621 462.352 633.889 463.265 632.33 464.002L631.991 464.046L631.424 464.097C630.387 464.2 629.416 464.291 628.386 464.054C626.523 463.626 624.814 462.657 623.909 460.912C623.095 459.342 623.011 457.344 623.662 455.698C624.374 453.9 625.931 452.866 627.598 452.062Z"/>
	<path fill="#8C8A8D" transform="scale(0.666667 0.666667)" d="M627.736 459.188C628.816 458.984 630.419 458.796 631.447 459.2C632.017 459.425 632.003 459.795 632.218 460.312L630.938 461.61C629.821 462.337 629.376 462.314 628.121 462.098C627.371 461.376 627.227 460.947 627.004 459.938L627.736 459.188Z"/>
	<path fill="#1B191A" transform="scale(0.666667 0.666667)" d="M583.644 455.062C585.109 454.787 586.204 454.786 587.625 455.286C590.06 456.142 593.359 458.197 594.4 460.678C594.89 461.848 594.949 463.753 594.368 464.898C593.692 466.23 591.747 466.612 590.433 467.037L590.205 467.064C589.543 467.165 588.861 467.303 588.188 467.226C586.084 466.987 581.5 464.009 580.426 462.217C579.729 461.054 579.714 460.011 580.131 458.737C580.772 456.778 581.826 455.911 583.644 455.062Z"/>
	<path fill="#141314" transform="scale(0.666667 0.666667)" d="M236.342 159.8C239.196 159.587 241.873 159.483 244.52 160.75C245.775 161.35 246.654 162.016 247.107 163.312C246.907 164.605 246.582 165.259 245.818 166.313C244.459 166.813 243.327 166.719 241.958 166.134C239.333 165.013 236.49 166.028 233.854 166.722C231.8 167.463 227.712 169.924 225.673 169.462C225.028 169.315 224.705 168.521 224.347 167.997C224.235 167.185 224.053 166.201 224.384 165.421C225.751 162.205 233.26 160.545 236.342 159.8Z"/>
	<path fill="#141314" transform="scale(0.666667 0.666667)" d="M407.492 257.812L408.201 257.588C409.184 257.783 409.891 258 410.539 258.836C411.149 259.622 411.341 260.416 411.12 261.375C410.595 263.649 408.026 265.669 406.112 266.754C400.284 270.058 392.565 270.926 386.151 269.155C384.925 268.567 383.809 268.062 383.152 266.808C382.671 265.891 382.368 265.606 382.688 264.599C386.161 265.472 389.636 265.912 393.222 265.635C399.349 265.161 403.587 262.33 407.492 257.812Z"/>
	<path fill="#1B191A" transform="scale(0.666667 0.666667)" d="M170.654 309.562C172.742 309.36 176.058 310.934 178.14 311.487C186.69 313.76 199.037 314.182 206.809 309.531L207.188 309.302L207.764 309.562C208.155 310.575 208.358 311.253 208.388 312.36L207.562 312.721C200.367 317.051 192.168 318.127 183.937 316.704C179.962 316.017 172.964 314.655 170.716 310.996C170.307 310.331 170.49 310.27 170.654 309.562Z"/>
	<path fill="#141314" transform="scale(0.666667 0.666667)" d="M403.192 174.13L403.589 174.083C406.805 173.833 412.19 174.201 414.562 176.623C415.594 177.676 415.457 178.271 415.387 179.613C414.754 180.258 414.561 180.569 413.615 180.68C411.934 180.876 409.842 180.38 408.152 180.188C404.688 179.792 401.685 179.739 398.252 180.399L397.722 180.505C394.453 181.341 391.372 183.086 388.125 183.753L387.405 183.188C387.434 181.781 387.386 181.393 388.271 180.227C391.421 176.077 398.347 174.751 403.192 174.13Z"/>
	<path fill="#141314" transform="scale(0.666667 0.666667)" d="M541.48 232.191L541.837 232.143C547.254 231.476 553.066 233.954 557.266 237.335C558.913 238.661 560.896 240.364 560.996 242.625C561.048 243.794 560.524 244.61 559.784 245.438C558.692 245.576 557.322 244.524 556.377 243.978C554.463 242.447 552.531 240.942 550.345 239.812C548.158 238.682 544.967 237.638 542.504 238.312C541.462 238.598 540.488 239.215 539.438 239.558L538.201 238.829C537.092 238.091 536.641 237.342 536.378 236.062C537.421 233.854 539.37 233.107 541.48 232.191Z"/>
	<path fill="#141314" transform="scale(0.666667 0.666667)" d="M114.113 377.438L114.544 377.433C115.495 377.671 115.715 378.171 116.179 378.938C115.878 380.414 114.785 381.872 114.047 383.178L110.433 390.21C107.819 395.806 105.849 401.538 104.245 407.502C103.637 409.763 103.413 413.405 101.812 415.014L101.14 414.877C100.671 414.692 100.07 414.246 99.838 413.789C98.7603 411.665 99.6941 408.313 100.241 406.102C102.205 398.164 104.726 390.902 108.892 383.832C110.302 381.44 111.674 378.916 114.113 377.438Z"/>
	<path fill="#141314" transform="scale(0.666667 0.666667)" d="M599.679 499.534C600.942 499.514 602.168 499.603 603.364 500.039C605.719 500.897 608.239 502.801 609.17 505.213C609.662 506.489 609.473 507.833 608.974 509.062C607.066 511.047 605.309 511.674 602.683 512.366C600.403 512.309 597.554 511.999 595.412 511.212C593.878 510.649 593.205 509.75 592.541 508.312C592.473 507.344 592.318 506.192 592.747 505.289C593.971 502.714 597.12 500.592 599.679 499.534Z"/>
	<path fill="#E9E8E9" transform="scale(0.666667 0.666667)" d="M597.985 504.188C598.48 504.09 598.929 504 599.438 504.031C602.209 504.2 603.609 505.19 605.39 507.188L605.319 507.776L604.065 508.455C601.985 508.555 598.085 509.075 596.438 507.832L596.304 506.625C596.743 505.417 596.969 504.975 597.985 504.188Z"/>
	<path fill="#141314" transform="scale(0.666667 0.666667)" d="M575.335 243.849C582.577 244.295 591.703 246.328 596.769 251.961C597.974 253.301 598.517 254.321 598.406 256.125C597.692 257.227 597.239 257.745 596.062 258.347C594.973 258.146 594.334 257.419 593.533 256.708L593.129 256.346L592.368 255.717C586.377 250.898 579.234 249.897 571.841 250.762L571.125 250.849C570.189 250.419 569.604 250.192 569.128 249.188C568.737 248.364 569.262 247.261 569.707 246.562C570.955 244.601 573.225 244.205 575.335 243.849Z"/>
	<defs>
		<linearGradient id="gradient_0" gradientUnits="userSpaceOnUse" x1="329.18201" y1="155.37399" x2="313.74799" y2="161.22501">
			<stop offset="0" stop-color="#6A686B"/>
			<stop offset="1" stop-color="#8F8D90"/>
		</linearGradient>
	</defs>
	<path fill="url(#gradient_0)" transform="scale(0.666667 0.666667)" d="M323.82 147.73C324.838 150.958 326.201 153.81 328.514 156.335C329.465 157.374 331.601 159.07 332.138 160.312C332.418 160.96 331.742 162.27 331.43 162.836C330.23 165.015 327.875 166.682 325.5 167.333C323.679 167.832 320.919 167.943 319.184 167.115C319.296 160.687 311.412 158.394 308.778 153.273L309.188 152.947L309.682 153.225C311.588 154.23 314.671 154.477 316.688 153.771C317.537 152.77 317.77 151.871 318.108 150.611L318.239 150.106L319.58 152.176L320.25 152.26C321.129 151.685 321.349 151.306 321.73 150.38C322.212 149.211 322.559 148.711 323.545 147.94L323.82 147.73Z"/>
	<path fill="#141314" transform="scale(0.666667 0.666667)" d="M660.149 525.188L660.902 525.137C662.008 526.415 662.674 527.918 663.019 529.579C663.531 532.043 662.983 535.555 662.983 538.138C662.984 549.098 663.05 560.035 661.844 570.946C661.449 574.525 661.149 579.113 659.157 582.188C658.424 582.735 658.083 582.684 657.188 582.801L656.495 582.188L658.636 558.002L658.793 538.507C658.816 535.104 658.539 531.454 659.37 528.136L660.149 525.188Z"/>
	<path fill="#1B191A" transform="scale(0.666667 0.666667)" d="M200.644 159.471C202.828 159.25 205.227 159.172 207.402 159.507C209.553 159.838 211.366 160.593 212.656 162.375C212.653 163.64 212.59 164.559 211.74 165.562C209.009 168.787 204.527 166.448 200.843 166.622C194.617 166.917 189.966 170.215 185.9 174.632C184.815 176.082 184.132 177.873 183.198 179.438C182.085 179.881 181.327 179.74 180.188 179.565C179.122 178.753 178.585 178.122 178.27 176.794C177.749 174.597 178.737 172.629 179.965 170.873C184.593 164.253 192.949 160.744 200.644 159.471Z"/>
	<path fill="#141314" transform="scale(0.666667 0.666667)" d="M678.024 518.812L678.461 518.944C680.517 521.296 680.806 524.833 681.133 527.812C681.856 534.413 681.702 541.245 681.548 547.875C681.32 557.705 680.732 567.582 679.573 577.349C679.15 580.911 679.019 586.706 676.89 589.688L675.938 590.404C674.909 590.387 674.88 590.353 674.062 589.722C673.655 588.015 674.062 586.146 674.248 584.413L675.251 574.545L677.153 546.357L677.486 527.565C677.532 524.969 677.095 521.23 678.024 518.812Z"/>
	<path fill="#1B191A" transform="scale(0.666667 0.666667)" d="M218.496 194.117L218.267 194.395C214.318 199.049 219.815 204.917 217.375 210.078C216.314 212.324 214.199 214.433 211.82 215.241C209.447 216.046 206.844 215.679 204.64 214.572C201.763 213.128 198.263 209.576 197.395 206.408C196.959 204.818 197.309 203.032 198.188 201.658C201.472 196.519 212.549 194.233 218.195 193.066L218.496 194.117Z"/>
	<path fill="#1B191A" transform="scale(0.666667 0.666667)" d="M78.092 495.938L78.6324 495.855C81.6196 495.653 85.5983 497.405 87.7968 499.372C90.4872 501.78 92.2954 504.847 92.4717 508.5C92.7052 513.339 89.2585 517.475 86.1003 520.753L83.8125 522.449C82.9607 522.876 82.3679 522.799 81.5625 522.325C79.195 520.931 78.5282 517.609 77.0826 515.438C76.2817 514.235 74.6406 513.125 74.3096 511.688C73.6227 508.705 74.9324 507.988 76.18 505.7C76.8583 504.455 76.4864 502.135 76.1085 500.848C75.7867 499.751 75.7067 498.948 75.7872 497.812C76.4831 496.71 76.9011 496.469 78.092 495.938Z"/>
	<path fill="#FEFEFE" transform="scale(0.666667 0.666667)" d="M80.7202 500.158L81.3242 500.532C83.5098 501.927 87.2769 504.691 87.7093 507.375C88.3197 511.163 86.4227 514.28 84.3159 517.233C83.6621 517.856 83.5611 518.042 82.6875 518.198C80.5142 516.021 78.6974 511.354 78.2915 508.312C79.7855 505.997 80.091 502.829 80.7202 500.158Z"/>
	<path fill="#1B191A" transform="scale(0.666667 0.666667)" d="M547.267 476.438L547.541 476.452C548.768 476.885 549.395 478.586 549.764 479.713C552.047 486.681 549.961 494.764 548.799 501.805L544.291 525.195L537.014 550.404C535.724 554.583 534.782 559.14 532.835 563.062C532.496 563.297 532.122 563.447 531.75 563.62C530.634 563.345 530.336 563.336 529.499 562.5C529.356 559.721 530.167 557.058 530.826 554.38L534.163 541.548C537.353 529.496 540.96 517.455 543.162 505.172L545.436 490.197L546.268 481.805C546.437 480.006 546.429 478.068 547.267 476.438Z"/>
	<path fill="#1B191A" transform="scale(0.666667 0.666667)" d="M165.123 95.3815C172.124 94.4674 181.873 95.9182 187.688 100.205C188.273 101.313 188.225 101.324 187.975 102.562C187.692 102.766 187.47 103.122 187.125 103.174C186.727 103.233 185.39 102.743 184.967 102.619L178.679 100.802C169.809 98.4469 161.417 98.6133 152.85 101.968C153.387 102.017 153.888 102.036 154.424 101.965L156.188 101.74C164.576 100.844 176.751 101.976 183.539 107.537C184.234 108.107 184.902 108.535 185.695 108.961C186.19 109.227 186.214 109.565 186.449 110.062L185.812 110.133L185.518 109.951C183.806 108.937 181.842 108.858 179.95 108.312C177.377 107.569 174.828 106.55 172.218 105.97C166.726 104.748 159.787 104.552 154.312 105.934L155.158 106.082C160.048 105.933 164.756 105.864 169.539 107.037C174.645 108.29 182.229 111.579 184.836 116.372C185.43 117.465 185.792 118.894 185.407 120.105C185.208 120.734 185.047 120.633 184.5 120.861C182.278 120.608 179.707 117.14 177.707 115.785C169.651 110.327 158.034 107.849 148.579 110.657C144.552 111.854 141.099 113.911 136.896 114.712L141.676 109.652C145.64 105.03 149.425 100.278 155.175 97.7612C158.37 96.3626 161.695 95.8529 165.123 95.3815Z"/>
	<path fill="#1B191A" transform="scale(0.666667 0.666667)" d="M211.84 307.312C214.204 306.818 216.65 307.251 218.897 308.054C222.473 309.331 225.918 311.935 228.889 314.245C249.144 329.991 262.346 355.067 273.365 377.763C274.446 379.989 279.271 389.278 279.014 391.312C278.965 391.706 278.755 392.062 278.625 392.438L277.676 392.78C276.486 392.525 276.234 392.427 275.391 391.553C273.479 389.571 272.225 386.553 271.063 384.089L265.25 371.756C254.741 350.992 242.009 330.675 223.571 316.048C219.877 313.118 215.803 310.663 211.874 308.062L211.84 307.312Z"/>
	<path fill="#1B191A" transform="scale(0.666667 0.666667)" d="M115.476 204.342C118.617 201.053 124.254 198.786 128.778 198.672C135.791 198.496 140.587 203.163 145.324 207.757C147.765 210.125 151.653 213.221 151.794 216.783C151.833 217.771 151.63 219.705 150.916 220.457C149.831 221.6 148.294 221.923 146.766 221.812C144.689 221.662 142.972 220.636 141.674 219.036C140.526 217.622 139.954 215.54 139.313 213.849C137.483 209.024 135.133 205.054 129.582 204.234C127.329 203.901 125.137 204.34 123.28 205.688C120.533 207.68 119.161 210.79 118.679 214.069C117.994 218.736 119.985 223.619 122.808 227.261C126.635 232.199 132.894 235.524 139.064 236.301C141.069 236.553 143.08 236.627 145.09 236.388C147.089 236.151 149.044 235.57 151.048 235.982L151.512 236.625C150.413 238.388 145.944 239.601 143.895 240.074C137.515 241.545 130.456 239.506 125.076 236.016C119.135 232.162 115.1 226.261 113.737 219.305C112.884 214.948 113.266 210.866 114.983 206.769L115.265 206.611C115.423 205.811 115.449 205.154 115.476 204.342Z"/>
	<path fill="#1B191A" transform="scale(0.666667 0.666667)" d="M628.602 333.421C617.029 350.333 601.433 360.969 581.274 364.802C566.821 367.551 554.335 365.023 542.171 356.719C531.04 349.12 521.904 339.291 519.319 325.711C518.8 322.983 517.673 317.318 519.268 314.91C519.873 313.997 520.682 313.238 521.807 313.049C522.165 312.988 522.371 313.037 522.708 313.082C523.26 316.017 523.378 318.998 523.991 321.922C526.832 335.469 533.645 345.211 545.047 353.02C555.477 360.163 569.571 361.993 581.812 359.536C597.349 356.418 609.158 348.867 619.598 337.141C623.542 332.712 626.954 328.472 632.468 325.929C631.425 328.644 630.222 331.005 628.602 333.421Z"/>
	<path fill="#1B191A" transform="scale(0.666667 0.666667)" d="M85.2565 552.96C83.387 549.09 81.9139 545.474 80.812 541.313C79.952 538.065 82.023 533.374 78.1875 531.491C77.6628 531.233 77.5253 531.251 77.0099 531.188C76.8196 533.053 79.018 534.038 78.4913 536.438C77.2765 536.897 75.9862 536.708 74.7706 536.206C73.8332 535.82 73.1309 535.343 72.7306 534.375C72.249 533.21 72.1796 531.553 72.8764 530.457C73.7379 529.102 75.4573 527.958 76.875 527.258C79.7207 527.233 81.1501 528.764 83.1775 530.574C85.2312 527.555 88.1915 522.805 92.099 522.133C92.992 521.979 93.8105 522.134 94.6875 522.29L95.1528 522.368C98.0981 522.915 100.819 525.379 102.465 527.811C105.074 531.664 105.643 538.292 104.695 542.796L102.955 548.512C105.218 548.61 107.939 548.471 110.083 549.188L110.165 549.717C108.826 550.69 107.242 550.944 105.663 551.363C104.823 551.587 103.178 551.825 102.464 552.326C102.008 552.645 101.347 553.805 101.003 554.315C99.393 556.703 97.6992 559.397 96.532 562.024L95.735 562.383C94.3208 563.365 94.3379 562.576 92.8125 562.875C92.2595 561.967 92.1825 561.88 92.2348 560.829C91.4921 560.222 90.7452 559.675 90.3731 558.752C89.7638 557.24 87.837 555.993 86.8088 554.625C86.4373 554.131 86.1851 553.804 85.7173 553.372L85.2565 552.96Z"/>
	<path fill="#FEFEFE" transform="scale(0.666667 0.666667)" d="M91.8574 528.562C92.6184 528.373 93.1612 528.417 93.9335 528.455C95.0373 528.51 96.3771 529.819 97.0525 530.635C99.3285 533.385 100.143 537.858 100.874 541.27C101.078 542.222 101.538 543.549 101.311 544.484L101.062 545.116C99.6505 549.05 97.3585 552.423 95.0625 555.896C94.8698 556.051 94.6397 556.152 94.4252 556.274C92.5478 554.037 90.5094 551.841 88.9504 549.365C86.2849 545.133 85.5673 540.424 86.8545 535.568C87.5968 532.769 89.3963 530.093 91.8574 528.562Z"/>
	<defs>
		<linearGradient id="gradient_1" gradientUnits="userSpaceOnUse" x1="72.970001" y1="390.84601" x2="125.211" y2="403.83301">
			<stop offset="0" stop-color="#A4A3A4"/>
			<stop offset="1" stop-color="#DCDBDB"/>
		</linearGradient>
	</defs>
	<path fill="url(#gradient_1)" transform="scale(0.666667 0.666667)" d="M140.009 296.739L140.25 297.042C143.047 300.426 149.154 301.87 150.774 306C149.49 308.162 144.378 309.732 142.044 310.849L134.231 315.072C127.974 318.787 121.921 323.401 116.474 328.219C95.2964 346.948 82.1067 373.653 74.0671 400.354C67.5868 421.876 64.114 444.107 64.2906 466.625C64.3653 476.14 64.4073 486.206 66.7517 495.46L67.2524 497.289C67.4381 497.99 67.3825 497.727 67.3088 498.562C66.0113 498.856 64.662 498.764 63.3388 498.747C61.1482 495.677 60.908 471.713 60.9841 466.816C61.1963 453.158 61.9694 438.939 64.3001 425.453C66.3055 413.849 69.7195 402.427 73.6359 391.341C80.383 372.241 89.1621 354.293 102.286 338.71C106.16 334.109 110.621 330.015 114.938 325.838C114.938 324.935 115.055 324.554 115.666 323.861C116.308 323.134 116.578 322.44 116.824 321.505C117.023 320.745 117.111 320.34 117.515 319.646C117.992 318.825 117.966 318.144 118.267 317.294C118.84 315.677 120.071 314.173 120.676 312.526C121.859 309.303 126.041 306.584 126.317 303.132C130.384 300.262 135.945 299.585 140.009 296.739Z"/>
	<path fill="#1B191A" transform="scale(0.666667 0.666667)" d="M229.238 185.062L229.871 184.915C230.908 185.485 232.758 186.392 233.477 187.294C234.071 188.039 234.488 189.668 234.872 190.569C235.559 192.177 236.449 193.596 237.409 195.051L238.82 192.188C239.819 190.841 240.999 191.303 242.438 191.136C242.731 190.146 242.943 189.457 243.562 188.611C244.352 188.133 244.99 187.902 245.912 187.922C247.084 187.948 248.414 188.467 249.202 189.351C250.702 191.035 251.364 194.468 251.177 196.673C250.959 199.26 249.79 202.098 247.811 203.819L247.5 204.082L247.028 204.498L246.727 204.75L250.98 210.122C253.516 213.95 255.271 220.39 254.158 224.933C253.496 227.637 251.41 229.605 249.058 230.93C248.41 231.295 248.633 232.932 248.593 233.738C248.348 238.741 247.34 243.544 245.898 248.332C242.229 260.516 235.908 272.413 224.25 278.599C215.349 283.322 205.661 283.351 196.125 280.6C179.799 275.889 167.031 263.733 156.805 250.645L152.562 244.293C160.159 248.417 165.91 254.039 172.422 259.588C179.138 265.311 186.394 270.724 194.572 274.175C198.664 275.902 203.096 277.296 207.562 277.471C215.424 277.778 222.779 274.895 228.476 269.479C234.856 263.413 237.893 255.442 240.396 247.203C241.839 242.451 243.007 238.134 243.12 233.144C239.806 233.572 234.097 234.455 231.327 232.208C230.526 231.559 230.435 231.034 230.385 230.062C232.423 228.112 234.869 228.708 237.497 228.698C240.538 228.686 243.421 228.489 246.028 226.738C247.622 225.668 248.644 224.095 248.959 222.188C249.668 217.878 247.513 212.403 244.75 209.083C242.71 206.633 240.161 204.693 238.205 202.138C235.021 197.979 231.926 193.027 229.242 188.518C228.508 187.287 228.98 186.398 229.238 185.062Z"/>
	<path fill="#1B191A" transform="scale(0.666667 0.666667)" d="M522.708 313.082L522.319 312.679C520.941 311.292 518.985 310.279 517.408 309.107C513.984 306.563 512.124 301.895 512.039 297.706C511.93 292.323 514.672 286.902 518.48 283.205C520.409 281.331 522.951 280.385 524.797 278.628L524.59 278.111C522.948 273.859 523.772 269.501 525.562 265.407C526.697 262.81 528.31 260.653 530.073 258.454C527.306 257.249 524.345 255.784 522.147 253.688C522.016 252.257 522.058 252.334 522.938 251.183C526.643 250.784 530.01 254.035 533.438 255.019C534.556 255.34 535.198 254.945 536.25 254.952C537.318 254.959 538.532 255.247 539.574 255.477C537.262 257.866 534.329 260.323 532.406 263.031C529.683 266.865 529.038 271.072 528.972 275.667C532.972 279.013 536.467 282.454 539.893 286.395L548.192 277.933C552.517 273.081 556.921 266.694 562.149 262.828C563.025 262.18 563.499 262.038 564.589 262.024C565.422 262.013 566.154 262.308 566.917 262.606C567.618 263.443 567.812 263.448 567.735 264.529C567.557 267.027 566.384 269.38 565.445 271.67C563.267 276.985 559.864 283.47 559.761 289.287C559.739 290.578 560.078 291.695 560.962 292.659C562.126 293.929 563.966 294.381 565.629 294.403C568.634 294.441 570.658 293.464 572.696 291.281C575.507 288.27 576.926 284.461 576.69 280.375C576.467 276.512 575.002 274.786 572.555 272.087C572.442 271.963 571.542 271.075 571.511 270.938C571.424 270.548 571.594 270.143 571.636 269.745C572.997 268.507 574.151 268.048 576.015 268.159C577.137 268.225 578.043 268.773 578.78 269.605C581.731 272.937 581.718 279.626 581.433 283.848C580.497 289.314 578.879 293.939 574.24 297.367C571.441 299.435 566.797 300.947 563.25 300.335C560.132 299.797 557.38 297.956 555.561 295.385C553.68 292.727 553.637 289.321 554.284 286.265C555.452 280.743 558.53 275.71 560.326 270.381C555.467 276.689 550.785 285.953 543.552 289.678C545.337 291.397 547.925 293.421 548.643 295.875C548.397 297.967 547.407 299.727 545.812 301.125C544.058 302.662 541.066 303.621 538.752 303.321C537.03 303.098 535.886 302.7 534.562 301.571L534.3 300.938C536.368 298.554 540.952 300.398 543.406 297C543.362 296.688 543.414 296.346 543.275 296.062C542.422 294.332 538.617 292.139 537.134 290.812C534.689 288.625 532.639 285.935 530.056 283.905L528.987 283.146C524.066 285.037 520.86 287.667 518.685 292.581C517.617 294.996 517.004 297.431 517.993 300.005C520.48 306.477 528.558 310.709 534.642 313.12C538.374 314.599 543.466 316.333 547.312 314.54C550.101 313.24 551.611 310.278 552.653 307.558C553.152 306.255 553.323 304.996 554.438 304.132C555.708 304.603 555.87 304.815 556.703 305.812C557.237 308.894 556.354 312.02 554.655 314.625C552.799 317.471 549.22 319.734 545.907 320.409C540.824 321.444 532.587 318.243 528.166 315.956C526.429 315.058 524.607 313.524 522.708 313.082Z"/>
	<path fill="#1B191A" transform="scale(0.666667 0.666667)" d="M45.3884 502.456C43.9533 502.714 42.4759 503.304 41.0766 503.736C36.62 458.585 43.7944 411.933 62.2185 370.453C68.6298 356.018 76.2238 342.217 86.0741 329.826C100.546 311.621 118.302 296.225 141.586 290.892C145.466 290.003 149.758 289.777 153.717 289.323L146.289 293.087C144.065 294.098 141.644 294.853 140.009 296.739C135.945 299.585 130.384 300.262 126.317 303.132C117.222 307.454 109.193 313.682 101.988 320.655C83.2872 338.756 70.8039 361.693 62.1583 386.05C53.4335 410.629 48.8844 435.878 46.5187 461.768C45.3144 474.947 44.5671 488.568 46.1157 501.75L45.3884 502.456Z"/>
	<path fill="#1B191A" transform="scale(0.666667 0.666667)" d="M569.357 368.062L570.206 367.786C571.524 368.165 572.449 369.202 573.412 370.13L580.795 377.707C588.658 385.879 596.38 393.375 605.698 399.92C612.062 398.001 617.342 395.013 622.807 391.254C625.081 389.691 627.486 387.704 630 386.588C630.975 386.155 631.385 386.122 632.348 386.529C633.023 387.465 633.361 387.697 633.374 388.875C631.293 390.962 628.906 392.778 626.621 394.635C620.214 399.843 613.286 404.759 604.952 406.149C590.794 408.512 573.968 404.473 562.336 396.203C561.135 400.858 561.095 404.794 562.585 409.411C565.188 417.476 569.55 422.847 577.148 426.702C587.812 432.115 601.414 431.611 612.562 427.863C622.67 424.465 631.095 418.369 635.87 408.712C637.144 405.69 638.001 402.749 638.738 399.562C639.556 396.027 638.512 390.977 639.906 387.908L641.062 387.758L642.132 388.688C644.721 391.477 644.565 397.227 644.237 400.688C643.344 410.118 637.051 419.583 629.942 425.567C619.244 434.573 605.274 439.331 591.271 437.91C579.25 436.689 567.347 429.834 559.778 420.488C555.004 414.593 551.967 407.504 552.902 399.785C553.224 397.127 553.639 394.693 555.938 393.015C557.09 392.174 559.243 391.17 560.724 391.321C562.317 391.484 564.334 392.652 565.812 393.27C569.138 394.66 572.464 396.115 575.906 397.195C583.883 399.699 591.991 400.683 600.244 401.751L590.273 394.109C583.967 388.874 578.554 382.355 573.073 376.287C571.574 374.628 568.045 371.47 567.845 369.408L569.357 368.062Z"/>
	<path fill="#E9E8E9" transform="scale(0.666667 0.666667)" d="M45.3884 502.456L46.1157 501.75C44.5671 488.568 45.3144 474.947 46.5187 461.768C48.8844 435.878 53.4335 410.629 62.1583 386.05C70.8039 361.693 83.2872 338.756 101.988 320.655C109.193 313.682 117.222 307.454 126.317 303.132C126.041 306.584 121.859 309.303 120.676 312.526C120.071 314.173 118.84 315.677 118.267 317.294C117.966 318.144 117.992 318.825 117.515 319.646C117.111 320.34 117.023 320.745 116.824 321.505C116.578 322.44 116.308 323.134 115.666 323.861C115.055 324.554 114.938 324.935 114.938 325.838C110.621 330.015 106.16 334.109 102.286 338.71C89.1621 354.293 80.383 372.241 73.6359 391.341C69.7195 402.427 66.3055 413.849 64.3001 425.453C61.9694 438.939 61.1963 453.158 60.9841 466.816C60.908 471.713 61.1482 495.677 63.3388 498.747C63.4298 500.809 63.2298 502.77 63.0227 504.814C62.8918 506.106 62.5755 507.124 62.0587 508.312L61.125 509.009C59.4164 508.601 57.2985 508.453 55.7297 507.725C54.152 506.992 52.9839 505.632 51.5625 504.671C50.1869 503.742 48.621 503.249 47.1204 502.581C46.5291 502.318 46.0129 502.409 45.3884 502.456Z"/>
	<path fill="#141314" transform="scale(0.666667 0.666667)" d="M361.398 340.927C356.623 345.369 352.654 350.372 348.763 355.58C340.421 366.745 333.665 378.657 328.352 391.535L324.244 402.795C323.506 404.978 322.949 407.324 321.764 409.312C320.636 409.505 320.668 409.534 319.697 408.938C319.195 406.712 319.942 403.824 320.445 401.625C323.168 389.728 328.699 378.28 334.953 367.875C347.334 347.277 362.429 329.836 383.055 317.111C384.29 316.349 389.3 313.433 390.671 313.899C391.649 314.232 393.44 317.198 394.091 318.139C396.369 321.429 398.603 324.847 401.427 327.707C405.336 331.663 411.072 334.764 416.491 336.021C429.522 339.045 443.969 331.04 453.683 323.149C459.083 318.762 463.733 313.775 469.689 310.078C473.932 312.805 479.067 317.893 480.773 322.688C482.342 327.1 481.275 331.647 479.307 335.732C472.133 350.619 457.061 361.433 441.741 366.7C425.711 372.212 409.972 374.103 394.296 366.404C385.644 362.154 377.989 355.306 374.832 345.968C374.141 343.924 373.405 340.894 374.048 338.812C374.352 337.828 375.242 336.687 375.722 335.731C375.307 333.414 377.243 331.21 378.005 329.074L377.156 328.511L369.425 333.869C366.708 335.802 363.499 338.331 361.398 340.927Z"/>
	<path fill="#FEFEFE" transform="scale(0.666667 0.666667)" d="M461.594 324.157C464.161 321.62 466.66 319.073 469.589 316.946L472.883 321.179L471.37 321.753C468.827 321.026 467.544 321.594 465.336 322.841L462.387 324.79L461.594 324.157Z"/>
	<path fill="#CAC9CA" transform="scale(0.666667 0.666667)" d="M385.229 334.701C386.791 331.131 389.017 329.321 391.976 326.913L392.306 327.478C395.645 333.117 401.656 337.697 407.064 341.271C405.78 342.142 404.581 342.657 403.125 343.176L402.613 343.363C401.248 343.848 399.425 344.423 397.982 344.244C396.033 342.517 392.963 341.586 390.644 340.369C388.121 339.045 386.106 337.504 385.229 334.701Z"/>
	<path fill="#E9E8E9" transform="scale(0.666667 0.666667)" d="M377.156 328.511L389.052 319.752L391.168 324.938L390.75 325.219C389.619 324.983 388.929 324.718 387.938 325.473C385.807 327.094 384.152 330.581 384.032 333.212L384.075 336.02L385.229 334.701C386.106 337.504 388.121 339.045 390.644 340.369C392.963 341.586 396.033 342.517 397.982 344.244C399.425 344.423 401.248 343.848 402.613 343.363L403.125 343.176C404.581 342.657 405.78 342.142 407.064 341.271C409.025 342.374 411.952 343.272 414.188 343.428C425.74 344.233 439.147 340.257 448.875 334.11C453.445 331.222 457.528 327.697 461.594 324.157L462.387 324.79L465.336 322.841C467.544 321.594 468.827 321.026 471.37 321.753L472.883 321.179C474.5 323.105 476.004 325.041 475.804 327.709C475.621 330.147 474.588 332.431 473.469 334.566C470.023 341.147 464.763 347.044 459.011 351.693C447.364 361.107 428.873 367.904 413.819 366.264C403.405 365.13 389.625 359.867 382.949 351.397C380.948 348.858 379.483 345.997 378.454 342.938C377.633 340.497 377.171 337.895 375.722 335.731C375.307 333.414 377.243 331.21 378.005 329.074L377.156 328.511Z"/>
	<path fill="#221F21" transform="scale(0.666667 0.666667)" d="M384.075 336.02L385.229 334.701C386.106 337.504 388.121 339.045 390.644 340.369C392.963 341.586 396.033 342.517 397.982 344.244C395.956 344.757 394.483 344.903 392.488 344.104C388.715 342.593 385.732 339.703 384.075 336.02Z"/>
	<path fill="#CAC9CA" transform="scale(0.666667 0.666667)" d="M462.387 324.79L465.336 322.841C467.544 321.594 468.827 321.026 471.37 321.753C471.882 322.732 472.448 323.623 472.521 324.75C470.34 326.142 464.807 326.343 462.188 326.329L461.76 325.688L462.387 324.79Z"/>
	<path fill="#141314" transform="scale(0.666667 0.666667)" d="M455.242 336.562C456.033 336.443 455.637 336.398 456.422 336.75C455.663 339.334 453.316 341.253 453.584 344.121L453.748 348.375C453.649 349.374 452.942 349.905 452.17 350.438C450.253 350.064 450.148 346.976 448.125 346.509C446.701 347.272 445.975 348.383 445.054 349.653L444.873 349.92C443.978 351.007 443.707 351.253 442.312 351.399L441.538 350.508C441.733 348.205 442.977 346.169 444.615 344.572C446.78 342.46 448.608 342.612 451.413 342.709L452.663 338.438C453.206 337.164 454.067 337.008 455.242 336.562Z"/>
	<path fill="#141314" transform="scale(0.666667 0.666667)" d="M411.164 346.199C412.82 347.425 415.481 349.033 416.091 351.118C416.641 353.002 416.114 355.721 415.066 357.35C413.914 359.143 412.497 360.042 410.438 360.432L409.827 360C410.898 358.272 411.795 355.833 411.402 353.788C411.232 352.901 411.205 352.617 410.438 352.134L408.938 352.641C406.056 354.676 405.499 357.345 403.356 359.812L402.562 359.633C401.784 358.771 401.53 358.37 401.289 357.188C402.274 354.079 404.989 352.599 407.285 350.526C408.734 349.218 409.944 347.716 411.164 346.199Z"/>
	<path fill="#221F21" transform="scale(0.666667 0.666667)" d="M215.39 68.3939C230.634 67.1584 246.974 69.9977 259.703 78.8113C268.357 84.803 278.714 96.1009 280.419 106.992C280.859 109.805 280.779 113.342 279.009 115.688C277.958 117.079 277.485 117.753 275.686 117.917L275.335 117.938C276.419 125.067 274.44 132.957 270.39 138.9C265.23 146.473 255.109 151.791 246.281 153.449C232.941 155.956 219.073 150.284 208.247 142.887C196.664 134.974 189.494 124.702 187.061 110.814C186.949 110.174 186.981 110.371 186.946 109.688C187.476 107.279 187.837 104.057 189 101.91L194.416 90.8794C186.821 86.0369 178.489 83.9631 169.495 84.8129C153.767 86.2992 140.908 96.4146 131.194 108.188L130.616 108L130.54 106.312C130.677 101.671 135.525 96.0801 138.701 92.9608C148.277 83.5573 162.023 78.4946 175.366 78.7049C182.855 78.8229 191.983 81.272 197.263 86.8615L197.621 87.2477C200.075 84.55 202.527 81.8934 205.378 79.6027L213.287 73.834L201.188 77.1763C200.478 76.3659 200.21 75.8532 199.934 74.8125C200.077 74.4872 200.109 74.3611 200.378 74.0625C203.861 70.1879 210.507 68.8957 215.39 68.3939Z"/>
	<path fill="#FEFEFE" transform="scale(0.666667 0.666667)" d="M219.525 74.4038C231.207 73.5588 243.394 76.0149 253.521 82.0409C263.478 87.9654 272.669 98.4114 275.348 109.902C275.769 111.709 275.803 112.787 274.811 114.372C274.114 114.473 274.378 114.598 274.078 113.891C273.016 111.388 272.002 108.862 270.732 106.455C267.304 99.9556 262.697 94.7097 256.753 90.3952C248.306 84.2632 236.194 79.9715 225.667 81.7242L225.12 81.8186C222.335 82.5709 219.759 83.4258 217.231 84.8379C210.143 88.7971 204.007 96.4197 201.879 104.309C198.991 115.017 202.394 125.59 207.699 134.855C202.378 130.8 197.683 123.843 195.684 117.455C193.067 109.093 195.323 101.661 199.33 94.234C202.779 87.8404 208.128 82.3683 213.834 77.9614C215.609 76.5905 217.353 75.0586 219.525 74.4038Z"/>
	<path fill="#221F21" transform="scale(0.666667 0.666667)" d="M114.983 206.769C112.742 207.085 110.6 207.965 108.344 208.288C99.7918 209.513 89.7359 207.942 81.622 205.158C69.1393 200.876 59.8821 191.729 54.1875 179.984C49.1096 169.51 49.535 158.327 53.3837 147.503C59.1289 131.344 70.9031 114.202 86.826 106.804C95.8346 102.619 106.564 102.015 115.895 105.497C121.844 107.717 126.627 110.888 131.585 114.783C141.003 122.181 148.207 130.498 153.189 141.481C159.021 154.337 158.535 168.853 153.607 181.957C152.481 184.952 150.026 191.842 146.625 192.857C145.576 193.169 145.387 193.121 144.498 192.624C143.683 189.546 146.607 185.304 147.809 182.407C148.806 180.004 149.605 177.453 150.261 174.937C152.095 167.9 152.948 159.997 151.581 152.822C149.126 139.941 139.318 126.547 128.541 119.326C118.827 112.818 106.61 108.464 94.8281 110.969C82.5317 113.584 73.5142 123.068 66.9466 133.3C60.0613 144.028 53.9605 158.027 56.9718 171.023C58.5701 177.921 62.3081 184.851 66.9513 190.16C68.301 191.703 69.5926 193.221 71.3542 194.304C67.2289 187.326 63.7413 180.839 62.5972 172.672C60.62 158.558 65.5136 144.324 74.0446 133.142C79.3855 126.142 87.689 119.466 96.6849 118.362C106.606 117.145 116.256 120.6 124.015 126.688C134.933 135.254 142.661 147.31 144.248 161.25C145.144 169.115 144.783 181.345 139.481 187.679C136.143 191.667 130.409 193.078 125.658 194.678C119.999 196.584 114.711 198.462 108.733 199.119C93.5492 200.786 82.0277 194.573 70.5696 185.429L70.6534 185.762C74.9624 196.69 91.6764 202.843 102.415 203.845C104.856 204.072 107.424 204.076 109.875 203.98C111.825 203.904 113.718 203.301 115.476 204.342C115.449 205.154 115.423 205.811 115.265 206.611L114.983 206.769Z"/>
	<path fill="#221F21" transform="scale(0.666667 0.666667)" d="M667.044 209.523L676.386 207.177C683.99 205.606 691.88 207.811 698.243 212.055C704.706 216.365 709.941 223.915 711.368 231.595C713.082 240.822 710.385 251.059 705.149 258.714C703.154 261.631 699.864 265.579 696.17 266.153L695.625 266.225C688.833 278.134 677.467 285.343 666.085 292.238C666.708 297.703 665.151 303.147 662.375 307.846C658.856 313.802 652.85 319.456 645.928 321.04C641.788 321.988 636.672 322.068 632.977 319.7C631.514 318.762 630.101 317.473 629.68 315.75C630.316 315.149 629.967 315.19 630.671 315.455C635.374 317.223 639.147 317.979 644.096 316.278C650.21 314.177 655.637 308.301 658.429 302.638C659.974 299.504 661.171 295.69 659.855 292.264C658.835 289.61 656.66 287.925 654.119 286.797C651.443 285.61 648.537 285.313 645.643 285.393C635.085 285.684 630.848 295.495 627.182 303.963C626.116 306.427 625.48 309.269 622.813 310.347C621.418 310.144 621.22 310.016 620.167 309.188C618.518 306.096 621.882 298.297 622.845 295.004L625.106 286.312L624.562 285.764L622.688 285.869C622.298 286.51 621.977 287.013 621.422 287.531C620.802 288.11 620.442 287.876 619.638 287.846C618.283 286.623 618.327 285.97 617.552 284.438L589.444 283.1C588.766 284.569 588.111 286.056 587.023 287.279C586.2 288.204 585.426 288.26 584.25 288.333L583.665 287.812C583.326 284.242 583.984 281.477 585.163 278.121C591.277 277.66 597.535 277.791 603.669 277.789C612.295 277.787 620.823 277.759 629.363 279.158L636.652 235.357C630.756 235.133 624.483 233.629 619.165 231.048C609.206 226.216 599.762 216.502 587.874 216.734C586.248 216.765 585.077 217.475 584.03 218.693C582.914 219.991 582.311 221.782 582.525 223.5C582.662 224.595 583.001 225.751 584.062 226.274C585.104 226.787 586.773 226.887 587.941 227.144C591.621 227.957 595.206 229.447 598.194 231.782C602.24 234.946 606.623 239.805 607.285 245.062C606.539 246.146 606.515 246.126 605.25 246.506C602.948 246.002 599.816 241.553 597.943 239.898C595.813 238.015 593.592 236.217 590.986 235.031C586.932 233.185 583.033 233.572 579.805 229.817C577.642 227.302 577.26 224.102 577.552 220.917C577.813 218.061 579.494 215.509 581.721 213.769C585.633 210.713 590.503 210.636 595.198 211.349L595.875 211.457C604.714 212.798 609.862 218.21 617.156 222.64C623.139 226.273 629.628 228.207 636.553 228.903C635.101 224.391 633.693 220.622 629.826 217.576C624.064 213.037 616.398 210.228 609.4 208.268C602.914 206.451 595.118 204.995 588.415 206.378C582.529 207.592 577.681 210.989 572.761 214.228C564.879 219.416 557.614 223.148 548.103 224.283C536.296 225.691 524.848 223.581 515.438 216.006C508.796 210.659 503.13 202.903 502.281 194.214C501.738 188.658 503.938 184.09 507.436 179.928C522.484 162.02 545.692 150.194 568.949 148.391C592.586 146.56 619.224 152.779 637.386 168.557C645.35 175.474 651.875 183.995 652.678 194.788C656.783 193.261 660.806 191.754 664.688 189.697C668.586 187.631 672.124 185.142 676.195 183.397C678.298 184.888 680.724 186.535 681.532 189.115C682.216 191.3 682.06 193.812 680.976 195.846C677.63 202.126 671.264 202.83 665.288 204.699L666.196 209.194L667.044 209.523Z"/>
	<path fill="#FEFEFE" transform="scale(0.666667 0.666667)" d="M676.506 188.812L676.894 188.994C677.549 189.975 677.652 191.051 677.853 192.188C677.462 194.098 676.169 195.179 674.62 196.277C671.503 198.487 668.583 198.913 664.872 198.331L663.75 197.956L663.617 197.562C668.551 195.067 672.218 192.246 676.506 188.812Z"/>
	<defs>
		<linearGradient id="gradient_2" gradientUnits="userSpaceOnUse" x1="674.52197" y1="231.13" x2="690.41901" y2="220.655">
			<stop offset="0" stop-color="#CFD1D0"/>
			<stop offset="1" stop-color="#F4F2F5"/>
		</linearGradient>
	</defs>
	<path fill="url(#gradient_2)" transform="scale(0.666667 0.666667)" d="M667.977 222.386C674.815 219.962 683.304 220.631 689.788 223.795C695.234 226.452 699.235 230.378 701.149 236.25L701.999 239.624C698.854 232.936 695.241 228.41 688.101 225.768C681.431 223.3 674.261 223.467 667.276 223.898L664.312 223.695L664.487 222.938C665.601 222.919 666.518 222.765 667.598 222.486L667.977 222.386Z"/>
	<path fill="#FEFEFE" transform="scale(0.666667 0.666667)" d="M670.129 213.888C679.795 212.207 687.389 211.184 695.973 217.173C700.362 220.235 704.891 226.445 705.278 231.938C705.315 232.465 705.253 232.609 705.145 233.062C703.802 231.309 702.929 229.24 701.559 227.485C696.782 221.368 689.704 217.712 682.054 216.671C679.055 216.263 675.654 216.145 672.726 216.956C672.013 216.252 671.159 215.77 670.312 215.244L670.129 213.888Z"/>
	<path fill="#FEFEFE" transform="scale(0.666667 0.666667)" d="M577.864 155.033C593.325 154.324 610.079 158.376 623.526 165.995C633.346 171.56 645.259 181.339 648.351 192.657L629.282 174.73C612.584 161.778 592.081 157.917 571.41 160.611C558.252 162.664 545.822 166.852 535.523 175.608C530.366 179.992 525.552 185.624 525.044 192.67C524.565 199.296 527.027 203.047 531.259 207.85L527.742 205.579C524.596 203.157 520.713 199.661 520.363 195.47C519.813 188.883 523.216 182.245 527.453 177.398C531.164 173.152 535.459 169.926 540.2 166.938C552.003 159.499 564.011 155.939 577.864 155.033Z"/>
	<path fill="#8C8A8D" transform="scale(0.666667 0.666667)" d="M667.276 223.898L640.659 228.081C639.077 221.834 637.973 216.517 632.685 212.217C625.268 206.186 613.137 202.522 603.803 201.549C601.395 201.298 598.891 200.98 596.478 201.252L593.25 201.658L592.962 201.377C595.264 199.588 601.722 198.984 604.711 198.604C611.902 197.689 619.365 197.725 626.597 198.055C629.603 198.192 632.618 198.654 635.625 198.658C638.427 198.662 641.222 198.164 644.025 198.067C644.583 198.048 645.936 197.858 646.424 197.995C646.974 198.15 649.472 200.777 650.18 201.327L661.542 197.782L662.223 200.58C662.8 202.252 663.679 203.941 665.288 204.699L666.196 209.194L667.044 209.523C664.27 210.505 661.698 212.029 659.012 213.229C655.832 214.651 651.443 215.898 648.751 218.062L648.504 218.812L648.938 219.646C651.384 219.953 653.502 218.81 655.703 217.894C659.426 216.345 662.876 215.118 666.858 214.371C667.808 214.192 669.19 213.782 670.129 213.888L670.312 215.244C671.159 215.77 672.013 216.252 672.726 216.956C669.371 218.106 667.095 219.092 664.641 221.744L664.687 222.302L667.977 222.386L667.598 222.486C666.518 222.765 665.601 222.919 664.487 222.938L664.312 223.695L667.276 223.898Z"/>
	<path fill="#1B191A" transform="scale(0.666667 0.666667)" d="M322.697 138.07C325.975 127.195 329.707 117.993 340.239 112.339C345.961 109.267 353.14 107.742 359.472 109.671C365.079 111.378 369.138 114.778 372.603 119.394C371.228 114.65 370.537 110.048 371.874 105.188C374.032 97.3488 378.218 90.6859 385.387 86.5613C398.859 78.8099 416.997 78.0603 432.152 79.3458C438.605 79.8932 444.932 80.692 451.184 82.4404C470.737 87.9088 487.408 100.424 497.279 118.273C506.908 135.686 507.727 155.931 502.275 174.867C500.086 182.472 495.725 190.455 488.578 194.391L488.153 194.618C492.182 199.673 493.47 204.431 492.729 210.845C491.92 217.84 487.91 223.892 482.386 228.165C478.771 230.962 474.892 232.615 470.566 233.991L470.747 234.454C471.373 236.091 472.119 237.975 471.304 239.68C470.268 241.846 468.581 243.263 466.312 243.979L465.698 243.76C465.643 242.117 466.718 240.985 466.913 239.438C467.189 237.234 464.35 234.066 466.284 232.091C468.382 229.948 471.625 228.541 474.231 227.052C481.265 223.033 487.057 216.876 487.208 208.345C487.269 204.968 486.459 201.012 483.973 198.545C482.079 196.667 479.909 195.678 477.222 195.733C473.483 195.81 469.688 197.381 467.136 200.136C463.35 204.225 461.114 213.192 454.586 213.544C451.964 213.685 449.441 212.742 447.533 210.938C446.78 210.226 446.287 209.376 446.363 208.312C446.564 205.506 447.696 202.726 447.93 199.87L433.984 206.157C431.792 207.032 428.449 207.706 426.557 208.869C425.839 209.31 425.523 209.822 425.062 210.506C422.425 210.854 420.359 210.179 417.698 211.056C417.199 212.259 418.106 214.42 418.364 215.735C418.955 218.753 418.799 221.639 418.529 224.672C418.135 229.094 415.998 234.096 412.558 236.979C409.594 239.463 404.224 240.706 400.375 240.269C396.403 239.818 392.789 238.048 389.662 235.603C384.814 230.243 382.095 224.801 378.483 218.69C378.009 217.889 377.638 217.164 377.284 216.306L377.029 215.591C376.168 213.058 375.807 209.484 375.528 206.812C374.545 206.463 373.807 206.853 372.882 207.188C372.375 208.117 372.709 209.573 372.953 210.562C373.706 213.623 377.321 212.855 376.312 216.703L373.67 217.312C372.045 219.37 371.454 223.884 370.578 226.466L365.35 240.892C367.654 243.585 370.02 245.163 373.556 245.886C378.962 245.645 385.223 245.874 390.01 243.015C390.922 242.972 391.03 242.9 391.772 243.404L391.894 244.735C391.913 245.733 391.495 246.724 390.766 247.401C389.616 248.467 388.036 248.831 386.562 249.237C382.072 250.474 378.147 250.761 373.5 250.526C368.05 250.251 364.927 246.881 361.505 243.116L361.546 246.915C361.876 250.169 363.758 253.96 364.878 257.047C369.406 269.519 374.663 285.744 385.193 294.442C389.255 297.798 393.697 298.667 398.826 298.105C420.663 295.712 436.59 272.602 444.177 253.93L447.881 243.547C448.625 241.317 449.437 238.298 451.004 236.498C452.051 235.297 452.743 235.06 454.312 234.909L454.972 235.688C455.041 240.273 453.551 245.059 452.076 249.36C447.435 262.901 439.562 276.665 429.703 287.072C421.323 295.918 409.855 303.416 397.312 303.636C390.04 303.764 384.274 301.273 379.194 296.179C369.154 286.111 363.502 270.729 359.273 257.427C357.917 253.16 356.199 248.473 356.243 243.956L356.253 243.389C350.015 244.015 343.939 243.527 338.536 240.117C328.895 234.032 325.869 222.608 323.491 212.183C321.978 212.463 319.948 212.998 318.562 212.329C318.192 211.189 318.308 210.42 318.491 209.275C319.717 207.054 322.886 206.3 325.135 205.481C326.87 201.829 331.047 197.691 334.24 195.246C341.57 189.63 352.572 187.223 361.69 188.625C369.281 189.792 370.933 195.015 374.893 200.358C375.648 200.632 376.008 200.801 376.63 200.062C377.168 199.424 377.64 198.028 378.052 197.25C380.047 193.484 383.111 190.696 387.112 189.141C392.394 187.088 399.384 188.091 404.425 190.448C410.978 193.513 414.187 198.516 416.594 205.093L447.602 193.753L448.096 193.596C448.568 189.875 448.718 185.999 448.71 182.25L448.514 175.421C448.473 174.315 448.263 172.924 448.623 171.864L448.902 171.188C447.74 168.599 446.123 164.499 443.812 162.743C443.019 162.14 442.369 162.096 441.419 162.15C436.429 162.433 430.644 163.341 425.944 165.086C424.617 165.579 422.419 167.283 421.218 167.444C418.8 167.767 414.263 165.405 411.766 164.735C408.43 163.841 405.053 163.702 401.637 164.225C399.034 164.623 396.516 165.39 394.125 166.491C391.627 167.642 388.636 169.724 385.875 169.919C385.49 169.657 385.258 169.53 384.938 169.152C384.189 168.271 384.255 167.368 384.372 166.312C387.368 161.507 395.665 158.332 400.946 156.898C399.709 155.211 397.559 153.825 396.013 152.34C391.366 147.878 388.059 143.438 384.968 137.811L384.562 136.519L384 136.458C383.05 138.237 383.034 139.918 382.502 141.794C380.521 155.229 372.498 163.513 362.879 172.306C366.667 172.753 371.818 173.602 374.28 176.812C375.027 177.787 375.393 178.601 375.538 179.812C374.977 180.889 374.778 180.917 373.688 181.493C369.761 181.95 364.857 176.074 361.094 177.562L360.964 178.049C360.585 179.338 360.381 179.792 359.25 180.459L358.178 180.3L357.566 179.438C357.696 179.062 357.686 178.605 357.955 178.312C358.828 177.362 360.785 177.619 360.424 176.062C359.278 175.627 357.985 176.071 356.833 176.36C353.272 177.254 349.929 178.797 346.312 179.549C326.997 183.565 309.763 174.033 301.647 156.267C299.672 151.943 297.189 144.335 298.741 139.681C298.954 139.04 299.391 138.532 299.812 138.02C300.811 137.611 300.862 137.539 301.892 137.812C303.261 139.359 303.307 143.195 303.822 145.257C305.873 153.462 310.579 164.163 319.184 167.115C320.919 167.943 323.679 167.832 325.5 167.333C327.875 166.682 330.23 165.015 331.43 162.836C331.742 162.27 332.418 160.96 332.138 160.312C331.601 159.07 329.465 157.374 328.514 156.335C326.201 153.81 324.838 150.958 323.82 147.73L323.753 147.316L323.647 146.625C323.216 143.911 323.666 140.542 322.697 138.07Z"/>
	<path fill="#FEFEFE" transform="scale(0.666667 0.666667)" d="M382.517 205.312C384.157 204.592 387.929 206.338 389.587 206.969C389.969 213.358 390.096 219.441 389.405 225.818C389.043 225.441 388.731 225.06 388.451 224.618C385.303 219.64 381.171 211.279 382.517 205.312Z"/>
	<path fill="#FEFEFE" transform="scale(0.666667 0.666667)" d="M344.058 210.938C347.709 213.578 347.681 218.111 348.542 222.149C349.014 224.364 349.836 226.572 350.882 228.582C352.809 232.285 355.495 234.538 358.312 237.504L357.938 238.284C356.825 238.652 355.09 238.906 354.025 238.28C348.735 235.17 345.945 228.998 344.625 223.312C343.901 220.191 342.353 213.705 344.058 210.938Z"/>
	<path fill="#FEFEFE" transform="scale(0.666667 0.666667)" d="M330.15 211.312C332.26 210.582 336.229 211.773 338.547 212.034L339.035 218.514C339.599 223.329 341.385 229.569 344.506 233.309C346.324 235.487 348.886 237.229 351.115 238.972C347.057 238.102 343.739 237.102 340.481 234.354C334.01 228.897 330.768 219.529 330.15 211.312Z"/>
	<path fill="#FEFEFE" transform="scale(0.666667 0.666667)" d="M351.364 195.146C353.746 194.757 357.068 194.821 359.461 195.196L360 195.287L361.149 195.462C364.544 196.112 366.379 198.509 368.166 201.2C366.34 203.236 363.518 204.445 361.127 205.677C360.062 206.226 358.552 206.931 357.87 207.966C357.252 208.903 357.32 210.501 357.75 211.5C358.081 212.269 358.795 212.812 359.583 213.02C360.552 213.275 361.75 213.028 362.566 212.483C364.207 211.388 364.439 210.141 364.754 208.266L364.836 207.75L365.438 207.351C366.572 207.72 366.822 207.67 367.517 208.688C367.656 216.795 364.263 224.796 361.514 232.312L360.981 233.509L360.429 233.594C357.764 229.993 355.085 226.029 353.675 221.743C352.474 218.093 352.609 212.693 350.439 209.6C349.022 207.581 346.959 207.358 345.031 206.104C343.898 205.368 342.225 203.523 340.881 203.412C339.298 203.282 338.244 204.255 337.107 205.205C336.298 205.881 332.754 205.44 331.544 205.419C337.532 198.731 342.572 196.103 351.364 195.146Z"/>
	<path fill="#E9E8E9" transform="scale(0.666667 0.666667)" d="M392.54 194.735C395.505 194.567 398.086 194.928 400.811 196.197C406.355 198.778 408.274 202.998 410.231 208.393C408.442 208.532 405.375 208.71 403.875 209.7C403.026 210.26 402.768 210.864 402.725 211.851C402.669 213.113 403.554 213.912 404.352 214.761C406.97 215.278 409.145 214.039 411.457 212.971C411.719 216.565 411.419 220.153 410.742 223.686C409.895 228.104 408.718 231.548 404.858 234.15C400.791 234.912 397.327 234.144 393.938 231.741C392.379 230.636 390.292 228.636 390.017 226.688C390.526 226.537 390.64 226.534 391.142 226.225C391.857 225.785 392.538 224.687 392.876 223.939C393.982 221.495 394.266 218.344 394.585 215.69L396.069 204.564C393.551 203.496 390.905 202.83 388.216 202.357C387.145 202.168 384.244 202.173 383.438 201.732C383.22 201.614 383.101 201.369 382.933 201.188C383.151 200.662 383.354 200.157 383.681 199.688C385.927 196.47 388.88 195.401 392.54 194.735Z"/>
	<path fill="#676569" transform="scale(0.666667 0.666667)" d="M349.99 114.06C356.357 113.492 361.609 115.087 366.514 119.212C370.946 122.94 374.519 128.8 374.944 134.654C375.697 145.044 370.141 155.424 363.515 163.04C356.638 170.946 348.659 174.167 338.342 174.894C332.72 175.225 327.721 174.732 322.294 173.266C327.979 171.848 333.614 170.024 336.764 164.562C337.456 163.363 337.867 161.541 337.443 160.184C336.829 158.22 334.661 156.549 333.309 155.062C330.893 152.406 329.236 149.346 328.419 145.835C326.974 139.624 329.186 131.241 332.468 125.922C336.486 119.409 342.715 115.762 349.99 114.06Z"/>
	<path fill="#221F21" transform="scale(0.666667 0.666667)" d="M345.977 126.562C347.008 126.512 348.043 126.442 349.036 126.781C351.756 127.707 354.049 130.297 355.279 132.81C356.276 134.849 356.94 137.219 356.076 139.418C355.242 141.54 353.736 142.493 351.752 143.425C350.308 143.659 348.336 143.904 346.938 143.468C344.861 142.821 343.003 140.435 342.21 138.512C341.106 135.834 340.972 132.507 342.221 129.837C343.048 128.067 344.153 127.153 345.977 126.562Z"/>
	<path fill="#676569" transform="scale(0.666667 0.666667)" d="M382.502 141.794C382.777 137.345 381.235 133.655 379.821 129.554C376.853 120.946 375.089 111.741 378.438 102.958C380.948 96.3729 385.732 92.6538 392.023 89.8601C396.359 87.9348 401.049 86.7948 405.691 85.8819C422.157 82.644 441.561 83.7339 457.234 89.8909C474.217 96.5625 488.255 108.628 495.478 125.579C501.592 139.928 502.316 158.294 496.426 172.926C495.18 176.022 493.962 179.01 492.231 181.875C490.3 185.072 487.782 188.335 484.81 190.62C484.808 190.622 483.937 191.277 483.906 191.28C483.492 191.322 482.119 190.783 481.641 190.661C478.55 189.872 475.61 189.679 472.5 190.545C468.155 191.756 463.765 194.958 461.445 198.82C459.637 201.828 458.5 205.162 456.721 208.206C457.077 205.336 459.219 199.507 458.062 197.073C457.104 197.138 457.542 197.224 456.738 196.875L456.894 196.268C457.534 196.03 458.264 195.774 458.812 195.361C460.306 194.235 461.414 191.168 461.767 189.416C463.132 182.648 459.633 172.374 455.813 166.753C452.982 162.589 449.287 158.954 444.321 157.541C438.277 155.821 430.108 158.038 424.215 159.622C421.847 160.258 419.059 161.337 416.604 160.76C413.975 160.143 411.196 158.523 408.918 157.105C402.353 153.017 396.296 147.694 392.178 141.117C393.201 140.411 395.462 138.964 396.041 137.87C396.62 136.778 396.394 134.299 395.898 133.184C395.365 131.985 394.128 130.52 392.812 130.164C391.456 129.797 389.828 130.03 388.686 130.862C386.625 132.366 385.473 135.008 385.03 137.444L384.968 137.811L384.562 136.519L384 136.458C383.05 138.237 383.034 139.918 382.502 141.794Z"/>
	<path fill="#221F21" transform="scale(0.666667 0.666667)" d="M186.739 585.757C185.858 585.358 185.075 584.486 184.547 583.688C183.021 581.38 184.594 577.485 185.163 575.044L176.33 564.695C174.105 561.826 171.262 557.769 171.804 553.984L172.604 547.456C173.134 545.091 175.368 543.988 177.253 542.804L175.881 539.812C175.04 537.432 174.738 533.717 175.984 531.43C177.1 529.379 178.886 528.487 181.028 527.859L181.502 527.725C180.785 524.86 180.147 522.153 180.732 519.188C181.633 514.624 184.44 510.089 188.339 507.513L188.718 507.27L182.068 433.167C181.576 427.916 179.716 416.413 183.29 412.374C185.176 410.244 187.657 410.037 190.343 409.987C203.467 409.738 216.953 411.636 230.063 412.504L307.399 417.468L395.413 423.541L418.112 425.293C425.867 425.815 433.868 426.182 441.554 427.299C444.882 427.782 448.754 428.526 451.236 430.923L451.507 431.191C452.864 431.378 454.333 431.55 455.438 432.442C456.794 433.538 457.208 435.739 457.545 437.358C460.221 450.198 461.203 463.943 462.615 476.998L473.257 578.958C482.165 573.788 490.049 566.292 495.938 557.874C500.626 551.171 504.139 543.724 507.262 536.191C512.93 522.516 516.792 508.512 519.858 494.051C523.746 475.716 526.561 456.689 526.903 437.925C527.151 424.24 525.996 410.398 523.503 396.938C519.366 374.592 509.215 350.599 489.938 337.355L489.838 336.562C491.053 335.641 492.254 335.228 493.784 335.422C498.909 336.071 505.278 344.572 508.285 348.563C519.82 363.874 526.276 382.392 529.512 401.145C530.817 408.71 532.028 416.448 532.443 424.125C533.747 448.237 530.128 473.444 524.792 496.911C521.002 513.577 516.538 529.911 508.745 545.21C504.186 554.162 498.818 563.517 491.619 570.603C487.552 574.607 482.735 578.085 478.312 581.708C477.085 582.714 473.992 584.557 473.961 586.125C473.946 586.886 474.191 587.874 474.75 588.363C476.167 587.059 477.282 585.379 478.654 583.995C483.636 578.968 489.342 575.29 496.1 573.122C499.388 572.067 503.087 572.173 506.449 572.8C515.013 574.397 523.645 578.644 531.565 582.182C540.243 586.059 548.744 589.508 556.566 595.057C565.118 601.125 572.363 609.692 581.702 614.522C586.117 616.805 591.068 617.674 595.878 618.747C599.774 619.615 603.775 621.03 607.688 621.62C613.863 622.551 620.797 621.099 626.674 619.22C625.796 612.165 622.876 606.559 618.044 601.386C616.397 599.623 614.486 598.161 612.825 596.438C611.908 595.485 611.63 595.137 611.658 593.812C611.941 593.433 612.195 593.092 612.562 592.789C614.175 591.459 616.991 591.069 618.995 590.651C624.856 589.428 630.697 589.416 636.654 589.58C646.03 589.837 655.035 590.893 664.298 592.361C669.089 593.121 673.916 594.225 678.75 594.63C684.497 595.111 690.25 594.12 696 594.395L696.418 594.938C696.175 595.334 695.946 595.727 695.62 596.062C694.089 597.641 691.197 598.209 689.114 598.563C676.177 600.762 663.31 596.818 650.459 595.599L624.76 594.417L629.654 599.053C635.789 606.141 637.344 616.998 636.566 626.003C635.957 633.053 633.209 641.093 628.854 646.718C623.76 653.297 617.025 657.916 610.712 663.167C614.128 665.904 618.119 667.781 622.063 669.626C638.987 677.543 658.76 681.467 677.384 682.197C689.977 682.691 705.717 680.791 715.292 671.812C726.184 661.599 727.311 645.621 727.712 631.6C728.541 602.631 724.439 573.262 717.856 545.117C713.396 526.045 707.952 507.491 700.761 489.269C695.498 475.931 689.714 462.72 682.286 450.414C673.942 436.588 663.569 424.395 652.517 412.688L652.608 411.856L654.188 410.962C655.548 410.887 656.214 411.248 657.325 412.028C663.025 416.03 667.995 422.437 672.391 427.823C693.973 454.266 707.259 486.807 716.8 519.308C721.653 535.841 725.709 552.498 728.587 569.494C729.92 577.368 730.641 585.361 731.341 593.312C732.482 606.275 733.189 618.847 732.753 631.875C732.494 639.6 732.166 647.649 730.444 655.199C729.127 660.975 727.068 666.466 723.582 671.301C716.768 680.756 707.153 684.923 696.018 686.723C695.601 693.976 695.117 700.801 693.622 707.95C693.097 710.46 692.592 713.038 691.879 715.5C691.582 716.524 690.682 718.225 690.8 719.23L721.633 719.6C728.268 719.883 735.19 720.046 741.724 721.259C737.896 722.783 734.295 723.688 730.184 724.096C723.494 724.761 716.632 724.699 709.909 724.829L675.001 725.648L650.32 727.596L595.77 730.339L500.276 731.264L250.973 732.377L147.261 731.75L129.535 731.376C124.924 731.303 120.012 731.504 115.487 730.509C114.944 730.39 114.984 730.199 114.703 729.75C114.885 728.892 115.053 728.196 114.972 727.312C109.385 727.896 103.428 727.523 97.7954 727.52L58.4907 726.9C48.9503 726.668 39.0969 727.359 29.6166 726.295C28.486 726.169 28.1333 726.317 27.4262 725.438L27.8949 724.264C30.8983 722.345 37.9648 722.648 41.6487 722.42L40.7813 684.128L40.1011 635.264L39.4469 612.153L39.0248 600.882C39.0322 600.153 38.8592 598.64 39.0792 597.974C39.3176 597.252 39.957 596.493 40.456 595.942C44.6556 591.311 50.2284 591.365 56.0289 591.365L71.996 591.685C66.4092 589.767 59.503 589.367 53.6181 588.685C51.6894 588.462 47.0035 588.598 45.5625 587.574C45.4124 586.488 45.6738 586.168 46.1156 585.188C46.4312 584.986 46.7046 584.693 47.0625 584.583C47.8408 584.343 50.1127 584.733 50.9678 584.824L62.5773 586.142L60.6205 584.783C58.1587 583.254 55.4733 582.055 52.9627 580.599C49.2275 578.433 40.4782 571.734 36.1067 572.877L35.625 573.028L34.9471 572.438C34.8435 570.919 35.3156 570.03 36.1875 568.797C38.9778 564.851 42.8113 562.264 47.6235 561.562C57.1716 560.171 68.958 567.481 75.5918 573.805C79.369 577.407 82.4115 581.766 86.5976 584.921C85.9654 583.499 84.5457 582.021 83.5987 580.772C81.0112 577.357 78.4045 574.066 75.3962 571.012C71.4735 567.031 67.0101 563.239 63.6337 558.783C62.855 557.755 62.4405 556.787 62.7178 555.48C63.0741 553.801 64.2981 552.181 65.7774 551.315C67.7325 550.17 71.3058 551.196 73.3796 551.685C71.6426 550.429 69.1511 548.965 67.8802 547.258C66.1965 544.998 64.1442 542.892 61.9086 541.168C57.8744 538.058 45.83 531.823 44.6461 527.68C43.9253 525.158 44.6033 522.805 45.9207 520.614C48.1687 516.877 52.9242 513.303 57.1804 512.341C58.1678 512.118 60.1883 511.885 61.125 512.306C62.6692 512.999 64.4165 514.631 65.8503 515.618L71.0179 518.812C71.5642 519.189 72.2873 519.629 72.3606 520.33C72.5726 522.357 71.0873 524.22 69.9942 525.794C68.469 525.441 66.9726 525.245 65.4033 525.372C62.8367 525.579 60.2564 527.138 58.6875 529.154C57.8972 530.17 57.8944 531.466 58.0931 532.688C58.5796 535.678 62.8837 538.104 65.1995 539.799C64.4428 537.756 63.1965 535.098 63.4933 532.875C63.6902 531.4 64.3046 530.965 65.3582 530.062L66.0338 530.237C66.9924 533.24 67.5771 536.23 69.0469 539.062C69.7993 540.512 70.7394 541.75 71.9753 542.826C73.5947 544.236 75.6409 545.31 77.3663 546.623C79.8097 548.483 82.6171 551.789 85.2565 552.96L85.7173 553.372C86.1851 553.804 86.4373 554.131 86.8088 554.625C87.837 555.993 89.7638 557.24 90.3731 558.752C90.7452 559.675 91.4921 560.222 92.2348 560.829C92.1825 561.88 92.2595 561.967 92.8125 562.875C94.3379 562.576 94.3208 563.365 95.735 562.383L96.532 562.024L95.6176 563.812L93.7575 564.188C96.3949 570.121 97.6881 575.528 98.5112 581.953C98.9181 585.129 99.1242 588.39 100.081 591.46C100.889 588.604 100.811 585.523 100.935 582.57C101.221 575.715 101.101 568.767 102.958 562.106C103.718 559.378 104.705 556.645 106.699 554.563C107.437 553.791 108.399 552.736 109.371 552.277C110.862 551.574 112.022 551.583 113.625 551.674C114.2 551.141 114.36 550.79 114.619 550.087C115.111 548.747 117.61 546.288 117.188 545.219L113.96 543.779C115.672 543.338 117.496 542.942 119.132 542.275C122.21 541.02 124.996 538.323 128.347 540.392C129.956 541.385 131.894 543.252 132.234 545.198C132.872 548.844 129.843 553.597 127.663 556.317C125.844 558.587 123.619 560.497 121.812 562.791C119.461 565.777 117.209 569.113 115.703 572.613C113.149 578.549 112.001 585.193 110.083 591.371L128.647 592.231C133.309 592.399 138.625 592.137 143.182 593.114C145.006 593.504 146.704 594.282 147.968 595.688C148.683 596.483 149.245 597.465 149.464 598.518C150.019 601.18 149.666 604.64 149.603 607.376L147.81 635.3L140.572 701.244C143.694 699.028 146.469 696.396 149.484 694.044L168.229 679.726L205.508 650.663C214.399 644.166 223.767 636.598 234.484 633.502C238.177 632.435 242.81 632.946 246.612 633.161C250.361 633.372 254.262 633.449 257.967 634.096C261.233 634.665 263.139 635.683 265.523 638.044C269.761 635.383 273.938 633.481 278.508 631.506L250.496 629.163C241.195 628.473 210.452 627.75 205.054 620.578C202.164 616.739 200.718 607.042 200.501 602.175C200.061 601.663 199.886 598.523 199.799 597.764L198.199 583.932L192.556 580.587L196.885 586.656C194.243 585.205 192.134 584.085 190.43 581.508L190.135 581.051L189.621 583.431C189.294 584.854 189.152 585.636 187.875 586.44L186.739 585.757Z"/>
	<path fill="#FEFEFE" transform="scale(0.666667 0.666667)" d="M687.523 710.438L687.958 710.508C687.7 713.469 686.858 716.082 685.65 718.78L681.188 719.725L680.73 719.606C683.632 716.462 685.663 714.42 687.523 710.438Z"/>
	<path fill="#FEFEFE" transform="scale(0.666667 0.666667)" d="M495.05 627.357L494.884 630.188L494.25 630.54C491.401 630.552 483.846 631.285 481.779 629.662C481.549 628.577 481.225 627.873 481.594 626.812L494.513 626.925L495.05 627.357Z"/>
	<path fill="#FEFEFE" transform="scale(0.666667 0.666667)" d="M175.585 553.312C176.537 553.683 179.485 559.034 180.405 560.195C183.496 564.092 186.95 567.031 191.102 569.745C192.882 570.909 194.89 571.881 196.404 573.382C196.907 574.601 197.07 575.421 197.062 576.743L196.45 576.864C190.432 574.114 184.505 568.497 180.371 563.409C178.089 560.602 175.181 557.088 175.585 553.312Z"/>
	<path fill="#FEFEFE" transform="scale(0.666667 0.666667)" d="M188.656 512.438L189.103 512.524L189.435 513.188C189.939 514.544 189.781 517.113 189.93 518.607L191 528.012C191.157 529.364 191.566 531.361 191.418 532.688C191.39 532.942 191.181 533.142 191.062 533.369L189.469 531.956C188.567 530.821 187.718 529.685 187.047 528.396C185.294 525.028 184.561 521.01 185.763 517.324L185.964 516.75C186.58 514.933 187.413 513.865 188.656 512.438Z"/>
	<path fill="#FEFEFE" transform="scale(0.666667 0.666667)" d="M181.733 531.188C183.288 531.406 185.546 535.225 186.866 536.434C188.384 537.824 189.889 538.745 191.829 539.418L192.209 539.545C192.111 542.215 192.138 544.976 192.359 547.637C192.489 549.209 193.425 552.087 192.728 553.361L191.812 552.753C187.408 548.913 185.978 542.824 182.45 538.277C181.364 537.876 180.636 537.508 179.712 536.812C179.262 535.897 179.044 535.256 179.153 534.22C179.325 532.591 180.547 532.061 181.733 531.188Z"/>
	<path fill="#FEFEFE" transform="scale(0.666667 0.666667)" d="M179.365 544.312L180.194 544.092C182.994 546.836 184.248 551.143 187.069 554.15C188.486 555.661 190.155 557.025 191.923 558.109C192.988 558.763 194.399 559.214 195.149 560.21C195.269 562.234 195.619 564.513 195.274 566.511L194.438 566.289L189.714 563.078C186.42 560.566 177.905 552.183 177.595 548.25C177.465 546.605 178.373 545.501 179.365 544.312Z"/>
	<path fill="#FEFEFE" transform="scale(0.666667 0.666667)" d="M53.48 568.312C53.8276 568.166 53.9666 568.084 54.381 568.041C59.2757 567.532 70.6127 576.656 74.4503 579.827C76.3336 581.384 85.1371 588.2 85.3125 590.007L84.375 590.175C82.2786 589.46 80.6359 587.846 78.9468 586.45L70.665 579.73C68.4925 578.396 66.3116 577.345 63.9687 576.343C66.104 579.707 69.1304 583.748 72.4062 586.084C73.3414 586.751 73.957 587.325 74.7269 588.188C74.0775 588.037 74.2937 588.17 73.8161 587.759C71.3262 585.617 68.066 584.47 65.2426 582.768C60.7508 580.062 56.2839 576.916 52.125 573.704C51.4812 573.206 49.4099 571.725 49.3045 570.963L53.48 568.312Z"/>
	<path fill="#FEFEFE" transform="scale(0.666667 0.666667)" d="M120.466 546.562L121.164 546.272C123.086 545.83 126.321 547.786 128.027 548.647L127.167 550.125C125.836 552.468 123.988 554.381 122.31 556.472C117.469 562.504 112.903 568.597 110.413 576.005C109.229 579.527 108.466 583.174 107.407 586.733C106.972 588.194 106.796 589.742 105.562 590.672L104.812 590.26L104.686 588.938C106.245 577.964 107.169 562.42 115.109 553.914C116.962 554.381 119.094 554.896 121.01 554.582C123.155 554.231 124.434 551.982 125.658 550.373L116.715 551.135C117.853 549.37 118.89 547.98 120.466 546.562Z"/>
	<path fill="#FEFEFE" transform="scale(0.666667 0.666667)" d="M238.812 660.938C239.384 660.797 239.435 660.666 239.987 660.938L239.716 661.294C237.955 663.363 235.377 665.004 233.176 666.587L221.005 675.118L188.527 698.539L164.71 717.365C160.872 720.443 157.016 723.925 152.903 726.619C150.721 728.047 147.845 728.05 145.312 728.262L144.144 728.132C144.86 726.462 149.403 724.222 150.993 723.158L162.596 714.821L219.515 673.595C225.849 669.295 232.088 664.592 238.812 660.938Z"/>
	<path fill="#FEFEFE" transform="scale(0.666667 0.666667)" d="M68.0743 555.188C70.2819 555.038 75.6236 555.962 77.4181 557.062C87.5907 563.302 92.1436 575.526 94.6839 586.581C94.9384 587.689 95.4532 588.774 94.8338 589.759L93.1875 589.609C92.475 589.377 91.9001 589.073 91.3125 588.609C87.3602 585.491 85.3996 580.589 82.1715 576.79C77.6389 571.456 71.9371 566.994 67.6896 561.433C66.6388 560.057 65.8712 558.797 65.6886 557.062C66.3336 555.902 66.9155 555.788 68.0743 555.188Z"/>
	<path fill="#CAC9CA" transform="scale(0.666667 0.666667)" d="M71.5559 644.121C72.2681 644.166 71.9674 644.188 72.6711 644.068C77.1044 643.31 83.2161 642.495 87.6586 643.371L85.172 645.046C80.8342 647.652 76.6667 651.915 75.3663 656.895C73.5732 663.761 75.034 672.538 75.6794 679.507L77.9007 701.326C78.5826 706.624 79.4174 711.981 79.5017 717.33C79.531 719.184 79.688 721.243 79.1104 723.023L78.0832 722.542C76.4577 721.709 74.6083 721.889 72.8109 721.856L64.4242 651.422C64.9453 651.258 66.0699 651.069 66.479 650.778C68.1333 649.601 70.1938 645.84 71.5559 644.121Z"/>
	<path fill="#FEFEFE" transform="scale(0.666667 0.666667)" d="M358.956 686.062L360.004 685.894L360.593 686.334C359.601 690.123 357.247 693.929 355.604 697.52C351.205 707.137 346.694 717.328 344.712 727.728L323.906 727.87C323.283 727.812 323.179 727.706 322.688 727.353C323.164 721.286 326.706 714.071 329.704 708.827C335.769 698.22 347.113 689.248 358.956 686.062Z"/>
	<path fill="#CAC9CA" transform="scale(0.666667 0.666667)" d="M63.1816 649.049C62.4238 649.539 61.5288 650.036 60.9966 650.78C60.0362 652.121 60.3148 654.039 60.4208 655.606L61.6713 668.103L64.8358 697.378L68.4602 721.777L47.2274 721.84L44.3903 597.157C48.4631 596.098 53.3819 596.426 57.6057 596.344C57.2861 600.965 58.1204 605.705 58.6529 610.29L61.4002 632.438L63.1816 649.049Z"/>
	<path fill="#E9E8E9" transform="scale(0.666667 0.666667)" d="M494.513 626.925C494.493 625.41 494.122 623.446 494.421 621.985C494.879 619.744 496.11 617.433 497.174 615.418C499.794 610.459 503.22 605.39 507.158 601.382C510.622 597.855 514.806 595.451 519.843 595.397C522.28 595.371 528.715 596.723 530.516 595.688C530.619 594.884 530.821 594.739 530.314 594.038C528.842 592.003 523.58 590.937 521.062 590.672C515.526 590.088 511.067 591.458 506.811 595.048C500.106 600.704 494.742 609.428 490.752 617.159C489.998 618.621 489.213 621.889 487.5 621.857L485.812 621.494L485.359 620.812C486.872 616.77 488.699 612.953 490.85 609.211C492.299 606.69 494.122 604.11 495.293 601.461C495.732 600.467 495.732 599.692 495.613 598.63C494.654 598.234 493.959 598.275 492.969 598.709C486.722 601.446 484.227 619.801 480.938 620.577C479.176 615.498 481.032 610.661 481.63 605.684C482.235 600.65 486.799 594.63 490.703 591.549C494.204 588.787 498.986 585.95 503.25 584.627C505.026 584.075 509.309 583.833 510.562 582.688C509.878 581.582 508.894 580.744 507.614 580.412C502.862 579.179 496.801 581.87 492.864 584.423C488.081 587.523 483.457 591.778 480.385 596.605C478.962 598.842 477.879 601.293 475.938 603.142L475.499 603C474.529 598.304 477.479 593.687 479.96 589.887C483.673 584.199 490.734 578.669 497.511 577.378C500.553 576.799 503.664 576.948 506.675 577.618C514.926 579.452 522.388 583.379 530.014 586.859C537.149 590.115 544.512 593.036 550.984 597.532C561.915 605.127 570.616 616.063 583.418 620.821C588.329 622.647 593.487 623.206 598.692 623.302C589.926 632.486 580.124 637.067 567.368 637.41C559.356 637.625 551.465 636.554 543.483 636.391L515.499 636.358L485.41 636.021C484.864 636.02 485.149 636.098 484.617 635.625C486.999 633.998 498.307 634.684 501.8 634.691C507.315 634.701 546.914 635.147 548.402 633.519C548.608 633.293 548.546 632.923 548.618 632.625C548.284 631.526 548.226 630.593 547.125 629.974C544.99 628.776 515.504 629.612 511.153 629.658C514.849 624.394 519.514 620.513 524.637 616.722L524.98 617.022C528.164 619.702 532.584 620.337 536.625 619.847C539.778 619.465 544.209 618.247 546.286 615.716C546.306 614.407 546.33 614.281 545.611 613.201C544.009 613.039 542.72 613.615 541.22 614.062C538.665 614.824 535.524 615.767 532.844 615.678C529.751 615.575 528.253 612.459 525.938 612.343C525.809 612.337 525.68 612.344 525.552 612.352C523.535 612.483 521.844 613.897 520.337 615.119C515.184 619.295 509.845 624.603 506.368 630.281L498.503 630.237C499.283 628.117 500.077 626.055 501.374 624.188C504.903 619.108 509.927 614.876 514.579 610.836C515.741 609.827 517.262 608.171 518.63 607.509C519.529 607.074 521.284 607.193 522.273 607.168C527.265 607.043 538.187 608.563 541.391 604.098L541.443 602.812C540.308 601.98 521.262 602.291 518.9 602.644C513.677 603.424 500.89 617.193 497.904 621.483C496.685 623.234 495.682 625.32 495.05 627.357L494.513 626.925Z"/>
	<path fill="#FEFEFE" transform="scale(0.666667 0.666667)" d="M87.6586 643.371C95.4827 643.257 103.682 642.787 111.427 644.069C116.041 644.833 120.33 646.314 124.856 647.36C126.273 651.326 126.973 654.831 127.052 659.062C127.159 664.797 126.393 670.585 125.781 676.278L122.425 702.938C121.994 705.929 121.982 710.455 120.681 713.062C119.811 714.805 118.585 716.377 117.776 718.154C116.954 719.961 116.542 721.867 116.121 723.795C107.766 723.087 99.2129 723.309 90.8281 723.297C87.0413 723.292 82.8141 723.666 79.1104 723.023C79.688 721.243 79.531 719.184 79.5017 717.33C79.4174 711.981 78.5826 706.624 77.9007 701.326L75.6794 679.507C75.034 672.538 73.5732 663.761 75.3663 656.895C76.6667 651.915 80.8342 647.652 85.172 645.046L87.6586 643.371Z"/>
	<path fill="#FEFEFE" transform="scale(0.666667 0.666667)" d="M57.6057 596.344L134.28 597.795L137.182 597.784C139.191 597.756 141.279 597.519 143.161 598.312C144.499 600.103 143.676 606.786 143.616 609.091L140.619 655.599L137.522 682.875C136.964 688.095 135.955 694.415 136.577 699.61C136.736 700.936 137.273 701.283 138.375 701.909L139.312 701.828L139.312 702.299L125.257 714.849C127.81 702.574 129.184 690.082 130.512 677.625C131.303 670.2 132.558 662.191 131.964 654.75C131.726 651.776 130.818 648.46 129.135 645.986C126.639 642.316 120.782 641.161 116.625 640.492C108.181 639.134 99.4687 639.261 90.9461 639.406C85.7513 639.494 77.397 639.1 73.1109 642.474C72.5176 642.941 72.0261 643.535 71.5559 644.121C70.1938 645.84 68.1333 649.601 66.479 650.778C66.0699 651.069 64.9453 651.258 64.4242 651.422C64.1138 650.594 63.6124 649.821 63.1816 649.049L61.4002 632.438L58.6529 610.29C58.1204 605.705 57.2861 600.965 57.6057 596.344Z"/>
	<path fill="#CAC9CA" transform="scale(0.666667 0.666667)" d="M134.28 597.795L137.182 597.784L137.832 608.268C138.404 617.969 137.606 628.732 135.581 638.215C135.007 640.902 134.431 644.137 132.562 646.234C131.721 646.151 131.759 646.307 131.126 645.63C129.002 643.36 131.408 638.519 131.952 635.746C134.358 623.496 133.666 610.265 134.28 597.795Z"/>
	<path fill="#FEFEFE" transform="scale(0.666667 0.666667)" d="M189.552 416.062C190.86 415.787 192.56 416.044 193.897 416.122L201.994 416.636L241.312 419.563L383.316 428.315C405.844 429.646 428.5 432.513 451.066 432.311C451.612 439.303 452.874 446.201 453.773 453.152L458.222 491.111L463.776 546.188L467.795 588.385L472.356 622.083C472.727 624.634 473.257 627.156 473.864 629.661C474.222 631.138 474.855 632.787 474.661 634.312L473.062 634.511L209.967 619.459L199.968 555.096L190.466 461.25L188.512 437.438C188.071 432.182 187.276 426.457 187.565 421.203C187.675 419.195 188.348 417.644 189.552 416.062Z"/>
	<path fill="#141314" transform="scale(0.666667 0.666667)" d="M331.623 498.938C332.582 499.077 332.588 499.219 333.257 499.944C333.401 500.507 333.504 501.006 333.378 501.589C332.72 504.635 330.146 507.323 327.562 508.829C326.444 508.659 326.423 508.493 325.634 507.654C325.4 506.148 325.666 505.171 326.364 503.812C327.558 501.488 329.101 499.747 331.623 498.938Z"/>
	<path fill="#221F21" transform="scale(0.666667 0.666667)" d="M318.129 510.457L335.272 510.775C337.181 510.899 337.962 511.41 339.188 512.768C338.752 514.567 334.606 516.185 333.691 518.608C332.674 521.301 333.739 525.495 334.899 528.027C336.465 531.441 338.159 533.866 341.721 535.243C342.995 535.736 343.648 536.12 344.209 537.375C343.715 538.446 342.769 539.053 341.871 539.77L339.304 540.751C334.603 542.155 326.977 540.623 322.828 538.249C317.606 535.262 312.438 529.195 310.962 523.282C310.55 521.634 309.907 517.104 310.817 515.626C312.812 512.386 314.515 511.339 318.129 510.457Z"/>
</svg>
