<?xml version="1.0" encoding="utf-8" ?>
<svg xmlns="http://www.w3.org/2000/svg" xmlns:xlink="http://www.w3.org/1999/xlink" width="512" height="512">
	<path fill="white" transform="scale(0.666667 0.666667)" d="M-0 -0L768 0L768 768L-0 768L0 -0Z"/>
	<path fill="#252223" transform="scale(0.666667 0.666667)" d="M101.208 696.562L101.906 696.828C102.151 698.095 102.305 698.263 101.706 699.46C100.372 700.442 99.2829 701.037 97.6875 701.492L96.282 701.438C97.2076 699.509 99.3173 697.505 101.208 696.562Z"/>
	<path fill="#010101" transform="scale(0.666667 0.666667)" d="M106.32 681.627L110.283 681.72C111.864 681.794 114.007 682.205 115.043 683.523C115.475 684.073 115.245 684.31 115.127 684.938L113.943 685.26C111.296 685.692 108.284 683.122 106.32 681.627Z"/>
	<path fill="#010101" transform="scale(0.666667 0.666667)" d="M155.907 282.188C157.335 282.099 159.501 282.016 160.822 282.559C161.413 282.802 161.343 283.134 161.528 283.687C161.084 285.005 161.179 285.401 159.938 286.111L159.572 286.069C157.479 285.79 155.625 285.006 154.312 283.316L154.588 282.468L155.907 282.188Z"/>
	<path fill="#010101" transform="scale(0.666667 0.666667)" d="M166.929 256.883C168.344 257.007 168.764 256.926 169.918 257.812L169.999 258.78C168.871 260.181 167.596 260.771 166.032 261.57C165.073 261.721 164.294 261.948 163.395 261.457C163.138 260.403 163.398 259.959 163.713 258.938C164.714 257.834 165.535 257.387 166.929 256.883Z"/>
	<path fill="#111011" transform="scale(0.666667 0.666667)" d="M588.176 625.688C591.941 625.754 597.756 626.597 600.576 629.317C601.37 630.083 601.312 630.235 601.312 631.274C600.163 631.276 598.187 630.127 597.045 629.693C594.63 628.774 589.73 628.505 588.068 627L588.176 625.688Z"/>
	<path fill="#010101" transform="scale(0.666667 0.666667)" d="M480.803 363.188C482.756 362.698 484.84 363.628 486.562 364.514C488.637 365.582 491.447 367.414 492.188 369.654L491.414 369.991C488.542 369.318 484.864 367.409 482.438 365.692C481.276 364.87 481.083 364.581 480.803 363.188Z"/>
	<path fill="#010101" transform="scale(0.666667 0.666667)" d="M185.249 262.898C188.01 263.884 189.767 266.002 190.974 268.606C192.228 271.311 192.922 274.142 192.766 277.125L192.188 277.582C191.898 277.367 191.558 277.207 191.318 276.938C190.473 275.985 189.699 273.386 189.123 272.147C187.764 269.22 185.412 266.404 184.863 263.233L185.249 262.898Z"/>
	<path fill="#111011" transform="scale(0.666667 0.666667)" d="M662.789 643.688C664.29 643.109 666.276 643.487 667.829 643.773C672.125 644.566 682.143 646.698 684.702 650.438C682.047 651.402 676.217 648.547 673.5 647.713L663.188 644.657L662.789 643.688Z"/>
	<path fill="#010101" transform="scale(0.666667 0.666667)" d="M578.233 260.438C579.445 260.163 580.538 260.341 581.625 260.989C582.521 261.524 583.111 262.088 583.41 263.062C582.613 263.652 581.624 263.864 580.881 264.449C580.201 264.985 579.716 265.752 579.081 266.332C578.322 267.026 576.456 266.797 575.475 266.791C573.684 266.105 572.583 265.199 571.789 263.438C571.833 262.44 571.857 261.591 572.812 260.989C573.695 260.433 574.208 260.583 575.173 260.713L576.262 262.262L576.908 262.294L578.233 260.438Z"/>
	<path fill="#010101" transform="scale(0.666667 0.666667)" d="M574.666 272.785C576.747 271.431 578.577 270.27 580.875 269.348L581.741 268.929L581.711 268.539L581.679 266.25L582.375 265.614C583.537 265.844 585.408 267.916 586.137 267.75C586.316 266.358 586.177 265.252 586.859 263.963C587.853 263.639 588.403 263.632 589.344 264.188C590.77 265.029 591.634 266.255 591.882 267.866C592.019 268.759 592.311 269.574 591.767 270.336C591.289 271.006 590.962 271.197 590.25 271.554C589.098 271.581 588.909 271.501 588.076 270.717L587.062 269.638L586.312 269.961C585.919 271.557 586.286 272.279 586.911 273.749C587.37 274.83 587.758 275.881 587.263 277.049C586.785 278.18 585.384 279.346 584.193 279.641C582.295 280.112 580.537 279.796 578.829 278.928L578.528 278.525L578.718 278.108L579.938 278.625C580.618 278.924 581.419 279.39 582.188 279.375C584.594 279.328 585.843 277.632 587.366 276.072L586.761 274.989C586.167 273.948 585.438 272.904 585.336 271.679C585.233 270.448 585.297 270.1 586.031 269.156L583.312 266.625L582.478 266.915C582.45 267.955 582.497 268.852 581.977 269.789C579.371 270.311 577.633 271.827 575.374 273.113L574.666 272.785Z"/>
	<path fill="#777678" transform="scale(0.666667 0.666667)" d="M571.343 557.956C573.246 559.814 574.477 561.992 575.807 564.269C579.245 570.154 581.452 576.285 582.563 582.999C582.709 583.881 582.567 583.508 583.134 584.254L580.945 583.719L581.2 582.932C579.111 580.025 578.086 576.747 576.614 573.562L576.2 572.813C575.438 570.113 574.243 567.928 573.288 565.313C572.622 563.486 572.488 561.743 571.183 560.214C571.041 559.513 571.256 558.668 571.343 557.956Z"/>
	<path fill="#010101" transform="scale(0.666667 0.666667)" d="M590.771 248.655C593.164 248.326 596.204 248.545 598.5 249.325C599.663 249.72 600.012 249.978 600.558 251.062C600.55 252.032 600.56 253.047 599.912 253.856C597.706 256.61 596.031 253.272 594.188 252.501C593.861 252.364 592.723 252.5 592.312 252.499C589.292 253.123 588.121 256.291 585.562 256.9L584.598 255.938C584.235 255.457 583.731 254.774 583.92 254.171C584.712 251.646 588.493 249.717 590.771 248.655Z"/>
	<path fill="#111011" transform="scale(0.666667 0.666667)" d="M148.626 152.359L150.57 152.281C152.006 152.257 154.142 152.268 155.193 153.38C156.104 154.343 155.943 154.547 155.898 155.812L154.5 157.099C153.331 157.821 152.013 157.29 150.75 157.191C147.241 156.916 144.361 159.054 141.824 161.178C140.463 162.395 139.232 163.317 137.625 164.195L136.901 163.875L136.588 162.96C136.218 161.747 136.159 160.848 136.853 159.743C139.141 156.098 144.552 153.432 148.626 152.359Z"/>
	<path fill="#111011" transform="scale(0.666667 0.666667)" d="M230.607 291.188L231.938 291.007L232.667 291.607C232.722 294.906 227.214 299.132 225.271 301.95C223.458 304.578 222.163 307.608 221.322 310.68C220.823 312.501 220.656 314.358 219.947 316.122C219.53 317.162 219.482 317.057 218.438 317.493C217.748 317.167 217.107 316.854 216.669 316.211C215.361 314.288 216.164 311.245 216.665 309.119C218.353 301.966 224.524 295.009 230.607 291.188Z"/>
	<path fill="#111011" transform="scale(0.666667 0.666667)" d="M657.832 647.315C663.092 646.891 668.587 649.296 673.482 650.966C678.753 652.764 687.766 655.554 690.413 660.938C690.425 662.137 690.669 662.567 689.812 663.453L688.688 663.088C686.031 661.795 683.524 660.194 680.82 659.008C674.249 656.126 667.297 654.042 660.535 651.651C659.045 651.124 656.308 650.59 655.347 649.312C655.839 648.158 656.761 647.927 657.832 647.315Z"/>
	<path fill="#111011" transform="scale(0.666667 0.666667)" d="M657.596 636.79C667.975 636.202 677.465 639.29 686.746 643.754C689.719 645.184 695.581 648.474 696.721 651.75L696.188 652.295L694.723 651.978C686.278 648.15 678.575 644.433 669.473 642.186C667.267 641.641 665.057 641.093 662.796 640.831C660.998 640.623 658.906 640.644 657.188 640.1C656.082 639.751 655.01 639.285 654.413 638.25C655.156 637.366 656.498 637.154 657.596 636.79Z"/>
	<path fill="#111011" transform="scale(0.666667 0.666667)" d="M646.682 381.562C647.288 381.41 647.942 381.369 648.562 381.289L649.312 381.887L649.124 382.875C646.971 385.078 644.362 386.924 641.911 388.785C635.751 393.459 629.44 397.423 622.209 400.264C619.02 401.517 616.027 402.651 612.562 402.726C611.48 402.463 610.582 402.004 609.941 401.057C609.494 400.398 609.626 400.458 609.737 399.74C611.742 398.704 614.298 398.566 616.468 397.89C619.546 396.932 622.557 395.572 625.465 394.189C632.976 390.619 639.357 385.368 646.682 381.562Z"/>
	<path fill="#111011" transform="scale(0.666667 0.666667)" d="M91.577 486.562C92.8285 486.315 92.8145 486.319 93.9375 486.927C94.3723 488.871 94.1 491.199 94.0609 493.188C93.9157 500.584 92.7667 507.781 92.2982 515.139C91.9971 519.869 92.2285 524.731 91.7788 529.42C91.6453 530.812 91.6564 531.054 90.5625 531.912L89.4375 531.775C88.6905 531.534 88.4793 531 88.2885 530.294C87.4886 527.335 87.8666 523.335 88.0302 520.278L90.0066 498.919C90.3656 495.274 89.8868 489.708 91.577 486.562Z"/>
	<path fill="#111011" transform="scale(0.666667 0.666667)" d="M499.442 362.812L500.001 362.784C501.354 363.584 502.283 365.349 502.958 366.75C505.32 371.655 506.674 377.186 508.501 382.312L516.487 403.443C517.295 405.828 518.299 408.486 517.146 410.812C516.652 411.294 516.42 411.428 515.812 411.702L515.187 411.188L502.314 375.231C501.151 371.451 499.157 366.781 499.442 362.812Z"/>
	<path fill="#252223" transform="scale(0.666667 0.666667)" d="M253.724 76.6875L255.562 76.4871C258.214 76.6085 262.553 80.3045 264.095 82.4318C264.524 83.0239 264.76 83.6606 264.616 84.3929C264.325 85.8759 262.862 86.9454 261.706 87.8236C259.204 89.7243 256.69 89.1826 253.785 88.7922L250.916 88.155C248.212 87.3915 243.325 85.9776 241.913 83.4375C242.044 82.3444 242.047 82.0633 242.85 81.2342C244.353 79.6817 248.082 80.2275 250.118 80.2499C251.232 78.8676 252.319 77.774 253.724 76.6875Z"/>
	<path fill="#252223" transform="scale(0.666667 0.666667)" d="M470.279 63.5625C471.662 63.1885 472.148 63.2761 473.438 63.8836C473.835 64.4007 474.25 64.8755 474.349 65.5474C474.529 66.7642 473.992 67.9522 473.344 68.9414C468.161 76.8572 460.914 79.2741 452.075 80.9796C450.529 81.0818 449.284 81.2631 447.955 80.4375L447.793 79.3125C448.459 78.2124 449.059 77.4711 450.118 76.7254C453.647 74.2414 457.826 72.8625 461.388 70.4948C464.544 68.3975 466.888 65.4911 470.279 63.5625Z"/>
	<path fill="#111011" transform="scale(0.666667 0.666667)" d="M132.821 277.688C133.664 277.591 133.406 277.561 134.243 277.703C138.651 278.452 143.383 282.064 147.112 284.419C150.578 286.608 154.129 288.577 157.93 290.131C162.438 291.975 167.716 294.147 172.498 294.993C175.654 295.552 178.985 295.024 182.062 296.006C182.874 296.764 183.172 296.795 183.241 297.937L181.868 299.096L180.8 299.35C177.636 299.932 174.197 299.441 171.067 298.845C159.161 296.579 149.763 290.533 139.841 284.04L131.654 278.96L131.606 278.25L132.821 277.688Z"/>
	<path fill="#D1D0D1" transform="scale(0.666667 0.666667)" d="M351.416 379.937C353.883 380.662 356.058 381.992 358.552 382.556C365.064 384.03 371.711 383.622 378.312 383.215C379.74 383.126 382.327 383.306 383.574 382.654L383.861 382.453L382.549 399.418C382.248 397.438 382.565 395.377 382.49 393.377L381.75 393.232C380.456 394.219 381.24 394.538 380.695 396.061C380.655 395.469 380.748 394.4 380.225 394.065C379.069 393.327 376.034 393.206 374.566 392.844C366.455 390.838 356.847 386.427 351.416 379.937Z"/>
	<path fill="#252223" transform="scale(0.666667 0.666667)" d="M264.433 35.4375L264.795 35.3388C265.997 35.1096 266.97 35.4705 267.893 36.2177C272.893 40.263 275.755 56.301 276.062 62.3611C276.146 64.0235 275.801 64.8088 274.688 66.0189C274.206 66.1709 273.923 66.0167 273.44 65.9069C268.59 60.922 267.135 54.8834 265.278 48.4201C264.307 45.0405 263.136 41.4284 263.251 37.875C263.291 36.648 263.598 36.2946 264.433 35.4375Z"/>
	<path fill="#111011" transform="scale(0.666667 0.666667)" d="M110.846 135.076C112.59 134.97 114.742 135.111 116.25 136.091C117.188 136.699 117.752 137.184 117.991 138.255C116.117 139.763 113.584 139.919 111.481 141.152C107.168 143.682 102.524 146.146 98.6319 149.288C94.3556 152.74 90.7196 157.085 87.1368 161.235C86.383 161.951 85.4549 162.899 84.4756 163.264C83.5671 163.603 83.345 163.473 82.5111 163.125L82.195 162.188C82.3018 161.442 82.4358 160.858 82.8 160.189C87.5115 151.537 101.026 137.817 110.846 135.076Z"/>
	<path fill="#252223" transform="scale(0.666667 0.666667)" d="M74.7877 590.854C76.2239 590.694 78.3291 590.27 79.6684 590.812C79.4606 593.379 74.1204 596.099 72.4804 598.312C70.5735 600.887 71.0044 606.467 69 608.261C66.5884 608.403 65.0706 607.898 62.8702 606.922C60.2192 605.002 57.8805 602.896 57.2715 599.502C56.9942 597.956 57.024 596.11 58.0001 594.797C60.9231 590.866 70.2946 591.323 74.7877 590.854Z"/>
	<path fill="#252223" transform="scale(0.666667 0.666667)" d="M421.527 32.4375C422.434 32.1458 422.496 32.1542 423.406 32.4375C424.157 33.2402 424.9 34.044 425.108 35.1621C426.048 40.2276 418.653 45.6613 415.689 49.1634C414.142 50.9923 412.912 53.0702 411.57 55.0486C410.204 57.0615 409.169 58.443 406.688 58.9273L405.609 58.9484C404.359 58.9036 403.84 58.4677 403.034 57.5625C402.819 56.8449 402.688 56.3441 402.823 55.5879C403.063 54.2491 404.278 52.5524 404.955 51.375C409.291 43.8366 414.519 37.6338 421.527 32.4375Z"/>
	<path fill="#252223" transform="scale(0.666667 0.666667)" d="M390.093 16.6875L390.946 16.5967C392.07 17.1235 392.637 17.6189 393.436 18.5625C393.459 20.1275 393.048 21.1969 392.753 22.6875C392.409 24.4232 392.348 26.1817 391.94 27.928C391.417 30.1666 390.288 32.1323 389.647 34.3125C388.499 38.213 388.064 42.337 387.101 46.2901C386.873 47.2272 386.622 48.2722 386.159 49.125C385.383 50.5539 384.873 50.7982 383.438 51.3178C382.058 51.0591 381.181 50.5638 380.337 49.4033C378.879 47.3985 380.343 41.774 380.875 39.4389C382.325 33.069 384.14 20.4209 390.093 16.6875Z"/>
	<path fill="#010101" transform="scale(0.666667 0.666667)" d="M160.636 167.438L161.897 167.438C162.88 168.815 163.933 170.353 165.269 171.405C167.784 173.386 171.268 174.777 173.072 177.532C173.938 178.855 173.968 180.38 173.581 181.875C173.123 183.641 171.881 185.36 170.234 186.188C167.944 187.338 165.661 187.381 163.289 186.451C160.019 185.171 158.56 182.798 157.223 179.745C156.737 175.685 160.883 175.375 162.473 172.5L161.994 171.852C158.401 171.305 154.488 176.432 151.809 178.376C150.433 178.485 150.403 178.508 149.257 177.75C148.795 176.766 148.644 176.278 148.688 175.155C151.407 172.176 156.69 168.25 160.636 167.438Z"/>
	<path fill="white" transform="scale(0.666667 0.666667)" d="M163.199 177.562L163.753 177.425C164.784 177.249 166.374 177.123 167.212 177.826C168.046 178.526 168.213 179.164 168.386 180.188C167.851 181.42 167.418 181.875 166.312 182.626L166.026 182.745C164.972 183.04 163.457 182.722 162.611 182.062C161.556 181.241 161.369 180.502 161.189 179.25C161.731 178.214 162.191 178.047 163.199 177.562Z"/>
	<path fill="#111011" transform="scale(0.666667 0.666667)" d="M445.307 386.438C446.23 386.35 446.328 386.385 447.154 386.812C450.174 393.611 445.705 419.302 445.134 428.187L444.809 438.13C444.777 440.323 444.928 442.668 444.42 444.811C444.299 445.324 443.868 445.404 443.438 445.669C442.771 445.62 442.392 445.617 441.823 445.22C441.169 444.765 440.877 443.561 440.727 442.798C439.54 436.756 440.13 429.4 440.539 423.248C440.698 420.848 441.206 418.521 441.502 416.141L443.724 398.352C444.143 394.921 443.864 390.832 444.71 387.562C444.832 387.093 445.033 386.827 445.307 386.438Z"/>
	<path fill="#111011" transform="scale(0.666667 0.666667)" d="M139.163 270.562C141.454 269.747 147.211 272.865 149.62 273.715C155.819 275.903 162.632 277.714 169.171 278.418C173.68 278.903 178.125 278.832 182.65 279.429C182.956 277.983 183.15 276.173 183.813 274.855C184.132 274.223 184.243 274.346 184.875 274.137C186.006 274.946 186.407 275.721 186.89 277.047C187.295 278.158 187.47 279.208 186.983 280.312C185.801 280.94 183.146 281.067 181.801 280.698C181.063 280.496 181.499 280.453 180.691 280.875L180.422 282.47L179.629 285.491C179.179 286.729 178.548 287.201 177.375 287.7L176.438 287.292C175.655 285.992 175.366 284.674 175.009 283.217C173.782 282.465 172.419 282.723 171 282.73C169.566 284.272 171.229 287.349 170.132 289.312L168 289.458C166.139 288.153 168.061 285.337 167.213 283.721C167.102 283.51 165.894 283.237 165.674 283.189C158.146 281.563 150.406 279.72 143.438 276.387C141.488 275.454 139.546 274.622 138.104 272.967C138.125 271.694 138.41 271.544 139.163 270.562Z"/>
	<path fill="#111011" transform="scale(0.666667 0.666667)" d="M415.438 297.938C416.677 297.772 417.135 298.007 418.211 298.688C420.661 300.236 422.685 302.581 424.574 304.746C434.869 316.552 441.219 332.769 444.257 348C444.559 349.512 444.681 350.16 443.812 351.434L442.691 351.392C439.359 348.883 437.764 340.555 436.388 336.69C433.737 329.248 430.495 321.625 426.281 314.918C424.492 312.072 422.492 309.259 420.379 306.641C418.902 304.811 415.541 301.707 414.858 299.51C414.656 298.86 415.118 298.48 415.438 297.938Z"/>
	<path fill="#111011" transform="scale(0.666667 0.666667)" d="M566.947 494.936C565.151 498.305 560.414 501.837 557.158 503.812C554.062 505.691 547.281 509.11 543.598 507.98C542.795 507.734 542.952 507.68 542.607 507C543.614 505.586 545.934 504.934 547.496 504.105C556.405 499.376 562.96 493.272 567.167 483.983C569.625 478.553 571.679 471.947 571.414 465.932L570.787 456.733C570.745 455.362 570.442 454.323 571.243 453.188L572.25 453.066C573.629 454.79 574.624 460.494 574.993 462.772C576.429 471.648 574.634 480.515 570.688 488.497C569.864 490.165 569.033 492.103 567.897 493.58L567.521 494.053L566.947 494.936Z"/>
	<path fill="#111011" transform="scale(0.666667 0.666667)" d="M642.982 369.188C643.872 368.968 643.864 368.845 644.774 369.188C644.848 370.34 644.759 371.131 644.487 372.254C643.223 373.706 641.867 374.665 640.2 375.587C631.261 380.533 620.581 382.514 610.458 382.522C606.057 382.526 601.907 382.352 597.654 381.111C596.776 380.755 595.921 380.42 595.223 379.757C594.463 379.036 594.192 378.839 594.171 377.812C596.351 376.64 599.875 376.705 602.365 376.505C608.091 376.044 613.874 375.878 619.559 375.029C627.572 373.833 635.382 372.002 642.982 369.188Z"/>
	<path fill="#111011" transform="scale(0.666667 0.666667)" d="M532.819 429.938C533.364 429.813 533.626 429.856 534.168 429.938C536.263 431.849 536.8 434.592 538.814 436.598C542.124 439.893 553.992 446.828 554.721 450.971C554.9 451.987 553.428 453.719 552.829 454.618C548.392 452.879 545.419 449.821 542.002 446.63C540.725 445.438 539.371 443.859 537.858 442.989L537.443 444.188C536.018 452.667 535.058 463.471 529.356 470.205C528.306 461.849 530.736 453.258 531.541 444.939L532.254 436.353C532.361 434.208 532.298 432.031 532.819 429.938Z"/>
	<path fill="#111011" transform="scale(0.666667 0.666667)" d="M286.763 413.438C287.938 413.372 287.965 413.381 288.938 414.044C289.372 415.118 289.468 415.824 289.36 416.986C288.948 421.423 287.323 425.832 285.813 430.001C280.731 444.033 272.678 457.201 269.398 471.814C268.815 474.413 268.681 480.451 266.812 482.033L265.901 481.677C264.783 480.394 264.201 479.063 264.019 477.352C263.662 473.983 264.959 469.898 265.902 466.688C269.763 453.54 276.574 441.987 281.433 429.29L284.367 420.55C284.99 418.361 285.383 415.253 286.763 413.438Z"/>
	<path fill="#111011" transform="scale(0.666667 0.666667)" d="M460.302 475.688C461.096 475.595 460.709 475.513 461.438 476.036C461.42 476.473 461.441 476.514 461.289 477C459.861 481.555 452.907 486.08 448.95 488.283C430.46 498.578 406.531 499.37 386.446 493.607C385.614 493.41 385.165 493.17 384.484 492.654L384.39 491.25C384.573 491.003 384.67 490.66 384.938 490.509C385.136 490.397 386.503 490.472 386.734 490.474C389.72 490.498 392.767 491.094 395.75 491.327C401.198 491.752 406.6 492.492 412.072 492.573C424.114 492.754 436.81 490.123 447.442 484.38C449.763 483.126 452.003 481.702 454.098 480.101C456.011 478.639 457.851 476.913 460.006 475.829L460.302 475.688Z"/>
	<path fill="#111011" transform="scale(0.666667 0.666667)" d="M464.226 498.938L465.562 498.591L466.46 499.125L466.526 499.875C464.793 502.652 460.969 504.932 458.338 506.812C449.676 513.005 440.091 517.808 430.428 522.221C412.624 530.351 394.66 536.365 375.836 541.583C375.077 541.669 374.983 541.643 374.292 541.312C374.885 539.745 377.301 538.985 378.764 538.39L405.527 528.381L436.558 514.931C441.992 512.278 447.499 509.451 452.625 506.242C456.343 503.914 459.869 501.211 463.758 499.178L464.226 498.938Z"/>
	<path fill="#111011" transform="scale(0.666667 0.666667)" d="M341.66 500.812L342.013 500.701C344.725 500.159 349.223 502.847 351.457 504.327C355.14 506.767 360.018 510.45 361.819 514.587C362.383 515.883 362.613 517.417 362.889 518.799C363.354 519.32 363.846 519.631 364.448 519.973C369.766 522.996 374.194 520.841 379.5 519.415C380.68 519.702 380.633 519.685 381.323 520.688C381.342 521.467 381.509 521.991 381.091 522.68C379.959 524.545 375.78 525.602 373.704 526.106C363.212 528.656 352.294 518.988 343.831 513.931C338.829 510.828 333.132 509.361 327.293 509.269C324.571 509.226 321.795 509.399 319.125 508.798L318.719 508.125L318.867 507.842C319.623 506.762 321.466 506.077 322.7 505.787C335.715 502.732 349.266 511.672 359.573 518.354C356.35 511.625 352.554 508.043 345.943 504.56C344.326 503.708 342.64 503.078 341.438 501.663L341.66 500.812Z"/>
	<path fill="#111011" transform="scale(0.666667 0.666667)" d="M111.217 212.037L111.076 213.104L111.002 213.559C110.645 215.876 109.208 216.627 108.14 218.541C108.675 218.995 109.011 219.295 109.306 219.938C108.185 221.036 107.43 221.359 105.939 221.79C100.444 223.381 93.363 221.622 88.4695 218.837C83.8017 216.18 80.0722 210.806 78.7446 205.645C75.8244 194.294 80.0043 180.892 85.8885 171.138C88.633 166.588 97.2758 151.694 102.283 150.845C102.928 150.736 103.097 151.084 103.575 151.45C103.729 151.997 103.951 152.323 103.731 152.885C103.309 153.96 102.317 154.864 101.559 155.735L97.0765 161.194C89.3428 171.556 83.3206 183.477 82.5731 196.578C82.2567 202.124 83.3483 208.12 87.2346 212.311C91.6972 217.124 97.8311 218.228 104.052 218.484L104.58 217.312C105.614 214.93 106.843 213.224 108.825 211.526C109.639 211.757 110.371 211.952 111.217 212.037Z"/>
	<path fill="#111011" transform="scale(0.666667 0.666667)" d="M283.713 355.236C288.514 354.442 292.91 355.515 297 358.084C300.964 360.575 304.94 364.911 305.994 369.562C305.607 370.558 305.388 370.694 304.542 371.371C303.748 371.388 303.594 371.421 302.979 370.841C301.959 369.88 301.194 368.395 300.335 367.27C298.398 364.735 295.844 362.513 292.934 361.168C289.765 359.703 286.038 359.487 282.749 360.673C275.973 363.116 270.983 368.784 266.749 374.374C262.795 379.593 259.377 385.071 256.559 390.982C254.889 394.487 248.79 410.998 246.398 412.204C245.615 412.599 245.617 412.414 244.842 412.168C244.583 411.749 244.543 411.743 244.407 411.188C244.066 409.797 244.808 407.424 245.165 406.037C247.69 396.242 253.369 386.277 258.466 377.564C264.342 367.52 272.032 358.284 283.713 355.236Z"/>
	<path fill="#111011" transform="scale(0.666667 0.666667)" d="M576.291 390.562L577.3 390.408L578.729 391.688C579.921 394.467 579.392 397.939 579.028 400.875C577.846 410.415 573.891 419.126 570.727 428.106C567.754 436.544 565.838 445.362 560.737 452.841C553.673 463.198 543.917 474.465 530.99 476.924C529.706 476.841 529.487 476.984 528.527 476.062C528.785 474.674 529.337 473.907 530.438 473.008C532.789 471.086 535.755 469.649 538.296 467.969C544.052 464.167 548.734 459.751 553.212 454.555C554.393 453.185 556.021 452.154 557.062 450.669C560.408 445.896 561.162 438.914 563.168 433.45C566.62 424.042 571.231 415.055 573.761 405.325C574.966 400.687 574.494 395.239 576.167 390.863L576.291 390.562Z"/>
	<path fill="#111011" transform="scale(0.666667 0.666667)" d="M380.695 396.061L380.553 396.61C380.163 397.743 379.161 398.743 378.042 399.189C375.14 400.344 369.807 398.014 367.125 396.692C360.84 393.595 354.675 389.791 349.447 385.108C339.268 375.991 332.077 363.904 325.726 351.951C322.184 345.283 318.522 338.334 316.1 331.166C314.427 326.217 312.845 321.233 311.997 316.067C311.703 314.275 311.369 312.466 312.188 310.808L313.125 310.549C316.492 312.173 318.657 323.101 319.692 326.459C322.664 336.099 326.946 344.952 331.828 353.749C337.339 363.678 342.656 372.475 351.416 379.937C356.847 386.427 366.455 390.838 374.566 392.844C376.034 393.206 379.069 393.327 380.225 394.065C380.748 394.4 380.655 395.469 380.695 396.061Z"/>
	<path fill="#111011" transform="scale(0.666667 0.666667)" d="M99.4051 671.66C104.753 672.8 110.195 673.26 115.234 675.546C118.908 677.213 122.418 679.403 125.627 681.844L141.068 694.703C143.663 696.863 147.154 700.314 150.478 701.109C152.4 701.569 156.8 698.737 158.419 697.674C161.545 695.623 164.234 693.135 166.896 690.526C168.375 690.805 169.446 691.061 170.683 691.967C168.867 694.406 167.077 696.888 164.803 698.928C158.753 704.357 151.519 706.381 143.956 708.813C143.299 708.468 141.069 708.63 140.227 708.591L140.451 706.707C141.997 705.374 143.617 704.45 145.395 703.479L128.627 689.947C125.169 686.908 121.233 683.095 117.233 680.824C113.135 678.498 107.219 677.416 102.562 677.778C93.8147 678.458 85.5808 685.434 80.0937 691.778C86.0081 688.378 92.2212 684.85 98.9807 683.474C100.646 683.135 102.513 682.66 104.2 682.943L104.359 683.812C103.973 684.707 103.394 685.052 102.56 685.485C99.9639 686.831 96.8767 687.65 94.1247 688.689C88.2995 690.889 82.423 693.64 77.2415 697.109L76.125 697.381C75.44 696.924 75.2824 696.737 75.0398 695.897C74.479 693.954 75.7097 691.379 76.6206 689.665C80.6259 682.129 88.658 676.062 96.757 673.621L99.084 672.85L99.4051 671.66Z"/>
	<path fill="#111011" transform="scale(0.666667 0.666667)" d="M468.178 424.688L469.4 424.978C472.041 428.269 472.942 451.023 474.006 457.013C476.127 468.94 480.179 481.327 487.617 491.052C494.416 499.941 504.036 506.542 514.236 510.936C521.209 513.94 529.4 516.397 536.955 517.292C540.266 517.685 551.589 517.003 553.646 518.438L553.691 519.188C552.785 520.085 551.927 520.368 550.734 520.774C546.706 521.895 542.417 522.137 538.267 521.784C518.966 520.141 497.107 510.696 484.561 495.612C478.621 488.471 473.278 480.125 470.16 471.358C466.43 460.87 465.539 448.849 466.044 437.792C466.2 434.389 466.003 430.662 466.523 427.312C466.744 425.892 467.048 425.534 468.178 424.688Z"/>
	<path fill="#111011" transform="scale(0.666667 0.666667)" d="M183.005 161.062L184.312 160.71C184.772 160.879 184.832 160.866 185.271 161.223C187.252 162.834 187.875 167.251 187.757 169.705C187.539 174.234 184.689 176.398 181.539 179.175C186.781 181.87 194.679 182.78 198.519 187.427C199.641 188.785 199.774 190.112 199.499 191.812C198.871 195.69 194.622 198.59 191.586 200.58L193.086 202.125C193.908 203.182 194.471 204.741 194.177 206.076C193.743 208.049 191.502 209.157 189.948 210.199C192.864 212.575 196.941 215.349 197.751 219.271C198.331 222.078 197.158 224.802 195.572 227.056C193.54 229.945 190.586 231.959 187.611 233.769C181.034 237.769 173.896 240.431 166.331 241.794C159.581 243.01 153.019 242.694 146.262 241.699C143.081 241.23 139.377 240.647 136.688 238.794C136.333 237.835 136.024 237.442 136.297 236.438C143.102 237.483 149.495 238.399 156.407 238.462C162.425 237.905 168.289 236.808 173.949 234.648C179.991 232.343 190.279 228.618 192.947 222.115C194.492 218.347 190.121 216.251 188.125 213.629C187.346 212.606 186.857 211.312 186.373 210.131C187.328 208.797 188.577 207.63 189.704 206.438C189.748 205.888 189.819 205.302 189.74 204.75C189.6 203.774 189.225 202.761 188.438 202.145C186.858 203.171 184.948 204.512 183.035 204.754C181.64 204.93 180.773 204.332 179.75 203.506L179.812 202.773C180.78 202.345 181.867 202.519 182.792 202.054C185.256 200.814 187.877 198.627 190.175 197.05C191.71 195.997 193.993 194.054 194.186 192.086C194.251 191.429 193.829 191.179 193.312 190.832C192.331 190.174 190.68 189.795 189.562 189.346C185.398 187.672 180.077 185.533 177.085 182.067C176.117 180.945 175.41 179.639 174.511 178.465C172.774 176.195 168.926 172.028 169.113 169.125C169.446 168.809 169.638 168.593 170.062 168.361C173.287 166.6 174.35 173.213 177.422 173.613C178.778 173.79 180.714 172.911 181.751 172.051C183.022 170.996 182.954 169.881 183.045 168.375L182.464 167.812L177.563 168.599C176.477 168.092 176.309 168.093 175.735 167.062L175.824 166.771C176.579 165.142 181.372 161.905 183.005 161.062Z"/>
	<path fill="#111011" transform="scale(0.666667 0.666667)" d="M574.666 272.785L575.374 273.113C577.633 271.827 579.371 270.311 581.977 269.789C582.497 268.852 582.45 267.955 582.478 266.915L583.312 266.625L586.031 269.156C585.297 270.1 585.233 270.448 585.336 271.679C585.438 272.904 586.167 273.948 586.761 274.989L587.366 276.072C585.843 277.632 584.594 279.328 582.188 279.375C581.419 279.39 580.618 278.924 579.938 278.625L578.718 278.108L578.528 278.525C577.292 277.788 576.847 277.265 576.166 275.992L575.969 275.609C574.96 275.746 574.019 276.416 573.113 276.874C571.437 277.722 569.735 278.466 567.984 279.146C563.55 280.869 558.714 281.733 554.413 283.757C552.956 284.443 551.8 285.149 550.735 286.375C550.517 287.119 550.415 287.687 550.626 288.439C551.773 292.523 559.591 295.977 563.077 297.994C562.306 299.998 561.357 302.114 561.356 304.294C561.356 305.641 561.573 306.729 562.581 307.674C564.662 309.626 567.813 309.459 570.177 308.077C571.315 307.413 572.403 306.39 573.75 306.31C574.717 307.156 574.693 307.165 574.908 308.438C574.666 309.103 574.388 309.51 573.875 309.985C571.757 311.948 567.979 313.545 565.056 313.31C563.012 313.145 560.285 312.124 558.938 310.513C556.087 307.105 556.911 302.66 557.349 298.63C554.305 303.272 552.542 307.779 553.235 313.383C554.372 322.588 561.046 331.508 569.152 335.857C574.117 338.521 579.788 340.253 584.287 343.699C589.556 347.733 602.566 361.781 603.437 368.062L603 368.549C601.283 367.551 599.944 365.161 598.543 363.65L590.257 355.14C588.051 352.86 585.88 350.33 583.381 348.381C577.943 344.14 570.553 343.298 564.771 339.448C556.398 333.873 551.151 325.976 549.265 316.128C547.782 308.384 549.479 303.51 553.812 297.085C550.931 295.384 548.053 293.468 546.755 290.219C546.018 288.373 545.765 286.442 546.62 284.596C549.48 278.416 559.651 277.314 565.437 275.786C568.58 274.955 571.62 273.916 574.666 272.785Z"/>
	<path fill="white" transform="scale(0.666667 0.666667)" d="M580.39 273.562C581.385 273.289 581.928 273.29 582.938 273.497C583.711 274.387 583.995 274.63 584.25 275.812L582.938 276.722C581.781 276.986 581.491 276.889 580.334 276.562C579.508 275.58 579.39 275.577 579.368 274.312L580.39 273.562Z"/>
	<path fill="#D1D0D1" transform="scale(0.666667 0.666667)" d="M101.227 653.28L112.251 661.738C111.193 662.899 109.541 664.308 109.068 665.812C109.317 666.639 109.409 666.81 110.199 667.278C111.739 668.192 114.22 668.166 115.988 668.4C117.741 668.632 119.351 669.141 121.007 669.752C124.662 671.101 128.19 672.905 131.731 674.533L155.677 685.694L162.958 688.697C164.232 689.18 165.919 689.568 166.896 690.526C164.234 693.135 161.545 695.623 158.419 697.674C156.8 698.737 152.4 701.569 150.478 701.109C147.154 700.314 143.663 696.863 141.068 694.703L125.627 681.844C122.418 679.403 118.908 677.213 115.234 675.546C110.195 673.26 104.753 672.8 99.4051 671.66C98.5696 665.824 101.336 659.301 101.227 653.28Z"/>
	<path fill="#111011" transform="scale(0.666667 0.666667)" d="M81.0893 411.562L81.7371 411.416C82.6513 412.126 82.8541 413.06 83.1056 414.188C83.781 417.217 82.8752 421.405 82.4869 424.5C77.4852 464.376 61.7955 501.846 52.6246 540.79C50.7925 548.57 49.2144 556.413 48.1896 564.344L46.2283 578.886C45.8979 581.097 45.7139 583.554 45.1491 585.703C44.9512 586.456 44.4928 587.131 44.0625 587.77L43.6875 587.758C43.3603 587.406 43.0782 587.09 42.8172 586.688C41.0887 584.02 42.1311 577.12 42.4028 573.873C44.8062 545.158 53.2006 516.468 61.7421 489.049L71.4123 458.062L76.602 435.917L81.0893 411.562Z"/>
	<path fill="#252223" transform="scale(0.666667 0.666667)" d="M108.825 211.526L108.79 211.072C102.028 207.215 95.6069 202.446 93.5295 194.519C92.2106 189.486 92.7546 184.966 95.4401 180.497L103.101 168.998C105.491 165.301 115.566 147.625 118.875 146.71L119.575 147.188C119.305 154.682 114.652 161.344 111.582 167.907L112.045 168.168C113.311 168.9 114.025 169.303 114.678 170.625C114.658 171.713 114.584 172.349 113.812 173.175C112.788 174.272 110.064 175.014 108.643 175.572C114.354 177.638 123.878 176.83 126.938 183.41C127.472 184.559 128.445 186.764 128.424 187.99C128.414 188.626 127.738 190.037 127.484 190.663C126.321 193.516 123.673 195.868 120.853 197.038C117.091 198.599 110.083 199.45 106.252 197.612C103.61 196.344 101.862 194.42 100.974 191.625C100.122 188.941 100.407 186.226 101.223 183.595C101.442 182.888 101.402 183.196 101.282 182.438C100.42 182.438 100.498 182.572 99.8943 183.164C98.1331 184.892 96.6637 187.772 96.8289 190.312C97.1602 195.405 100.51 199.987 104.386 203.062C107.182 205.281 111.897 208.059 115.526 207.556C117.697 207.255 121.448 205.369 123.375 205.939C124.02 206.792 124.044 206.732 123.938 207.79C122.191 209.679 117.724 212.223 115.125 212.283L111.557 212.067L111.217 212.037C110.371 211.952 109.639 211.757 108.825 211.526Z"/>
	<path fill="#111011" transform="scale(0.666667 0.666667)" d="M142.375 114.896C154.791 114.114 165.884 115.762 176.92 121.756C186.693 127.064 196.546 136.208 202.594 145.499C203.518 146.918 204.79 148.624 205.193 150.283C205.585 151.897 205.039 153.478 204.171 154.837C203.032 156.621 201.094 157.739 199.058 158.188C188.641 160.484 175.047 142.7 166.608 137.368C153.435 129.045 138.582 130.922 124.172 134.202C130.037 129.656 134.382 128.338 141.672 127.566C147.647 127.434 155.451 127.229 161.191 128.975C165.126 130.172 168.675 132.395 171.957 134.817L177.074 138.845C177.487 139.182 178.423 140.151 178.906 140.33C180.435 140.895 182.934 140.608 184.688 141.098C189.354 142.4 193.289 145.107 197.487 147.403C191.488 139.609 182.587 131.474 174.037 126.562C164.257 120.944 153.032 119.495 141.904 120.264C135.734 120.69 129.474 121.849 124.406 125.649C121.992 127.459 119.981 132.79 117.562 133.452L116.939 133.081C116.141 132.589 115.4 131.849 115.225 130.895C114.883 129.025 116.439 126.223 117.579 124.846C123.133 118.128 134.137 115.815 142.375 114.896Z"/>
	<path fill="white" transform="scale(0.666667 0.666667)" d="M180.804 142.723C183.636 143.807 186.371 145.169 188.926 146.804C190.878 148.053 197.01 151.765 197.438 153.747C196.399 154.141 195.43 154.268 194.336 154.061C188.803 153.013 183.838 147.16 180.804 142.723Z"/>
	<path fill="#111011" transform="scale(0.666667 0.666667)" d="M102.486 121.954C104.6 121.817 107.69 121.959 109.688 122.677C110.644 123.022 111.24 123.586 111.672 124.5C110.084 127.576 102.29 126.962 99.1875 128.015C90.7482 130.878 83.6194 135.714 77.7912 142.502C72.1421 149.081 68.3333 157.35 65.5225 165.494C64.8051 167.573 63.7611 169.713 63.9164 171.938C69.3127 158.997 76.2419 146.831 87.0995 137.714C92.3616 133.295 101.742 126.962 108.938 127.583C110.036 128.54 110.104 128.971 110.571 130.312C109.645 131.507 106.869 131.923 105.376 132.511C90.4465 138.393 78.3395 153.969 72.1988 168.454C67.4374 179.685 66.1524 190.995 70.8282 202.432C74.6503 210.355 80.6153 217.274 88.3927 221.48C96.4967 225.862 108.253 228.672 115.472 221.014C116.964 219.432 118.645 215.136 120.562 214.558C121.53 215.018 121.653 215.105 122.236 216C122.463 218.382 121.691 220.374 120.429 222.375C117.767 226.596 113.204 229.628 108.373 230.707C100.359 232.498 90.6906 228.658 83.9944 224.35C72.2614 216.802 61.7645 202.212 58.887 188.438C55.5649 172.534 61.8407 156.754 70.5155 143.634C78.0775 132.198 89.1294 124.657 102.486 121.954Z"/>
	<path fill="#111011" transform="scale(0.666667 0.666667)" d="M196.168 253.187C200.178 252.804 203.993 253.231 207.586 255.143C214.699 258.93 218.409 266.384 220.762 273.758C221.779 276.945 222.782 280.64 221.132 283.773C220.223 284.451 220.081 284.657 218.968 284.713C217.965 283.358 217.936 279.401 217.606 277.62C216.459 271.441 212.564 263.985 207.222 260.434C202.136 257.054 197.566 257.618 191.887 258.824C194.516 260.636 197.308 262.356 199.687 264.493C207.758 271.743 213.843 282.562 216.918 292.893C219.577 290.149 222.218 287.672 225.7 285.997C228.393 284.702 231.997 283.517 234.938 284.633C236.983 285.409 239.942 287.295 240.754 289.422C241.567 291.551 240.166 293.511 239.236 295.379C241.822 295.424 245.108 295.466 247.188 297.211C249.271 298.959 248.977 301.503 249.155 303.986C250.47 303.031 250.58 301.454 252.375 301.218C253.999 301.004 255.658 301.643 256.819 302.749C258.527 304.375 259.427 306.468 259.553 308.812C259.747 312.409 258.99 314.718 257.001 317.73C254.514 321.496 250.596 324.814 250.8 329.625C251.85 331.029 256.878 331.777 258.758 332.827C260.388 333.737 261.926 335.106 262.352 336.996C263.23 340.885 261.769 345.633 259.629 348.894C257.787 351.701 255.305 353.754 252 354.468L251.678 354C253.152 350.665 256.034 348.049 257.792 344.758C254.812 345.27 252.082 346.305 249.02 346.4L248.516 346.407C245.551 351.649 241.299 354.504 236.973 358.461C226.99 367.591 225.342 381.087 221.503 393.331C223.018 393.318 225.031 393.072 226.461 393.554C227.068 393.758 227.265 394.287 227.438 394.88C227.727 395.877 227.756 396.935 227.199 397.779C224.997 397.994 222.784 397.636 220.683 396.972L220.292 396.844C218.299 399.46 216.712 401.578 214.169 403.703C214.641 397.735 217.081 392.144 219.041 386.529C221.665 378.808 222.429 371.276 226.919 364.217C229.845 359.614 233.753 355.594 237.802 351.964C239.893 350.09 242.688 348.104 244.288 345.787C245.246 344.399 245.743 342.583 246.04 340.942C247.241 334.304 246.505 327.077 244.958 320.542C243.428 324.148 243.026 327.738 241.718 331.312C240.616 331.642 240.314 331.492 239.225 331.217C238.407 330.454 237.965 330.202 237.696 329.055C237.265 327.216 237.424 325.189 237.602 323.32C238.279 316.204 241.167 311.132 244.754 305.163C238.048 308.491 235.201 313.668 233.898 320.798C233.668 322.061 233.584 324.081 232.826 325.13C232.394 325.728 232.276 325.581 231.595 325.684C230.991 325.17 230.659 324.864 230.385 324.094C228.906 319.935 230.681 312.103 232.978 308.397C235.595 304.177 238.89 302.779 243.471 301.636L243.854 300.938C243.416 300.117 243.03 299.831 242.25 299.337C233.49 298.756 229.327 306.71 226.684 313.826C226.118 315.351 225.521 318.132 224.25 319.104C223.062 318.906 223.143 318.792 222.408 317.812C222.19 310.827 226.659 303.164 231.905 298.769C233.741 297.231 236.665 295.973 237.62 293.812C237.215 292.01 236.209 290.495 234.648 289.465C233.266 288.553 231.33 288.587 229.74 288.966C226.409 289.759 223.288 292.32 220.843 294.623C218.386 296.937 215.857 299.529 214.358 302.596C211.754 307.922 212.087 315.581 211.588 321.439C211.468 322.845 211.429 324.67 210.572 325.862C210.028 326.621 209.736 326.571 208.875 326.716C207.954 326.009 207.869 325.856 207.642 324.698C207.146 322.165 207.47 319.291 207.637 316.723C207.921 312.37 208.006 307.566 209.385 303.425C210.401 300.371 211.974 297.787 213.681 295.081C209.981 285.841 205.174 276.834 198.542 269.36C197.262 267.918 195.833 266.595 194.306 265.417C192.492 264.017 188.187 261.641 187.448 259.634C187.024 258.484 187.457 257.292 188.059 256.312C190.453 254.669 193.358 253.82 196.168 253.187Z"/>
	<path fill="white" transform="scale(0.666667 0.666667)" d="M251.737 335.062C252.206 335.027 252.62 335.112 253.083 335.199C255.058 335.571 256.677 336.287 257.763 338.062C258.439 339.167 258.456 339.973 258.188 341.201C257.612 341.264 257.072 341.316 256.513 341.111C255.03 340.568 252.247 338.266 251.594 336.825C251.204 335.965 251.442 335.892 251.737 335.062Z"/>
	<path fill="white" transform="scale(0.666667 0.666667)" d="M252.835 305.062L253.729 305.02C254.825 306.326 255.52 307.25 255.514 309.006C255.499 312.821 253.256 315.511 250.688 318.037L249.938 317.875L249.762 317.195C249.34 315.528 249.286 315.133 250.162 313.656L251.644 311.25L251.438 310.698C249.211 311.311 246.944 312.498 244.807 313.403C247.1 310.135 249.755 307.586 252.835 305.062Z"/>
	<path fill="#111011" transform="scale(0.666667 0.666667)" d="M270.719 523.005C271.079 514.652 274.215 507.465 280.437 501.78C284.543 498.027 289.1 495.76 294.232 493.761C290.186 499.171 281.832 508.402 282.95 515.659C283.485 519.126 285.412 521.929 288.346 523.839C291.132 525.653 293.61 525.803 296.798 525.738C294.955 519.904 294.925 515.746 297.768 510.211C299.883 506.095 303.324 503.268 307.143 500.777C304.401 500.441 300.552 500.412 298.145 499.083C297.73 498.25 297.551 497.985 297.938 497.041C298.332 496.08 299.131 495.679 300.095 495.511C302.748 495.05 305.742 495.607 308.35 496.123C309.065 496.265 310.784 496.847 311.369 496.74C312.294 496.569 318.143 492.071 319.467 491.192C322.125 489.427 324.856 487.759 327.756 486.415C345.483 478.197 360.807 489.257 376.542 496.483C381.773 498.885 387.935 500.194 392.571 503.712C393.49 504.41 394.042 504.97 394.482 506.062C394.428 507.241 394.634 507.941 393.67 508.798C392.574 509.774 390.359 510.065 388.958 510.393C383.75 511.609 378.595 512.732 373.207 512.13L370.461 511.641L369.762 511.505C360.654 509.666 354.03 501.83 345 499.466C342.011 498.684 335.022 498.412 333.131 496.087L332.928 495.75C333.389 494.985 333.467 494.9 334.381 494.66C336.942 493.987 340.358 494.525 342.902 495.18C351.281 497.337 357.873 502.22 365.785 505.153C372.161 507.516 380.776 507.693 387.058 505.183C382.105 502.752 376.712 501.659 371.647 499.505C364.163 496.322 357.121 492.253 349.401 489.604C347.348 488.9 344.908 487.943 342.741 487.798C339.22 487.563 335.524 488.422 332.214 489.548C326.838 491.378 322.29 494.949 317.745 498.246C311.492 502.784 304.387 507.201 300.914 514.377C299.656 516.975 299.274 519.609 300.203 522.389C301.132 525.171 303.174 527.413 305.812 528.687C307.835 529.663 310.206 530.207 312.428 530.482C314.688 530.763 316.976 530.399 319.244 530.519L335.851 532.022C338.689 532.312 343.42 533.294 346.135 532.257L349.655 530.503C346.619 527.111 343.055 523.946 338.864 522.05C335.427 520.495 331.641 519.958 327.941 519.411C324.524 518.907 318.248 519.066 315.822 516.562L315.938 515.724C319.326 513.249 327.557 514.703 331.526 515.334C338.72 516.477 343.531 519.214 349.176 523.678C351.173 525.257 353.388 526.916 354.893 528.999C355.634 530.025 355.579 530.495 355.527 531.75C354.553 533.545 353.15 534.543 351.485 535.658C345.953 539.363 338.65 541.698 332.291 543.565C328.416 544.703 323.2 545.64 319.312 544.146L318.976 543.562C319.878 542.589 321.554 542.567 322.802 542.365C328.543 541.433 334.789 539.636 340.043 537.11L321.277 535.599C315.608 535.133 309.782 535.209 304.403 533.093C302.083 532.18 300.496 530.882 298.854 529.039L298.312 528.413C297.46 528.916 296.7 529.525 295.92 530.131L295.488 529.952C294.724 530.11 295.066 529.951 294.399 530.505L293.812 531L292.875 531.562L292.031 532.406C290.528 533.548 288.474 535.594 286.875 536.438C285.646 537.086 286.948 536.105 285.844 536.988C284.731 537.879 283.459 538.157 282.341 538.995L282.002 539.252C280.459 540.014 279.913 540.856 278.062 540.941C275.368 538.435 272.428 534.167 271.865 530.415C271.76 529.718 271.714 529.187 271.365 528.552C270.747 527.427 271.302 525.119 270.922 523.698L270.719 523.005Z"/>
	<path fill="#111011" transform="scale(0.666667 0.666667)" d="M486.317 275.693C488.764 275.378 491.61 275.22 493.688 276.82C494.5 277.445 495.104 278.269 495.938 278.891C496.471 278.182 497.055 277.316 497.799 276.817C498.875 276.095 500.681 276.117 501.888 276.46C504.191 277.113 505.78 280.739 506.976 282.7C508.434 281.503 509.804 280.31 511.5 279.455C512.64 279.409 513.733 279.345 514.733 279.981C517.785 281.92 519.692 286.585 520.478 289.997L520.617 290.625C523.621 303.531 514.713 313.055 511.442 324.812L508.586 335.789C507.322 341.629 506.788 348.116 503.621 353.294C501.419 356.894 496.476 362.166 492.21 363.006C491.114 363.221 490.132 363.13 489.269 362.363C488.417 361.605 488.261 360.875 488.249 359.812C489.369 358.689 491.469 358.906 492.903 358.232C494.598 357.436 496.298 355.623 497.46 354.197C502.99 347.405 503.189 339.808 505.46 331.815C506.253 329.027 507.778 326.381 508.88 323.688C505.841 318.731 506.07 312.342 505.753 306.643C505.646 304.711 505.705 302.536 504.972 300.727C503.285 296.561 500.487 292.99 497.741 289.481C494.991 285.966 491.877 281.956 487.688 280.123C486.174 280.053 485.425 280.254 484.145 281.062L484.006 281.812C485.743 284.22 488.571 285.654 490.915 287.411C496.622 291.689 500.254 300.388 501.193 307.293C501.401 308.823 503.128 321.357 502.819 322.125C502.731 322.342 502.538 322.5 502.397 322.688L501.375 322.747C501.041 322.508 500.636 322.345 500.374 322.029C498.795 320.127 498.462 309.341 497.857 306.289C497.333 303.639 496.572 301.089 495.538 298.591C493.334 293.263 490.715 291.273 485.606 289.117C485.951 289.722 485.835 289.576 486.16 289.996C489.218 293.944 491.058 298.463 493.118 302.978C493.872 304.631 494.879 306.47 495.244 308.247C496.073 312.289 494.114 317.86 492.688 321.626C491.869 323.791 490.411 327.533 488.102 328.409C487.346 328.696 487.448 328.59 486.782 328.312C486.208 323.436 489.262 316.756 491.05 312.192C486.14 317.259 482.454 323.482 480.367 330.234C479.684 332.445 479.188 334.728 478.855 337.017C478.573 338.947 478.697 343.965 477.562 345.239C476.959 344.683 476.249 344.05 475.883 343.305C475.095 341.704 475.414 338.695 475.505 336.938C475.981 327.817 480.749 318.543 486.842 311.907C488.087 310.551 491.11 308.428 491.598 306.75L490.751 305.812C490.371 305.806 490.143 305.778 489.75 305.901C488.481 306.299 486.984 307.564 485.922 308.369C482.219 311.175 479.231 314.672 476.948 318.708C475.212 321.776 473.917 325.072 472 328.038C470.874 327.496 469.464 326.902 468.514 326.102C468.038 325.702 467.692 325.124 467.654 324.51C467.455 321.269 468.81 317.951 470.167 315.054C472.602 309.857 475.359 305.284 479.098 300.928C481.138 298.906 483.286 297.875 485.867 296.7C484.302 295.023 482.961 293.473 480.562 293.303C476.184 294.755 472.573 301.186 470.478 305.061C468.284 309.12 465.883 314.894 465.675 319.545C465.54 322.548 466.866 324.827 467.611 327.649C469.122 333.375 469.873 339.665 472.838 344.871C473.712 346.405 474.774 347.666 475.988 348.936C476.767 349.75 478.146 350.85 478.414 351.97C478.579 352.662 478.452 352.614 478.125 353.177C477.442 353.287 476.97 353.317 476.288 353.142C469.438 351.387 467.054 344.06 465.565 337.951C465.085 335.982 464.811 333.799 463.73 332.062C462.845 331.802 462.842 331.872 461.987 332.25C461.1 334.325 461.42 337.361 461.463 339.599C461.599 346.734 464.056 353.748 469.33 358.711C471.447 360.704 473.901 362.296 475.985 364.338C478.599 366.901 478.996 370.597 479.761 374.015C480.388 376.813 481.252 379.631 481.624 382.471C482.715 390.798 482.501 399.951 481.963 408.315C481.735 411.86 480.776 415.732 480.806 419.213C488.338 420.936 497.17 422.448 504.943 422.245C505.857 422.221 507.17 422.174 507.981 421.69C511.132 419.812 513.503 415.601 516.147 413.016C518.423 410.792 520.928 408.94 523.171 406.611C524.071 406.464 524.771 406.452 525.643 406.703C529.067 407.692 534.37 411.551 536.015 414.753C537.061 416.787 537.584 419.038 536.75 421.232C535.625 424.187 532.442 425.97 529.686 427.163C520.63 431.082 510.474 430.602 500.851 429.681C494.613 429.084 488.254 428.556 482.143 427.11C477.687 426.055 473.499 424.422 469.254 422.734C465.86 421.385 462.632 418.641 461.263 415.166C460.405 412.986 460.963 410.61 461.919 408.549C463.948 404.174 469.886 398.674 474.59 397.326C475.882 396.955 476.306 397.148 477.429 397.808L477.886 397.688C478.856 390.744 477.281 383.686 476.019 376.888C475.482 373.997 474.807 369.344 472.986 366.975C471.829 365.47 469.903 364.247 468.501 362.942C463.706 358.48 460.297 353.066 458.374 346.787C457.284 343.225 455.685 334.377 457.688 331.202C458.978 329.156 460.742 328.738 462.976 328.302L463.488 328.206C462.465 323.365 461.233 320.293 462.402 315.197C464.397 306.499 468.827 294.763 476.812 289.872C477.448 289.483 478.629 288.676 479.299 288.528C480.833 288.189 483.791 289.092 485.358 289.459C483.565 287.768 480.758 285.433 479.671 283.232C478.96 281.792 478.975 280.722 479.438 279.224C481.13 277.094 483.83 276.508 486.317 275.693Z"/>
	<path fill="white" transform="scale(0.666667 0.666667)" d="M486.265 300.563C486.807 300.477 486.955 300.562 487.456 300.75C487.46 301.062 487.578 301.395 487.468 301.688C487.345 302.013 486.458 302.719 486.15 303.017C484.439 304.672 482.495 306.067 480.814 307.758C479.001 309.582 477.405 311.47 476.1 313.688L475.593 314.114C475.581 313.748 475.557 313.687 475.669 313.279C475.923 312.356 476.712 311.217 477.189 310.376C479.436 306.418 482.453 303.07 486.265 300.563Z"/>
	<path fill="white" transform="scale(0.666667 0.666667)" d="M496.27 280.87L501.081 280.882L502.514 282.885C505.26 287.104 509.094 292.702 507.973 297.938C506.721 297.355 504.478 292.717 503.612 291.375L496.27 280.87Z"/>
	<path fill="white" transform="scale(0.666667 0.666667)" d="M473.264 402.188L473.725 402.202C474.205 402.804 473.822 402.975 473.522 403.664C470.985 409.488 472.497 413.437 474.525 419.1L469.786 417.006C468.802 416.408 467.597 415.674 466.868 414.783C466.139 413.891 465.923 412.834 466.092 411.689C466.61 408.182 470.613 404.278 473.264 402.188Z"/>
	<path fill="white" transform="scale(0.666667 0.666667)" d="M511.141 284.812C511.867 284.588 512.052 284.656 512.77 284.812C514.449 286.275 515.254 288.169 515.952 290.246C518.602 298.129 516.16 304.709 512.614 311.791C512.141 312.739 512.03 313.2 511.125 313.783L510.736 313.312C510.57 306.905 512.307 300.66 512.254 294.265C512.23 291.347 510.297 287.32 511.141 284.812Z"/>
	<path fill="#252223" transform="scale(0.666667 0.666667)" d="M608.853 203.025C619.652 202.138 631.049 203.01 641.118 207.264C646.268 209.44 652.34 212.263 656.516 216.043C657.297 216.751 658.344 217.622 658.696 218.63C658.975 219.43 658.708 218.983 659.25 219.655C660.603 218.344 662.318 216.915 664.221 216.53C665.467 216.278 666.312 216.197 667.397 216.82L667.515 218.625C667.449 220.062 666.626 220.85 665.644 221.805L665.283 222.147C665.926 223.346 667.144 225.112 667.148 226.481C667.15 227.389 666.647 227.516 666.021 228.106L666.188 228.41C669.146 227.665 671.471 228.494 674.185 229.689C686.743 235.215 695.873 248.517 700.604 261.006C707.109 278.176 705.968 297.888 698.775 314.672C696.418 320.171 693.164 325.146 690.713 330.583C694.195 329.687 700.607 327.537 704.062 328.695C704.796 328.94 704.68 329.011 705.019 329.625C704.169 334.143 695.729 333.577 692.289 333.792C692.099 333.804 690.435 333.841 690.353 333.91C690.026 334.189 689.385 336.383 689.195 336.873C687.43 341.414 686.17 346.879 683.573 350.991C679.923 356.771 672.037 359.783 666.957 364.231C665.175 365.791 662.251 368.426 662.197 370.976C662.109 375.145 670.753 376.233 673.383 378.845C673.633 380.04 673.605 380.439 673.127 381.562C672.69 381.939 672.274 382.341 671.683 382.455C669.294 382.915 664.408 380.447 662.233 379.333C660.351 378.368 657.069 376.499 656.403 374.373C656.016 373.139 656.135 370.866 656.235 369.577C656.36 367.973 656.651 366.628 656.143 365.062L655.5 364.818L654.162 365.485L650.751 367.615C645.341 365.845 642.151 364.012 638.623 359.43C634.176 353.655 631.607 349.033 630.782 341.756C630.566 339.853 630.305 337.87 630.607 335.964C630.885 334.213 631.457 332.196 632.982 331.127C633.753 330.586 633.43 330.96 633.88 330.188C632.164 328.941 627.962 326.586 627.408 324.418C627.1 323.213 627.172 322.148 627.777 321.1C629.824 320.866 631.397 322.877 633.753 322.479C636.086 322.084 637.588 319.572 639.938 319.15L640.914 320.475L641.25 320.984C641.975 321.312 642.601 321.586 643.403 321.661C645.661 321.874 647.995 321.109 649.742 319.677C650.587 318.984 653.524 316.054 653.39 314.969C653.025 312.015 650.319 307.933 647.785 306.487C644.307 304.501 638.407 307.857 634.788 308.84C632.626 309.428 629.687 309.68 627.717 308.438C626.99 307.979 626.125 307.351 626.263 306.375C626.425 305.231 627.872 303.546 628.517 302.573C631.422 298.184 633.521 292.712 632.482 287.363C631.423 281.908 626.069 278.727 621.895 275.783C616.923 272.278 615.149 268.045 612.073 263.085C610.422 260.422 608.592 257.984 607.518 255.004C605.776 250.175 604.945 244.858 604.084 239.814L597.073 241.227C589.436 242.574 581.891 239.568 574.853 236.938C570.781 235.416 566.738 233.961 563.161 231.429C557.719 227.576 553.855 221.305 552.878 214.707C552.563 212.581 552.966 210.584 554.328 208.886C557.688 204.696 560.907 207.538 565.383 207.698C570.996 207.898 576.798 207.916 582.377 207.202C591.269 206.063 599.873 203.892 608.853 203.025Z"/>
	<path fill="#777678" transform="scale(0.666667 0.666667)" d="M639.977 290.645L640.602 287.306C641.444 287.481 641.31 287.502 641.765 288.188C643.061 290.139 642.63 291.388 642.173 293.511C641.372 292.409 641.228 291.203 639.977 290.645Z"/>
	<path fill="#D1D0D1" transform="scale(0.666667 0.666667)" d="M660.507 354.562L660.923 354.811L661.635 359.277C661.893 361.317 660.822 362.05 659.653 363.562C659.052 363.559 659.386 363.62 658.688 363.239L658.278 361.446C657.853 358.897 659.099 356.569 660.507 354.562Z"/>
	<path fill="#979597" transform="scale(0.666667 0.666667)" d="M639.977 290.645C641.228 291.203 641.372 292.409 642.173 293.511L641.767 294.736C639.626 300.432 636.311 302.93 630.92 305.452C631.124 304.942 632.09 304.288 632.534 303.895C633.955 302.637 635.817 301.185 636.826 299.567C638.437 296.982 639.19 293.551 639.977 290.645Z"/>
	<path fill="white" transform="scale(0.666667 0.666667)" d="M651.741 339.188L652.36 339.217L652.462 339.75C649.955 344.77 647.209 349.218 643.994 353.812L643.219 353.742C643.106 353.346 643.017 353.133 643.037 352.687C643.098 351.29 644.15 349.72 644.812 348.524C646.703 345.109 648.559 341.557 651.741 339.188Z"/>
	<path fill="#D1D0D1" transform="scale(0.666667 0.666667)" d="M655.749 345.604L652.312 360.844L651.562 361.081C651.279 360.766 651.078 360.572 650.857 360.188C649.943 358.595 650.207 355.965 650.61 354.261L650.761 353.641C651.566 350.087 653.091 347.392 654.837 344.241L655.749 345.604Z"/>
	<path fill="#D1D0D1" transform="scale(0.666667 0.666667)" d="M685.308 330.188L685.599 330.273L685.58 330.598C685.379 332.117 684.506 333.807 683.976 335.25C681.848 341.038 679.195 348.392 674.438 352.528C674.059 352.527 674.295 352.556 673.759 352.312C674.412 349.516 676.047 346.903 677.367 344.364C679.864 339.56 682.396 334.754 685.308 330.188Z"/>
	<path fill="white" transform="scale(0.666667 0.666667)" d="M633.527 324.188C636.327 323.588 640.308 325.478 643.199 325.781C645.853 326.059 648.516 325.662 651.188 325.994L651.334 326.594L650.103 327.395L646.635 328.663C643.115 329.714 639.559 328.986 636.387 327.184C635.138 326.475 633.93 325.623 633.527 324.188Z"/>
	<path fill="white" transform="scale(0.666667 0.666667)" d="M643.728 234.109C647.07 233.839 650.738 234.378 653.949 235.264C656.436 235.95 662.559 237.294 663.768 239.438C662.885 240.053 661.296 239.706 660.2 239.646L638.494 235.157L643.728 234.109Z"/>
	<path fill="white" transform="scale(0.666667 0.666667)" d="M654.837 344.241C656.247 341.55 657.8 338.828 658.875 335.984C662.572 326.196 664.554 314.902 673.898 308.579L655.749 345.604L654.837 344.241Z"/>
	<path fill="white" transform="scale(0.666667 0.666667)" d="M656.281 327.007L658.5 326.915L658.934 327.375C656.556 334.709 648.687 333.894 642.886 336.561C639.9 337.934 637.745 340.089 635.438 342.355L634.5 343.189L633.938 343.112C633.339 341.536 633.039 339.01 633.596 337.378C635.094 332.998 644.903 332.603 648.775 331.026C651.356 329.975 653.782 328.28 656.281 327.007Z"/>
	<path fill="white" transform="scale(0.666667 0.666667)" d="M650.698 228.972L657.938 228.756L658.293 229.312C658.031 229.956 657.614 231.142 656.812 231.312C656.034 231.477 654.505 231.185 653.655 231.172C651.623 231.141 649.494 231.208 647.481 231.495C644.108 231.975 640.9 233.325 637.602 234.15C629.014 236.295 621.555 237.223 613.717 241.874C612.458 242.599 611.309 243.59 610.156 244.473C609.661 242.443 609.131 240.484 608.199 238.603L608.012 238.234C610.562 237.15 613.645 236.639 616.334 235.912C627.538 232.887 639.136 230.054 650.698 228.972Z"/>
	<path fill="white" transform="scale(0.666667 0.666667)" d="M619.886 255.587C617.932 256.912 616.353 258.358 614.693 260.03C613.648 258.727 612.746 256.111 612.451 254.468C612.157 252.829 612.07 251.155 613.088 249.775C616.758 244.801 624.226 241.735 630.134 240.831C625.555 244.865 617.163 246.409 614.007 251.812L614.321 252.652C615.446 252.91 616.241 252.468 617.268 252.059L617.751 251.863C624.689 248.217 640.881 240.413 648.502 242.462L649.379 242.812C649.29 243.623 649.465 243.315 648.771 243.861C646.902 245.331 644.209 246.313 642.038 247.258L624.563 253.856C623.69 254.173 620.664 255.685 619.886 255.587Z"/>
	<path fill="#D1D0D1" transform="scale(0.666667 0.666667)" d="M626.233 211.688C633.874 212.475 641.068 215.385 648.341 217.694C651.417 218.671 655.427 219.464 658.068 221.268L658.176 222.375C656.864 223.189 649.584 222.244 647.704 221.949C641.588 220.989 634.897 222.484 628.779 223.02C625.212 223.332 621.512 223.254 617.995 223.943L598.408 228.622C592.85 229.76 585.988 231.672 580.296 231.525C577.538 231.454 575.017 230.778 572.393 229.983C572.933 229.561 575.392 229.564 576.188 229.461C579.856 228.988 583.539 228.265 587.145 227.444L620.358 218.492C624.4 217.592 628.533 217.179 632.639 216.686C631.122 215.151 629.531 213.222 627.559 212.293L627.188 212.13L626.233 211.688Z"/>
	<path fill="#D1D0D1" transform="scale(0.666667 0.666667)" d="M664.142 231.54C667.254 232.345 669.81 233.31 672.437 235.197C682.982 242.768 690.834 257.049 692.779 269.741C693.87 276.86 693.906 284.2 693.447 291.375C692.82 301.185 691.468 310.544 686.776 319.321C683.124 326.152 678.306 332.327 674.655 339.219L669.692 349.176C668.515 351.8 667.87 355.151 666.188 357.448L665.438 357.445L664.519 356.25C663.672 354.587 664.673 352.216 665.33 350.625C667.231 346.028 670.276 341.49 672.931 337.29L683.812 319.224C685.057 316.953 686.087 314.715 686.676 312.188C686.833 311.522 686.828 311.23 686.605 310.583L685.875 310.54C682.173 312.721 680.08 317.472 677.725 320.96C670.211 332.092 663.118 343.139 657.144 355.2C657.551 349.397 658.961 343.724 662.276 338.833C664.128 336.1 666.415 333.639 668.283 330.874C674.015 322.388 679.908 313.554 683.548 303.938C686.368 296.487 688.012 287.162 688.121 279.258C688.32 264.853 682.865 250.994 673.219 240.297C670.438 237.213 667.209 234.751 664.381 231.795L664.142 231.54Z"/>
	<path fill="#252223" transform="scale(0.666667 0.666667)" d="M285.666 223.659C286.116 229 287.166 234.405 287.335 239.748C287.37 240.861 287.546 242.851 287.136 243.842C286.848 244.536 286.036 245.553 285.527 246.151C282.496 249.715 277.26 252.296 272.577 252.667C269.657 252.899 266.547 252.21 264.387 250.138C260.812 246.709 260.846 241.211 260.909 236.625C261.002 229.83 261.883 223.004 262.741 216.271C264.814 199.986 268.492 184.147 274.842 168.97C279.81 157.098 285.097 147.569 294.454 138.522C305.045 128.282 317.67 120.238 332.021 116.466C335.664 115.509 339.315 114.586 343.105 114.656C349.044 114.767 355.097 114.89 360.843 116.572C367.625 118.557 373.746 122.867 378.603 127.899C391.602 141.37 395.647 159.128 404.991 174.745C406.873 177.891 409.058 180.909 411.372 183.75C413.209 186.005 415.438 188.218 416.778 190.819C417.772 192.746 418.514 195.644 418.416 197.812C418.326 199.794 417.235 202.246 416.269 203.978C415.988 204.484 414.292 207.003 414.363 207.339C414.496 207.973 416.123 209.773 416.615 210.448C420.307 215.515 424.17 220.237 427.221 225.749C428.061 227.268 429.247 229.122 429.579 230.832C430.407 235.105 428.391 239.58 425.062 242.183C421.246 245.167 416.601 246.186 411.855 245.332C410.263 245.045 408.724 243.949 407.353 243.127C414.287 253.635 416.935 270.986 414.404 283.207C410.966 299.809 402.526 317.71 387.96 327.299C386.648 328.163 385.271 328.844 383.83 329.463L384.073 329.877C386.012 333.243 386.293 337.6 386.716 341.415C396.258 335.666 402.19 327.331 406.396 317.23C407.848 313.743 409.1 310.117 411.27 307C416.69 322.398 416.678 338.374 414.65 354.386C413.451 363.852 411.569 373.321 407.436 382C404.938 387.246 401.786 391.411 397.174 394.968C396.118 395.782 394.842 396.867 393.601 397.361C392.776 397.688 391.812 397.791 390.938 397.915L390.487 397.312C391.671 394.004 394.884 391.986 397.092 389.383C398.875 387.281 400.498 384.774 401.888 382.4C406.245 374.959 408.208 366.351 409.603 357.922C411.358 347.318 412.063 336.911 411.66 326.16C411.55 323.214 411.662 319.769 411.069 316.891C409.263 319.706 408.253 323.003 406.777 326.003C402.833 334.021 396.009 342.563 387.359 345.399L387.482 345.929C389.284 353.88 389.475 362.328 389.637 370.448C393.483 368.589 397.437 366.667 400.248 363.335C400.819 362.657 402.771 359.705 403.5 359.613C403.78 359.578 404.049 359.746 404.324 359.812C405.042 360.626 405.498 361.522 405.401 362.632C405.064 366.493 400.827 369.929 397.923 372.1C395.256 374.093 392.855 374.845 389.607 375.246L387.069 424.669L386.637 453.75C386.671 461.303 387.185 468.944 386.728 476.483C386.614 478.372 386.549 481.306 384.938 482.567C384.605 482.827 384.371 482.884 384 483.017C383.158 482.513 383.157 482.277 382.947 481.292C382.307 478.293 382.503 474.88 382.491 471.815L382.499 455.973L382.549 399.418L383.861 382.453L384.558 375.406C378.878 375.194 374.152 373.471 369.758 369.84C365.1 365.989 361.28 361.262 358.295 356.02C357.045 353.825 355.808 351.466 355.58 348.92C355.532 348.384 355.737 348.339 356.062 347.943C357.275 348.528 358.239 350.033 359.108 351.043L363.734 356.18C365.23 355.132 365.494 353.409 365.978 351.75C366.518 349.902 367.401 348.973 368.702 347.619C365.719 347.33 361.195 347.018 358.875 344.987C357.97 344.195 357.894 343.715 357.869 342.562C358.146 342.295 358.329 342.086 358.687 341.899C359.495 341.477 360.207 341.666 361.019 341.894C362.646 342.351 364.903 343.027 366.562 342.625L365.326 341.541L365.434 341.062C370.833 343.191 376.855 343.076 382.546 342.344C382.582 338.497 381.746 334.586 381.079 330.813C379.292 330.724 376.901 331.646 375.083 331.977C370.182 332.869 365.162 333.544 360.174 333.377C347.449 332.951 335.022 326.696 326.449 317.389C315.916 305.955 308.631 291.669 309.271 275.827C304.785 275.614 300.232 274.7 296.997 271.344C293.739 267.963 293.167 263.723 293.243 259.214C293.298 255.896 294.064 248.971 296.741 246.591L297.295 246.128C290.988 239.989 290.138 232.778 289.153 224.441L288.742 209.097L289.493 192C289.873 184.006 290.196 175.871 291.721 168C293.092 160.921 295.452 153.672 297.851 146.879L297.454 145.714C295.222 151.063 292.56 156.352 290.868 161.898C285.706 178.82 284.232 196.707 285.064 214.317C285.205 217.311 285.085 220.734 285.666 223.659Z"/>
	<path fill="white" transform="scale(0.666667 0.666667)" d="M387.208 314.062L387.563 313.991C389.142 313.818 390.252 314.483 391.483 315.375C391.472 316.557 390.621 316.982 389.812 317.793L388.875 318.238C388.506 318.073 388.36 318.031 388.012 317.737C387.109 316.97 386.485 316.141 386.3 315L387.208 314.062Z"/>
	<path fill="white" transform="scale(0.666667 0.666667)" d="M367.361 220.893C368.586 220.723 368.72 220.643 369.801 221.207C370.288 222.083 370.784 222.464 370.5 223.468L365.676 224.328C364.424 224.697 362.923 225.328 361.713 224.812C362.57 223.053 365.669 221.768 367.361 220.893Z"/>
	<path fill="white" transform="scale(0.666667 0.666667)" d="M358.962 232.688L359.59 232.758C360.123 234.239 361.112 237.69 360.521 239.225C360.007 240.561 358.665 241.217 357.43 241.688C356.603 241.764 356.488 241.69 355.738 241.312C355.137 239.196 358.005 234.641 358.962 232.688Z"/>
	<path fill="#C1C0C1" transform="scale(0.666667 0.666667)" d="M299.068 154.13C300.546 149.399 302.502 144.681 305.469 140.676C307.383 138.092 309.803 135.813 312.06 133.528C312.14 134.289 312.191 134.944 312.502 135.65C307.299 141.729 302.993 147.552 300.362 155.215L299.068 154.13Z"/>
	<path fill="white" transform="scale(0.666667 0.666667)" d="M373.258 305.812C373.763 306.755 373.583 307.811 373.873 308.812C374.176 309.862 374.755 311 375.352 311.913C376.942 314.345 379.778 316.451 382.353 317.725C383.534 318.309 385.263 318.794 386.12 319.803L384.938 320.928L383.994 321.408C382.746 321.801 381.693 321.037 380.627 320.438C376.816 318.293 373.541 314.41 372.46 310.151C372.01 308.378 372.377 307.365 373.258 305.812Z"/>
	<path fill="#D1D0D1" transform="scale(0.666667 0.666667)" d="M393.67 283.312C394.303 283.156 394.887 282.831 395.514 283.111C398.641 284.507 400.569 289.338 401.537 292.348C402.037 293.9 402.58 295.39 401.812 296.903C399.271 294.824 394.184 289.086 393.224 285.938C392.867 284.769 393.096 284.336 393.67 283.312Z"/>
	<path fill="white" transform="scale(0.666667 0.666667)" d="M411.791 230.812L411.898 230.83C414.83 231.774 417.591 231.819 420.623 232.103C418.939 235.325 417.634 237.195 414.782 239.416C412.162 240.71 410.229 240.653 407.388 240.486C408.95 238.136 410.851 235.887 411.292 233.035C411.412 232.254 411.563 231.569 411.791 230.812Z"/>
	<path fill="white" transform="scale(0.666667 0.666667)" d="M312.06 133.528C320.761 125.404 331.937 119.927 343.975 119.817C341.421 121.262 338.211 122.03 335.426 122.982C327.048 125.843 318.921 129.402 312.502 135.65C312.191 134.944 312.14 134.289 312.06 133.528Z"/>
	<path fill="#C1C0C1" transform="scale(0.666667 0.666667)" d="M389.64 293.438C390.379 293.282 390.441 293.384 391.125 293.612C393.462 295.987 395.079 298.998 396.703 301.881C397.315 302.969 398.325 304.371 398.476 305.608C398.597 306.607 398.267 306.809 397.688 307.554C396.978 307.385 396.262 307.098 395.625 306.745C392.647 305.099 389.424 301.817 388.635 298.447C388.188 296.539 388.597 295.043 389.64 293.438Z"/>
	<path fill="#C1C0C1" transform="scale(0.666667 0.666667)" d="M356.506 208.688C357.124 208.506 357.643 208.397 358.293 208.426C362.192 208.6 366.308 213.302 368.806 216.04L364.919 217.466C362.824 218.432 361.117 219.624 359.272 220.989C359.28 219.458 359.351 217.77 358.983 216.278C358.411 213.958 355.977 210.912 356.506 208.688Z"/>
	<path fill="#D1D0D1" transform="scale(0.666667 0.666667)" d="M329.464 132.825C330.173 132.781 330.789 132.862 331.497 132.938C332.446 133.905 335.063 135.961 335.062 137.212C334.076 137.755 333.527 137.898 332.438 137.975C332.218 137.495 332.015 137.134 331.719 136.688C331.567 137.525 331.38 138.05 330.938 138.777C328.99 139.615 326.871 139.82 324.79 140.146C322.423 140.509 318.898 141.146 316.688 140.087L316.528 139.312C316.76 138.772 317.015 138.212 317.382 137.747C319.762 134.737 325.911 133.451 329.464 132.825Z"/>
	<path fill="white" transform="scale(0.666667 0.666667)" d="M369.081 227.812C369.814 227.792 370.007 227.89 370.654 228.188C372.44 231.125 372.893 235.149 372.269 238.5C371.622 239.279 371.435 239.566 370.402 239.821C369.014 240.163 367.736 239.557 366.562 238.887C364.245 236.396 363.049 232.491 361.773 229.364L369.081 227.812Z"/>
	<path fill="#D1D0D1" transform="scale(0.666667 0.666667)" d="M299.068 154.13L300.362 155.215C297.881 162.879 296.974 170.695 296.267 178.688L295.191 202.614C295.215 208.955 295.644 215.622 295.155 221.927C295.072 222.994 295.074 223.04 294.296 223.708L293.716 222.938C292.918 211.385 293.679 199.354 294.212 187.793C294.478 182.008 294.337 176.213 295.13 170.461C295.892 164.941 297.314 159.413 299.068 154.13Z"/>
	<path fill="#D1D0D1" transform="scale(0.666667 0.666667)" d="M300.058 177.188C300.591 178.737 300.515 180.847 300.646 182.497C301.099 188.185 300.908 195.327 302.665 200.689C304.548 206.434 306.105 213.204 306.597 219.244C303.952 213.807 302.995 207.455 302.065 201.534L301.677 201.938C302.818 207.842 302.273 214.819 302.503 220.875C301.608 221.305 299.636 220.839 298.592 220.724C297.76 208.724 298.203 196.597 299.367 184.634C299.608 182.156 299.487 179.617 300.058 177.188Z"/>
	<path fill="#C1C0C1" transform="scale(0.666667 0.666667)" d="M297.454 145.714C297.792 145.022 298.127 145.098 297.375 144.662C292.064 149.867 287.882 158.578 285.453 165.562C283.94 169.915 282.73 174.465 281.651 178.946C280.973 181.763 278.474 197.147 276.75 198.658C275.13 196.478 276.097 189.025 276.485 186.31C278.636 171.258 285.303 156.832 295.349 145.46C297.869 142.608 300.274 139.905 303.304 137.581C301.496 139.779 298.522 142.617 298.181 145.507L297.851 146.879L297.454 145.714Z"/>
	<path fill="white" transform="scale(0.666667 0.666667)" d="M310.923 222.938L311.35 223.062C312.304 224.422 312.917 226.091 313.312 227.702C313.835 229.831 314.056 232.821 312.809 234.75C311.24 237.175 306.884 238.593 304.088 238.644C302.348 238.676 300.791 236.995 298.688 237.418L298.875 238.123C300.341 238.893 301.992 239.132 303.599 239.476C302.078 240.113 300.357 241.172 298.688 240.984C297.095 239.343 296.371 236.693 295.538 234.573C300.032 230.166 305.85 227.424 310.545 223.277L310.923 222.938Z"/>
	<path fill="white" transform="scale(0.666667 0.666667)" d="M408.011 190.312L408.967 190.272C410.182 192.327 412.224 195.029 411.95 197.524C411.68 199.988 409.561 202.123 407.666 203.507C404.793 205.603 401.844 205.487 398.528 205.004C397.48 204.52 396.384 204.032 395.508 203.265C393.816 201.785 393.905 199.336 393.708 197.255C398.873 195.856 403.514 193.146 408.011 190.312Z"/>
	<path fill="#C1C0C1" transform="scale(0.666667 0.666667)" d="M348.877 325.277C341.014 323.191 334.186 319.185 329.418 312.522C326.713 308.743 324.576 304.815 325.512 300C326.516 294.842 330.679 290.217 334.907 287.478C333.999 290.407 332.992 293.383 332.517 296.418C331.42 303.431 332.185 309.561 336.529 315.335C338.534 318 342.298 321.907 345.819 322.245L346.333 322.273C347.439 323.046 348.43 323.964 348.877 325.277Z"/>
	<defs>
		<linearGradient id="gradient_0" gradientUnits="userSpaceOnUse" x1="353.28201" y1="303.478" x2="375.64499" y2="307.25299">
			<stop offset="0" stop-color="#D4D3D5"/>
			<stop offset="1" stop-color="#FFFDFE"/>
		</linearGradient>
	</defs>
	<path fill="url(#gradient_0)" transform="scale(0.666667 0.666667)" d="M359.964 283.688C361.22 283.537 361.476 283.591 362.654 284.062C362.853 285.316 361.841 286.9 361.312 288.08C360.21 290.545 359.132 293.018 358.536 295.664C357.123 301.924 356.53 308.952 360.096 314.605C362.298 318.095 365.797 320.826 369.019 323.308C370.532 324.473 373.154 325.771 374.147 327.354L373.312 327.666L370.312 327.738C367.131 327.586 361.15 321.847 359.112 319.549C355.077 315.001 352.915 307.788 353.325 301.738C353.683 296.439 355.797 287.284 359.964 283.688Z"/>
	<path fill="#D1D0D1" transform="scale(0.666667 0.666667)" d="M346.333 322.273C340.527 314.433 337.512 307.656 338.952 297.722C339.39 294.698 340.399 289.57 342.794 287.524C343.206 287.172 343.62 287.254 344.123 287.339C344.855 287.461 345.47 288.008 346.042 288.452C346.489 290.209 344.382 293.734 343.923 295.715C341.252 307.236 346.369 318.786 356.412 324.775C358.779 326.187 361.066 327.46 363.101 329.356C357.793 328.79 353.647 327.678 348.877 325.277C348.43 323.964 347.439 323.046 346.333 322.273Z"/>
	<path fill="white" transform="scale(0.666667 0.666667)" d="M309.443 252.562L310.688 252.329C313.739 256.611 318.399 256.199 323.187 257.048L321.578 262.48C319.866 266.863 317.347 269.531 313.019 271.369C310.048 271.83 306.978 271.977 304.153 270.721C302.454 269.966 300.797 268.767 300.188 266.938C299.483 264.825 300.705 261.766 301.64 259.893C303.463 256.241 305.492 253.848 309.443 252.562Z"/>
	<path fill="#C1C0C1" transform="scale(0.666667 0.666667)" d="M368.702 347.619C373.462 347.647 378.235 347.679 382.954 346.958L384.572 370.757C376.251 368.352 368.754 363.397 363.734 356.18C365.23 355.132 365.494 353.409 365.978 351.75C366.518 349.902 367.401 348.973 368.702 347.619Z"/>
	<path fill="white" transform="scale(0.666667 0.666667)" d="M359.804 121.312C361.479 121.128 363.946 122.757 365.358 123.561C377.758 130.622 386.28 144.264 391.444 157.226C393.723 162.948 395.572 168.391 395.37 174.614C395.237 178.682 393.859 182.614 393.077 186.587C391.913 192.51 391.488 199.02 391.789 205.057C391.928 207.853 392.553 210.614 392.98 213.375C393.384 215.987 393.637 218.626 394.383 221.172C395.836 226.129 397.965 230.836 399.358 235.827C389.132 227.294 382.832 214.618 375.461 203.787L365.584 190.598C362.259 185.775 359.785 180.887 357.825 175.368C359.418 177.265 361.075 179.562 363.001 181.109C364.163 182.043 364.948 182.062 366.375 181.872C367.052 181.31 367.309 181.191 367.573 180.359C368.933 176.078 361.593 174.01 359.789 170.58C360.474 169.343 362.735 170.149 364.206 169.626C365.03 168.743 365.473 168.562 365.537 167.327C364.601 166.474 363.73 165.91 362.438 165.75C360.86 165.555 358.942 166.468 357.751 167.43C355.786 169.016 354.864 171.253 354.652 173.738C353.883 182.764 362.577 192.81 367.887 199.44C364.474 199.177 360.797 199.028 357.562 200.331C354.657 201.501 351.956 203.765 350.763 206.727C349.827 209.05 352.346 212.666 353.354 214.786C350.036 218.431 345.711 221.176 341.861 224.24C338.935 226.569 336.282 229.128 333.189 231.262C333.937 228.537 334.803 225.979 335.95 223.396C337.096 220.816 340.273 216.724 340.459 214.125L339.81 213.562C338.833 213.563 338.152 213.643 337.34 214.234C335.716 215.417 334.209 217.709 333.188 219.452C327.354 229.406 327.99 240.774 325.686 251.749C322.804 247.375 319.769 244.052 315.849 240.581L316.89 239.062C319.225 235.163 319.453 231.97 318.483 227.625C317.254 222.116 315.056 216.929 313.293 211.587C308.311 196.494 303.182 179.98 304.113 163.875C304.154 163.162 304.249 162.46 304.828 161.991C306.393 160.722 309.721 160.848 311.618 161.062L312.087 161.812L312.375 162.284C315.986 160.51 319.656 158.879 323.595 157.98C332.609 155.922 344.478 156.977 351.304 149.426C352.968 147.585 354.024 145.297 355.042 143.058C358.047 136.45 360.16 128.591 359.804 121.312Z"/>
	<path fill="#111011" transform="scale(0.666667 0.666667)" d="M367.848 149.777L369.938 149.878C373.198 150.22 378.75 151.613 380.686 154.465C381.336 155.42 381.256 155.873 380.97 156.938C380.635 157.188 380.053 157.764 379.688 157.896C378.204 158.431 376.168 157.119 374.748 156.654C373.397 156.212 372.086 156.042 370.681 155.911L370.141 155.864C367.827 155.904 365.52 155.925 363.229 156.284C361.563 156.545 357.987 157.95 356.526 157.692C356.245 157.642 356.015 157.439 355.76 157.312C355.855 156.183 355.966 155.404 356.663 154.478C358.997 151.379 364.214 150.225 367.848 149.777Z"/>
	<path fill="#010101" transform="scale(0.666667 0.666667)" d="M340.529 172.112C342.247 173.264 344.022 174.611 344.696 176.625C343.751 178.12 339.904 178.963 338.25 180C336.781 180.921 335.93 182.085 335.68 183.799C335.416 185.614 336.134 186.703 337.236 188.062C338.419 188.571 338.355 188.608 339.562 188.183C340.787 185.788 337.857 184.802 337.444 182.624C337.296 181.841 337.516 181.839 337.942 181.227C338.301 181.175 338.834 181.075 339.188 181.125C340.522 181.314 341.091 182.289 341.914 183.217C342.448 184.432 343.339 186.415 343 187.741C342.584 189.371 341.712 190.694 340.259 191.582C339.295 192.173 338.232 192.547 337.106 192.183C335.039 191.514 333.038 189.215 332.159 187.284C330.081 182.712 332.457 178.174 336.251 175.454C337.817 174.331 339.873 173.961 340.529 172.112Z"/>
	<path fill="#111011" transform="scale(0.666667 0.666667)" d="M309.455 165.043L311.438 163.199C311.474 165.235 311.477 166.558 312.792 168.188C314.661 168.511 318.427 165.228 320.312 164.293C323.893 162.519 329.489 161.346 333.39 162.8C335.263 163.498 336.546 164.872 337.377 166.658C338.276 168.59 339.676 170.155 340.529 172.112C338.402 170.683 337.026 169.159 334.566 168.188C330.068 166.412 324.977 166.598 321 169.492C319.085 170.886 317.369 172.534 315.188 173.512C314.203 173.429 313.476 173.241 312.586 172.788C310.981 171.972 309.02 170.212 308.592 168.375C308.258 166.942 308.8 166.225 309.455 165.043Z"/>
	<path fill="#252223" transform="scale(0.666667 0.666667)" d="M101.227 653.28L99.8062 651.914C91.1474 642.842 84.021 631.666 80.3933 619.639C79.0759 615.272 78.0799 611.013 78.2411 606.425C78.4937 599.232 82.4731 593.124 87.6384 588.346L88.0931 587.93C76.656 588.454 63.4679 586.378 53.3156 593.042C50.7644 594.717 47.5161 597.715 46.9765 600.826C45.8996 607.034 57.3494 610.381 60.3435 614.625L60.2176 615.209C59.3737 615.297 58.5562 615.334 57.7136 615.197C52.5375 614.354 45.7992 611.029 42.8524 606.673C41.0237 603.97 41.022 600.836 41.756 597.771C43.019 592.499 47.2635 587.581 51.8398 584.832C60.1658 579.831 71.2072 579.418 80.6182 579.958C85.5515 580.241 89.9797 580.597 94.8028 581.783C97.5698 578.371 100.898 575.492 104.163 572.573C111.796 565.75 119.74 560.077 128.328 554.519C135.921 549.605 143.675 544.68 152.051 541.207C151.398 534.416 152.614 527.246 153.431 520.495L156.846 495.382L160.738 478.513L160.418 478.437C144.688 474.498 133.103 464.601 121.678 453.602C112.575 444.836 104.045 435.272 97.5476 424.385C89.3563 410.659 84.4272 395.846 80.6491 380.403C76.5963 363.837 74.5403 348.549 75.2735 331.518C75.5789 324.425 76.2048 317.175 77.9974 310.295C80.9229 299.067 84.9564 287.708 94.2358 280.106C97.2612 277.628 100.792 275.706 104.164 273.749C102.508 267.518 103.388 258.987 106.286 253.146C107.919 249.854 109.874 247.921 113.319 246.741C114.283 246.411 115.499 246.86 116.492 247.065C125.678 248.963 133.536 255.372 141.871 259.4C149.405 263.042 157.32 265.394 165.609 266.51C168.971 266.963 172.49 267.473 175.756 266.235C180.264 264.526 177.736 262.023 179.252 258.75C179.712 258.551 179.928 258.342 180.451 258.485C181.773 258.846 182.893 260.134 183.631 261.229C183.998 261.773 184.275 262.217 184.816 262.606L185.249 262.898L184.863 263.233L184.14 263.671C183.444 266.645 182.929 269.944 180.078 271.65C173.492 275.591 163.46 273.513 156.489 271.548C149.718 269.639 143.209 267.068 137.152 263.463C129.629 258.987 122.494 252.596 113.89 250.446C109.36 256.103 108.849 263.625 109.246 270.67C114.497 269.775 119.523 269.055 124.875 269.413C126.162 269.499 127.909 269.525 128.917 270.457C129.257 270.771 129.422 271.114 129.644 271.5C129.243 272.368 128.984 272.9 128.062 273.304C126.876 273.825 125.158 273.777 123.887 273.839C121.562 273.953 119.268 274.048 116.96 274.355C104.834 275.971 93.0107 285.978 87.6673 296.713C83.7931 304.496 81.8384 312.983 80.7541 321.567C77.2772 349.095 83.8255 377.442 92.6446 403.388C98.1539 419.597 108.594 434.874 121.19 446.378C125.11 449.958 129.73 453.216 134.05 456.306C140.049 460.597 146.046 464.514 152.675 467.774C156.2 469.508 160.095 471.242 164.051 471.656C168.99 472.172 175.056 470.319 179.662 468.723C194.128 463.71 201.275 448.955 209.027 436.822C208.675 435.447 205.683 433.209 204.641 431.94C203.108 430.074 201.719 428.048 200.486 425.973C198.199 422.124 196.851 417.578 195.918 413.22L189.472 383.151L189.213 383.532C185.615 388.732 179.944 395.101 173.461 396.285C170.576 396.811 168.6 396.414 166.281 394.698C158.51 388.951 154.933 378.085 151.902 369.356L140.372 330.556C137.685 322.038 134.485 313.531 130.076 305.743C126.926 300.179 123.273 294.099 117.49 290.921C116.03 290.118 114.539 289.674 112.875 289.583C112.014 289.536 108.159 290.029 107.68 289.751C107.46 289.624 107.389 289.334 107.244 289.125C107.671 288.074 107.848 287.398 108.938 286.902C111.659 285.663 116.255 286.015 118.939 287.209C121.492 288.343 123.689 290.241 125.705 292.138C137.291 303.037 143.193 320.807 148.35 335.471L152.067 347.502C155.57 360.896 157.942 374.832 165.3 386.81C166.513 388.785 168.122 391.492 170.25 392.552C171.397 393.123 172.226 392.886 173.369 392.438C177.17 390.947 181.173 385.992 183.659 382.821C184.904 381.233 186.002 379.501 187.688 378.353C189.233 378.971 189.365 380.334 190.313 381.604C191.731 383.506 192.953 384.898 193.902 387.133C197.352 395.249 199.174 404.641 200.438 413.354C202.627 421.284 205.342 428.376 212.303 433.394C210.644 430.46 208.978 427.647 207.954 424.418C203.827 411.412 205.513 396.46 197.345 384.779C195.157 381.65 192.089 379.701 189.586 376.917C192.7 373.543 196.504 370.081 200.594 367.965C202.927 362.949 204.666 357.969 206.333 352.704C198.691 341.466 197.234 327.651 197.474 314.387C197.559 309.66 198.008 304.69 197.378 300.009C197.108 298.003 196.626 295.93 195.938 294.027C195.257 292.147 193.412 289.895 193.551 288.021C194.478 287.647 195.413 287.553 196.343 288.062C199.483 289.782 201.309 297.814 201.943 301.124C202.427 303.65 202.126 306.657 202.107 309.252C202.058 315.797 201.784 322.431 202.87 328.913C203.681 333.751 204.513 338.692 206.135 343.334C206.939 345.634 208.029 347.787 209.13 349.954C209.606 350.892 210.47 352.251 210.596 353.292C210.7 354.147 210.144 355.863 209.949 356.784C208.78 362.331 206.665 369.177 203.385 373.835C202.757 374.727 201.908 375.413 201.106 376.14L200.511 376.708L200.152 377.047C202.09 379.007 203.804 381.016 205.111 383.472C209.604 391.916 208.398 401.936 210.365 410.995C213.501 409.454 216.384 407.977 219.186 405.877C220.015 405.256 222.126 403.24 223.125 403.075C223.393 403.031 223.644 403.233 223.903 403.312C224.1 404.773 223.699 405.845 222.817 407.028C219.783 411.094 215.349 412.594 210.63 413.652C211.567 418.414 213.203 423.067 215.877 427.143C219.3 423.028 221.535 418.356 224.019 413.648C225.861 410.156 227.949 406.724 229.222 402.967C230.108 400.351 229.993 396.413 231.405 394.184C232.65 394.156 232.656 394.282 233.651 395.062C235.902 402.367 230.499 412.565 227.169 418.859C221.842 428.927 215.013 438.029 208.596 447.405L202.917 456.562C198.972 462.935 195.341 468.839 192.596 475.887C189.025 485.055 187.109 495.607 186.642 505.401C186.291 512.768 186.278 521.386 188.444 528.466L189.305 530.959C203.709 529.262 217.467 529.468 231.876 530.919C239.181 531.655 246.779 532.53 253.809 534.754C253.403 522.682 256.068 509.248 264.586 500.177C266.909 497.704 269.343 495.756 272.31 494.1L259.291 495.582C247.859 496.499 237.084 495.195 225.92 492.816C222.672 492.124 218.921 491.739 215.94 490.312L215.619 489.562C215.94 488.872 215.994 488.652 216.809 488.443C218.405 488.035 220.917 488.543 222.562 488.694C229.737 489.352 236.851 491.265 244.025 491.474C250.037 491.648 256.283 491.389 262.256 490.688L275.284 488.895C283.173 487.549 290.662 485.881 298.681 485.166C300.296 485.023 302.494 484.536 304.04 485.062C304.767 485.941 305.088 486.015 304.983 487.186C303.291 488.691 301.234 488.76 299.074 489.06C294.938 489.634 290.65 490.017 286.599 491.046C277.488 493.359 270.594 499.116 265.45 506.879C261.592 512.701 258.797 520.441 258.359 527.438C258.199 529.989 258.156 532.489 258.464 535.03L269.84 539.503C272.721 540.702 275.59 542.112 278.602 542.941C273.688 537.835 270.327 532.139 270.523 524.812L270.719 523.005L270.922 523.698C271.302 525.119 270.747 527.427 271.365 528.552C271.714 529.187 271.76 529.718 271.865 530.415C272.428 534.167 275.368 538.435 278.062 540.941C279.913 540.856 280.459 540.014 282.002 539.252L282.341 538.995C283.459 538.157 284.731 537.879 285.844 536.988C286.948 536.105 285.646 537.086 286.875 536.438C288.474 535.594 290.528 533.548 292.031 532.406L292.875 531.562L293.812 531L294.399 530.505C295.066 529.951 294.724 530.11 295.488 529.952L295.92 530.131C295.851 530.446 293.996 531.786 293.625 532.083C291.197 534.027 288.751 536.086 286.147 537.784C283.902 539.247 281.547 540.338 279.408 541.987L280.086 542.29C284.513 544.233 289.266 545.442 293.919 546.72C309.809 551.085 325.277 553.329 341.807 552.278C351.788 551.644 361.45 549.59 371.163 547.336C394.34 541.96 417.671 534.181 438.854 523.219C443.477 520.827 448.313 518.388 452.566 515.386C455.651 513.208 458.564 510.803 461.457 508.38C463.299 506.836 464.978 504.955 467.25 504.076L467.812 504.487C467.868 505.48 467.869 506.239 467.346 507.117C465.966 509.435 463.154 511.556 461.136 513.376C446.417 526.644 428.221 534.308 409.425 539.836C421.518 540.778 433.188 542.712 445.102 544.94C476.404 550.795 507.167 560.014 535.508 574.659C545.672 579.911 555.785 585.665 564.047 593.69C569.296 590.198 574.611 592.605 579.938 590.818L580.112 590.062C579.411 588.431 575.869 587.359 574.339 586.295C572.01 584.676 569.948 582.529 567.9 580.58C567.391 582.465 566.971 585.404 565.312 586.464L564.375 586.106C563.28 584.825 562.987 584.328 563.059 582.562C563.338 575.657 564.527 568.689 565.099 561.788L567.11 520.266C567.29 511.81 567.575 503.38 566.947 494.936L567.521 494.053C568.912 494.283 571.048 494.501 571.895 495.839C572.507 496.805 572.695 498.571 572.909 499.707C573.806 504.473 573.821 508.92 573.803 513.75L572.251 549.793C572.032 552.15 572.132 555.845 571.343 557.956C571.256 558.668 571.041 559.513 571.183 560.214C572.488 561.743 572.622 563.486 573.288 565.313C574.243 567.928 575.438 570.113 576.2 572.813L576.614 573.562C578.086 576.747 579.111 580.025 581.2 582.932L580.945 583.719L583.134 584.254C583.386 584.503 583.765 584.669 583.888 585C584.155 585.716 583.924 587.706 583.978 588.562C584.131 591.007 584.716 593.476 584.711 595.92C584.709 597.341 584.722 598.12 583.946 599.351C582.634 599.838 581.274 599.119 579.938 598.925C578.699 598.745 568.175 597.806 567.832 598.125C568.163 598.505 568.525 599.045 568.955 599.306C572.473 603.012 575.899 606.675 578.662 611.001C583.988 619.34 587.221 629.424 585.1 639.237C587.675 638.861 590.101 638.82 592.699 638.99C599.443 639.433 608.548 641.625 613.992 645.778C615.314 646.787 616.453 648.231 617.548 649.482C615.236 642.944 612.346 636.688 610.239 630.05C604.491 611.933 600.529 593.182 596.21 574.678L590.211 534.868C588.864 521.678 588.52 508.436 588.317 495.188L588.849 453.36C589.761 437.403 591.713 421.204 594.021 405.388L595.623 393.406C595.919 390.474 595.702 386.096 596.842 383.473C597.687 383.131 597.704 383.232 598.577 383.543C601.181 387.045 598.34 404.352 597.826 409.621L596.332 427.033C593.755 459.702 593.389 492.689 596.344 525.361C597.548 538.679 599.963 551.916 602.135 565.107C607.225 596.024 612.016 627.843 626.988 655.845C629.597 660.724 632.52 665.306 636.028 669.598C639.364 673.679 643.196 677.522 645.905 682.059C646.693 676.104 647.067 670.174 649.65 664.667C646.772 664.836 641.113 666.429 638.812 664.821C638.661 664.401 638.433 664.002 638.357 663.562C638.229 662.827 644.177 648.082 644.861 645.661L649.608 626.732C652.391 615.966 655.249 605.29 657.218 594.333C663.379 560.061 666.723 524.222 663.761 489.429C663.293 483.928 662.937 478.251 661.938 472.824C661.202 468.824 659.684 464.699 659.313 460.688L659.812 459.823C661.307 459.974 662.176 460.616 663.105 461.83C664.084 463.108 664.51 464.699 664.993 466.211C666.253 470.154 666.966 474.283 667.584 478.371C672.525 511.058 671.019 545.149 665.542 577.688L658.157 612.966L652.348 636.946C650.285 644.26 647.654 651.423 644.915 658.506C651.215 659.054 656.382 661.586 662.105 664.108L684.838 675.023C688.229 676.685 691.983 677.817 695.084 679.993C693.884 681.597 690.777 684.669 691.063 686.632C691.398 688.933 693.571 690.387 695.192 691.844C696.36 685.035 697.681 677.982 699.512 671.319C702.799 659.358 707.152 647.68 709.842 635.554C714.429 614.876 718.333 593.579 720.254 572.487C721.331 560.667 721.584 548.682 721.547 536.819C721.51 524.915 721.348 513.022 719.922 501.188C717.917 484.537 713.494 468.273 707.427 452.665C703.272 441.976 698.407 431.441 691.748 422.059C687.783 416.472 677.956 404.307 670.944 403.189C668.695 402.83 666.448 403.838 664.714 405.211C661.996 407.362 659.234 409.845 656.915 412.412C655.178 414.336 653.483 417.932 651.375 419.251L650.725 418.688C650.55 414.441 653.107 409.999 655.943 406.902C659.271 403.268 662.743 401.058 667.108 398.834C665.177 397.719 663.207 396.71 661.67 395.062C662.21 394.369 662.34 394.262 663.266 394.122C664.182 393.983 665.102 394.219 666 394.384L666.654 394.502C679.89 397.006 691.339 411.104 698.465 421.732C707.739 435.563 713.385 450.637 717.943 466.57C722.985 484.194 726.404 502.511 727.555 520.826C729.545 552.525 725.281 585.078 719.123 616.126C714.479 639.546 706.853 662.12 701.489 685.337C700.322 690.387 698.512 695.348 697.834 700.472C706.325 702.091 714.316 704.277 719.496 711.837C721.093 714.168 723.836 718.363 723.307 721.266C723.034 722.761 721.84 723.946 720.884 725.046C716.685 716.763 713.263 710.269 703.843 707.188C694.855 704.248 680.811 707.987 675.433 698.292C673.183 694.235 674.464 688.689 675.804 684.562C676.478 682.488 677.284 680.512 677.702 678.362C676.359 679.991 675.717 682.037 675.018 684C673.371 688.624 672.236 693.351 671.135 698.127C670.491 700.922 669.528 704.037 669.737 706.913C669.777 707.462 670.245 707.974 670.688 708.291C672.231 709.4 674.93 709.459 676.767 709.598C685.01 710.222 695.373 709.441 702.777 713.537C705.311 714.94 707.597 717.231 709.409 719.475C711.082 721.548 712.993 724.196 713.711 726.78C713.973 727.721 714.027 727.942 713.631 728.812C710.103 729.698 705.395 729.032 701.705 729.01L675.872 728.835L602.997 728.716L545.393 729.758L424.673 731.45L329.934 732.767L100.232 722.646L70.5548 721.585L29.3403 721.193C29.7974 714.596 31.3718 710.938 36.4373 706.59C43.7436 700.32 53.6509 695.123 63.5625 696.027C67.7439 696.408 71.8607 697.439 75.6659 699.188L77.4783 699.969C80.7667 700.805 84.1329 701.398 87.2259 702.842C90.1663 704.215 92.7406 706.301 95.4129 708.115C102.428 712.875 110.138 711.551 117.979 710.09L118.18 709.5L117.469 708.375C118.088 706.836 119.536 705.681 120.695 704.521L127.148 698.18C128.127 697.235 129.432 695.649 130.599 694.987C130.944 694.791 131.089 694.8 131.438 694.757C132.073 695.533 132.135 695.853 132.047 696.891C131.95 698.031 131.237 698.944 130.641 699.878L130.334 700.374C128.179 703.712 124.213 706.931 121.272 709.585C126.28 708.888 131.108 708.347 136.183 708.594C137.042 708.636 139.689 709.024 140.227 708.591C141.069 708.63 143.299 708.468 143.956 708.813C151.519 706.381 158.753 704.357 164.803 698.928C167.077 696.888 168.867 694.406 170.683 691.967C169.446 691.061 168.375 690.805 166.896 690.526C165.919 689.568 164.232 689.18 162.958 688.697L155.677 685.694L131.731 674.533C128.19 672.905 124.662 671.101 121.007 669.752C119.351 669.141 117.741 668.632 115.988 668.4C114.22 668.166 111.739 668.192 110.199 667.278C109.409 666.81 109.317 666.639 109.068 665.812C109.541 664.308 111.193 662.899 112.251 661.738L101.227 653.28Z"/>
	<defs>
		<linearGradient id="gradient_1" gradientUnits="userSpaceOnUse" x1="662.54303" y1="725.27502" x2="660.45697" y2="719.59998">
			<stop offset="0" stop-color="#635E68"/>
			<stop offset="1" stop-color="#757570"/>
		</linearGradient>
	</defs>
	<path fill="url(#gradient_1)" transform="scale(0.666667 0.666667)" d="M655.554 721.112C663.16 721.647 671.292 721.324 678.778 722.583L673.404 723.14C670.792 723.614 668.016 723.511 665.367 723.536L648.771 722.964C649.894 722.54 651.194 722.158 652.178 721.475C652.98 720.917 654.548 721.126 655.554 721.112Z"/>
	<path fill="#C1C0C1" transform="scale(0.666667 0.666667)" d="M571.183 560.214C572.488 561.743 572.622 563.486 573.288 565.313C574.243 567.928 575.438 570.113 576.2 572.813L576.614 573.562C578.086 576.747 579.111 580.025 581.2 582.932L580.945 583.719C575.943 581.42 572.452 577.582 568.538 573.819C570.116 569.349 570.669 564.903 571.183 560.214Z"/>
	<path fill="#D1D0D1" transform="scale(0.666667 0.666667)" d="M216.132 705.788L221.355 707.458L207.938 720.867L207.359 721.473C205.922 721.686 204.641 720.702 203.353 720.051C206.468 714.685 211.004 709.286 216.132 705.788Z"/>
	<defs>
		<linearGradient id="gradient_2" gradientUnits="userSpaceOnUse" x1="638.39001" y1="726.66699" x2="633.23499" y2="716.33301">
			<stop offset="0" stop-color="#9F9DA1"/>
			<stop offset="1" stop-color="#BEBDBD"/>
		</linearGradient>
	</defs>
	<path fill="url(#gradient_2)" transform="scale(0.666667 0.666667)" d="M648.771 722.964L612.634 723.577L640.837 716.837L641.062 717.597C645.978 718.548 650.591 720.404 655.554 721.112C654.548 721.126 652.98 720.917 652.178 721.475C651.194 722.158 649.894 722.54 648.771 722.964Z"/>
	<path fill="#D1D0D1" transform="scale(0.666667 0.666667)" d="M487.004 709.328C493.836 706.752 500.744 702.786 507.84 701.14C501.55 705.991 494.588 712.714 493.575 721.086L493.332 724.402L467.554 724.775C468.635 724.152 469.362 723.916 470.625 724.033L471.188 724.125C474.159 724.109 477.424 724.441 480.373 723.748C480.564 723.019 480.699 722.654 481.192 722.062C481.786 721.349 482.276 720.724 482.676 719.88L486.114 712.936C486.742 711.588 487.091 710.836 487.004 709.328Z"/>
	<path fill="#D1D0D1" transform="scale(0.666667 0.666667)" d="M128.126 714.16C132.822 713.454 138.549 713.983 143.314 714.274C156.673 715.089 169.393 716.451 182.475 719.43C185.463 720.11 189.071 720.655 191.812 722.032C190.454 722.415 188.398 722.027 186.973 721.915L175.214 720.812L143.062 718.495C131.537 717.788 120.22 717.066 108.677 717.784C115.079 715.014 121.265 714.565 128.126 714.16Z"/>
	<path fill="#D1D0D1" transform="scale(0.666667 0.666667)" d="M58.7906 701.337C60.9261 701.122 63.2992 701.077 65.4258 701.385C69.1476 701.923 72.7619 703.459 76.3695 704.496C79.7748 705.476 84.1805 705.881 87.1353 707.84C88.8034 708.947 90.2852 710.766 91.7093 712.187C93.4339 713.908 95.2946 715.438 97.1973 716.958L73.4063 716.11L34.9325 716.181C40.7725 709.338 49.9166 703.191 58.7906 701.337Z"/>
	<path fill="#D1D0D1" transform="scale(0.666667 0.666667)" d="M170.683 691.967C171.106 691.924 171.233 691.887 171.706 691.983C174.726 692.599 178.597 694.729 181.557 695.803C191.023 699.236 200.02 702.189 209.985 703.878C208.094 705.961 205.801 707.546 203.801 709.507C200.918 712.333 198.47 716.018 196.717 719.637C184.737 714.35 171.86 711.1 158.812 709.865L149.691 709.381C147.84 709.322 145.725 709.393 143.956 708.813C151.519 706.381 158.753 704.357 164.803 698.928C167.077 696.888 168.867 694.406 170.683 691.967Z"/>
	<path fill="white" transform="scale(0.666667 0.666667)" d="M640.837 716.837L641.263 716.665C645.148 715.061 652.611 711.284 654.37 707.25C654.873 706.098 654.537 705.126 653.967 704.062C651.677 699.784 646.062 697.225 642.893 693.599C644.307 693.972 646.009 694.682 647.438 694.199C649.46 691.999 651.942 670.39 652.527 665.908L658.854 668.42C659.569 668.669 660.946 668.924 661.426 669.494C659.77 670.79 657.338 672.29 656.852 674.47L656.812 674.855C657.748 675.767 658.286 675.867 659.625 675.909C663.409 676.028 669.529 674.297 672.947 676.312C673.201 677.801 671.819 680.555 671.284 682.073C669.203 687.974 667.171 693.928 665.642 699.998C664.921 702.863 663.917 706.288 664.565 709.248C664.844 710.52 665.655 711.487 666.693 712.231C669.981 714.588 674.763 715.056 678.703 715.167C685.988 715.372 695.847 714.414 702.064 719.034C703.796 720.322 705.191 722.266 706.561 723.926C700.507 722.945 694.663 722.792 688.545 722.688C685.341 722.634 681.966 722.376 678.778 722.583C671.292 721.324 663.16 721.647 655.554 721.112C650.591 720.404 645.978 718.548 641.062 717.597L640.837 716.837Z"/>
	<path fill="white" transform="scale(0.666667 0.666667)" d="M190.27 468.562C190.617 469.594 187.124 475.408 186.47 477C179.788 493.277 178.033 515.875 184.8 532.325C176.432 533.219 167.826 535.522 160.037 538.631L156.438 540.127C156.2 535.551 157.533 530.491 158.063 525.924L159.912 506.362C161.067 497.148 162.887 487.78 163.162 478.492C165.652 478.505 168.257 478.516 170.706 478.008C172.985 477.535 175.228 476.38 177.375 475.505C182.239 473.521 186.008 471.709 190.27 468.562Z"/>
	<defs>
		<linearGradient id="gradient_3" gradientUnits="userSpaceOnUse" x1="350.319" y1="708.94" x2="350.14401" y2="727.03101">
			<stop offset="0" stop-color="#A4A3A4"/>
			<stop offset="1" stop-color="#E3E3E6"/>
		</linearGradient>
	</defs>
	<path fill="url(#gradient_3)" transform="scale(0.666667 0.666667)" d="M467.554 724.775L212.091 722.213C217.669 718.318 222.339 713.541 227.111 708.739L228.938 709.908C232.478 711.778 237.556 712.224 241.451 713.414C254.343 717.352 266.924 719.534 280.228 721.406L300.387 723.966C314.346 725.256 328.448 725.331 342.457 725.327L397.389 723.89C415.377 722.932 433.706 721.817 451.5 718.946C463.63 716.989 475.32 713.037 487.004 709.328C487.091 710.836 486.742 711.588 486.114 712.936L482.676 719.88C482.276 720.724 481.786 721.349 481.192 722.062C480.699 722.654 480.564 723.019 480.373 723.748C477.424 724.441 474.159 724.109 471.188 724.125L470.625 724.033C469.362 723.916 468.635 724.152 467.554 724.775Z"/>
	<path fill="#111011" transform="scale(0.666667 0.666667)" d="M243.982 717.562C244.848 717.384 245.318 717.447 246.188 717.529L246.665 718.312C245.815 720.281 242.726 721.647 240.87 722.517L238.673 722.438L238.367 721.845C240.057 720.038 241.723 718.612 243.982 717.562Z"/>
	<path fill="#111011" transform="scale(0.666667 0.666667)" d="M235.262 713.438L235.816 713.686L235.984 714.562C235.784 714.968 235.609 715.318 235.312 715.663C232.578 718.848 228.903 720.597 224.812 721.141C224.278 721.039 224.508 721.169 224.143 720.717C227.542 717.739 230.962 714.993 235.262 713.438Z"/>
	<path fill="#D1D0D1" transform="scale(0.666667 0.666667)" d="M584.443 642.267C591.442 642.193 598.355 643.426 605.005 645.56L617.826 650.228C619.004 652.815 620.604 655.251 622.019 657.721C624.958 662.855 627.954 667.89 631.773 672.439C634.858 676.112 638.537 679.42 641.384 683.265C642.07 684.192 643.495 686.439 643.631 687.61C643.797 689.027 642.967 691.92 642.736 693.419C631.631 682.68 614.404 676.591 599.119 675.791C590.86 675.358 583.331 676.682 575.547 679.474C571.69 680.858 568.069 682.354 564.976 685.099C569.464 684.713 573.632 683.345 577.98 682.285C584.796 680.623 591.711 679.837 598.726 680.353C609.727 681.163 621.627 684.988 630.984 690.849C634.566 693.094 637.705 695.748 640.917 698.477C643.72 700.857 646.525 703.165 648.948 705.943C636.406 715.979 617.791 717.086 602.768 721.152L602.468 721.235C605.103 719.395 607.687 717.637 609.937 715.32C612.381 712.803 617.968 706.959 617.934 703.5C617.249 702.77 616.918 702.572 615.938 702.366C613.174 704.671 611.205 708.171 608.821 710.903C606.019 714.116 602.774 716.782 599.307 719.245C598.355 719.922 597.049 721.036 595.934 721.363C594.116 721.895 591.647 721.729 589.722 721.816L579.373 722.512C582.717 718.556 587.948 715.04 592.062 711.848C594.036 710.317 596.444 708.856 597.735 706.688C597.771 705.851 597.964 705.393 597.488 704.665C596.344 702.917 593.094 701.677 591.241 700.811C583.834 697.346 576.295 694.179 568.234 692.616C557.506 690.536 545.658 690.437 534.847 692.093C533.275 692.334 530.885 692.442 529.593 693.42C528.984 693.88 529.188 693.638 529.067 694.5C529.659 695.218 530.003 695.688 531 695.733C533.875 695.861 536.923 695.442 539.812 695.357C546.214 695.168 552.762 695.162 559.125 695.96C570.639 697.403 580.976 702.055 591.228 707.207L579.78 716.945C577.938 718.568 575.671 721.215 573.45 722.221C570.485 723.565 565.023 723.125 561.71 723.254L518.812 723.797L497.217 724.145C500.141 715.076 505.959 708.628 511.348 700.986L510.562 700.479C510.736 699.853 511.036 699.864 511.603 699.535C516.544 696.664 521.739 694.447 526.87 691.959C539.667 685.756 551.257 678.578 562.389 669.735C565.057 667.616 567.943 665.591 570.238 663.061C572.713 660.334 575.019 657.311 577.177 654.329C578.927 651.912 580.306 649.306 582.722 647.486C583.841 646.643 584.102 643.696 584.443 642.267Z"/>
	<path fill="#252223" transform="scale(0.666667 0.666667)" d="M593.783 664.258C597.587 663.895 601.461 663.957 605.25 664.437C609.919 665.027 616.939 666.988 620.253 670.5L620.062 670.944L618.267 670.688C613.382 669.355 609.037 667.4 603.938 666.703C600.025 666.168 596.039 666.579 592.125 666.021L591.751 665.438C592.423 664.645 592.82 664.596 593.783 664.258Z"/>
</svg>
