<?xml version="1.0" encoding="utf-8" ?>
<svg xmlns="http://www.w3.org/2000/svg" xmlns:xlink="http://www.w3.org/1999/xlink" width="512" height="512">
	<path fill="white" transform="scale(0.666667 0.666667)" d="M-0 -0L768 0L768 768L-0 768L0 -0Z"/>
	<path fill="#211F22" transform="scale(0.666667 0.666667)" d="M117.655 511.87L116.201 510.375L116.249 509.438L117 509.192C118.685 509.585 120.123 510.452 121.637 511.262C120.475 512.128 119.031 511.902 117.655 511.87Z"/>
	<path fill="#181719" transform="scale(0.666667 0.666667)" d="M610.548 712.52L614.054 712.402L614.852 714.196L615.307 714.543L609.943 714.774L608.812 713.441L610.548 712.52Z"/>
	<path fill="#211F22" transform="scale(0.666667 0.666667)" d="M614.054 712.402C617.349 712.383 620.57 712.321 623.836 712.835L625.374 713.081C622.007 713.926 618.781 714.424 615.307 714.543L614.852 714.196L614.054 712.402Z"/>
	<path fill="#181719" transform="scale(0.666667 0.666667)" d="M290.106 139.623L292.973 139.529C296.764 139.517 301.753 140.409 304.424 143.256C305.974 144.909 306.101 146.515 305.978 148.688C305.404 149.749 305.009 150.407 303.816 150.873C302.766 151.284 301.962 151.568 300.938 151.122C300.734 149.845 300.512 148.1 299.453 147.218C297.133 145.285 292.682 145.543 289.854 145.537L287.812 145.89C284.619 146.558 282.093 147.521 280.267 150.333C279.701 151.205 279.157 151.878 278.438 152.628C277.588 152.717 277.095 152.821 276.281 152.484C275.48 152.153 274.673 151.026 274.487 150.198C274.132 148.618 274.546 147.183 275.539 145.943C279.04 141.572 284.878 140.343 290.106 139.623Z"/>
	<path fill="#181719" transform="scale(0.666667 0.666667)" d="M254.865 740.417C260.687 740.109 276.766 739.165 281.062 742.501L281.063 743.171C279.069 744.382 276.079 744.905 273.774 745.106C269.097 745.515 264.142 745.067 259.426 745.177L230.256 746.696C224.578 747.274 218.862 747.449 213.212 748.275C212.088 748.439 207.81 749.691 207 749.443C206.787 749.377 206.625 749.203 206.438 749.083C206.618 748.422 206.6 748.193 207.1 747.676C212.303 742.309 247.048 740.715 254.865 740.417Z"/>
	<path fill="#181719" transform="scale(0.666667 0.666667)" d="M194.964 180.562C195.606 180.426 196.02 180.415 196.683 180.518C200.796 181.158 202.105 190.509 204.226 193.71C205.679 195.903 207.8 197.756 210 199.175C211.585 200.196 215.619 201.926 216.435 203.665C216.824 204.496 216.485 206.208 216.138 207.024C215.559 208.388 214.49 208.876 213.188 209.406C212.008 209.658 210.73 209.708 209.553 209.408C203.807 207.944 198.3 203.295 195.437 198.188C193.476 194.69 190.657 187.754 191.96 183.778C192.515 182.084 193.388 181.299 194.964 180.562Z"/>
	<path fill="#181719" transform="scale(0.666667 0.666667)" d="M121.637 511.262C126.143 513.351 130.755 515.497 135.492 517.004C144.179 519.767 153.069 520.694 162.152 520.54C167.694 520.447 173.189 520.027 178.444 518.125C181.146 517.147 187.049 513.848 189.554 514.981L190.444 515.438C190.467 516.465 190.575 516.515 189.852 517.254C188.261 518.878 185.927 519.918 183.89 520.873C175.711 524.708 167.258 525.779 158.298 525.679C143.553 525.515 128.855 521.848 117.655 511.87C119.031 511.902 120.475 512.128 121.637 511.262Z"/>
	<path fill="#181719" transform="scale(0.666667 0.666667)" d="M426.949 730.285L451.017 731.075C440.134 734.758 427.817 735.042 416.414 736.075L340.149 741.056C334.741 741.665 329.127 741.666 323.686 741.9C322.107 741.967 319.019 742.475 317.678 741.718C317.475 740.814 317.527 740.649 317.812 739.759C320.61 737.765 327.189 737.055 330.562 736.615C342.705 735.033 355.247 734.918 367.475 734.192L426.949 730.285Z"/>
	<path fill="#181719" transform="scale(0.666667 0.666667)" d="M60.3594 587.438C60.8792 587.326 61.0348 587.45 61.5284 587.61C62.9233 589.125 64.0154 591.185 64.6252 593.153C66.6773 599.773 67.2193 607.28 68.2181 614.134L74.7422 660.877C83.8293 661.886 92.7881 662.461 101.934 662.213C108.009 662.048 114.047 661.329 120.134 661.418C122.537 661.454 125.015 661.17 126.792 663C126.674 664.047 126.597 664.363 125.936 665.189C123.432 668.32 114.541 668.021 110.581 668.353C99.7169 669.517 89.2942 670.997 78.3281 671.214C75.3145 671.274 71.9826 671.548 69 671.243C67.9249 671.133 67.5475 670.925 66.8502 670.125C68.6319 667.547 78.249 666.973 81.3733 666.369L70.1984 664.779C68.2793 659.906 68.1225 654.112 67.5146 648.938L65.211 630.503L61.5626 602.697C60.9668 597.915 59.7675 592.189 60.3594 587.438Z"/>
	<path fill="#181719" transform="scale(0.666667 0.666667)" d="M342.99 202.688C343.791 202.496 344.744 202.367 345.562 202.587C346.11 202.734 346.833 203.188 347.087 203.693C347.519 204.555 347.538 205.521 347.541 206.467L346.624 226.702L344.775 278.427L343.305 348.898C343.245 354.557 343.128 360.209 343.536 365.859C343.714 368.331 345.054 372.219 344.437 374.45C344.067 374.421 343.868 374.427 343.494 374.279C342.052 373.709 341.32 372.305 340.736 370.959C339.44 367.974 338.882 364.477 338.675 361.242C337.804 347.615 338.455 333.543 338.566 319.866L339.531 258.111L341.135 228.581L341.856 212.377C342.004 209.239 341.865 205.632 342.99 202.688Z"/>
	<path fill="#181719" transform="scale(0.666667 0.666667)" d="M604.629 60.9375C605.687 60.6544 606.585 60.4081 607.605 60.9968C611.145 63.0412 611.705 67.1559 612.716 70.6769C613.191 72.3336 614.159 73.7426 615.872 74.3598C617.215 74.8439 619.86 74.2423 621.188 73.7507C621.583 72.8791 621.695 72.8969 621.375 72.0123C619.422 71.3139 617.735 71.4302 615.799 72.0946L615.344 72.2582L613.28 66.4169C616.42 65.5123 619.606 65.5762 622.839 65.4664L638.308 65.1953L656.465 63.9791L658.243 68.1455L658.385 68.5833C659.264 71.451 661.04 76.6931 659.594 79.4784C657.411 81.0662 615.06 84.6182 609.633 84.6718C608.24 84.6855 607.077 84.5468 606.095 83.5049C603.167 80.3984 602.398 71.6132 602.485 67.4146C602.533 65.0562 602.841 62.636 604.629 60.9375Z"/>
	<path fill="white" transform="scale(0.666667 0.666667)" d="M651.638 69.5625C652.324 69.5038 652.452 69.5356 653.062 69.7706L653.78 74.7577C644.334 73.0721 633.942 73.8112 624.337 73.7776L622.595 73.6875C622.464 72.7173 622.393 72.6477 622.876 71.8125C624.559 71.6248 626.272 71.3706 627.967 71.4375C628.572 71.4614 629.048 71.4676 629.662 71.4085L651.638 69.5625Z"/>
	<path fill="#181719" transform="scale(0.666667 0.666667)" d="M175.141 264.153C194.191 263.216 211.743 272.01 225.074 285.236C229.439 289.566 233.249 294.971 238.049 298.761C238.974 299.491 240.868 300.917 242.01 301.125C244.427 301.565 249.136 298.375 251.155 297.188C252.151 296.602 253.211 295.829 254.397 295.758C255.183 295.712 255.086 295.826 255.62 296.298C255.742 300.549 250.545 304.714 247.995 307.767C250.725 306.786 252.869 305.284 255.188 303.592L255.938 303.711L256.466 304.443C257.706 306.286 257.95 308.579 257.442 310.728C256.867 313.159 255.078 315.261 252.97 316.546C250.064 318.318 245.868 319.057 242.526 318.214C236.233 316.626 232.222 310.352 228.986 305.226C226.651 301.234 224.275 297.206 221.402 293.572C214.347 284.645 204.29 276.876 193.643 272.757C187.912 270.54 182.145 270.018 176.051 270.293C167.901 270.662 159.961 273.24 154.535 279.61C151.913 282.689 150.106 286.151 148.115 289.639C146.885 291.794 145.809 294.155 143.438 295.202L142.813 294.938C142.594 294.4 142.465 293.887 142.425 293.306C142.272 291.07 143.214 288.909 144.031 286.875C145.729 282.647 147.677 278.041 150.616 274.504C156.598 267.306 166.239 264.967 175.141 264.153Z"/>
	<path fill="#181719" transform="scale(0.666667 0.666667)" d="M8.89658 336.188C9.65829 336.21 9.8533 336.319 10.3125 336.99C11.4044 338.586 11.997 341.629 12.5311 343.485C14.9782 351.987 16.7168 360.595 18.4246 369.268L26.4513 411.899L43.4382 507.375C46.642 521.957 49.4027 536.454 54.5522 550.535C57.1821 557.726 60.5462 564.585 65.7577 570.268C72.3598 577.468 81.6208 581.146 90.8942 583.503C94.1287 584.325 99.3263 584.696 101.796 586.972C103.76 588.783 104.979 591.501 105.957 593.949C110.034 604.159 112.072 615.134 116.029 625.4C116.898 627.656 117.874 629.888 118.967 632.044C119.743 633.575 121.201 635.578 121.208 637.312L120.188 637.939C119.539 638.197 119.002 638.185 118.312 638.223C115.691 636.501 114.377 633.599 113.062 630.847C109.733 623.879 107.666 616.245 105.319 608.903C103.706 603.857 102.088 597.22 98.4724 593.206L98.1175 592.822C96.3501 590.861 89.9292 590.136 87.1529 589.316C83.4678 588.228 79.7835 587.005 76.2766 585.424C62.7961 579.347 54.632 567.926 49.5322 554.416C44.5192 541.136 41.4049 527.225 38.4267 513.378L18.8359 402.345L9.68617 349.453C9.21679 346.001 7.46453 339.339 8.89658 336.188Z"/>
	<path fill="#211F22" transform="scale(0.666667 0.666667)" d="M265.156 22.6257C272.014 22.2103 279.008 22.1717 285.627 24.2641C294.77 27.1544 302.756 32.9393 307.174 41.5475C313.65 36.3984 321.141 34.0666 329.35 33.4808C341.153 32.6386 352.257 35.0791 361.347 42.9724C371.316 51.6288 376.869 65.6745 377.785 78.6471C378.578 89.8784 375.526 100.88 367.992 109.378C358.665 119.896 343.621 125.403 329.859 126.086C310.598 127.041 289.387 120.832 274.908 107.812C274.553 106.773 274.477 106.797 274.908 105.803C275.21 105.719 275.5 105.552 275.812 105.552C276.336 105.552 277.42 106.091 277.917 106.314C280.667 107.543 283.278 109.254 285.938 110.678L294.879 114.992C311.16 121.883 330.302 124.041 346.94 117.218C357.034 113.079 365.132 106.359 369.347 96.1458C374.046 84.7604 372.145 72.8824 367.393 61.8787C363.496 52.8564 356.699 44.8748 347.391 41.2271C337.869 37.4951 326.225 37.9497 316.933 42.1416C310.253 45.1551 304.352 51.0454 301.717 57.8892C306.898 53.6507 310.464 48.4044 316.628 45.2699C325.343 40.8378 335.342 40.1302 344.625 43.251C353.391 46.198 359.198 52.6506 363.17 60.8458C367.946 70.7005 368.724 83.1367 365.095 93.47C361.842 102.732 355.212 110.335 346.319 114.573C328.895 122.877 308.057 119.49 291.346 111.068C285.562 108.154 280.475 103.991 274.332 101.828C273.026 101.892 271.576 102.813 270.397 103.382L261.353 108.06L261.637 108.351L262.09 108.837C262.667 109.447 263.279 110.053 263.676 110.803C266.287 115.748 265.716 123.875 263.99 129.028C259.49 142.459 245.501 150.444 233.6 156.437C234.357 158.752 238.925 159.865 240.068 162.188L239.438 163.293C244.613 162.678 249.813 161.258 254.913 160.16C264.804 158.031 274.923 155.837 284.975 154.688C291.447 153.948 298.713 153.548 304.995 155.512C311.161 157.44 317.301 161.082 320.342 166.961L320.541 167.357C321.902 163.549 323.401 160.024 325.778 156.712C327.091 154.881 328.773 153.353 330.075 151.508C329.024 151.086 328.322 150.654 327.425 149.961C326.897 148.988 326.599 148.304 326.601 147.178C326.608 143.398 328.946 137.769 331.77 135.219C332.533 134.53 333.137 134.362 334.15 134.42C335.417 134.493 335.659 134.426 336.486 135.375C336.583 136.694 336.529 137.505 336.067 138.75C334.791 139.885 333.415 141.245 332.476 142.688C331.734 143.828 331.415 144.256 331.688 145.576C332.328 146.028 333.09 146.654 333.938 146.587C334.755 146.523 335.962 145.903 336.797 145.65C340.039 144.671 343.363 144.152 346.723 144.902C351.358 145.938 356.04 148.69 358.509 152.865C362.282 159.246 362.331 168.219 360.562 175.207C358.583 183.022 353.125 192.382 345.962 196.438C344 197.549 340.198 198.683 337.942 197.812C337.015 197.455 336.597 197.024 336.262 196.125C337.431 194.102 341.65 192.454 343.699 191.08C345.648 189.773 347.509 188.065 348.983 186.238C353.699 180.389 356.213 171.438 355.284 164.007C354.734 159.609 352.105 154.411 348.512 151.786C346.688 150.453 343.958 149.778 341.731 150.271C337.458 151.218 332.103 156.913 329.746 160.455C326.528 165.293 324.748 171.122 325.922 176.899C326.693 180.693 327.73 184.46 329.252 188.024C329.727 189.136 329.915 190.09 330.938 190.758L332.819 189.017C333.996 187.613 335.108 186.242 335.812 184.529C336.732 182.293 336.769 176.661 338.25 175.552C338.983 176.051 339.544 176.441 339.957 177.249C341.129 179.548 340.819 183.821 339.938 186.178C338.423 190.226 335.806 191.992 332.071 193.711C333.521 196.263 334.768 198.835 335.394 201.724C337.172 209.924 331.444 217.737 324.464 221.392C323.776 221.753 320.025 222.966 319.816 223.29C319.493 223.792 319.486 226.201 319.369 226.947C319.065 228.877 318.547 230.828 317.951 232.688C316.522 237.145 314.198 241.408 311.701 245.345C304.187 257.194 291.685 265.79 278 268.811C258.986 273.008 237.993 268.904 221.721 258.368C212.529 252.416 206.005 245.567 203.636 234.68L216.542 247.843C226.949 257.499 240.855 262.973 254.812 264.499C261.887 265.273 269.391 264.802 276.344 263.381C290.222 260.544 300.252 252.519 307.93 240.86C306.607 240.809 304.904 240.915 303.648 240.515C302.828 240.253 302.744 239.946 302.335 239.25C302.641 238.637 302.654 238.355 303.284 238C305.016 237.025 307.433 237.958 309.26 238.358C312.171 233.797 313.373 229.596 314.496 224.341L311.928 223.063C306.631 220.058 305.124 215.66 303.577 210.138C302.285 210.725 301.151 211.616 299.869 212.237C296.615 213.814 292.688 214.67 289.088 214.569C284.444 214.439 279.386 212.398 276.197 209.009C273.318 205.95 271.88 202.509 270.702 198.534C267.412 187.433 267.791 175.092 268.092 163.637L238.618 170.004L240.029 185.812C240.099 187.254 240.322 188.3 239.225 189.349C238.192 190.338 236.126 190.926 234.725 190.649C233.382 190.385 231.921 189.284 230.801 188.518C227.742 186.425 224.397 183.987 222.007 181.134C221.158 180.119 220.596 178.594 219.727 177.699C218.99 176.939 215.889 177.11 214.772 177.041C217.195 180.346 219.127 184.262 218.478 188.491C218.226 190.136 217.59 190.853 216.275 191.812C215.074 191.812 214.851 191.464 214.201 190.463C212.944 188.523 212.272 185.728 211.424 183.562C208.482 176.05 203.786 167.797 196.088 164.299C192.274 162.565 186.396 161.612 182.462 163.314C178.115 165.195 174.627 170.382 173.163 174.762C170.746 181.991 171.549 189.694 174.884 196.491C179.915 206.742 188.42 213.439 199.12 217.042L194.625 217.438C188.474 217.549 181.848 213.648 177.459 209.608C170.879 203.551 165.789 193.945 165.55 184.912C165.292 175.159 168.216 168.258 174.822 161.272C169.367 160.544 164.413 159.353 159.471 156.872C148.727 151.479 141.364 142.19 137.646 130.827C133.8 119.071 134.002 105.175 139.684 94.0496C145.161 83.324 154.421 74.9254 165.934 71.2252C178.953 67.041 194.729 70.0479 206.378 76.8202C211.474 79.7827 215.948 83.689 221.198 86.3743C219.845 83.7231 217.152 81.4285 214.92 79.4906C209.356 74.661 203.065 70.457 196.507 67.1096L181.991 60.5291C185.206 59.6657 188.279 59.0602 191.629 59.1912C194.377 59.2986 197.154 60.5042 199.587 61.7407C205.797 64.8974 211.274 69.1908 215.936 74.3421C215.651 71.2928 215.072 66.8649 215.709 63.8467C216.026 62.3481 217.394 60.443 218.147 59.0836C213.982 55.3874 207.793 54.3842 202.5 53.7241C201.247 53.568 200.29 53.5254 199.552 52.5L200.015 51.9375C203.113 51.179 207.243 50.6527 210.419 51.1586L211.125 51.2762C214.038 51.7168 216.297 52.2315 218.75 53.9065L219.236 54.2423C220.435 51.8844 221.727 49.7984 223.346 47.7009C234.056 33.8213 247.573 24.8966 265.156 22.6257Z"/>
	<path fill="white" transform="scale(0.666667 0.666667)" d="M226.853 158.062C228.68 158.092 233.643 162.362 235.183 163.651L234.562 164.16L231.014 164.552C229.662 163.771 228.121 161.761 227.284 160.448C226.599 159.373 226.567 159.297 226.853 158.062Z"/>
	<path fill="white" transform="scale(0.666667 0.666667)" d="M230.968 174.188C231.599 173.982 231.698 173.95 232.382 174.082L234.531 185.386L232.375 183.056L226.463 175.4L230.968 174.188Z"/>
	<path fill="white" transform="scale(0.666667 0.666667)" d="M221.556 160.688C224.122 160.613 226.813 163.51 228.856 164.992C224.715 165.742 220.034 166.266 215.88 165.41C215.196 165.268 214.942 165.523 214.312 165.791C213.915 166.735 213.91 167.129 213 167.648C210.837 166.947 209.575 164.578 208.407 162.764L221.556 160.688Z"/>
	<path fill="white" transform="scale(0.666667 0.666667)" d="M322.391 186.295C323.971 191.79 327.434 196.592 328.856 202.118L329.021 202.792L329.402 204.55C329.688 207.282 328.054 210.776 326.39 212.869C323.477 216.533 320.168 218.306 315.61 218.793L314.933 218.617C312.749 217.998 311.162 216.189 310.112 214.244C309.262 212.672 308.248 210.133 308.576 208.312C308.721 207.507 309.845 206.561 310.385 205.993L315.542 200.427C319.105 196.192 320.786 191.501 322.391 186.295Z"/>
	<path fill="white" transform="scale(0.666667 0.666667)" d="M288.574 159.508C289.464 159.396 290.105 159.382 290.985 159.562C287.011 163.171 283.566 167.076 281.798 172.234C279.33 179.431 279.946 188.674 283.39 195.467C286.646 201.89 291.077 204.752 297.715 206.97C296.486 207.578 295.26 208.007 293.957 208.431C292.321 208.65 290.702 208.85 289.049 208.738C285.375 208.489 282.05 207.207 279.648 204.302C277.297 201.459 275.972 197.666 275.144 194.119C272.727 183.76 273.746 172.719 274.515 162.21L288.574 159.508Z"/>
	<path fill="white" transform="scale(0.666667 0.666667)" d="M266.521 28.6388C273.303 28.1355 280.649 28.4583 287.014 31.0817C293.611 33.8011 299.575 38.0708 302.364 44.787C300.821 43.2611 299.411 41.4575 297.745 40.0764C292.343 35.5976 284.964 34.2329 278.163 33.9172C262.927 33.2101 249.887 39.22 238.785 49.2856C231.359 56.5055 224.966 65.6499 222.951 75.9712C222.808 76.7011 222.712 77.2538 222.361 77.9214L221.891 77.6972C221.638 76.9959 221.441 76.3018 221.328 75.5625C219.951 66.5891 224.671 55.7196 230.054 48.7833C239.029 37.2176 252.135 30.3722 266.521 28.6388Z"/>
	<path fill="white" transform="scale(0.666667 0.666667)" d="M299.665 160.924C302.394 160.877 305.202 161.547 307.568 162.915C312.177 165.577 315.533 169.969 316.873 175.125L317.011 175.688C318.097 179.984 316.928 185.42 315.335 189.489C313.012 195.423 309.069 199.932 303.198 202.451C301.291 202.543 299.611 202.621 297.794 201.886C293.153 200.006 289.583 195.757 287.638 191.25C285.145 185.472 285.324 178.707 287.725 172.936C290.048 167.353 294.09 163.216 299.665 160.924Z"/>
	<path fill="#181719" transform="scale(0.666667 0.666667)" d="M631.133 445.98L630.743 448.875C631.578 449.925 634.426 449.258 635.804 449.158C656.199 447.678 675.886 449.629 696.206 450.966C704.07 451.484 712.701 451.105 720.383 452.845C721.609 453.122 722.195 453.444 722.865 454.5C722.354 455.259 722.11 455.659 721.215 456.024C719.528 456.711 717.209 456.663 715.413 456.715L702.479 456.45L670.669 454.489C663.892 454.088 657.173 453.43 650.369 453.585C637.681 453.874 625.134 455.389 612.543 456.782L535.55 465.547L522.093 466.59C520.887 466.662 517.753 466.502 516.75 466.966C515.687 467.459 514.568 468.778 513.597 469.516C511.336 471.233 508.219 472.8 505.551 473.766C501.567 475.21 495.284 474.812 491.974 471.939C491.003 471.095 490.157 469.362 489.203 468.705C488.638 468.317 448.571 469.549 443.841 469.66C437.84 469.802 383.769 472.409 383.013 471.971C382.61 471.739 381.561 469.723 381.252 469.25C378.731 465.392 376.029 461.579 371.812 459.43C369.791 458.4 367.281 458.487 365.062 458.329C362.696 458.161 360.302 457.882 357.928 458.018C355.769 458.142 350.897 459.282 349.095 458.438L349.014 457.125C349.125 455.938 349.87 454.962 350.723 454.196C355.297 450.092 361.043 447.321 366.375 444.366L380.836 435.951C384.826 433.64 389.027 431.415 392.804 428.771C396.719 426.032 399.821 422.038 403.047 418.541C405.615 415.757 408.392 413.228 411.194 410.686C403.971 408.809 395.154 407.832 387.688 408.13C383.724 408.288 379.685 409.064 375.75 409.602L375.649 409.897C376.377 410.426 376.938 410.577 377.812 410.768C380.82 409.847 383.164 409.794 386.293 410.057C389.821 410.354 394.817 410.938 397.102 414.012C397.861 415.032 397.821 415.798 397.562 417C397.152 418.904 395.761 420.557 394.842 422.25C393.91 423.969 393.421 426.175 391.633 427.201C391.26 427.414 389.861 428.039 389.438 427.873C388.89 427.659 388.946 426.949 388.184 426.846C386.694 426.644 384.462 427.375 382.994 427.751C374.612 429.899 365.788 433.321 358.554 438.087C353.172 438.136 347.879 436.669 342.777 435.095C336.164 433.055 329.527 430.538 323.206 427.716C297.786 416.371 273.915 398.468 257.477 375.869C254.635 371.963 251.57 368.15 249.831 363.597C250.301 362.09 251.112 360.757 251.872 359.381C256.379 363.858 259.762 370.24 263.655 375.338C272.947 387.505 284.534 398.35 297.188 406.966C302.661 410.692 308.256 414.373 314.107 417.481C321.434 421.373 329.012 424.553 336.792 427.411C342.593 429.541 348.431 431.676 354.59 432.491C355.688 432.636 357.477 433.096 358.542 432.964C359.783 432.81 361.853 431.295 362.988 430.688C365.216 429.495 367.455 428.436 369.846 427.608C373.473 426.353 377.385 425.245 381.16 424.55C383.377 424.141 386.73 424.205 388.688 423.434C389.749 423.016 389.88 422.258 390.311 421.312C390.22 421.109 390.181 420.873 390.039 420.701C389.679 420.264 387.12 419.975 386.513 419.859C384.206 419.42 381.869 418.876 379.687 417.993C376.564 416.729 373.579 414.987 370.55 413.507C343.769 400.42 319.745 381.421 298.547 360.62C291.349 353.557 284.212 346.306 278.309 338.098C272.524 330.055 268.748 321.06 264.382 312.227C262.467 308.352 259.552 304.322 258.134 300.315C257.731 299.176 257.497 298.176 258.034 297.044C259.392 296.796 260.21 297.204 261.175 298.118C265.522 302.237 268.67 308.335 271.286 313.651C274.023 319.213 276.677 324.767 279.947 330.046C285.934 339.712 294.214 348.282 302.23 356.27C319.587 373.567 339.064 389.416 360.214 401.89C362.035 402.964 365.526 405.468 367.487 405.877C368.057 405.996 369.461 405.598 370.125 405.516L376.753 404.8C383.885 404.155 391.104 404.109 398.258 404.342C404.25 404.538 409.995 404.623 415.591 406.994C425.689 399.654 435.752 397.627 448.072 398.869C451.438 399.208 458.394 399.831 460.42 402.797C461.283 404.061 461.119 404.573 460.769 405.938C458.27 408.841 454.98 410.088 451.567 411.579C453.518 411.739 455.773 412.218 457.69 412.065C461.41 411.768 465.24 410.634 468.897 409.884C473.184 409.005 477.532 408.439 481.904 408.243C483.605 408.166 486.213 407.913 487.679 408.891C489.764 410.282 491.112 412.506 491.546 414.938C490.91 416.456 490.02 416.835 488.686 417.75L488.963 418.184L497.152 422.062C498.639 422.764 500.283 423.708 501.883 424.07C509.471 425.783 519.093 424.949 526.367 422.314C528.595 421.507 530.841 420.42 532.875 419.209C534.931 417.985 538.077 415.127 540.562 415.582L540.773 416.25C540.571 417.406 540.269 418.159 539.557 419.105C533.248 427.496 521.205 428.84 511.578 429.562C508.768 429.773 505.771 429.747 503.001 430.218C501.973 430.393 501.959 430.425 501.404 431.25L502.125 431.932C505.106 432.902 509.573 431.52 512.766 431.357C519.58 431.009 526.508 431.285 533.281 430.515C534.096 429.379 534.999 428.226 536.04 427.29C537.42 426.048 538.307 425.619 540.157 425.812C545.115 426.33 550.509 425.621 555.492 425.305C559.951 425.023 564.632 424.984 569.05 424.438C570.978 424.199 572.873 422.686 574.688 422.632C577.483 422.548 583.566 428.359 585.868 430.115C586.297 430.442 587.431 431.517 587.883 431.651C588.719 431.899 590.944 431.533 591.891 431.496L608.687 430.56C607.47 424.299 606.784 417.945 605.308 411.726C604.696 409.146 604.03 406.11 602.572 403.875C602.375 403.574 601.327 401.968 601.044 401.859C597.153 400.372 559.313 410.742 551.761 411.829C543.091 413.076 534.361 413.369 525.615 413.463C519.896 413.525 513.671 413.679 508.048 412.526L507.651 412.44L505.706 415.418C504.821 416.701 504.252 417.565 502.688 417.858C501.984 417.181 501.693 416.976 501.5 415.978C501.069 413.741 501.926 411.774 503.218 410.03L503.486 409.676L497.647 406.051C488.749 399.261 483.867 387.838 482.44 376.948L482.385 376.499L479.625 376.486L453.422 374.738L415.31 372.664L380.759 370.474C376.678 370.057 372.404 369.791 368.39 368.967C366.751 368.63 365.488 368.293 364.361 366.975C363.399 365.849 363.028 364.45 362.957 363C362.479 353.325 363.442 343.155 364.043 333.47L368.602 274.614L374.024 207.654L378.874 148.969C386.591 146.059 395.827 146.268 404.004 145.789L441.36 144.296L606.224 143.638L618.75 144.302C620.479 144.429 622.772 144.403 624.375 145.08C624.993 145.341 625.831 145.845 626.2 146.424C627.67 148.732 626.744 154.38 626.595 157.125C625.245 182.063 620.021 206.326 614.376 230.589C633.266 223.744 652.474 217.988 672.382 215.059C675.712 214.569 679.736 213.711 683.062 213.76C684.53 213.781 686.277 214.358 687.239 215.504C688.21 216.66 688.179 218.51 688.083 219.938L685.822 240.154L682.518 269.062L673.39 355.936C681.386 353.431 689.922 353.269 698.236 353.263C707.358 353.258 718.71 353.399 726.977 357.681C728.406 358.421 729.914 359.583 730.316 361.233C732.341 369.54 727.779 435.3 724.028 441.848C722.58 444.376 719.315 445.336 716.655 446.014C708.057 448.206 693.475 449.354 685.661 444.371C684.31 443.509 683.102 442.497 682.952 440.812C682.864 439.825 683.164 439.306 683.812 438.63C685.611 438.301 687.426 438.741 689.212 439.022L689.268 433.979C686.211 433.695 683.547 432.857 680.651 431.869C675.146 430.846 668.559 431.716 662.956 432.03C663.602 434.067 666.196 434.487 666.188 436.5L665.596 436.745L665.611 437.406C669.649 435.513 674.669 433.281 679.186 434.163L680.194 435C680.215 436.471 679.924 437.364 678.877 438.477C677.236 440.221 674.071 440.954 671.862 441.759C665.444 444.099 660.124 446.605 653.103 446.413L644.559 445.429C643.024 445.94 639.776 445.518 638.055 445.525C635.849 445.583 633.759 445.662 631.578 445.961L631.133 445.98Z"/>
	<path fill="#D0D1D5" transform="scale(0.666667 0.666667)" d="M623.638 433.766L626.812 433.157L627.349 433.688C627.269 434.887 627.362 436.181 626.625 437.184L623.012 437.269L623.638 433.766Z"/>
	<path fill="white" transform="scale(0.666667 0.666667)" d="M541.8 431.812C542.549 431.594 543.729 431.455 544.5 431.594C545.386 431.753 545.468 432.039 545.852 432.75C545.393 433.868 544.889 434.275 543.954 434.961L540.867 436.902C540.992 435.177 540.931 433.346 541.8 431.812Z"/>
	<path fill="#F6F4F8" transform="scale(0.666667 0.666667)" d="M673.275 222.099C672.952 221.312 672.865 221.485 673.171 220.603L681.562 219.11L682.166 219.75L681.983 221.483L673.275 222.099Z"/>
	<path fill="white" transform="scale(0.666667 0.666667)" d="M574.97 430.688L575.635 430.584C577.661 431.372 579.435 432.72 580.966 434.25L580.788 434.812L579.206 435.562L577.688 435.754C576.184 434.918 573.944 433.816 573.284 432.188L574.97 430.688Z"/>
	<path fill="white" transform="scale(0.666667 0.666667)" d="M379.514 412.849L389.069 414.547C390.712 414.851 392.281 414.874 393.559 416.062L393.188 417.085C392.827 417.431 392.807 417.553 392.352 417.671C389.027 418.53 382.225 414.639 379.514 412.849Z"/>
	<path fill="#F6F4F8" transform="scale(0.666667 0.666667)" d="M585.007 438.004L585.938 438.571C585.138 439.405 584.356 440.142 583.869 441.21C582.482 442.748 580.467 443.776 578.724 444.876C576.426 446.052 572.936 447.133 570.375 447.222C572.255 445.709 575.045 444.692 577.167 443.453C579.916 441.849 582.453 439.897 585.007 438.004Z"/>
	<path fill="white" transform="scale(0.666667 0.666667)" d="M467.994 446.438C469.495 445.999 471.606 446.344 473.179 446.401C471.168 447.906 467.072 449.579 466.012 451.72C465.284 453.193 464.56 453.651 463.04 454.226L457.628 455.215C460.091 453.27 462.607 451.57 465.348 450.04C466.11 448.613 466.786 447.527 467.994 446.438Z"/>
	<path fill="white" transform="scale(0.666667 0.666667)" d="M710.383 370.877C710.897 375.035 710.43 379.422 710.686 383.638C710.791 385.355 711.746 388.328 711.188 389.893L709.312 390.05C708.539 389.937 708.594 390.09 708.056 389.438L710.383 370.877Z"/>
	<path fill="#AAADB5" transform="scale(0.666667 0.666667)" d="M623.012 437.269C620.09 437.277 617.174 436.843 614.25 436.789C611.893 436.745 608.098 437.461 605.953 436.688C606.686 435.78 609.195 435.791 610.415 435.6L623.638 433.766L623.012 437.269Z"/>
	<path fill="#D0D1D5" transform="scale(0.666667 0.666667)" d="M585.007 438.004C585.714 437.644 585.758 437.516 586.583 437.581L601.88 437.382C600.836 438.394 599.361 439.101 598.114 439.855C593.917 439.893 587.607 439.209 583.869 441.21C584.356 440.142 585.138 439.405 585.938 438.571L585.007 438.004Z"/>
	<path fill="#AAADB5" transform="scale(0.666667 0.666667)" d="M544.387 443.346C544.683 442.112 545.769 441.457 546.689 440.668C549.199 438.516 551.729 436.237 554.56 434.511C558.116 432.344 562.447 430.781 566.604 430.429C563.179 432.298 559.633 433.917 556.296 435.948C552.223 438.428 548.592 441.269 544.735 444.033L544.387 443.346Z"/>
	<path fill="#AAADB5" transform="scale(0.666667 0.666667)" d="M631.133 445.98L631.591 442.5L632.564 442.186L640.845 442.559C642.129 442.602 643.697 442.477 644.9 442.918C644.847 443.693 644.675 444.084 644.282 444.75L644.559 445.429C643.024 445.94 639.776 445.518 638.055 445.525C635.849 445.583 633.759 445.662 631.578 445.961L631.133 445.98Z"/>
	<path fill="#D0D1D5" transform="scale(0.666667 0.666667)" d="M631.133 445.98L631.591 442.5L632.564 442.186L632.63 442.88L632.642 443.271C633.331 443.564 633.854 443.694 634.584 443.781C635.431 443.882 635.722 444.093 636.368 444.609C636.88 445.019 637.463 445.252 638.055 445.525C635.849 445.583 633.759 445.662 631.578 445.961L631.133 445.98Z"/>
	<path fill="white" transform="scale(0.666667 0.666667)" d="M544.735 444.033C543.366 445.402 542.674 446.807 541.865 448.527L527.771 450.121C530.702 448.931 534.33 447.897 536.947 446.16C538.602 445.062 540.166 442.883 542.013 442.312L542.733 443.918C543.426 443.861 543.121 443.941 543.843 443.609L544.387 443.346L544.735 444.033Z"/>
	<path fill="white" transform="scale(0.666667 0.666667)" d="M398.211 450.188L399.178 450.066L399.584 450.493C397.375 454.031 392.719 456.911 389.736 459.897C388.301 461.333 387.263 463.066 385.823 464.511L384.938 464.318L384.261 463.72C383.538 462.948 382.898 462.31 382.879 461.25L383.232 461.087L383.812 460.798C389.103 458.205 393.026 453.146 398.211 450.188Z"/>
	<path fill="white" transform="scale(0.666667 0.666667)" d="M478.657 412.63C480.694 412.472 484.793 411.793 486.301 413.323C486.954 413.984 487.065 414.825 487.014 415.688C485.652 415.818 484.171 415.216 482.753 415.156C479.562 415.021 476.442 415.37 473.281 415.743C469.73 416.513 467.844 417.201 464.438 415.782L464.581 415.412L478.657 412.63Z"/>
	<path fill="white" transform="scale(0.666667 0.666667)" d="M470.932 419.812C474.972 418.736 480.18 419.96 484.022 421.382C487.688 422.739 491.112 424.786 494.609 426.516C495.41 426.911 497.83 427.746 498.36 428.34C498.567 428.572 498.619 428.905 498.749 429.188L498.458 429.295C496.629 429.711 493.017 427.722 491.338 426.998C488.22 425.654 485.149 424.23 481.922 423.158C478.298 421.954 474.14 421.979 470.932 419.812Z"/>
	<path fill="white" transform="scale(0.666667 0.666667)" d="M486.665 440.438C489.105 439.974 491.906 440.399 494.359 440.631C491.243 442.099 489.075 444.2 486.375 446.262L477.157 452.688C475.465 453.561 473.377 453.591 471.505 453.81L485.682 443.812C486.74 443.071 487.267 442.649 487.462 441.375L486.665 440.438Z"/>
	<path fill="white" transform="scale(0.666667 0.666667)" d="M536.985 434.812L537.616 435.018C537.312 435.558 536.991 436.048 536.599 436.53C534.311 439.349 531.267 441.875 528.406 444.115C524.174 447.429 520.243 450.561 514.688 451.072L513.869 450.562C517.966 447.105 522.198 444.839 526.588 441.881C530.037 439.557 533.313 436.761 536.985 434.812Z"/>
	<path fill="white" transform="scale(0.666667 0.666667)" d="M570.118 435.938L570.433 435.813C571.76 435.508 573.193 436.482 574.223 437.195L574.208 437.683C571.705 438.772 569.508 440.021 567.375 441.721C564.87 443.718 562.35 446.321 559.5 447.773C557.857 448.611 556.054 448.906 554.259 449.229L548.657 449.316C551.326 447.511 554.346 446.319 557.18 444.801C561.598 442.434 566.381 439.275 570.118 435.938Z"/>
	<path fill="white" transform="scale(0.666667 0.666667)" d="M514.045 435.863L525.864 435.66L520.809 438.489C518.443 438.307 516.108 438.329 513.821 439.068C506.987 441.274 501.776 447.848 495.165 450.801C491.85 451.809 488.448 452.223 485.026 452.695C488.542 450.168 493.221 448.724 496.98 446.331C499.054 445.011 501.16 443.626 503.039 442.039C505.044 440.345 506.899 438.415 509.225 437.153C510.737 436.332 512.367 436.105 514.045 435.863Z"/>
	<defs>
		<linearGradient id="gradient_0" gradientUnits="userSpaceOnUse" x1="599.65302" y1="450.26401" x2="617.25598" y2="435.90302">
			<stop offset="0" stop-color="#767887"/>
			<stop offset="1" stop-color="#A1A3AC"/>
		</linearGradient>
	</defs>
	<path fill="url(#gradient_0)" transform="scale(0.666667 0.666667)" d="M583.869 441.21C587.607 439.209 593.917 439.893 598.114 439.855L597.883 440.879C600.207 442.461 605.351 441.917 608.222 441.995L625.829 442.515C625.452 443.915 625.108 446.702 624.101 447.65C623.543 446.783 623.704 445.991 623.778 445.015C621.306 444.088 616.962 444.682 614.25 444.615L592.695 444.435C589.049 444.465 585.325 444.228 581.731 444.876C580.703 445.061 579.759 444.987 578.724 444.876C580.467 443.776 582.482 442.748 583.869 441.21Z"/>
	<path fill="white" transform="scale(0.666667 0.666667)" d="M690.48 358.283C700.958 357.544 713.654 357.798 723.453 361.82C720.729 362.733 718.109 363.229 715.265 363.52C704.051 364.663 692.294 362.512 681.625 359.144L690.48 358.283Z"/>
	<path fill="white" transform="scale(0.666667 0.666667)" d="M724.089 367.688L724.838 368.062L724.221 387.486C721.986 388.651 718.797 389.042 716.314 389.546L715.408 369.085C718.157 369.022 721.066 368.535 723.716 367.796L724.089 367.688Z"/>
	<defs>
		<linearGradient id="gradient_1" gradientUnits="userSpaceOnUse" x1="655.31" y1="443.64001" x2="643.638" y2="427.03601">
			<stop offset="0" stop-color="#878A91"/>
			<stop offset="1" stop-color="#A2A4AC"/>
		</linearGradient>
	</defs>
	<path fill="url(#gradient_1)" transform="scale(0.666667 0.666667)" d="M665.611 437.406L665.241 437.709C661.961 439.845 657.585 441.131 653.772 441.9C653.642 441.926 652.412 442.221 652.323 442.184C651.623 441.888 650.54 438.551 649.635 437.948C649.284 437.714 647.854 437.543 647.4 437.452C644.103 436.791 640.66 436.75 637.305 436.656C635.707 436.611 633.902 436.763 632.375 436.312C632.403 435.086 632.218 434.542 633 433.566L662.956 432.03C663.602 434.067 666.196 434.487 666.188 436.5L665.596 436.745L665.611 437.406Z"/>
	<path fill="white" transform="scale(0.666667 0.666667)" d="M679.383 391.265C684.405 392.845 689.434 394.679 694.561 395.866C697.579 396.566 700.879 396.623 703.804 397.54C704.037 398.474 703.803 399.238 703.594 400.149C702.658 400.904 702.197 400.563 701.062 400.351C698.541 399.879 688.564 397.216 686.716 398.291C686.639 399.082 686.539 399.75 686.729 400.532L687.613 404.438L687.436 404.766L687.188 405.251C686.407 406.631 686.563 407.764 686.616 409.312C687.089 410.382 687.899 410.795 688.839 411.415C689.464 411.827 689.37 411.998 689.587 412.688L688.688 414.32L687.938 414.505L686.25 413.177L685.312 413.298C682.272 417.089 685.331 417.623 687.188 420.444C688.322 422.168 688.69 424.731 688.887 426.75L688.312 427.391C686.542 427.297 685.036 426.969 683.338 426.502C680.465 419.65 680.685 411.519 680.259 404.25L679.383 391.265Z"/>
	<path fill="white" transform="scale(0.666667 0.666667)" d="M524.467 461.142L390.359 465.329C391.907 464.659 393.662 464.185 394.99 463.126C396.896 461.605 407.065 450.489 407.438 450.429C407.615 450.4 407.786 450.518 407.96 450.562C408.151 451.357 408.213 452.711 408.914 453.148C409.611 453.583 410.187 453.669 410.98 453.828L410.898 454.371C409.553 454.716 408.329 454.898 406.941 454.956L398.904 464.124C400.763 464.054 402.835 464.097 404.638 463.628C407.852 462.792 410.387 460.881 413.25 459.323L420.535 455.707C428.082 451.52 434.9 446.96 443.478 445.169L426.35 455.142C423.138 457.027 420.104 458.461 417.2 460.853C423.323 461.228 429.128 460.734 435.004 458.936C435.315 459.18 435.563 459.542 435.938 459.667C436.767 459.943 438.746 459.731 439.655 459.72C444.763 459.658 449.888 458.977 454.992 458.705L533.132 454.433L564.723 451.896L623.914 448.688L624.003 449.438C623.179 450.086 622.453 450.335 621.431 450.562C618.236 451.274 614.678 451.463 611.414 451.789L595.668 453.453L524.467 461.142Z"/>
	<path fill="#87888F" transform="scale(0.666667 0.666667)" d="M681.983 221.483L681.765 222.091C680.645 225.485 680.848 230.388 680.486 234.035L677.523 262.17L673.667 297.284L671.017 326.222L666 366.562L663.231 395.342C660.002 392.566 656.712 390.37 653.017 388.273L668.044 261.852L670.93 239.138L672.728 228.247C673.052 226.314 673.782 224.019 673.275 222.099L681.983 221.483Z"/>
	<path fill="white" transform="scale(0.666667 0.666667)" d="M673.015 360.316C682.655 366.905 694.929 369.642 706.498 369.447L704.163 390.474C699.044 390.217 693.903 389.183 688.911 388.078C685.575 387.339 682.251 386.708 679.066 385.429L679.557 374.571C679.643 372.411 679.88 370.192 679.425 368.062C678.433 367.298 677.13 367.519 675.938 367.53C675.572 367.89 675.496 367.917 675.228 368.438C674.406 370.033 674.549 373.918 674.409 375.779C673.763 384.398 673.84 392.583 674.27 401.195C674.685 409.503 675.416 417.682 678.009 425.637L672.828 425.633L632.596 428.589L635.771 393.867C640.442 396.191 645.336 398.278 650.284 399.941L658.014 402.528C659.181 402.898 660.435 403.106 661.518 403.688C661.303 405.096 661.352 406.221 661.584 407.625C663.15 409.649 665.881 410.739 668.368 411.219C669.487 411.435 670.09 411.516 671.062 410.909C671.431 408.55 670.855 405.572 670.724 403.163L670.558 392.34C670.739 381.674 672.058 370.938 673.015 360.316Z"/>
	<path fill="white" transform="scale(0.666667 0.666667)" d="M413.79 415.563C418.198 412.13 422.594 408.948 427.808 406.825C435.128 403.846 443.744 403.678 451.511 404.601L455.751 405.345C445.218 409.863 430.045 408.941 422.712 419.17C420.086 422.835 418.026 427.381 415.742 431.319C422.522 426.128 428.35 418.867 436.69 416.146C438.332 415.61 440.026 415.061 441.761 415.311C450.118 416.515 457.506 417.643 465.008 421.833C468.315 423.681 471.455 426.097 474.995 427.489C476.927 428.248 479.197 428.474 481.226 428.945C486.065 430.068 491.257 431.401 495.683 433.688L495.832 434.25C494.097 435.802 493.781 435.797 491.467 435.663C484.888 435.283 477.393 435.32 470.994 433.799L476.173 432.562C473.684 432.349 472.349 433.176 470.062 433.517C467.835 433.849 465.364 434.047 463.119 434.111C455.073 434.337 446.969 429.941 439.727 435.854C439.038 436.417 438.507 437.092 437.994 437.812L438.109 438.632C440.593 439.147 443.955 436.994 446.686 436.678C449.554 436.346 467.342 437.306 468.822 438.562C468.523 439.519 468.407 439.528 467.486 440.014C465.456 441.083 463.161 441.673 461.273 443.011C459.52 444.253 458.005 445.913 456.378 447.321C453.754 449.593 450.845 451.74 447.872 453.535C443.845 455.965 438.965 456.538 435.004 458.936L435.228 458.486C436.936 455.337 443.954 452.48 447.006 450.683C451.228 448.197 455.336 445.413 458.16 441.354C451.817 439.891 444.741 440.619 438.387 441.833C436.267 442.238 434.081 442.471 432.027 443.161C429.934 443.865 427.925 444.871 425.9 445.748C424.057 446.545 422.022 447.217 420.282 448.212C419.017 448.936 419.522 449.378 418.813 450.342C418.173 451.212 416.491 451.677 415.5 451.929C414.758 451.348 414.349 450.832 414.39 449.812C414.408 449.369 414.498 449.165 414.626 448.77L430.646 437.667C435.16 434.604 439.331 430.962 444.744 429.584C447.632 428.849 451.41 429.345 454.312 429.835C456.18 430.151 457.624 430.679 459.562 430.362C460.23 429.426 460.312 429.363 460.312 428.225C459.187 426.207 457.624 425.53 455.438 424.909C452.078 423.955 446.174 423.685 442.803 424.73C441.079 425.264 439.522 426.248 437.975 427.155L425.506 435.146C422.039 437.596 418.639 440.351 414.837 442.274C412.129 443.644 409.273 443.954 406.312 444.411C403.362 444.867 399.73 445.024 396.938 445.986C391.927 447.714 385.557 453.3 382.312 457.321L381.027 458.873C376.344 454.577 371.398 452.462 364.967 452.759L362.261 452.914C373.634 446.865 386.633 440.826 396.43 432.444C402.576 427.185 407.555 420.728 413.79 415.563Z"/>
	<path fill="white" transform="scale(0.666667 0.666667)" d="M487.744 376.842C509.973 383.717 532.489 388.213 555.614 390.645L581.881 392.544C585.686 392.69 590.164 393.094 593.91 392.468C595.066 392.275 596.286 391.819 597.168 391.028C600.343 388.182 600.211 382.238 600.459 378.291C603.261 378.898 606.926 381.373 609.659 382.659C616.681 385.963 624.637 388.822 631.255 392.799C628.456 402.662 628.048 413.44 627.709 423.656L627.491 429.02L613.928 430.192L610.376 408.129C609.157 403.621 606.408 397.771 601.674 396.115C600.624 395.748 598.482 396.248 597.364 396.439C591.68 397.409 586.094 399.06 580.5 400.456C570.093 403.051 559.697 405.934 549.022 407.207C540.793 408.189 532.234 408.071 523.963 408.007C517.567 407.958 509.75 408.267 504.107 404.853C494.63 399.118 490.467 386.872 487.744 376.842Z"/>
	<path fill="#9D9FA4" transform="scale(0.666667 0.666667)" d="M656.23 314.864L656.269 315.153C656.272 316.708 655.738 324.904 654.938 325.683C654.887 324.922 654.949 324.816 654.506 324.117C652.558 321.047 635.556 317.578 631.312 316.862L630.811 317.25C630.737 318.462 630.561 320.346 631.339 321.383C632.185 322.51 634.915 323.22 636.22 323.724C642.078 325.986 648.432 328.86 654.788 328.963L655.261 328.965C655.424 330.828 654.996 332.925 654.8 334.803L653.264 347.625C651.575 360.649 649.462 373.821 648.701 386.932C645.528 385.554 642.44 384.359 638.981 383.948L638.363 383.877L633.101 348.32L625.24 292.679L621.414 259.081C620.462 251.225 619.567 243.217 617.489 235.567C625.182 231.867 633.799 229.499 642.002 227.152C650.776 224.641 660.023 221.878 669.147 221.085L658.61 291.405L656.23 314.864Z"/>
	<path fill="#87888F" transform="scale(0.666667 0.666667)" d="M631.175 272.464L631.222 272.989L631.523 286.688C632.413 287.299 632.819 287.215 633.877 287.266L632.79 291.528L630.454 291.097C631.436 284.975 630.74 278.625 631.175 272.464Z"/>
	<path fill="#181719" transform="scale(0.666667 0.666667)" d="M630.454 291.097L632.79 291.528L633.329 291.642C636.426 292.282 639.538 292.289 642.676 292.568C646.79 292.935 650.898 293.599 655.034 293.602L654.43 300.136L643.312 299.12C642.525 299.829 642.775 300.562 642 301.063C641.652 300.257 641.686 300.049 641.759 299.205C640.822 298.54 639.25 298.613 638.131 298.497C635.925 298.27 633.675 297.828 631.462 297.781C631.104 299.414 630.648 301.076 630.667 302.757C629.792 299.591 629.484 294.174 630.454 291.097Z"/>
	<path fill="#181719" transform="scale(0.666667 0.666667)" d="M654.72 310.841C654.543 311.875 654.643 312.868 653.812 313.548L630.331 310.769C630.016 308.637 630.09 306.472 630.084 304.322L630.811 303.61C633.361 304.563 638.727 305.629 641.46 305.334C642.104 305.265 642.191 305.366 642.76 305.601C646.015 306.943 651.182 306.58 654.753 306.796L654.72 310.841Z"/>
	<path fill="#181719" transform="scale(0.666667 0.666667)" d="M633.047 254.101L631.781 255.226L631.493 249.441C635.201 249.109 638.894 248.742 642.54 247.959C647.231 246.951 651.586 244.769 656.262 243.89C657.623 243.634 658.972 243.215 660.359 243.469C661.639 245.416 658.445 258.699 658.626 261.973L658.084 265.891C655.714 264.471 651.098 264.806 648.312 264.643L648.324 271.114C651.161 271.07 654.173 271.222 656.978 270.842L657.637 266.935L657.759 266.939L657.299 276.915L635.473 275.376L635.875 282.478C637.822 282.543 639.906 282.786 641.812 282.356C642.613 282.176 643.334 282.065 644.144 281.974C644.896 281.89 645.093 281.846 645.652 281.377C648.438 283.882 653.392 281.573 656.53 282.912L655.701 288.843L633.877 287.266C632.819 287.215 632.413 287.299 631.523 286.688L631.222 272.989L631.175 272.464C631.224 269.563 631.029 266.671 630.876 263.775C630.793 262.215 630.525 260.463 630.938 258.948C631.994 258.436 632.78 258.56 633.902 258.671L633.934 257.625C633.466 256.921 633.562 256.917 633.559 256.125C633.035 255.336 633.11 255.029 633.047 254.101Z"/>
	<path fill="#AAADB5" transform="scale(0.666667 0.666667)" d="M633.047 254.101C634.798 253.006 639.074 253.373 641.224 253.309L641.256 259.248C639.395 259.194 635.426 259.541 633.902 258.671L633.934 257.625C633.466 256.921 633.562 256.917 633.559 256.125C633.035 255.336 633.11 255.029 633.047 254.101Z"/>
	<path fill="#AAADB5" transform="scale(0.666667 0.666667)" d="M635.692 263.635L644.281 264.014L644.169 271.298C641.369 271.549 638.441 271.301 635.627 271.22L635.692 263.635Z"/>
	<path fill="#AAADB5" transform="scale(0.666667 0.666667)" d="M657.71 252.188C658.428 252.121 658.34 252.192 658.901 252.562C658.804 254.932 658.607 257.178 658.071 259.492C656.951 260.002 655.921 259.447 654.75 259.157C652.854 260.374 648.675 259.569 646.407 259.484C645.496 259.48 645.466 259.562 644.803 258.96L644.859 252.754C648.566 252.665 653.409 253.199 656.973 252.372L657.71 252.188Z"/>
	<path fill="white" transform="scale(0.666667 0.666667)" d="M499.565 148.699L620.767 150.351C620.501 163.59 619.489 176.709 617.259 189.773C615.009 202.952 611.805 216.009 610.339 229.312L601.989 305.036L595.734 364.448C594.743 372.127 594.16 379.97 592.526 387.54C561.66 387.106 531.597 382.419 501.44 376.243C479.971 370.906 457.734 369.732 435.762 368.184L368.941 361.959L384.436 152.804L499.565 148.699Z"/>
	<path fill="#211F22" transform="scale(0.666667 0.666667)" d="M392.177 299.822C395.44 299.779 414.543 299.042 416.062 300.117L416.196 301.125C415.262 301.962 412.859 301.568 411.562 301.561L388.312 301.376L387.793 300.75L388.312 300.009L392.177 299.822Z"/>
	<path fill="#211F22" transform="scale(0.666667 0.666667)" d="M463.458 211.399L462.849 211.659C461.433 212.096 459.041 211.857 457.5 211.881L442.947 211.931L403.123 211.876L391.211 211.861C389.588 211.856 387.565 212.117 386.062 211.44L385.817 210.75L386.254 210.107L462.276 210.806L463.458 211.399Z"/>
	<path fill="#211F22" transform="scale(0.666667 0.666667)" d="M468.728 207.164C461.365 206.245 453.93 206.319 446.524 206.261L422.996 206C417.61 205.973 390.393 206.817 387.293 204.562L387.75 204.015L436.752 204.193C447.089 204.317 458.118 203.621 468.341 205.213C468.559 205.891 468.687 206.452 468.728 207.164Z"/>
	<path fill="#211F22" transform="scale(0.666667 0.666667)" d="M382.435 267.188C385.547 266.781 389.063 267.282 392.229 267.26L429.052 267.403L438.657 267.455C439.446 267.46 441.237 267.232 441.938 267.473C442.202 267.564 442.403 267.783 442.636 267.938L442.861 269.241L442.312 269.983C439.191 270.64 435.52 270.295 432.302 270.303L409.499 270.137L389.872 269.948C387.655 269.911 384.378 270.269 382.312 269.589C382.057 268.615 382.15 268.145 382.435 267.188Z"/>
	<path fill="#211F22" transform="scale(0.666667 0.666667)" d="M472.605 323.812C473.28 323.617 473.138 323.606 473.707 323.584C484.288 323.158 495.177 324.612 505.76 325.123L529.704 326.362C535.042 326.623 540.797 326.593 546.061 327.492C547.057 327.662 547.221 327.82 547.928 328.5C548.217 329.719 548.318 329.68 547.688 330.743C545.17 331.873 540.364 330.977 537.629 330.787L518.802 329.45L472.312 326.155C471.949 325.074 472.207 324.85 472.605 323.812Z"/>
	<path fill="#211F22" transform="scale(0.666667 0.666667)" d="M461.627 278.45L487.267 278.266C489.585 278.271 493.482 277.831 495.629 278.427C495.938 278.513 496.145 278.809 496.403 279L496.511 280.312L495.938 280.957L417.271 282.462C411.805 282.483 386.577 284.246 383.555 282.416C383.331 281.46 383.242 281.346 383.613 280.454C384.993 280.009 386.755 280.179 388.208 280.163L396.617 280.088L425.771 279.688L461.627 278.45Z"/>
	<path fill="#211F22" transform="scale(0.666667 0.666667)" d="M481.649 341.366L545.121 342.899L558.188 344.389L558.712 345.188C558.517 346.285 558.533 346.875 557.812 347.744L555.282 347.804L497.05 345.214L482.648 344.997C480.963 344.977 478.237 345.332 476.812 344.501C476.836 343.924 476.922 343.609 477.281 343.121C478.354 341.662 479.996 341.598 481.649 341.366Z"/>
	<defs>
		<linearGradient id="gradient_2" gradientUnits="userSpaceOnUse" x1="510.74399" y1="289.034" x2="524.23102" y2="324.89499">
			<stop offset="0" stop-color="#07030A"/>
			<stop offset="1" stop-color="#161913"/>
		</linearGradient>
	</defs>
	<path fill="url(#gradient_2)" transform="scale(0.666667 0.666667)" d="M568.139 308.25C567.739 308.97 567.363 309.561 566.812 310.174C563.603 310.768 559.949 310.482 556.688 310.439L537.479 309.931L481.324 307.586L472.464 307.206C470.9 307.141 469.006 307.222 467.538 306.66C466.828 306.388 466.903 306.096 466.614 305.438L467.062 304.804L467.396 304.755C473.325 303.961 479.995 304.497 486.003 304.512L522.704 304.739L550.531 305.028C555.304 305.036 560.394 304.592 565.133 304.968C566.417 305.07 567.264 305.536 568.275 306.3C568.302 307 568.316 307.57 568.139 308.25Z"/>
	<path fill="#211F22" transform="scale(0.666667 0.666667)" d="M473.008 272.418L531.708 272.68C536.285 272.691 562.839 272.069 564.682 273C564.721 274.121 564.876 274.487 564.236 275.438L484.594 275.564L407.392 276.575L398.151 276.461C396.961 276.44 395.166 276.592 394.101 276.056C393.393 275.701 393.409 275.18 393.132 274.474L393.416 273.855C395.721 274.489 398.459 274.327 400.829 274.312L411.831 274.204L447.024 273.617L473.008 272.418Z"/>
	<path fill="#211F22" transform="scale(0.666667 0.666667)" d="M386.788 197.812C395.44 197.192 404.526 197.747 413.227 197.738L479.195 198.291L553.645 198.605L566.695 198.715C568.114 198.727 570.393 198.415 571.546 199.125C571.737 200.07 571.543 200.678 571.312 201.592C566.659 202.106 561.637 201.704 556.946 201.624L534.432 201.389L437.546 200.326C432.113 200.316 388.499 200.96 386.666 199.844C386.326 198.838 386.405 198.819 386.788 197.812Z"/>
	<path fill="#211F22" transform="scale(0.666667 0.666667)" d="M563.366 242.788L567.188 242.762L567.719 243.375L567.239 244.312C565.317 245.697 562.725 245.612 560.437 245.756L535.348 246.137L492.938 246.328L388.166 246.393C386.564 246.382 384.862 246.494 383.614 245.438L383.812 244.137C385.28 243.224 404.477 244.002 408.358 243.979L503.93 243.348L563.366 242.788Z"/>
	<path fill="#211F22" transform="scale(0.666667 0.666667)" d="M569.014 179.438C571.174 179.408 574.536 179.057 576.562 179.749C576.828 180.658 576.997 181.143 576.705 182.062C575.1 182.603 573.009 182.354 571.316 182.366L560.882 182.441L514.262 182.606L394.678 183.296C392.751 183.325 388.676 183.858 387.069 183C387.013 181.982 386.917 181.636 387.375 180.743C392.294 180.159 397.721 180.545 402.688 180.514L435.512 180.269L569.014 179.438Z"/>
	<path fill="#211F22" transform="scale(0.666667 0.666667)" d="M576.031 171.562L576.895 171.532L577.035 172.04C576.211 172.821 575.292 174.036 574.175 174.186C568.569 174.941 562.304 174.508 556.631 174.577L523.359 175.115L456.92 175.772L391.312 176.886C390.595 176.837 390.535 176.81 389.972 176.438L389.927 174.562C391.48 173.513 421.871 173.771 426.086 173.699L576.031 171.562Z"/>
	<path fill="#211F22" transform="scale(0.666667 0.666667)" d="M382.635 250.688C386.21 249.956 391.213 250.652 394.909 250.689L420.804 250.807L530.812 250.876C535.272 250.897 564.947 250.356 566.438 251.217C566.627 252.2 566.413 252.648 566.062 253.548C564.652 254.051 562.771 253.866 561.264 253.884L551.014 253.909L515.603 253.886L421.556 253.876L395.76 253.648C391.754 253.576 387.154 253.977 383.25 253.068C382.488 252.062 382.591 251.969 382.635 250.688Z"/>
	<path fill="#181719" transform="scale(0.666667 0.666667)" d="M468.341 205.213L573.779 207.409L573.455 213.594L525.998 213.514L476.74 213.308C474.12 213.279 471.602 213.062 469.04 212.511C467.093 212.092 465.479 211.344 463.458 211.399L462.276 210.806C463.961 210.84 466.011 211.064 467.608 210.492C470.003 209.633 472.791 209.405 475.309 209.015L472.5 208.078L468.728 207.164C468.687 206.452 468.559 205.891 468.341 205.213Z"/>
	<path fill="#181719" transform="scale(0.666667 0.666667)" d="M392.304 187.686L507.923 188.18L549.73 188.254L571.196 188.32C571.821 188.348 572.257 188.511 572.798 188.812C573.03 189.71 573.036 190.128 572.773 191.018C571.276 191.82 568.916 191.555 567.23 191.584L423.098 192.262L396.514 192.313C394.241 192.322 388.932 192.987 387.078 191.948L387 191.494C386.881 190.279 387.367 189.457 388.09 188.537C389.539 187.969 390.754 187.772 392.304 187.686Z"/>
	<path fill="#211F22" transform="scale(0.666667 0.666667)" d="M384.003 287.599L383.881 286.688C385.378 285.777 387.789 286.012 389.531 285.936L402.109 285.383L467.466 283.933L485.452 283.902C489.233 283.912 493.124 283.751 496.879 284.188L496.679 293.261L433.281 292.18L386.904 291.794C385.822 291.752 384.545 291.804 383.624 291.188C383.621 290.155 383.515 289.68 384.039 288.772L384.003 287.599Z"/>
	<path fill="#F6F4F8" transform="scale(0.666667 0.666667)" d="M384.003 287.599L472.804 286.486L486.187 286.565C488.319 286.579 490.899 286.317 492.938 286.945L492.938 287.584C488.919 288.551 483.788 287.98 479.644 287.995L451.409 288.076L384.039 288.772L384.003 287.599Z"/>
	<path fill="#211F22" transform="scale(0.666667 0.666667)" d="M382.366 256.688C382.794 256.574 383.18 256.465 383.626 256.446C388.86 256.218 394.121 257.019 399.343 257.201L427.417 257.501L440.216 257.559C441.249 257.563 443.655 257.269 444.562 257.576C445.49 257.89 444.816 259.563 445.688 260.409L461.133 260.306C462.572 260.287 464.975 260.59 466.162 259.875L466.136 258.938L465.65 258.492C464.361 257.412 461.969 257.221 460.354 257.394L460.02 257.438L459.82 257.062C461.589 256.658 465.292 255.94 466.9 257.002C468.142 257.822 468.324 259.615 468.638 260.961L564.938 261.407C565.641 262.196 565.579 262.216 565.603 263.286C564.809 263.971 563.598 263.902 562.594 263.998L394.5 265.563C393.973 265.269 393.842 265.137 393.542 264.581L393.31 264.104C389.993 263.782 385.782 264.624 382.688 263.571C382.409 262.707 382.521 262.582 382.688 261.728C385.421 261.19 390.187 261.295 392.884 261.978C393.374 262.102 393.596 261.912 394.063 261.74C394.128 261.46 394.23 261.098 394.201 260.812C393.869 257.576 384.496 260.146 382.185 258.562L382.366 256.688Z"/>
	<path fill="#211F22" transform="scale(0.666667 0.666667)" d="M441.182 232.315L458.085 232.497L474.974 233.494L537.495 234.023L552.949 234.086C555.224 234.093 558.133 233.723 560.28 234.325C560.71 235.364 560.17 236.981 559.968 238.113C555.859 239.136 550.319 238.502 546.015 238.53L516.787 238.687L424.967 240.232L393.565 240.685C391.132 240.688 385.558 241.356 383.712 239.979L383.56 238.312C383.769 238.11 383.911 237.795 384.188 237.705C385.616 237.238 389.005 237.67 390.592 237.66L415.036 237.549L439.303 236.361C446.317 236.077 453.308 236.364 460.312 235.724C457.497 233.852 426.091 235.712 420.18 235.857L399.596 235.92L390.561 235.888C388.416 235.861 386.185 236.01 384.341 234.752C384.128 233.723 384.099 233.645 384.515 232.688C386.255 232.229 388.272 232.44 390.075 232.44L400.875 232.447L441.182 232.315Z"/>
	<path fill="#211F22" transform="scale(0.666667 0.666667)" d="M445.341 222.904C447.961 222.552 450.744 222.641 453.396 222.573C457.113 222.476 462.263 221.97 465.75 223.486C466.62 223.864 466.166 223.88 467.062 224.172C467.874 224.436 469.464 224.244 470.342 224.254L478.758 224.326L539.01 224.911C549.353 224.956 559.955 224.51 570.265 225.244C570.469 226.608 571.022 228.88 570.631 230.174L524.119 229.588L471.747 229.131C467.597 229.188 463.564 229.841 459.425 229.962L417.93 230.326C413.819 230.378 386.294 231.399 384.417 230.25L384.327 229.125C384.531 228.895 384.656 228.557 384.938 228.435C385.764 228.078 389.173 228.427 390.229 228.425L411.562 228.41L441.684 227.726L455.661 227.489C457.889 227.414 460.404 227.539 462.476 226.688L462.562 226.077C460.086 224.546 453.318 225.316 450.301 225.328C441.357 225.364 388.646 227.585 384.919 225.188L384.901 223.688C386.968 222.486 390.774 224.441 392.656 223.125L392.516 222.562C390.147 221.444 387.293 222.278 384.938 221.171C384.477 219.707 384.396 217.97 385.094 216.562C385.567 216.426 385.695 216.372 386.25 216.314C388.426 216.087 390.84 216.286 393.036 216.285L406.312 216.304L451.439 216.543L536.114 217.227L568.312 217.53C569.511 217.563 570.814 217.543 571.804 218.29C571.832 219.678 571.631 219.903 570.955 221.062C569.084 221.942 566.122 221.658 564.071 221.648L550.5 221.523L500.697 220.946L467.174 220.862C459.046 220.938 451.047 221.223 442.964 222.117C443.765 222.597 444.439 222.721 445.341 222.904Z"/>
	<path fill="#F6F4F8" transform="scale(0.666667 0.666667)" d="M445.341 222.904C436.852 223.795 428.297 223.939 419.773 224.255L404.982 224.509C401.956 224.5 398.802 224.602 395.812 224.12L395.283 223.312C395.459 223.124 395.571 222.838 395.812 222.746C396.302 222.561 397.974 222.764 398.604 222.769L408.476 222.827L442.964 222.117C443.765 222.597 444.439 222.721 445.341 222.904Z"/>
	<path fill="#211F22" transform="scale(0.666667 0.666667)" d="M378.154 307.821C388.392 310.028 399.499 309.477 409.958 309.777L468.5 310.945L524.941 313.355C529.238 313.518 546.159 313.246 549.188 315.015C549.655 316.169 549.731 316.243 549.43 317.438C551.127 317.789 553.514 318.03 554.489 319.688C555.056 320.65 555.277 321.277 554.943 322.312C553.365 322.998 551.864 323.582 550.131 323.753C545.421 324.218 540.59 323.929 535.875 323.743L518.841 323.068L500.712 322.582L479.645 320.988L468.176 319.529L456.414 318.775L415.39 316.982L391.606 316.196L389.629 325.084C392.331 325.566 395.224 325.471 397.969 325.533L458.136 329.131C460.88 329.339 466.307 328.94 468.562 329.998C468.867 330.786 469.114 331.408 469.655 332.062L470.812 331.145L537.306 334.18L548.273 334.658C549.768 334.75 551.328 334.575 552.581 335.416L552.279 336.281C551.407 336.892 550.757 337.293 549.713 337.523L549.188 337.634C545.103 338.538 541.416 337.888 537.285 337.69L519.105 336.641L461.712 333.106L405.58 329.949C399.04 329.605 392.446 329.913 385.935 329.355C387.924 324.854 388.936 320.603 390.253 315.894L377.292 315.382L378.154 307.821Z"/>
	<path fill="white" transform="scale(0.666667 0.666667)" d="M471.196 314.812C474.272 313.771 480.066 314.683 483.337 314.812L517.075 316.436L548.201 317.783L547.12 318.562C546.54 318.918 545.922 319.222 545.25 319.36C541.582 320.114 536.49 319.41 532.707 319.32L482.508 316.936L475.227 316.596C474.266 316.56 472.832 316.675 471.938 316.43C471.485 316.307 471.38 316.188 471.051 315.938L471.196 314.812Z"/>
	<path fill="#181719" transform="scale(0.666667 0.666667)" d="M568.275 306.3L569.048 294.064L500.26 293.805C499.951 290.791 499.293 283.165 501.286 280.79C501.816 280.159 502.623 279.879 503.421 279.787C505.792 279.514 508.397 279.74 510.79 279.767L526.526 280.086L568.59 280.653L570.081 280.733L578.849 189.562L580.527 174.877C580.731 173.277 581.553 170.351 580.857 168.938L580.489 168.937C576.98 168.902 573.279 167.912 569.68 167.722L542.067 167.413L437.85 168.377L405.784 168.736C400.781 168.766 395.501 169.105 390.525 168.723C389.616 168.653 389.217 168.498 388.471 168.015C387.72 166.683 387.667 165.951 387.761 164.438C388.786 163.093 389.405 162.631 391.119 162.421C401.122 161.194 411.493 161.474 421.562 161.23L472.638 160.216L543.27 160.078C554.384 160.2 565.785 159.888 576.867 160.775C579.1 160.954 582.22 160.998 583.999 162.524C585.587 163.887 585.911 166.394 585.975 168.37C586.141 173.513 585.484 178.85 584.986 183.965L582.839 205.004L576.764 262.875L571.58 329.41L570.224 352.125C569.885 355.491 569.101 358.362 567.62 361.404C566.963 359.635 566.322 357.886 566.037 356.012C564.923 348.684 565.918 340.555 566.344 333.197L568.139 308.25C568.316 307.57 568.302 307 568.275 306.3Z"/>
	<path fill="#211F22" transform="scale(0.666667 0.666667)" d="M291.141 675.08L241.187 672.535C205.789 671.046 162.333 669.846 138.366 639.442C129.44 628.118 122.797 611.369 124.595 596.795C125.12 592.541 126.783 588.923 128.69 585.134C123.121 583.791 117.228 581.557 112.148 578.896L106.784 575.74L106.384 576.018C102.774 578.474 98.3792 578.12 94.2467 577.306C83.3068 575.153 73.4178 569.881 67.0993 560.431C64.1478 556.017 62.1999 550.942 60.3873 545.977C57.11 536.999 54.7214 527.823 52.4879 518.542L43.3813 470.78L31.2044 396.557L23.8576 355.048C22.7617 348.894 21.4051 342.744 20.6795 336.532C19.993 330.654 19.4322 324.182 20.6463 318.36C21.6602 313.499 24.2679 308.972 28.5778 306.332C29.9965 305.463 31.4074 304.908 33 304.459L33.6614 304.27C38.9056 302.861 45.1608 303.861 49.7855 306.679C62.3677 314.343 68.2701 338.699 71.4298 352.36C74.6204 366.154 76.5398 380.609 78.4062 394.652L79.701 405.52C79.8184 406.634 79.7301 408.497 80.2476 409.421C82.9842 400.225 84.3788 390.679 86.9945 381.434C95.7294 350.562 111.832 315.633 141.228 299.732C148.874 295.596 160.785 292.588 169.312 295.218C175.181 297.028 180.572 300.652 185.439 304.289C196.03 312.202 204.955 321.822 215.25 330.027C219.707 333.579 224.24 337.064 229.731 338.852C237.172 341.276 245.743 339.829 252.616 336.364C254.521 335.403 256.348 334.343 258.094 333.115C258.944 332.518 260.277 331.224 261.188 330.865C261.446 330.763 261.741 330.913 262.017 330.938C262.75 331.909 262.976 332.12 263.12 333.366C261.666 337.52 257.609 340.055 253.827 341.897C246.017 345.7 235.344 346.099 227.199 343.148C219.7 340.43 213.431 335.186 207.436 330.091C189.992 315.265 170.721 294.493 145.754 305.737C124.51 315.304 108.589 338.126 100.684 359.415C88.6959 391.698 84.4428 425.694 84.3505 459.992C84.2985 479.335 85.4565 498.505 88.8243 517.58C90.659 527.971 92.4949 538.9 96.8767 548.561C102.883 561.805 115.053 570.439 128.437 575.251C137.749 578.6 147.99 579.608 157.825 579.51C182.415 579.266 207.311 572.194 229.414 561.639C241.759 555.743 252.592 547.989 263.625 540.015C265.099 538.95 268.511 536.037 270.276 536.438C270.738 538.123 270.99 539.274 270.078 540.848C268.994 542.719 267.415 544.45 266.062 546.134C263.201 549.698 260.277 553.168 257.094 556.452C254.475 559.154 251.532 561.754 249.211 564.711C255.958 561.942 261.43 556.459 266.633 551.466C276.172 542.313 284.877 532.351 293.495 522.336C285.601 521.774 277.914 521.111 270.16 519.432C239.307 512.75 215.31 494.392 194.976 470.95L181.992 454.595L178.723 450.036C178.625 449.896 178.072 448.975 177.938 448.904C177.768 448.815 177.562 448.827 177.375 448.788L176.756 449.219C174.943 450.428 172.551 450.784 170.438 451.174C163.709 452.415 156.404 452.429 149.721 450.851C145.622 449.884 141.955 447.781 138.866 444.938C136.668 442.914 134.614 440.3 132.195 438.577C130.764 437.558 128.96 437.397 127.484 436.5L127.76 435.938C134.309 435.466 139.272 438.562 144.962 441.241C148.199 442.765 151.504 444.001 154.988 444.833C162.156 446.544 169.367 446.059 176.653 446.182C170.697 438.476 165.012 430.699 159.872 422.416C158.571 420.32 156.02 417.067 156.188 414.634C156.963 413.808 157.612 413.196 158.812 413.172C160.179 413.144 160.558 413.487 161.407 414.464C164.497 418.024 166.856 423.062 169.469 427.04L183.593 446.907C189.619 455.187 196.818 462.443 203.79 469.913C208.695 475.168 213.509 480.577 218.809 485.442C238.3 503.337 260.756 513.772 287.134 516.432C302.726 518.004 318.96 516.998 334.59 516.146C329.41 512.952 325.532 510.29 323.999 504C322.116 496.274 323.829 487.039 328.051 480.338C330.762 476.034 334.125 472.942 338.163 469.889C328.058 469.294 318.113 468.312 308.208 466.124C284.16 460.81 261.711 449.009 245.244 430.473C232.903 416.582 223.759 400.138 214.45 384.157C207.396 372.046 200.616 359.196 191.062 348.812C182.478 339.482 171.853 332.56 159.748 328.837C155.91 327.657 151.681 325.918 147.645 325.756C142.148 325.535 136.901 328.357 132.155 330.768C137.347 325.608 143.384 322.466 150.842 322.457C166.427 322.437 181.38 330.855 192.108 341.675C198.334 347.956 203.855 354.938 208.604 362.396L220.833 383.549C229.293 397.925 237.861 413.162 248.765 425.83C258.119 436.696 269.949 445.664 282.906 451.789C302.121 460.873 326.179 464.731 347.376 464.893C349.924 464.913 357.235 464.172 359.14 465.562C358.9 466.875 358.185 467.83 357.083 468.628C354.384 470.581 351.801 470.286 348.667 470.318C347.222 470.332 345.723 470.208 344.452 471.026C342.846 472.059 341.398 474.135 340.294 475.691C338.059 478.844 336.556 482.094 335.769 485.885C334.381 492.572 335.421 501.819 339.358 507.562C340.303 508.941 341.866 510.916 343.523 511.415C348.411 512.887 356.97 507.171 360.617 504.52C366.129 500.513 378.428 488.852 378.948 481.777C379.017 480.828 378.298 479.135 377.98 478.203C375.391 470.603 369.545 464.245 364.248 458.404C366.638 459.261 369.328 460.065 371.451 461.463C376.004 464.461 379.606 471.091 381.854 475.902C382.427 477.13 382.937 479.563 383.804 480.475L725.812 466.503L726.372 467.062C724.139 470.492 720.639 471.263 716.881 472.072C709.446 473.673 701.642 474.245 694.07 474.919L649.578 477.801L575.753 481.398L505.875 483.154L482.294 483.768C474.404 484.11 465.23 485.481 457.504 484.148C458.322 487.37 458.692 489.537 456.945 492.606C454.666 496.611 449.339 498.053 445.153 499.04C435.556 501.304 424.831 501.432 414.978 501.828C401.79 502.357 388.786 502.871 375.601 501.971C378.624 498.103 382.321 494.268 385.998 491.019C387.287 489.879 390.157 488.601 390.938 487.195L390.375 486.715C389.219 486.807 388.18 486.996 387.052 487.274C385.24 487.72 384.071 487.647 382.312 487.098C381.404 488.191 381.046 489.68 380.323 490.913C378.874 493.38 377.169 495.771 375.439 498.047C373.213 500.978 369.527 503.534 367.698 506.545L414.093 504.176L451.492 501.816L495.188 500.072L568.353 494.859L633.499 490.619L701.817 483.99C705.87 483.497 725.633 480.056 728.021 480.975C729.035 482.234 729.193 483.332 728.998 484.931C728.887 485.842 728.615 486.298 728.062 487.008C726.302 487.658 724.521 487.711 722.667 487.853L722.77 536.604L723.024 642.925L723.389 675.869C723.451 680.566 722.83 686.337 723.888 690.859C725.652 685.643 725.896 680.223 726.731 674.811L732.104 632.866L734.213 597.818L734.933 581.977C735.073 580.034 735.045 577.326 736.144 575.669C736.808 575.567 736.944 575.369 737.513 575.84C739.177 577.216 739.369 579.585 739.437 581.601C740.337 608.479 738.551 635.487 737.733 662.352L737.622 697.623C737.559 698.908 737.404 699.623 736.712 700.713C734.7 702.272 732.128 702.152 729.679 702.332C725.138 702.666 720.178 703.339 715.666 702.964L716.231 488.564L664.237 493.624C664.865 504.881 664.334 516.26 664.216 527.531L664.009 577.601L663.777 660.221L663.705 706.264C663.673 707.54 663.655 709.639 662.913 710.724C661.08 713.401 638.525 714.483 634.228 714.724L634.173 496.622L502.472 504.086C504.35 504.872 506.434 505.613 508.132 506.746C515.663 511.771 521.134 523.028 524.453 531.171C532.801 551.652 535.186 575.395 537.296 597.234L540.736 634.815L544.639 676.041C565.13 677.483 587.804 683.673 601.833 699.698C604.431 702.665 608.076 706.992 607.707 711.141L607.533 712.312C608.419 712.847 609.524 712.566 610.548 712.52L608.812 713.441L609.943 714.774L427.134 725.64C425.606 724.634 424.425 723.6 423.412 722.062C420.335 717.395 418.403 711.967 415.892 706.984L408.214 692.22C406.748 689.401 405.004 686.524 403.974 683.514L403.862 683.169L271.141 680.615C271.665 682.618 272.788 687.409 271.832 689.39C271.569 689.936 270.937 689.987 270.409 690.188L270.375 690.687C276.098 695.316 276.883 701.94 277.884 708.729L294.28 709.105C298.78 709.456 303.21 709.836 307.622 710.846C309.342 711.24 311.384 711.721 312.839 712.77C314.782 714.171 315.811 716.195 316.343 718.489C316.748 720.234 316.704 723.121 317.812 724.415C320.958 721.23 315.89 711.611 318.214 707.309C318.882 706.071 320.08 705.35 321.437 705.113C323.181 704.809 325.04 705.421 326.385 706.522C331.538 710.736 331.298 720.891 331.943 726.979L322.721 729.546L322.741 735.446L291.865 735.321L237.231 735.878L196.17 737.262C192.436 737.256 179.139 737.528 176.645 735.75L176.695 735.188C181.141 732.852 195.06 732.564 199.915 733.412L200.365 733.497C200.653 731.707 200.434 729.864 200.64 728.062C200.909 725.72 202.133 723.516 203.57 721.686C211.313 711.828 224.119 710.77 235.657 709.507L235.539 709.032C234.154 703.238 235.013 699.216 239.705 695.258C240.973 694.188 242.524 693.322 243.716 692.189C244.9 691.063 245.843 689.054 246.707 687.644C248.734 687.384 250.77 687.61 252.801 687.743L252.261 679.623C236.237 679.528 220.194 678.937 204.262 677.176C185.684 675.123 165.114 671.722 149.525 660.66C129.298 646.309 120.325 624.084 114.457 600.859C113.101 595.49 111.503 589.905 110.707 584.438C110.531 583.228 110.249 581.811 111 580.824L111.382 580.809C112.375 580.896 113.242 581.627 113.823 582.393C115.07 584.039 115.717 586.904 116.322 588.865L121.888 609.954C125.417 622.14 130.666 633.704 138.564 643.705C143.528 649.99 150.224 655.151 157.173 659.042C166.688 664.371 176.759 667.351 187.385 669.529C205.809 673.305 224.404 673.915 243.143 674.478L278.854 675.793C281.085 675.36 283.4 675.937 285.621 675.608C287.551 675.322 289.253 675.736 291.141 675.08Z"/>
	<path fill="white" transform="scale(0.666667 0.666667)" d="M262.111 680.812C263.213 680.72 263.634 680.582 264.644 681.079C265.229 683.222 265.465 685.174 265.591 687.387L261.474 686.746C261.581 684.771 261.555 682.719 262.111 680.812Z"/>
	<path fill="white" transform="scale(0.666667 0.666667)" d="M322.399 709.138C324.358 712.522 326.635 717.772 326.063 721.77L325.63 721.974C324.709 722.3 323.957 722.416 323.062 722.083L322.399 709.138Z"/>
	<path fill="#F6F4F8" transform="scale(0.666667 0.666667)" d="M291.141 675.08L307.312 675.405L307.809 676.125C307.574 676.322 307.392 676.613 307.103 676.715C304.311 677.7 283.586 676.435 279.505 675.908L278.854 675.793C281.085 675.36 283.4 675.937 285.621 675.608C287.551 675.322 289.253 675.736 291.141 675.08Z"/>
	<path fill="white" transform="scale(0.666667 0.666667)" d="M359.713 511.312L360.58 511.025L361.1 511.5L360.851 512.438C357.291 516.158 351.551 518.884 346.688 520.446C345.671 519.896 345.566 519.434 345.021 518.438C345.62 517.51 347.825 517.4 348.951 517.042C352.801 515.817 356.325 513.447 359.713 511.312Z"/>
	<path fill="white" transform="scale(0.666667 0.666667)" d="M49.4403 314.438L50.2789 314.643C57.3095 323.988 61.0942 336.456 64.0327 347.659C66.135 355.673 68.0734 364.29 68.2192 372.609C66.0413 367.88 65.3013 361.457 64.0204 356.339C62.0308 348.389 59.6959 340.348 56.9458 332.625C55.9619 329.862 54.8876 327.085 53.6283 324.437C52.2602 321.56 49.4539 317.633 49.4403 314.438Z"/>
	<path fill="white" transform="scale(0.666667 0.666667)" d="M260.678 691.792C261.921 692.142 263.446 692.33 264.584 692.91C267.727 694.514 270.636 698.544 271.535 701.942L272.855 708.562L271.688 708.873L260.266 709.179L260.678 691.792Z"/>
	<path fill="white" transform="scale(0.666667 0.666667)" d="M252.148 692.062L252.72 692.438L252.768 709.304L240.188 709.227L239.427 708.885C239.239 706.804 239.848 704.285 240.68 702.375C242.735 697.656 247.457 693.932 252.148 692.062Z"/>
	<path fill="#87888F" transform="scale(0.666667 0.666667)" d="M422.394 542.808C441.488 542.104 465.124 544.981 481.58 555.271C486.481 558.335 490.725 562.247 493.784 567.179C498.164 574.239 501.025 582.427 503.735 590.242C510.726 610.399 515.535 631.338 520.527 652.062L526.42 675.21C520.951 675.036 515.523 674.547 510.055 675.009L509.74 671.053C508.94 662.574 507.371 654.148 505.62 645.819C501.997 628.581 496.926 609.031 485.658 595.089C481.814 590.333 477.09 586.812 471.912 583.651C465.781 580.074 458.993 577.485 452.099 575.812C441.078 573.139 429.595 572.616 418.313 572.09C395.465 571.025 372.669 571.422 349.875 573.361C332.218 574.864 314.835 577.202 297.068 576.281C291.229 575.978 285.533 575.573 279.819 574.294C280.904 573.616 283.455 573.469 284.786 573.191C289.323 572.243 293.846 571.331 298.301 570.028L333.3 558.064C355.574 550.966 378.574 546.189 401.838 543.961L422.394 542.808Z"/>
</svg>
