<?xml version="1.0" encoding="utf-8" ?>
<svg xmlns="http://www.w3.org/2000/svg" xmlns:xlink="http://www.w3.org/1999/xlink" width="512" height="512">
	<path fill="white" transform="scale(0.666667 0.666667)" d="M-0 -0L768 0L768 768L-0 768L0 -0Z"/>
	<path fill="#171616" transform="scale(0.666667 0.666667)" d="M346.774 362.732L347.439 363.213L347.519 364.182C344.066 368.542 342.019 372.574 341.86 378.234C341.839 378.973 341.964 378.609 341.438 379.255L340.481 378.937C340.1 378.332 339.904 377.93 339.828 377.201C339.351 372.66 343.918 366.062 346.774 362.732Z"/>
	<path fill="#1F1D1E" transform="scale(0.666667 0.666667)" d="M258.531 93.1875L260.062 93.0254C261.959 94.1469 262.713 95.6061 263.382 97.6797C263.85 99.1317 264.525 100.779 263.812 102.143C263.317 102.046 262.929 101.934 262.529 101.598C261.058 100.357 257.849 95.8116 257.651 93.9375L258.531 93.1875Z"/>
	<path fill="#171616" transform="scale(0.666667 0.666667)" d="M492.016 646.628C489.937 646.539 488.783 645.925 487.388 644.352C486.762 643.646 486.429 642.966 486.456 642.009C487.22 641.877 486.917 641.868 487.507 641.932C490.012 642.205 492.488 641.072 494.997 640.837L495.927 641.079C495.934 641.869 496.124 642.003 495.547 642.595C494.891 643.268 494.416 643.948 493.51 644.252L493.282 644.856C492.978 645.623 492.585 646.046 492.016 646.628Z"/>
	<path fill="#171616" transform="scale(0.666667 0.666667)" d="M266.637 351.562C267.777 351.39 267.93 351.471 268.997 351.938L269.285 352.688C268.374 354.323 267.9 355.728 267.534 357.562C268.047 358.753 268.062 359.652 268.045 360.938L267.188 361.528C266.019 361.58 265.264 361.626 264.188 361.06C263.966 360.601 263.893 360.51 263.781 359.956C263.252 357.355 265.213 353.603 266.637 351.562Z"/>
	<path fill="#171616" transform="scale(0.666667 0.666667)" d="M482.302 444.938C482.766 444.946 483.293 444.927 483.75 445.041C484.873 445.321 485.286 445.653 485.853 446.625C485.264 449.862 484.883 453.456 483.188 456.33L482.164 456.968C480.863 456.76 480.716 456.92 479.902 455.812C479.828 453.538 480.6 451.442 481.084 449.25C481.422 447.715 481.501 446.34 482.302 444.938Z"/>
	<path fill="#171616" transform="scale(0.666667 0.666667)" d="M376.11 572.062C377.208 571.908 377.331 571.819 378.291 572.337L378.409 572.805C378.528 573.913 374.892 584.921 374.139 585.911C373.664 586.537 373.303 586.39 372.562 586.503C371.372 586.414 371.128 586.438 370.175 585.75C370.126 585.537 370.018 585.15 370.019 584.906C370.033 582.46 374.248 573.779 376.11 572.062Z"/>
	<path fill="#171616" transform="scale(0.666667 0.666667)" d="M517.76 627.764C515.474 627.716 512.77 628.71 510.615 627.938L511.78 624.418C515.239 622.536 519.493 620.161 523.5 619.907C524.786 619.826 525.394 619.923 526.37 620.71C526.439 621.788 526.54 622.173 526.058 623.164L520.875 623.719C519.788 624.018 518.467 624.459 517.872 625.477C519.503 626.464 520.803 625.757 522.562 626.066C521.843 626.69 521.247 626.82 520.5 627.283L519.938 627.75C518.841 627.426 518.797 627.326 517.76 627.764Z"/>
	<path fill="#171616" transform="scale(0.666667 0.666667)" d="M490.044 658.482C488.304 659.323 486.23 660.491 484.312 660.714C482.693 660.902 480.492 661.225 479.221 660.188C479.215 658.892 479.019 658.382 479.812 657.324L484.827 656.849L484.931 656.438C483.681 655.984 483.281 655.628 482.438 654.599C482.438 653.707 482.485 653.117 483.188 652.47C486.284 649.617 489.948 651.605 493.484 651.647L493.826 651.647L495.461 651.613L496.101 652.312L495.938 653.578C495.362 653.9 494.847 654.118 494.252 654.377L493.712 654.671C493.09 654.982 492.856 655 492.188 654.941L491.625 655.316L491.308 655.233C490.544 655.041 489.986 654.76 489.263 655.241L488.816 655.687C489.52 656.155 489.524 656.059 490.316 656.062C490.309 656.933 490.341 657.652 490.044 658.482Z"/>
	<path fill="#1F1D1E" transform="scale(0.666667 0.666667)" d="M471.127 38.6822L473.812 38.5581C474.838 38.6035 475.51 39.0288 476.212 39.75C476.487 41.2374 476.301 42.4638 475.55 43.8026C473.848 46.8362 471.035 48.259 467.816 49.121L466.235 48.7718C464.923 48.3967 463.537 47.7191 462.91 46.5021C464.27 42.9367 467.903 40.4541 471.127 38.6822Z"/>
	<path fill="#171616" transform="scale(0.666667 0.666667)" d="M493.075 639.972C490.959 640.178 489.144 639.723 487.128 639.128C488.291 637.284 489.536 635.999 491.217 634.618L497.668 629.807C500.1 628.055 503.268 625.234 506.438 625.551C507.216 626.384 507.257 626.855 507.413 627.938C506.624 629.836 504.041 631.438 502.222 632.199C498.555 633.732 495.545 635.277 493.567 638.956C493.141 639.736 493.286 639.389 493.075 639.972Z"/>
	<path fill="#262425" transform="scale(0.666667 0.666667)" d="M503.583 391.688L505.125 391.397L505.521 392.062C503.986 396.956 500.608 401.698 498.043 406.125C495.61 410.324 492.997 416.442 489.188 419.512C488.473 419.768 488.421 419.763 487.688 419.563L487.551 418.875C490.542 412.016 493.962 404.96 497.925 398.616C499.456 396.167 501.186 393.359 503.583 391.688Z"/>
	<path fill="#1F1D1E" transform="scale(0.666667 0.666667)" d="M304.481 569.438C305.271 569.211 304.94 569.241 305.779 569.267C306.654 569.293 306.644 569.583 307.214 570.188C308.321 573.893 304.661 580.67 303.402 584.261C302.637 586.443 302.205 588.931 301.231 591.004C300.737 592.056 300.475 592.028 299.438 592.441C298.275 592.344 297.651 592.08 296.636 591.562C296.128 590.622 296.074 590.368 296.168 589.3C296.381 586.861 297.896 584.182 298.726 581.873C300.233 577.676 300.995 572.497 304.481 569.438Z"/>
	<path fill="#1F1D1E" transform="scale(0.666667 0.666667)" d="M328.879 572.438C330.418 572.297 330.4 572.151 331.673 573.188C332.273 575.098 331.172 577.636 330.635 579.495C329.264 584.243 327.331 588.959 326.081 593.697C325.511 595.86 325.002 596.721 323.062 597.894C322.416 598.114 321.864 598.096 321.188 598.12C320.499 597.29 320.158 596.758 320.285 595.641C320.496 593.772 321.41 591.902 322.079 590.157L324.592 583.038C325.562 580.141 326.163 576.804 327.421 574.055C327.766 573.3 328.225 572.925 328.879 572.438Z"/>
	<path fill="#171616" transform="scale(0.666667 0.666667)" d="M645.038 496.88C645.734 496.86 646.55 496.663 647.136 497.088C648.107 497.791 648.698 499.068 648.766 500.254C648.812 501.042 648.651 501.713 648.281 502.406C646.713 505.339 644.341 507.915 642.598 510.76C641.313 512.856 640.583 516.422 638.875 518.075C638.061 518.863 637.621 518.643 636.562 518.586C635.567 518.043 635.169 517.476 634.564 516.562C634.131 513.106 637.434 510.026 638.484 506.868C638.958 505.444 637.109 505.828 636.715 504.717C636.238 503.37 636.742 501.721 637.305 500.474C637.967 499.007 638.94 497.636 640.688 497.474C641.243 497.422 642.019 497.881 642.562 497.807C643.292 497.707 644.321 497.149 645.038 496.88Z"/>
	<path fill="#1F1D1E" transform="scale(0.666667 0.666667)" d="M317.025 183.562C317.872 183.391 318.829 183.348 319.688 183.473C321.669 183.761 323.393 185.692 324.358 187.312C325.708 189.58 326.202 193.3 325.344 195.862C324.746 197.646 322.911 198.677 321.378 199.517C320.167 199.529 318.728 199.623 317.572 199.222C315.588 198.535 314.189 196.745 313.312 194.92C312.188 192.581 312.132 190.297 313.083 187.875C313.887 185.828 315.056 184.5 317.025 183.562Z"/>
	<path fill="#262425" transform="scale(0.666667 0.666667)" d="M438.123 14.8125L439.312 14.6917C440.584 15.8326 441.208 17.1553 441.985 18.6436C441.548 24.7585 438.625 30.4168 436.689 36.1223C436.256 37.4 436.082 38.9773 435.499 40.1728C434.941 41.3158 434.042 41.3868 432.938 41.7178C431.931 41.856 431.177 41.7848 430.312 41.2515C428.613 37.2773 429.899 31.3378 430.857 27.1875C431.765 23.2525 434.639 16.9617 438.123 14.8125Z"/>
	<path fill="#1F1D1E" transform="scale(0.666667 0.666667)" d="M493.826 651.647C494.321 651.214 495.129 650.225 495.795 650.263C496.839 650.322 497.625 651.019 498.562 651.412C499.656 651.869 500.832 652.113 501.938 652.558L502.491 652.316C505.01 651.318 509.29 652.755 512.164 652.312L512.759 653.062L512.034 656.926C511.532 657.632 511.552 657.794 510.752 658.127C509.944 658.463 509.401 659.07 508.814 659.685C507.764 659.741 506.763 659.595 505.875 660.182C505.044 660.187 505.123 660.12 504.375 660.559C503.669 660.973 503.101 660.971 502.309 660.938L501.75 661.309C500.786 661.309 500.721 661.378 499.875 660.934L499.127 660.748L498.709 660.655C497.975 660.508 496.954 660.542 496.335 660.171C495.608 659.785 495.711 659.71 494.802 659.849C493.622 660.029 492.851 660.667 492.192 661.635C490.65 663.898 488.723 664.809 486.279 665.815C484.005 665.01 482.168 663.869 480.274 662.418C482.191 661.874 485.669 662.512 487.296 661.491C488.545 660.706 489.608 659.868 490.044 658.482C490.341 657.652 490.309 656.933 490.316 656.062C489.524 656.059 489.52 656.155 488.816 655.687L489.263 655.241C489.986 654.76 490.544 655.041 491.308 655.233L491.625 655.316L492.188 654.941C492.856 655 493.09 654.982 493.712 654.671L494.252 654.377C494.847 654.118 495.362 653.9 495.938 653.578L496.101 652.312L495.461 651.613L493.826 651.647Z"/>
	<path fill="#1F1D1E" transform="scale(0.666667 0.666667)" d="M32.2709 668.018C39.1394 667.529 46.2939 667.831 53.1815 668.039C63.7064 668.357 74.41 668.884 84.8257 670.532C86.5193 670.8 87.3002 671.165 88.3125 672.542L88.0013 673.312L86.4607 673.74C77.4563 674.076 68.5503 672.749 59.584 672.191C51.0384 671.659 41.3755 672.058 33.0073 670.229C32.1837 670.049 31.4549 669.647 30.7339 669.225C30.212 668.919 30.4041 669.121 30.2315 668.438L32.2709 668.018Z"/>
	<path fill="#1F1D1E" transform="scale(0.666667 0.666667)" d="M334.568 145.628C335.036 145.699 335.145 145.689 335.625 145.902C336.542 146.308 337.514 147.552 337.788 148.5C338.111 149.613 338.131 151.059 337.482 152.062C335.625 154.935 331.923 154.835 328.893 155.202C322.076 156.027 314.16 157.625 307.659 159.93C304.835 160.931 302.401 162.979 299.438 163.474C298.435 163.475 297.51 163.172 296.704 162.562C295.984 162.019 295.534 161.075 295.409 160.196C295.232 158.938 295.429 157.703 296.192 156.694C298.34 153.854 303.017 152.49 306.306 151.506C315.539 148.744 325.076 147.192 334.568 145.628Z"/>
	<path fill="#1F1D1E" transform="scale(0.666667 0.666667)" d="M100.738 403.223C108.701 402.428 117.523 403.676 125.429 404.788C146.484 407.75 167.087 414.48 184.137 427.531C188.887 431.168 193.465 435.134 197.019 439.988C198.939 442.609 201.358 446.516 200.54 449.894C200.298 450.891 199.389 451.505 198.603 452.062C197.271 451.824 195.939 448.356 195.312 447.203C192.15 441.39 187.58 436.687 182.55 432.465C166.293 418.821 144.804 412.016 124.194 408.562L108.927 406.319C105.699 405.887 102.251 405.747 99.1875 404.589L99.1875 404.17L100.738 403.223Z"/>
	<path fill="#262425" transform="scale(0.666667 0.666667)" d="M376.543 339.097C377.69 339.007 378.857 338.916 380.004 339.051C385.796 339.734 392.392 342.89 397.067 346.305C407.199 353.705 415.752 364.816 423.606 374.512L438.257 392.558C443.771 399.608 448.429 407.109 453.506 414.453L459.025 422.625C459.481 423.324 460.618 424.673 460.836 425.438C460.908 425.693 460.771 425.965 460.739 426.228C459.438 426.266 459.104 425.813 458.05 425.092C454.705 421.889 452.007 417.897 449.357 414.118L438.555 399.067C432.916 391.774 426.676 384.979 420.562 378.09C414.131 370.842 407.925 363.613 400.986 356.819C396.368 352.298 391.287 348.458 385.241 346.024C381.134 344.37 375.291 344.733 372.108 341.556L372.184 340.688C373.582 339.638 374.879 339.414 376.543 339.097Z"/>
	<path fill="#1F1D1E" transform="scale(0.666667 0.666667)" d="M254.698 334.274C258.482 334.433 260.052 335.489 263.152 337.628C260.621 338.078 258.025 338.02 255.488 338.453C251.364 339.157 247.455 341.019 244.052 343.419C237.483 348.053 232.07 354.713 227.499 361.263C213.814 380.874 205.105 404.496 201.2 428.017C200.972 429.18 200.813 430.622 200.257 431.674C199.821 432.497 199.573 432.55 198.75 432.817L197.919 432.188C197.327 430.895 197.119 429.472 196.998 428.062C196.736 425.023 197.214 421.92 197.562 418.906C198.887 407.427 203.039 396.054 207.63 385.5C213.21 372.671 219.681 360.293 228.854 349.628C235.675 341.698 243.97 335.106 254.698 334.274Z"/>
	<path fill="#171616" transform="scale(0.666667 0.666667)" d="M526.307 259.292L578.39 259.105L591.577 259.047C593.179 259.043 595.598 258.707 597.078 259.277L597.562 259.48L597.978 259.315C600.318 258.628 618.493 258.734 620.069 259.789C620.538 260.104 620.618 260.663 620.717 261.188C621.055 262.966 621.213 265.355 620.09 266.834C616.799 267.393 613.319 267.117 609.99 267.093L594.45 267.063L532.93 266.737C530.406 266.682 527.865 266.729 525.392 266.17L525.081 265.5C526.644 264.156 531.464 264.069 533.618 263.945C542.45 263.437 551.421 263.802 560.266 263.838L610.5 263.464L610.5 263.302L589.182 263.201L550.646 263.253C543.796 263.156 536.909 263.661 530.062 263.236C528.612 263.146 526.394 262.929 525.188 262.089C524.98 261.182 525.022 260.604 525.188 259.691L526.307 259.292Z"/>
	<path fill="#1F1D1E" transform="scale(0.666667 0.666667)" d="M367.172 243.393C367.743 243.482 368.262 243.663 368.812 243.837C369.741 245.097 369.725 245.267 369.798 246.75C369.043 248.039 368.448 247.633 367.714 248.461C367.077 249.179 366.764 251.108 366.502 252.037C365.18 256.726 363.057 261.162 358.857 263.905C353.931 267.123 346.234 267.538 340.605 266.343C334.176 264.977 329.732 261.397 326.136 255.978L324.277 251.436C322.724 251.402 321.167 251.401 319.67 250.934C318.347 250.521 316.814 249.883 316.277 248.492C315.8 247.258 315.919 246.542 316.5 245.438C317.117 245.131 317.567 244.906 318.273 244.951C320.605 245.103 323.086 246.203 325.382 246.758C329.726 247.808 334.165 248.321 338.625 248.483C348.706 248.851 357.592 245.978 367.172 243.393Z"/>
	<path fill="white" transform="scale(0.666667 0.666667)" d="M361.513 249.562C361.963 249.489 362.358 249.481 362.812 249.48C362.58 251.654 361.717 253.842 360.669 255.744C358.682 259.348 355.517 260.947 351.705 261.996C345.576 263.684 339.579 262.176 334.212 259.161C331.902 257.345 330.707 255.354 329.569 252.717C331.487 252.251 335.614 253.433 337.852 253.494C346.257 253.724 353.556 252.074 361.513 249.562Z"/>
	<path fill="#1F1D1E" transform="scale(0.666667 0.666667)" d="M742.95 212.438C743.771 212.298 744.29 212.221 745.124 212.414C746.454 212.721 747.535 214.006 748.091 215.183C750.636 220.565 747.714 248.848 747.137 256.378L740.853 325.478L737.814 350.538C737.241 354.252 736.513 357.853 735.343 361.427L735.224 361.804C734.881 362.75 734.603 364.141 733.688 364.563C732.791 361.597 733.028 358.294 733.111 355.224C733.313 347.661 734.279 340.156 735.074 332.641L738.111 302.618L742.709 244.371C743.146 236.828 743.871 229.022 743.52 221.469C743.395 218.798 741.991 214.73 742.95 212.438Z"/>
	<path fill="#1F1D1E" transform="scale(0.666667 0.666667)" d="M608.78 320.637L609.23 320.586C611.479 320.405 612.783 320.616 614.543 322.149C615.994 323.412 616.414 324.713 616.466 326.6C616.574 330.504 614.551 334.337 612.738 337.667C608.426 345.584 603.134 352.662 597.142 359.368C583.985 374.093 566.878 389.396 547.033 393.674C541.327 394.904 535.257 394.979 529.442 395.304C532.923 393.727 536.903 393.257 540.562 392.119C549.541 389.326 557.873 385.106 565.725 379.964L571.921 375.381C577.228 371.23 581.791 366.412 586.517 361.64C589.565 358.564 592.882 355.711 595.782 352.496C599.967 347.856 603.657 342.496 606.618 336.991C608.271 333.918 609.911 330.686 610.328 327.188C609.81 327.63 609.931 327.415 609.701 327.999C608.702 330.534 607.37 332.57 605.748 334.742C602.185 339.512 597.984 343.927 593.992 348.343C592.941 349.505 591.018 352.098 589.5 352.574C589.138 352.687 588.75 352.686 588.375 352.742L587.565 352.125L587.512 351.689C587.566 347.896 596.877 338.361 599.519 335.357L608.049 325.395C605.075 326.787 602.543 328.415 599.902 330.363L601.089 327.188C602.644 323.581 605.344 322.089 608.78 320.637Z"/>
	<path fill="#1F1D1E" transform="scale(0.666667 0.666667)" d="M487.968 209.812L488.107 209.78C489.353 209.592 489.603 209.497 490.684 210.188C492.117 214.544 491.212 221.326 491.001 225.906L488.765 259.059L484.961 311.839L480.046 379.645C479.7 382.933 478.968 386.203 478.303 389.438L477.972 390.202L477.562 390.268C476.327 386.263 475.568 382.147 475.492 377.953C475.251 364.52 476.764 350.902 477.698 337.5L481.541 281.715L486.26 221.675C486.607 218.428 486.367 214.984 486.835 211.814C486.993 210.742 487.238 210.569 487.968 209.812Z"/>
	<path fill="#1F1D1E" transform="scale(0.666667 0.666667)" d="M278.402 449.438L279.562 449.362C282.328 451.495 283.295 460.14 284.239 463.746C291.637 492.013 306.662 517.956 327.314 538.608C332.774 544.068 339.648 550.317 346.597 553.753C363.633 562.175 384.685 564.084 403.419 564.669L416.176 564.791C418.982 564.75 425.848 563.812 428.199 565.183C428.922 566.318 428.902 566.637 428.969 567.938C428.526 569.058 427.717 569.447 426.748 570.058C421.586 571.305 416.32 571.463 411.035 571.491C404.399 571.526 397.737 571.25 391.141 570.481C368.941 567.894 346.378 562.556 328.597 548.244C321.751 542.734 315.546 535.7 310.128 528.818C295.182 509.834 284.206 485.253 278.989 461.79C278.18 458.155 276.789 453.919 277.22 450.188L278.402 449.438Z"/>
	<path fill="#1F1D1E" transform="scale(0.666667 0.666667)" d="M388.276 230.062C388.971 229.893 389.521 230 390.188 230.229C391.405 230.647 392.287 231.453 392.812 232.633C394.545 236.522 394.236 241.856 393.912 246.01C392.879 259.232 389.428 271.818 384.257 284.002L375.541 302.865C371.431 310.725 367.505 317.926 358.812 321.343C345.02 326.764 324.692 323.455 311.438 317.572C291.077 308.535 277.305 288.038 269.499 267.842L266.969 259.876C266.719 258.779 266.456 257.947 267.074 256.973L268.688 256.954C272.83 258.837 275.447 268.423 277.154 272.544C278.091 274.807 279.188 276.995 280.338 279.156C282.952 284.07 285.974 288.896 289.409 293.279C292.414 297.113 295.908 301.246 299.825 304.187C307.406 309.879 319.129 313.145 328.426 314.214C339.476 315.484 354.116 317.708 363.474 310.21C369.926 305.04 373.226 296.553 376.369 289.146C381.295 277.536 385.929 265.081 387.504 252.519C388.02 248.408 388.467 244.147 388.422 240C388.388 236.831 387.864 233.544 388.231 230.396L388.276 230.062Z"/>
	<path fill="#1F1D1E" transform="scale(0.666667 0.666667)" d="M474.874 410.812C476.193 410.937 476.925 411.757 477.794 412.677C480.583 415.632 482.81 419.14 485.453 422.236C491.339 429.131 497.647 435.692 504.198 441.956C508.525 437.176 512.716 431.124 515.963 425.56C518.06 421.966 519.917 417.88 522.449 414.587C523.127 413.706 523.974 412.77 525.099 412.515C525.724 412.374 525.843 412.7 526.29 413.062C526.429 415.714 524.537 419.776 523.785 422.37C530.109 423.404 536.677 424.127 543.078 424.391C547.496 424.573 552.336 424.26 556.684 424.951C557.849 425.137 559.326 425.768 560.203 426.562C561.025 427.306 561.167 427.941 561.309 429C561.015 429.914 561.064 430.233 560.295 430.867C558.723 432.165 556.406 432.48 554.439 432.682C547.681 433.377 539.764 432.866 533.338 430.635C530.113 429.517 528.034 427.138 524.625 426.729C524.412 426.872 524.098 426.927 523.985 427.157C523.468 428.214 523.544 430.704 523.278 431.95C522.395 436.075 519.664 442.56 516.291 445.255C514.35 446.807 509.766 445.11 507.518 444.707L524.78 455.806C526.605 456.808 530.08 458.241 530.988 460.125L530.56 460.688C528.985 460.914 527.504 460.805 525.932 460.613C514.744 459.241 504.015 453.126 496.299 445.031C489.112 437.491 483.503 428.098 477.112 419.859L466.521 440.79C462.437 447.261 448.72 465.225 441.412 466.678C440.649 466.83 440.767 466.89 440.062 466.443L440.162 465.715C449.627 455.486 458.757 444.283 465.282 431.929C467.435 427.851 469.33 423.679 470.812 419.309C471.516 417.234 471.955 414.856 472.857 412.875C473.211 412.097 473.549 411.568 474.3 411.14L474.874 410.812Z"/>
	<path fill="white" transform="scale(0.666667 0.666667)" d="M528.84 427.312C533.299 426.861 537.874 428.007 542.331 428.235C546.478 428.447 551.275 427.871 555.265 428.758L554.812 429.428C549.54 431.154 542.197 429.43 536.812 428.638C534.128 428.243 531.463 428.049 528.84 427.312Z"/>
	<path fill="#1F1D1E" transform="scale(0.666667 0.666667)" d="M577.02 312.801C579.237 312.662 580.829 312.59 582.717 313.877C584.703 315.232 585.735 317.205 586.226 319.5C586.012 320.897 585.567 321.477 584.642 322.541L584.324 322.898L584.438 323.3C585.095 322.779 585.715 322.549 586.5 322.265C588.608 322.462 589.84 322.99 591.188 324.695C592.809 326.746 592.782 328.811 592.513 331.312C592.084 335.302 589.247 340.127 587.289 343.577C586.509 344.954 585.711 346.586 584.406 347.53C583.714 348.031 583.788 347.876 583.024 347.742C581.096 344.728 584.727 338.528 585.919 335.495C586.868 333.079 587.583 330.753 588.122 328.215C585.595 330.255 583.72 333.706 581.871 336.4C580.751 338.032 579.367 339.649 578.517 341.438C577.643 343.28 577.232 345.311 576.424 347.18C574.763 351.018 570.519 356.416 566.812 358.445C566.29 358.126 565.86 358.001 565.266 357.89L564.562 357.764C564.391 357.044 564.285 357.327 564.738 356.878C569.227 352.438 573.183 348.131 576.445 342.687C571.693 346.337 557.382 360.938 552.711 361.443C551.245 361.602 550.371 361.002 549.255 360.188C549.244 359.938 549.144 359.676 549.221 359.438C549.286 359.236 550.262 358.541 550.496 358.343L556.675 353.402C567.526 344.478 576.578 335.419 583.986 323.392L556.922 347.413C554.792 349.252 552.5 351.836 549.562 351.627C548.815 350.812 548.504 350.61 548.292 349.5C550.293 346.697 553.324 344.261 555.796 341.85C560.978 336.795 566.087 331.722 571.67 327.105C573.934 325.222 579.507 321.503 580.254 318.75L579.562 318.097C572.612 317.717 556.708 334.761 551.159 339.46C548.125 342.03 544.924 344.911 541.688 347.201C540.145 348.294 538.443 349.089 536.983 350.315C535.604 351.473 534.59 352.986 533.25 354.188L532.601 353.812C533.097 350.813 534.798 347.827 536.073 345.072C538.67 339.461 541.732 333.554 543.681 327.698L543.881 327.077C544.58 324.94 544.945 322.806 545.309 320.595C542.241 322.688 539.821 325.545 537.387 328.318C532.795 333.548 528.509 339.023 525.022 345.062C523.418 347.839 521.975 350.753 520.688 353.691C519.762 355.803 518.295 361.415 516.375 362.528L515.694 362.062C515.48 357.45 516.926 352.802 518.646 348.562C523.106 337.571 531.004 326.839 539.528 318.656C540.842 317.396 542.939 315.219 544.708 314.706C545.797 314.39 546.645 314.521 547.623 315.077C548.606 315.635 549.296 316.679 549.596 317.742C551.975 326.181 546.079 334.656 542.224 341.791L564.113 321.881C568.242 318.335 571.944 314.941 577.02 312.801Z"/>
	<path fill="#1F1D1E" transform="scale(0.666667 0.666667)" d="M564.377 196.683L640.691 197.422L717.553 201.116L736.5 202.495C739.6 202.767 743.041 202.896 746.062 203.572C747.457 203.885 748.287 204.279 749.266 205.312C749.285 206.191 749.347 206.322 748.671 206.975C747.908 207.713 746.599 208.065 745.56 208.114C742.266 208.271 738.66 207.784 735.348 207.578L714.491 206.098L674.717 203.73L540.497 202.309L508.375 203.242C502.743 203.533 497.076 204.282 491.438 204.27C490.207 204.267 488.842 204.297 487.717 203.755C487.675 202.918 488.013 202.15 488.619 201.562C494.583 195.773 552.951 196.804 564.377 196.683Z"/>
	<path fill="#1F1D1E" transform="scale(0.666667 0.666667)" d="M346.774 362.732C348.132 360.989 349.703 359.877 351.677 358.902C352.874 358.312 357.619 356.81 358.171 355.99C359.437 354.109 359.922 350.655 360.472 348.442C358.547 347.726 356.088 347.789 354.025 347.479C348.131 346.593 341.564 345.102 336.123 342.694C334.361 341.914 332.572 340.998 331.462 339.375L331.484 338.062C332.492 337.28 332.976 337.417 334.254 337.593L361.368 342.512L362.845 330.132C363.046 328.64 363.107 326.747 363.938 325.486C365.032 325.261 365.735 325.474 366.772 325.777C367.832 326.814 367.847 326.947 367.885 328.415C368.077 335.829 366.995 343.338 365.869 350.645C368.808 350.745 372.271 350.544 375.024 351.697C375.673 352.56 375.787 352.522 375.669 353.576C372.464 354.629 368.478 353.829 365.077 354.512L358.507 385.688C356.709 396.765 355.924 407.95 355.259 419.134C353.997 440.36 353.813 461.795 355.643 482.991C356.808 496.481 359.352 510.357 362.942 523.416L366.969 536.21C367.278 537.182 368.309 539.973 368.12 540.938C368.026 541.417 367.718 541.829 367.517 542.274C366.925 542.514 366.542 542.885 365.915 542.585C364.545 541.929 363.623 540.335 362.942 539.037C360.271 533.945 358.624 528.106 357.164 522.569C351.101 499.568 349.519 476.887 349.377 453.204L349.633 425.6L351.51 397.498C328.326 399.401 306.856 383.084 290.188 368.913L277.506 357.175C275.301 355.007 272.732 352.76 270.926 350.246C266.699 344.362 263.902 336.689 263.285 329.489C263.016 326.345 262.949 323.532 265.08 320.961C266.789 318.899 268.976 317.487 271.685 317.348C279.897 316.925 300.907 324.745 306.651 330.188L306.963 331.376L306.375 331.974C303.399 331.997 299.657 329.877 296.811 328.803L287.277 325.517C282.169 323.727 276.479 321.523 270.971 322.132C270.275 322.209 269.483 322.466 268.993 322.989C267.451 324.635 268.058 327.786 268.326 329.812C269.372 337.731 273.198 346.21 279.018 351.795C278.861 346.038 279.624 336.545 284.039 332.152C284.681 331.513 285.243 331.306 286.125 331.223L286.541 331.875C285.713 334.274 284.488 336.498 283.623 338.883C281.71 344.152 281.577 348.586 282.206 354.127C285.116 358.107 288.465 361.406 292.021 364.79C289.707 356.058 290.962 347.589 295.512 339.746C296.754 337.604 297.806 335.528 300.188 334.533C302.006 334.65 304.54 335.653 306.086 336.615C304.433 336.502 302.136 336.021 300.801 337.176C296.013 341.32 293.682 351.429 293.636 357.535C293.606 361.543 294.675 364.696 297.54 367.576C300.574 370.626 303.984 373.098 307.52 375.523L307.368 374.835C305.255 365.08 308.134 355.867 313.489 347.651C314.295 346.414 315.064 345.194 316.312 344.364L317.12 344.438L317.482 345C316.583 346.976 315.173 348.653 314.167 350.584C310.459 357.703 307.46 367.014 310.312 374.92C312.403 380.715 320.394 383.972 325.572 386.572C324.175 377.038 327.214 366.415 332.997 358.693C333.899 357.489 335.903 354.996 337.314 354.559C333.311 361.386 329.707 367.46 328.179 375.375C327.676 377.983 327.348 381.079 328.012 383.674L328.369 384.816L328.541 385.356C329.395 387.838 331.471 388.862 333.71 389.878C339.298 392.414 345.822 393.213 351.912 393.387L357.019 359.97C353.558 359.965 350.138 361.494 347.738 363.94L347.519 364.182L347.439 363.213L346.774 362.732Z"/>
	<path fill="#1F1D1E" transform="scale(0.666667 0.666667)" d="M298.74 716.438L404.885 716.339L596.557 716.328L696.619 717.182L729.495 718.072C734.661 718.405 739.848 718.612 744.897 719.819C739.239 721.363 732.658 721.051 726.794 721.219L687.844 721.874L443.702 722.568L335.908 722.478L290.572 722.289L256.381 721.814C252.215 721.652 247.123 721.92 243.188 720.642L243.337 720.188C248.289 718.79 254.074 718.373 259.198 717.899C272.449 716.674 285.45 716.546 298.74 716.438Z"/>
	<path fill="#1F1D1E" transform="scale(0.666667 0.666667)" d="M513.765 229.545L562.792 229.519L655.827 229.946L705.275 230.317L728.089 230.343C729.77 230.41 731.622 230.517 733.151 231.286C733.845 231.636 733.696 231.642 733.925 232.312L733.597 232.656C732.729 233.339 731.572 233.498 730.5 233.589C717.503 234.691 703.959 233.993 690.913 233.974C675.483 233.951 659.865 234.49 644.473 233.551C644.152 235.606 643.918 237.504 643.975 239.592L644.326 239.778C645.876 240.668 646.426 241.646 646.803 243.375C647.064 244.577 647.348 246.216 646.688 247.242C642.65 248.056 637.254 247.254 633.051 247.272L612.313 247.379C609.901 247.388 606.847 247.776 604.5 247.391C603.348 247.202 603.807 246.368 603.208 245.438C602.601 246.248 603.534 246.381 603.188 247.298C598.929 248.145 593.441 247.509 589.063 247.509L555.44 247.339L536.197 247.299C532.53 247.332 528.79 247.576 525.135 247.395C524.093 247.343 523.245 247.325 522.312 246.811C520.837 244.4 521.417 240.137 521.679 237.436C527.492 236.689 533.834 237.401 539.716 237.419C541.992 237.426 544.42 237.543 546.651 237.06L549.327 236.476C555.689 235.091 563.419 235.859 569.985 235.839C581.733 235.749 594.1 236.659 605.731 235.067L606.002 241.154L620.598 241.039L620.694 235.963C618.737 235.151 616.933 234.552 614.798 234.426C607.631 234.006 600.363 234.752 593.158 234.684L555.596 234.267L525.883 233.78C523.054 233.836 519.257 233.591 516.551 234.376C514.921 248.257 514.776 262.323 514.082 276.272L510.586 316.541C509.912 322.194 509.605 328.173 508.448 333.741C506.185 344.638 500.722 354.38 496.963 364.761C494.478 371.621 493.337 378.686 491.192 385.61L490.381 382.878C489.119 378.851 489.684 374.221 490.61 370.166C492.572 361.571 496.731 352.795 500.19 344.682C501.968 340.512 503.974 336.471 504.888 331.997C505.576 328.627 505.642 325.115 506.164 321.71C509.429 300.416 510.794 278.9 512.09 257.411C512.649 248.148 512.691 238.76 513.765 229.545Z"/>
	<path fill="#1F1D1E" transform="scale(0.666667 0.666667)" d="M387.912 350.438C389.103 350.199 389.696 350.545 390.729 351.056C391.72 352.299 391.524 353.872 391.459 355.385C390.969 366.705 388.684 378.053 387.743 389.379L385.501 451.194C391.094 456.757 395.632 463.634 400.45 469.873C413.432 486.684 428.855 502.601 448.774 510.924C463.619 517.127 480.319 516.953 495.105 510.721C509.605 504.61 525.65 479.505 531.432 465.406C532.607 464.752 534.116 464.063 534.609 462.71C536.004 458.886 533.185 453.286 531.799 449.769L534.406 449.574C539.799 448.722 546.222 449.917 551.737 450.088L576.134 449.981C577.06 449.954 579.85 450.168 580.476 449.843C582.061 449.019 584.224 444.474 585.406 442.875C588.247 439.029 592.079 435.729 596.126 433.214C600.866 430.268 605.921 427.798 610.875 425.233L645.063 408.987L697.434 385.382L718.399 376.152C722.795 374.228 727.394 371.986 732.032 370.757C735.621 369.806 739.188 370.312 742.74 371.136L742.502 371.322L742.101 371.626C738.383 374.548 733.464 376.038 729.111 377.808L714.184 384.01L687.576 395.43L652.088 411.665C633.026 420.261 613.371 428.743 595.242 439.181L595.315 439.751C595.514 441.552 595.345 444.706 594.098 446.114C592.693 447.701 590.586 447.441 588.66 447.463C583.759 453.471 580.172 461.242 576.13 467.888L544.258 526.57L515.251 582.07C513.409 585.812 511.599 589.762 510.255 593.707C509.392 596.242 509.011 599.19 507.824 601.564C507.36 602.493 506.692 603.107 505.875 603.725L505.072 603.562C503.772 601.579 503.62 599.253 502.747 597.087C499.248 588.4 485.767 588.871 478.329 585.324C477.304 584.835 477.272 584.696 476.905 583.688C477.058 583.074 477.149 582.546 477.572 582.055C478.021 581.532 478.127 581.33 478.837 581.3C482.449 581.152 485.917 582.133 489.375 583.075C495.852 584.841 500.41 586.178 505.449 590.834C506.657 586.943 508.768 583.165 510.342 579.388C497.8 574.886 484.793 571.137 471.328 572.77C467.184 573.272 463.002 574.576 459.053 575.896L435.007 584.587C431.479 585.709 424.908 588.311 421.461 586.526L421.202 585.562C422.582 583.457 428.994 582.234 431.406 581.374L442.706 576.972C451.168 573.608 460.194 569.683 469.108 567.926C474.743 566.815 481.125 567.211 486.791 567.916C496.142 569.08 504.108 571.128 512.748 574.851L556.495 491.162L523.362 489.999C519.617 496.205 515.119 501.237 510.007 506.316C508.105 508.206 506.211 510.329 504.004 511.859C500.784 514.093 496.965 515.522 493.255 516.701C482.581 520.092 471.175 520.72 460.159 518.679C435.229 514.058 414.938 496.66 399.578 477.282C394.428 470.784 389.922 463.85 385.221 457.031L385.503 493.589C385.662 499.188 386.044 505.315 387.459 510.75C391.635 526.785 403.011 539.597 414.731 550.688L414.65 551.438C414.089 551.6 413.676 551.607 413.082 551.549C407.621 551.015 400.801 543.77 397.499 539.856C389.296 530.129 384.091 518.658 381.453 506.266C379.807 498.538 379.594 490.701 379.412 482.833L379.409 454.951L381.886 389.25L385.713 354.582C385.891 352.501 386.282 351.804 387.912 350.438Z"/>
	<path fill="white" transform="scale(0.666667 0.666667)" d="M535.468 450.261L578.829 451.512L573.032 460.765L570.351 465.355L538.178 464.819C538.735 462.974 539.539 461.197 539.67 459.256C539.92 455.541 537.727 452.924 535.468 450.261Z"/>
	<path fill="white" transform="scale(0.666667 0.666667)" d="M537.338 466.056L569.675 466.905L557.212 489.719L524.473 488.552L537.338 466.056Z"/>
	<path fill="#262425" transform="scale(0.666667 0.666667)" d="M313.324 68.7766C341.522 66.7264 371.176 74.5528 394.652 90.2581C406.81 98.3919 417.596 109.926 423.492 123.398C424.392 125.455 425.696 127.994 426.026 130.217C426.241 131.667 426.117 133.243 425.062 134.343C424.364 135.072 423.787 135.286 422.812 135.397C421.217 134.136 420.35 129.991 419.555 128.062C418.595 125.735 417.421 123.479 416.139 121.314C402.67 98.5596 376.803 83.6474 351.763 77.3443C337.849 73.8416 322.1 71.9768 307.841 73.9703C301.983 74.7893 295.829 76.4154 290.702 79.4648C308.256 74.289 325.957 75.1951 343.783 78.5126L366.656 85.359C382.91 91.8188 394.856 101.537 405.556 115.163C409.397 120.054 413.009 125.157 415.451 130.91C417.389 135.475 419.672 141.432 417.58 146.255C415.877 150.182 411.717 152.903 407.812 154.309C403.099 156.005 397.752 156.727 392.788 157.307C375.89 159.282 359.314 155.369 344.039 148.16C337.516 145.082 331.165 141.202 324.879 137.65L294.052 118.956C287.936 114.899 282.359 110.035 276.16 106.128C273.143 104.226 269.778 102.749 266.563 101.212L266.423 100.691C265.919 96.1616 268.212 91.6595 271.016 88.3014C281.768 75.4262 297.123 70.2068 313.324 68.7766Z"/>
	<path fill="#262425" transform="scale(0.666667 0.666667)" d="M239.844 97.9946C242.774 97.5058 249.263 97.5408 251.884 98.9686C252.64 99.3804 252.718 99.5691 252.957 100.335C251.714 101.067 249.891 100.963 248.455 101.083C241.773 101.643 235.892 103.241 229.784 106C233.894 107.095 238.246 107.664 242.062 109.632C241.495 110.15 239.701 109.567 238.761 110.062C250.735 115.317 260.055 127.417 264.493 139.428C266.003 143.514 266.815 148.151 268.555 152.062C268.611 146.876 267.602 141.812 266.058 136.875C262.623 125.886 255.697 115.748 245.237 110.346L244.799 110.125C248.402 110.289 251.133 111.148 254.215 113.01C271.829 123.65 277.385 148.583 270.961 167.194C270.136 169.581 269.141 171.924 268.02 174.188C266.329 177.604 263.971 181.079 262.746 184.688C262.556 185.246 262.049 186.585 262.091 187.159C262.175 188.298 263.636 189.919 264.106 191.002C264.872 192.764 265.273 194.966 265.736 196.836C272.299 193.452 278.363 189.282 285.188 186.366C287.051 185.57 288.995 184.87 290.98 184.447C291.819 184.268 293.801 184.251 294.453 183.926C296.247 183.031 297.542 180.948 299.582 180.029C300.863 179.451 302.526 179.557 303.908 179.541C304.04 179.539 305.209 179.586 305.288 179.534C306.059 179.035 307.043 177.367 307.618 176.611C309.922 173.581 312.258 170.675 315.725 168.924C320.423 166.551 327.729 165.696 332.686 167.489C339.38 169.91 342.312 176.871 345.161 182.805L345.658 182.881C347.363 182.837 354.747 181.709 355.698 180.555L354.625 179.062C354.541 176.77 355.829 174.101 356.959 172.125C359.65 167.421 364.012 164.748 369.146 163.348C374.071 162.005 379.601 162.293 384.035 165.01C389.18 168.163 391.815 174.124 393.283 179.732C397.222 179.152 402.326 177.867 406.234 178.698C407.009 178.863 406.916 178.917 407.762 178.688C407.302 177.784 406.523 177.468 405.676 176.988L405.26 176.756C405.263 174.936 405.026 171.553 406.114 170.066C406.442 169.617 406.933 169.638 407.438 169.513C409.575 170.845 409.184 173.622 410.282 175.618C411.66 178.122 414.014 179.86 415.02 182.667C416.026 185.475 416.511 189.879 415.032 192.608C413.636 195.181 410.923 196.887 408.223 197.782C407.543 198.007 407.76 198.124 407.712 198.782C407.353 203.662 408.469 208.894 404.838 212.902C403.622 214.245 402.407 214.196 400.688 214.258C400.069 212.512 402.922 206.417 403.371 204.107C403.725 202.281 403.774 200.416 403.847 198.562L402.188 197.19C402.096 196.758 401.938 196.204 401.967 195.75C402.057 194.326 403.332 193.487 404.272 192.566L404.021 182.538L394.538 183.87C394.1 189.428 393.148 194.861 389.352 199.2C388.74 199.9 386.768 201.367 386.464 202.069C386.336 202.366 386.549 204.047 386.573 204.413C386.718 206.678 387.609 212.22 386.248 213.938C385.031 214.278 384.9 214.415 383.674 213.938C382.176 211.667 381.837 207.588 381.24 204.9L380.062 205.246L376.572 206.625L376.888 207.188C377.235 207.68 377.627 208.005 377.885 208.564C379.636 212.344 379.017 217.868 377.485 221.602C375.728 225.886 372.526 229.768 368.162 231.538C362.524 233.825 356.047 233.878 350.436 231.525C343.829 228.756 337.1 222.249 337.848 214.5C338.11 211.78 339.437 208.945 340.319 206.37C343.137 198.146 342.464 190.563 339.187 182.55C337.698 178.906 335.591 174.261 331.688 172.73C325.583 170.335 317.969 172.821 313.768 177.634C312.293 179.324 310.786 182.875 308.771 183.826C307.475 184.438 305.354 183.91 303.841 184.309C300.84 185.102 297.854 186.589 295.019 187.841C297.603 197.619 301.278 208.442 310.25 214.172C314.097 216.63 320.708 218.03 325.195 216.895L325.688 216.756C328.987 215.88 331.199 212.886 334.5 212.554C335.503 213.054 335.427 213.255 335.857 214.312C335.759 215.091 335.679 215.976 335.307 216.678C334.266 218.641 331.482 219.923 329.467 220.589C322.742 222.812 314.768 221.815 308.509 218.655C297.914 213.305 293.537 200.73 290.011 190.209L269.718 200.453C269.908 201.912 270.921 203.584 271.518 204.939C273.077 208.477 274.795 212.051 275.494 215.881C276.265 220.107 275.597 224.988 273.01 228.494C271.273 230.848 268.946 232.183 266.08 232.585C265.947 232.604 265.755 232.525 265.682 232.636C265.482 232.939 265.431 235.102 265.37 235.596C264.904 239.411 263.574 243.745 260.831 246.582C257.547 249.979 253.209 250.743 248.672 250.808C240.977 250.917 233.46 247.139 228.061 241.835C221.338 235.232 216.481 225.789 216.432 216.249C216.398 209.799 218.517 205.412 223.026 200.883L220.734 199.312C217.349 196.722 214.46 192.362 211.703 189.086C202.298 177.91 193.557 168.436 191.45 153.36C189.809 141.625 194.021 129.275 201.081 119.925C210.181 107.874 225.004 100.023 239.844 97.9946Z"/>
	<path fill="white" transform="scale(0.666667 0.666667)" d="M349.543 189.562C350.664 189.489 351.891 189.267 352.969 189.642C354.505 193.702 356.646 198.134 359.331 201.562C361.445 204.262 364.665 207.231 368.25 207.434C369.602 207.51 370.95 207.226 372.297 207.408C372.257 208.102 372.299 207.807 372.147 208.533L372.032 209.062C373.198 211.256 374.303 213.712 373.856 216.251C373.038 220.892 370.93 223.66 367.114 226.211L366.607 226.378C363.063 227.607 358.77 227.518 355.043 227.266C351.834 227.05 348.491 224.52 346.516 222.118C345.157 220.465 343.723 218.053 343.444 215.869C343.308 214.802 344.116 212.235 344.448 211.173C345.308 208.424 346.596 205.792 347.316 203C348.421 198.717 348.096 194.293 348.482 189.938L349.543 189.562Z"/>
	<path fill="white" transform="scale(0.666667 0.666667)" d="M372.466 167.677C375.198 167.427 378 167.458 380.438 168.877C384.311 171.133 387.295 176.776 388.312 181.094C389.364 185.558 388.273 190.537 385.854 194.394C383.004 198.94 378.306 201.658 373.164 202.809C372.286 202.937 371.384 203.034 370.5 202.886C363.45 201.704 359.666 193.75 358.361 187.479C357.897 185.248 358.108 182.371 356.813 180.57C357.026 179.9 356.909 180.111 357.269 179.551C361.301 173.279 364.997 169.408 372.466 167.677Z"/>
	<path fill="#171616" transform="scale(0.666667 0.666667)" d="M369.763 177.188C370.573 177.148 371.286 177.162 372.031 177.537C373.445 178.247 374.436 180.211 374.937 181.633C375.698 183.792 375.799 187.338 374.652 189.362C373.732 190.987 372.424 191.843 370.688 192.395C369.85 192.433 369.277 192.379 368.507 192.011C367.135 191.355 366.062 190.064 365.593 188.62C364.785 186.135 364.667 181.911 366.024 179.622C366.845 178.235 368.266 177.563 369.763 177.188Z"/>
	<path fill="white" transform="scale(0.666667 0.666667)" d="M233.966 200.672C238.461 200.849 242.585 202.199 246.186 204.924C252.984 210.068 258.42 219.796 259.497 228.232C260.031 232.418 259.91 238.273 257.139 241.688C254.879 244.472 251.487 245.063 248.125 245.402C244.748 245.217 241.409 244.536 238.374 243.006C231.192 239.385 225.654 231.878 223.199 224.322C221.466 218.988 221.034 213.352 223.845 208.245C226.211 203.947 229.399 202.047 233.966 200.672Z"/>
	<path fill="#262425" transform="scale(0.666667 0.666667)" d="M517.872 625.477C519.942 625.418 523.328 624.495 525.188 625.163C525.006 626.065 524.848 626.146 524.097 626.649C522.6 627.652 520.661 628.3 518.999 629.005L525.091 628.884L538.664 601.297C526.112 610.749 511.907 617.369 498.562 625.554C493.709 628.531 489.592 632.772 484.915 636.02C480.279 639.238 475.194 641.922 470.294 644.714L451.547 654.772C445.91 657.624 440.003 660.694 433.688 661.55C425.06 662.72 415.967 661.949 407.264 661.832L373.688 660.895C368.379 660.593 363.03 660.442 357.77 659.614C354.983 659.175 351.527 658.465 349.312 656.631L348.069 655.312C348.086 653.589 348.328 653.091 349.589 651.856L360.1 643.004L343.714 639.509L343.399 640.049C341.038 644.015 337.852 647.407 334.827 650.869L319.108 667.732C311.845 674.84 303.649 681.414 295.861 687.954C289.425 693.359 283.267 698.978 276.359 703.793C273.511 705.778 270.769 707.769 267.396 708.755C256.402 704.298 249.712 698.108 245.07 687.193C242.045 680.081 240.152 672.321 239.01 664.689C237.769 656.391 237.372 647.893 236.683 639.527L231.927 590.062L222.178 530.556C218.186 508.266 213.819 485.985 211.45 463.45C210.916 458.377 209.804 451.993 210.651 447C211.304 446.233 211.755 445.909 212.812 445.878C213.375 445.862 214.524 445.947 214.87 446.433C215.764 447.687 215.698 451.106 215.832 452.65L217.366 467.959C217.752 471.287 218.303 474.535 219.014 477.807C220.068 482.658 222.877 487.068 225.045 491.48L230.934 504.346L246.671 537.769C251.418 547.519 256.124 557.4 261.606 566.761C273.46 587.001 289.57 606.764 309.562 619.388C322.568 627.6 336.47 631.641 351.599 633.598C363.196 635.098 374.539 635.244 385.969 632.643C386.739 632.467 386.857 632.427 387.402 631.875L387.225 631.49C386.071 628.891 386.56 627.254 387.615 624.676C389.835 619.255 394.457 614.371 398.043 609.771L406.035 598.391C408.581 594.37 410.944 590.032 412.723 585.615C413.444 583.823 413.978 580.554 414.938 579.061C415.106 578.798 415.438 578.686 415.688 578.499C417.009 578.626 417.094 578.704 418.117 579.562C419.379 582.57 418.832 585.284 417.659 588.208C414.59 595.858 409.241 603.257 404.267 609.844L399.919 615.235C399.441 615.783 398.342 616.746 398.175 617.408L398.661 617.22C400.619 616.484 402.425 616.208 404.491 615.949C414.1 614.746 424.257 615.441 433.933 615.385L478.858 615.355C476.77 610.482 475.033 608.015 469.954 605.973C466.601 604.625 463.089 603.728 459.522 603.18C458.163 604.03 457.253 605.78 456.188 606.997C453.212 610.395 448.554 611.592 444.261 610.658L443.844 610.571C442.045 610.143 440.099 608.35 438.506 607.387C441.28 606.786 445.602 606.659 447.978 605.245C450.396 603.806 451.618 600.554 454.024 598.935C459.377 595.335 472.694 600.628 477.562 603.769C479.862 605.253 482.479 607.509 482.916 610.359C483.08 611.432 481.493 615.447 481.612 615.67C481.964 616.332 483.514 617.521 484.099 618.09L484.741 618.188C486.511 616.313 487.061 613.414 487.022 610.875C486.956 606.662 485.289 602.571 482.134 599.726C479.844 597.66 476.75 597.072 473.829 596.445C472.194 596.095 469.669 595.726 468.572 594.355C468.137 593.81 468.073 592.97 467.98 592.312L468.375 591.632C470.993 591.686 473.881 591.331 476.448 591.562C480.409 591.92 484.489 594.533 487.215 597.336C490.313 600.523 492.131 605.611 491.954 610.043C491.778 614.449 490.063 619.811 486.809 622.928C485.987 623.714 485.127 624.264 483.938 624.07C481.539 623.678 479.935 621.123 477.476 620.832C469.315 619.864 460.339 620.657 452.127 620.58L422.52 620.535C419.269 620.555 415.834 620.134 412.622 620.358C409.125 625.257 404.683 627.916 399.618 631.014C394.297 634.268 389.894 637.017 383.643 638.101C380.944 638.569 378.133 638.61 375.398 638.608L375.076 639.062C372.004 643.355 367.917 645.406 363.527 648.099L353.946 654.584C361.795 655.988 370.03 656.227 377.988 656.489L416.545 656.703L428.323 656.544C431.2 656.489 434.328 656.5 437.108 655.697C441.359 654.468 445.4 651.697 449.324 649.667C460.118 644.085 471.116 638.771 481.154 631.857C483.865 629.989 486.279 627.74 488.812 625.648C490.673 624.112 492.635 622.765 494.062 620.778C495.844 618.299 496.734 615.163 497.255 612.188C497.903 608.481 497.898 604.486 496.518 600.952C495.135 597.413 492.502 594.26 490.557 591.004C495.204 592.3 498.17 594.381 500.564 598.744C503.405 603.924 502.931 609.992 501.195 615.457L499.726 619.636C502.069 617.952 504.33 616.083 506.791 614.579C512.278 611.227 518.148 608.54 523.765 605.423L532.312 600.387C534.145 599.268 536.022 597.837 538.125 597.319L539.438 597.79C540.02 597.279 540.083 596.865 540.311 596.149C541.434 592.637 543.525 589.294 545.088 585.946L567.046 543.319L585.812 506.397L597.655 482.822C599.409 479.65 602.287 473.403 605.375 471.658C607.077 470.697 609.276 470.211 611.11 469.505C613.519 468.578 615.832 467.293 618.093 466.056L659.652 441.921C677.991 431.026 696.165 419.694 713.39 407.093C720.849 401.637 728.554 395.954 735.264 389.591C740.354 384.764 745.06 379.264 748.505 373.125C747.454 378.381 746.084 383.07 743.871 387.986C740.743 394.936 736.654 401.432 733.092 408.157L708.404 454.943L678.433 513.023C672.048 525.12 665.587 537.929 657.775 549.162C651.867 557.657 643.641 564.254 636.718 571.876L609.643 602.879C604.418 608.478 599.102 614.024 592.68 618.282C591.029 619.377 589.309 620.099 587.465 620.803C590.788 615.846 595.042 611.733 599.116 607.401L614.657 590.447C621.301 582.881 628.481 574.712 633.885 566.241C638.022 559.755 641.347 552.667 644.566 545.689L657.562 515.951L666.134 496.282C667.879 492.154 669.932 487.831 670.597 483.375L670.678 482.854C670.958 480.769 670.588 478.536 670.351 476.46C669.79 471.545 669.017 466.105 665.797 462.151C665.346 461.598 664.921 461.115 664.328 460.712C652.718 462.272 641.618 467.802 630.433 471.126L543.817 660L544.312 660.625C548.08 660.184 551.983 657.558 555.333 655.768L582.389 640.011L597.141 631.366L604.369 627.222C605.389 626.666 606.761 625.774 607.88 625.522C609.509 625.154 611.437 625.358 613.115 625.343L602.32 633.406L573.553 651.244L562.9 657.647C561.539 658.449 559.111 659.562 558.129 660.763L558.777 660.698C567.452 659.874 576.584 660.37 585.31 660.34L634.753 659.839L642.245 659.658C642.785 659.645 644.169 659.771 644.625 659.601C644.972 659.472 645.186 659.117 645.467 658.875C645.896 656.526 644.862 653.703 644.42 651.376L641.712 637.322L634.791 601.638L621.405 601.484C619.365 601.475 616.519 601.804 614.625 601.135L614.301 600.562C615.102 599.157 615.82 598.669 617.376 598.208C619.274 597.646 621.429 597.773 623.392 597.754L634.115 597.767L631.688 588.698C631.126 586.823 630.21 584.919 630.359 582.938C631.255 582.301 631.443 582.247 632.54 582.14C635.761 584.322 637.631 594.189 638.407 598.116L662.217 599.578C668.521 599.937 675.784 599.944 681.93 601.277C684.042 601.735 688.238 603.04 689.734 604.655C690.163 605.119 690.271 605.346 690.252 606C690.178 608.619 687.056 612.783 685.688 614.992C681.312 622.053 676.867 628.797 671.812 635.399L655.519 655.08C652.946 658.161 650.715 661.573 647.808 664.347C639.602 665.561 630.495 664.916 622.156 664.951L571.219 664.964L557.625 664.934C556.155 664.921 554.12 664.546 552.72 664.775C552.364 664.833 551.432 665.484 551.107 665.662L545.799 668.545L524.033 680.038C521.561 681.5 519.25 683.171 516.892 684.805C516.127 685.334 514.601 686.491 513.682 686.628C511.53 686.947 508.592 686.285 506.391 686.036L494.343 684.859L469.44 683.041L448.091 681.825C444.846 681.657 441.683 681.549 438.453 681.147C436.898 680.953 435.721 681.002 434.372 680.134C433.799 678.982 433.718 678.528 433.86 677.25C434.637 676.37 435.056 675.799 436.312 675.78C439.192 675.738 441.737 677.178 444.562 676.609C445.462 676.428 446.972 676.735 447.907 676.803L454.421 677.228L492.116 679.412C497.213 679.829 502.465 680.11 507.52 680.889C509.832 681.245 511.903 681.994 513.938 683.14C514.551 682.21 514.305 681.695 514.111 680.618C513.899 679.441 513.358 678.887 512.4 678.236C509.38 676.186 503.619 676.013 500.041 675.62L463.283 672.935C457.65 672.528 451.664 672.431 446.129 671.287C444.042 670.856 442.18 670.345 440.651 668.812C440.919 667.849 440.97 667.622 441.927 667.122C446.337 664.82 454.35 665.552 459.234 665.623L493.405 666.793L495.75 666.571L495.791 666.188C495.088 666.214 494.64 666.204 493.959 665.974L493.439 665.774L492.357 665.435C491.783 664.335 491.915 664.017 492.031 662.812C493.313 661.553 494.734 660.917 496.335 660.171C496.954 660.542 497.975 660.508 498.709 660.655L499.127 660.748L499.875 660.934C500.721 661.378 500.786 661.309 501.75 661.309L502.309 660.938C503.101 660.971 503.669 660.973 504.375 660.559C505.123 660.12 505.044 660.187 505.875 660.182C506.763 659.595 507.764 659.741 508.814 659.685C509.401 659.07 509.944 658.463 510.752 658.127C511.552 657.794 511.532 657.632 512.034 656.926L512.756 656.835C513.995 655.515 514.943 654.001 515.947 652.5L515.613 651.857L513.409 651.644L513.384 651.188L516.59 648.518L507.15 647.778C505.148 647.588 503.486 647.833 501.686 646.699L501.375 646.489L496.667 648.303C495.085 647.508 493.784 646.913 492.016 646.628C492.585 646.046 492.978 645.623 493.282 644.856L493.51 644.252C494.416 643.948 494.891 643.268 495.547 642.595C496.124 642.003 495.934 641.869 495.927 641.079L494.997 640.837L494.806 640.383L493.075 639.972C493.286 639.389 493.141 639.736 493.567 638.956C494.125 638.784 495.078 638.629 495.562 638.378C496.845 637.714 498.052 635.659 499.427 634.778C500.274 634.235 501.242 633.896 502.125 633.422C504.847 631.962 507.303 630.156 510.188 628.955C511.219 629.131 511.949 629.328 512.8 629.959L513.188 630.266C514.292 630.053 515.177 629.747 516.21 629.286C517.335 628.784 517.327 628.894 517.76 627.764C518.797 627.326 518.841 627.426 519.938 627.75L520.5 627.283C521.247 626.82 521.843 626.69 522.562 626.066C520.803 625.757 519.503 626.464 517.872 625.477Z"/>
	<path fill="white" transform="scale(0.666667 0.666667)" d="M516.668 635.813C517.058 635.907 516.809 635.823 517.361 636.188L515.221 638.614C514.171 639.48 513.312 639.229 512.062 639.131L510.938 638.809L510.855 638.062C512.528 636.716 514.625 636.28 516.668 635.813Z"/>
	<path fill="white" transform="scale(0.666667 0.666667)" d="M504.445 640.688L504.973 640.51C506.895 639.998 508.535 641.149 510.188 641.992L510.268 642.562L509.139 643.312C508.523 643.554 508.084 643.654 507.423 643.522C505.933 643.226 504.183 642.651 503.368 641.331L504.445 640.688Z"/>
	<path fill="white" transform="scale(0.666667 0.666667)" d="M395.405 623.812C397.329 623.442 399.914 623.783 401.89 623.839L397.126 626.921L393.375 628.891L392.765 628.496L392.814 627.884C393.002 626.257 394.117 624.748 395.405 623.812Z"/>
	<path fill="#EDEDEF" transform="scale(0.666667 0.666667)" d="M493.439 665.774C495.081 665.777 496.666 665.753 498.287 665.449C499.712 665.182 501.512 664.572 502.939 664.8L503.781 664.955C505.404 665.173 506.828 663.88 508.019 662.961C507.16 664.734 505.775 665.87 504.356 667.189C502.893 667.545 501.037 667.244 499.533 667.179C497.559 667.093 495.335 667.198 493.405 666.793L495.75 666.571L495.791 666.188C495.088 666.214 494.64 666.204 493.959 665.974L493.439 665.774Z"/>
	<path fill="#171616" transform="scale(0.666667 0.666667)" d="M508.814 659.685L509.453 660.375C509.327 661.291 508.81 661.536 508.316 662.25C508.154 662.484 508.101 662.703 508.019 662.961C506.828 663.88 505.404 665.173 503.781 664.955L502.939 664.8C501.512 664.572 499.712 665.182 498.287 665.449C496.666 665.753 495.081 665.777 493.439 665.774L492.357 665.435C491.783 664.335 491.915 664.017 492.031 662.812C493.313 661.553 494.734 660.917 496.335 660.171C496.954 660.542 497.975 660.508 498.709 660.655L499.127 660.748L499.875 660.934C500.721 661.378 500.786 661.309 501.75 661.309L502.309 660.938C503.101 660.971 503.669 660.973 504.375 660.559C505.123 660.12 505.044 660.187 505.875 660.182C506.763 659.595 507.764 659.741 508.814 659.685Z"/>
	<path fill="white" transform="scale(0.666667 0.666667)" d="M559.472 569.012C558.829 572.201 557.557 575.097 556.352 578.098L548.841 594.951L536.529 620.967L526.82 639.552C525.707 641.468 524.745 643.566 523.486 645.386C522.644 646.605 521.384 647.666 520.312 648.685C519.926 648.421 520.161 648.615 519.72 647.99C520.703 645.332 522.827 642.791 524.455 640.463C526.023 638.218 527.377 635.812 528.57 633.349L548.833 589.983L559.472 569.012Z"/>
	<path fill="white" transform="scale(0.666667 0.666667)" d="M638.998 601.749L670.42 603.301C674.397 603.588 679.225 603.501 683.062 604.664C684.062 604.967 684.27 605.49 684.69 606.375C683.529 610.581 680.851 614.543 678.448 618.14C674.581 623.93 670.439 629.318 665.97 634.646L650.035 654.158L638.998 601.749Z"/>
	<path fill="white" transform="scale(0.666667 0.666667)" d="M220.438 491.269L257.296 570.69C275.317 602.72 303.432 628.387 339.271 638.42L324.652 654.746C320.493 659.685 315.528 665.527 310.012 668.897C306.388 669.26 302.51 668.76 298.866 668.53C284.947 667.649 271.185 665.725 257.831 661.591C252.682 659.997 247.8 658.345 243.032 655.812C242.803 646.284 241.675 636.827 240.896 627.338C238.809 601.921 235.885 576.852 231.426 551.72L224.922 515.786L220.438 491.269Z"/>
	<path fill="#262425" transform="scale(0.666667 0.666667)" d="M33.5752 403.285C51.7363 402.365 70.2457 404.508 88.2 407.098C111.985 410.53 134.753 415.009 157.006 424.418C167.673 428.928 178.375 434.41 185.937 443.439C189.233 447.375 191.785 452 193.49 456.837C195.688 463.076 197.123 469.631 198.562 476.075L204.727 506.873L214.618 568.875L221.523 617.355L227.226 661.312C228.712 671.209 230.013 682.321 233.915 691.554C236.854 698.509 241.394 704.825 246.921 709.956C249.403 712.261 252.204 714.165 254.767 716.371C251.215 717.155 247.811 717.557 244.171 717.562C234.465 717.577 224.658 716.555 215.003 715.582C186.075 712.667 158.114 707.054 131.238 695.66C119.302 690.599 107.472 684.568 98.2534 675.26C89.2947 666.215 82.7015 655.38 77.2115 643.97C69.0343 626.976 62.8114 608.879 56.4713 591.133L33.1103 523.976L13.2697 461.684C10.4962 452.1 7.79911 442.552 5.88302 432.75C4.7819 427.117 3.71819 421.014 3.85844 415.24C3.90361 413.381 4.11862 412.158 5.4564 410.823C6.65592 410.544 7.11043 410.527 8.27178 410.936C9.28872 412.252 9.07316 415.356 9.25863 417.086L11.3168 432.183C13.0712 442.669 16.0431 452.731 19.0107 462.916L57.1054 578.541C65.0357 600.404 72.6719 622.215 82.4731 643.343C90.8276 660.749 101.642 676.75 119.051 686.126C127.791 690.832 137.215 694.211 146.363 698.009C145.456 694.061 145.53 690.767 146.339 686.832C141.637 683.867 137.013 680.549 133.121 676.56C124.203 667.42 117.693 656.079 111.455 645.025C99.8958 624.543 89.7004 603.097 81.4668 581.062L65.205 532.589L55.9432 503.362C53.0741 493.786 49.4253 483.542 49.5073 473.5L54.5625 488.303L64.6431 524.898L76.6127 562.125L86.9226 591.336C96.3306 614.769 107.995 637.599 121.309 659.062C127.994 669.841 138.629 684.15 151.648 687.202C149.832 678.232 144.824 669.105 141.043 660.769L130.03 635.699L96.7527 549.188L78.7334 493.859L75.0511 482.051C74.1115 479.263 72.8384 476.312 72.5504 473.369C72.1646 469.428 72.9407 465.031 73.2868 461.062L77.554 426.039L165.912 434.647C161.033 431.312 155.801 429.539 150.197 427.779L127.09 421.681C103.519 415.969 79.6073 410.406 55.3488 408.718C48.7502 408.259 42.053 407.931 35.4388 408.101L12.5625 409.481L12.0129 408.938L12.5625 406.444C13.8159 405.425 16.0802 405.334 17.6602 405.054C22.9653 404.116 28.2039 403.566 33.5752 403.285Z"/>
</svg>
