<?xml version="1.0" encoding="utf-8" ?>
<svg xmlns="http://www.w3.org/2000/svg" xmlns:xlink="http://www.w3.org/1999/xlink" width="512" height="512">
	<path fill="white" transform="scale(0.666667 0.666667)" d="M768 246.403L768 768L-0 768L0 -0L768 0L768 215.964L768 246.403Z"/>
	<path fill="#191718" transform="scale(0.666667 0.666667)" d="M695.936 226.688C696.557 226.532 697.053 226.568 697.688 226.588C697.96 226.963 698.143 227.18 698.34 227.625C698.72 228.484 698.583 229.225 698.297 230.062L696.938 230.535C696.063 230.601 695.521 230.525 694.688 230.254L694.239 229.125C694.682 227.763 694.906 227.6 695.936 226.688Z"/>
	<path fill="#191718" transform="scale(0.666667 0.666667)" d="M389.548 447.938C390.177 448.026 389.832 447.93 390.552 448.312C390.361 449.389 390.017 449.92 389.114 450.605C387.305 451.978 384.818 452.043 382.688 451.713L381.974 451.372L382.125 450.811L389.548 447.938Z"/>
	<path fill="#191718" transform="scale(0.666667 0.666667)" d="M333.846 437.812C336.245 438.745 339.099 441.354 341.295 442.798C344.136 444.667 347.076 446.278 350.083 447.86C348.141 447.776 345.887 447.757 344.007 447.211C340.389 446.162 335.808 442.904 334.056 439.493C333.632 438.668 333.587 438.668 333.846 437.812Z"/>
	<path fill="#191718" transform="scale(0.666667 0.666667)" d="M768 246.403C767.205 245.057 766.313 243.622 765.942 242.093C764.939 237.96 765.623 232.293 765.656 228C765.679 225.092 765.378 221.872 765.721 219C765.9 217.498 766.946 216.922 768 215.964L768 246.403Z"/>
	<path fill="#191718" transform="scale(0.666667 0.666667)" d="M22.9259 304.312C23.5716 304.206 23.6064 304.287 24.1875 304.507L24.3511 304.92C25.0374 307.273 24.4732 310.914 24.5128 313.437C24.5679 316.945 25.9426 327.161 24.298 329.911L23.503 329.812L22.226 328.779C19.8381 326.312 20.5484 319.248 20.6066 315.923C20.6683 312.391 20.2484 306.9 22.9259 304.312Z"/>
	<path fill="#191718" transform="scale(0.666667 0.666667)" d="M168.267 21.5625C168.632 21.4753 168.93 21.385 169.317 21.3889C173.699 21.4327 171.874 27.4311 172.948 29.986C173.53 31.3694 174.807 32.7324 175.756 33.8937C175.835 35.4569 175.96 37.0621 175.728 38.616C175.512 40.0655 175.176 41.4796 174 42.379L172.816 41.8125C171.39 40.5377 170.909 38.9178 169.13 38.0468L168.541 37.7654C167.395 37.2095 166.444 36.5652 166.101 35.25C165.817 34.1585 166.092 33.1491 166.688 32.2335C167.44 32.0562 167.693 32.0384 168.278 31.5C167.573 30.3873 166.977 29.2714 166.841 27.9375C166.616 25.7412 166.863 23.3339 168.267 21.5625Z"/>
	<path fill="#191718" transform="scale(0.666667 0.666667)" d="M352.361 31.6875L352.927 31.8303C355.139 34.1603 356.03 38.1721 356.97 41.1724L362.085 59.5046C362.909 62.5681 364.147 65.6722 364.551 68.8125L363.562 69.6589L362.931 69.9036C361.927 70.2242 361.439 70.2816 360.562 69.7486C358.14 65.8128 357.24 60.6419 356.062 56.1927C354.331 49.6478 352.026 42.5513 351.606 35.7744C351.52 34.3811 351.389 32.7992 352.361 31.6875Z"/>
	<path fill="#191718" transform="scale(0.666667 0.666667)" d="M337.771 561.188C338.306 561.075 338.399 561.031 339.001 561.029C341.05 561.024 343.099 563.086 344.24 564.584C347.515 568.885 349.89 577.217 348.993 582.598C348.694 584.395 348.18 585.586 346.649 586.618C344.794 587.869 341.714 588.033 339.582 587.438C336.855 586.676 334.365 584.532 333.052 582.031C331.862 579.764 330.981 576.927 331.754 574.397L332.438 574.067L333.476 575.132C334.585 577.505 335.82 579.956 337.599 581.91C338.778 583.206 340.276 583.681 342.003 583.693C343.435 583.703 344.284 583.329 345.281 582.373C345.712 580.99 345.674 580.415 345.188 579.048C344.157 578.361 343.828 578.424 342.611 578.306C340.232 578.074 338.081 577.123 336.589 575.167C335.81 574.146 335.209 572.653 335.597 571.356C336.227 569.256 339.211 568.346 340.97 567.441L341.068 566.812C340.537 566.382 339.96 565.903 339.33 565.627C338.324 565.186 337.278 565.316 336.287 565.692C335.433 566.016 334.848 566.17 333.938 566.254C333.463 565.312 333.636 565.137 333.862 564.089C335.108 562.816 336.159 561.957 337.771 561.188Z"/>
	<path fill="#191718" transform="scale(0.666667 0.666667)" d="M418.17 169.602C424.548 169.081 429.871 169.565 436.008 171.337C443.071 173.376 452.956 177.316 456.723 184.125C456.733 185.613 456.797 185.726 455.871 186.993C454.31 187.083 453.459 186.457 452.098 185.788C444.498 181.075 435.085 176.846 426.024 176.34C422.746 176.157 419.496 176.617 416.252 176.476C414.515 176.4 413.73 176.025 412.586 174.75L412.688 173.514C414.104 171.203 415.744 170.528 418.17 169.602Z"/>
	<path fill="#191718" transform="scale(0.666667 0.666667)" d="M344.792 487.572C347.35 487.241 349.686 487.149 352.033 488.384C356.086 490.518 358.616 494.091 359.864 498.43C361.069 502.623 362.388 509.534 359.988 513.453C358.811 515.375 357.078 516.442 354.904 516.834C351.856 517.382 348.368 516.275 345.937 514.422C343.078 512.241 341.126 508.71 340.793 505.126C340.634 503.417 340.706 502.395 341.812 501.116L342.737 501.188L342.993 502.226C343.639 504.637 344.319 506.888 345.855 508.906C347.435 510.982 349.573 512.413 352.216 512.571C353.479 512.646 354.447 512.258 355.346 511.403C356.409 510.392 356.531 509.335 356.521 507.938C356.241 507.361 355.851 506.405 355.31 506.04C354.687 505.62 353.536 505.681 352.783 505.615C351.125 505.471 350.02 505.139 348.782 503.96C346.957 502.222 345.948 499.743 345.836 497.25C347.453 493.878 350.224 496.54 352.688 495.051L352.631 494.735C352.325 493.793 351.133 492.744 350.296 492.246C347.166 490.385 344.381 492.237 341.25 493.148L340.567 492.75C340.42 492.077 340.454 491.767 340.682 491.091C341.316 489.207 343.149 488.392 344.792 487.572Z"/>
	<path fill="#191718" transform="scale(0.666667 0.666667)" d="M442.036 573.188L443.438 573.054C444.76 573.965 445.034 574.939 445.405 576.469C447.207 583.905 447.822 591.895 449.04 599.476L457.12 639.411C458.893 646.453 461.152 653.247 464.039 659.909C465.517 663.318 468.075 667.154 468.954 670.688L468.074 670.688C467.215 670.195 466.54 669.406 465.901 668.663C461.956 664.082 459.14 658.254 457.14 652.586C453.691 642.811 451.865 632.137 449.516 622.043C446.555 609.322 443.38 596.476 441.413 583.563C441.023 581.005 440.172 577.644 440.49 575.109C440.631 573.983 441.199 573.82 442.036 573.188Z"/>
	<path fill="#191718" transform="scale(0.666667 0.666667)" d="M671.407 237.938C671.658 237.835 671.932 237.705 672.209 237.693C676.386 237.521 675.577 247.594 676.399 250.512C677.173 253.259 678.778 255.711 680.655 257.833C686.937 264.935 693.804 269.153 703.429 269.642C719.576 270.463 734.166 265.086 745.871 253.882C748.933 250.952 751.18 247.298 754.313 244.471C755.367 244.579 755.347 244.667 756.097 245.438C756.572 246.793 756.23 247.711 755.858 249.061C752.484 256.6 745.614 262.117 738.663 266.253C725.337 274.183 710.449 276.735 695.25 272.998C690.802 271.904 686.364 269.759 682.813 266.845C676.239 261.45 671.559 255.678 670.751 247.048C670.517 244.55 669.721 239.964 671.407 237.938Z"/>
	<path fill="#191718" transform="scale(0.666667 0.666667)" d="M102.73 286.312L103.125 286.406C104.759 287.152 105.665 288.901 106.305 290.485C108.733 296.496 108.297 303.248 107.919 309.581C107.659 313.953 107.477 318.591 105.594 322.629C102.189 329.931 91.2067 335.425 83.9719 337.971C73.0363 341.819 60.4158 342.343 48.9375 341.299C42.9595 340.756 37.3742 339.906 31.9049 337.298C29.5326 336.005 28.4268 334.478 27.1117 332.208L41.2285 335.022C59.5832 337.973 79.2091 337.203 94.7212 325.887C97.2039 324.076 99.6129 322.027 101.612 319.683C101.966 319.268 102.779 318.481 102.93 318.021C103.3 316.896 102.915 314.897 102.809 313.725L102.225 305.027C102.113 301.251 102.656 297.529 102.724 293.767C102.763 291.55 102.236 289.038 102.621 286.873L102.73 286.312Z"/>
	<path fill="#191718" transform="scale(0.666667 0.666667)" d="M506.353 488.438L507.938 488.158C508.616 488.556 508.639 488.418 508.932 489.232C509.683 491.315 509.521 494.447 509.665 496.684L510.536 511.886C511.524 556.252 516.725 600.495 527.029 643.681C528.752 650.903 529.898 660.574 534.405 666.525L534.724 666.938L534.562 667.865L532.688 668.729C531.85 668.897 531.533 669.126 530.812 668.564C529.774 667.755 529.093 665.827 528.571 664.642C526.634 660.244 525.011 655.746 523.557 651.167C518.844 636.326 514.558 620.559 511.737 605.256C509.511 593.173 508.647 580.488 507.627 568.245C505.637 544.351 504.28 520.301 504.425 496.312C504.441 493.652 504.385 490.379 506.353 488.438Z"/>
	<path fill="#191718" transform="scale(0.666667 0.666667)" d="M55.1531 214.312C55.7334 214.246 55.4977 214.244 56.2229 214.333C57.2735 214.462 58.1847 214.783 58.8253 215.661C62.2463 220.355 53.0201 292.791 51.6884 303.453C62.6232 302.52 74.4351 299.441 84.3063 294.711L84.1875 293.547L79.9686 225.497C79.7874 223.081 79.047 219.67 80.7539 217.688L81.4335 217.789C81.6868 218.203 81.7629 218.294 81.9585 218.812C82.999 221.571 83.564 225.184 83.95 228.107L85.9452 249.679L88.4908 276.213L89.268 283.352C89.4221 284.436 89.9055 285.973 89.3961 286.994C89.0815 287.624 88.6094 288.234 88.4643 288.938C88.2404 290.024 88.4626 291.456 89.0625 292.378C90.7633 291.676 91.974 290.44 93.3236 289.227C93.4799 289.039 95.175 287.043 95.1721 287.006C95.1417 286.616 94.6431 286.43 94.3803 286.14C93.0732 284.701 91.3973 283.201 91.5876 281.062C91.6803 280.02 92.0786 279.524 92.8125 278.846C95.6427 278.996 98.3312 282.193 100.333 283.998C99.0364 286.235 98.0426 288.681 96.6224 290.837C93.0097 296.324 86.6305 300.109 80.6735 302.51C73.2101 305.519 65.031 306.97 57.0668 307.76C51.4838 308.315 46.0226 308.616 40.4443 307.711C38.2589 307.356 35.6344 306.935 33.6206 305.989L33 305.68L31.758 306.218C30.0089 306.085 28.1953 305.951 26.9073 304.592C26.0861 303.725 25.8996 303.23 25.8911 302.062C31.8047 295.399 39.3421 288.18 46.9795 283.581C46.7765 285.241 46.6137 288.762 45.6248 290.067C44.5563 291.478 41.674 293.052 40.1716 294.188C37.4731 296.229 34.9066 298.322 32.5038 300.713L47.1809 302.79L53.0435 240.748L54.0942 222.879C54.2526 220.351 54.003 216.55 55.1531 214.312Z"/>
	<path fill="#191718" transform="scale(0.666667 0.666667)" d="M340.42 266.438C341.095 266.283 341.646 266.115 342.334 266.369C344.01 266.988 345.814 268.559 347.448 269.438C351.159 271.435 355.234 273.134 359.168 274.631C364.72 276.743 370.648 278.438 376.548 279.188C383.77 280.105 390.053 279.77 397.041 277.731C399.409 277.041 401.849 276.179 404.062 275.091C405.647 274.313 407.782 272.615 409.5 272.351C409.76 272.311 410.632 272.535 410.812 272.595C411.731 272.904 412.74 274.195 413.053 275.075C413.463 276.228 413.22 277.254 412.579 278.269C411.306 280.283 409.283 281.044 407.116 281.67C405.054 282.266 398.747 292.176 396.808 294.688C394.964 297.078 393.033 299.381 390.874 301.494C387.049 305.237 383.234 307.865 378.295 309.918L373.566 311.164C366.1 312.514 357.655 310.957 351.463 306.465C349.844 305.291 349.21 304.399 348.859 302.438L349.5 301.534C351.953 301.329 356.149 304.495 358.645 305.596C362.122 307.13 365.555 308.039 369.402 307.828C374.234 307.564 378.33 306.201 381.593 302.564C380.322 301.641 378.424 301.283 376.916 300.892L369.375 298.896C364.759 297.536 360.181 295.534 356.282 292.687C350.125 288.191 344.486 280.522 343.336 272.853C343.106 271.319 339.769 270.702 338.892 268.875C339.21 267.443 339.383 267.381 340.42 266.438Z"/>
	<path fill="white" transform="scale(0.666667 0.666667)" d="M348.446 275.173L353.899 277.732C363.415 282.169 375.039 285.811 385.652 285.194C390.801 284.895 395.46 283.626 400.279 281.873C399.133 283.796 397.187 285.63 395.709 287.339C393.925 289.221 391.957 291.075 389.723 292.42C384.418 295.613 375.447 295.675 369.583 294.174C359.784 291.665 353.396 283.4 348.446 275.173Z"/>
	<path fill="#191718" transform="scale(0.666667 0.666667)" d="M317.852 243.938C319.001 243.736 319.69 243.696 320.625 244.545C321.269 245.13 321.339 245.462 321.384 246.27C321.512 248.567 320.978 251.049 320.591 253.316L317.512 268.44C315.379 279.468 314.643 291.269 315.691 302.476C316.964 316.098 321.799 331.022 332.747 339.909C345.314 350.111 363.611 354.44 379.5 352.832C387.016 352.071 394.506 350.107 401.625 347.622C410.163 344.643 418.782 340.738 426.277 335.64C440.386 326.044 452.258 312.051 460.525 297.224C463.522 291.848 465.933 286.141 468.533 280.565C469.694 278.077 470.988 274.58 472.792 272.507C473.552 271.633 473.657 271.618 474.75 271.568L475.45 272.438C475.629 274.18 475.345 275.533 474.904 277.216C470.286 293.808 459.783 310.175 448.491 322.987C430.486 343.416 404.582 355.992 377.329 357.62C358.772 358.729 341.16 355.619 326.937 342.795C314.357 331.451 310.268 314.572 309.522 298.29C308.886 284.39 310.599 270.655 313.4 257.064C314.274 252.822 314.862 247.217 317.852 243.938Z"/>
	<path fill="#191718" transform="scale(0.666667 0.666667)" d="M728.887 149.812L729.562 149.976C732.668 154.126 733.296 161.957 734.457 166.997L743.142 210.092L745.748 225.199C747.921 222.214 750.176 219.365 752.931 216.886C755.727 214.37 759.508 211.486 763.437 211.688C764.795 212.806 765.301 214.319 765.994 215.889C764.822 217.191 763.596 218.543 762 219.336C761.083 219.792 760.518 219.982 759.562 219.617C759.47 218.668 759.492 217.875 758.812 217.134C756.548 217.867 755.741 220.903 754.649 222.783C753.226 225.23 751.505 227.476 750.013 229.875C748.966 231.559 748.126 233.676 746.624 235.007C742.701 238.483 736.778 240.829 731.878 242.473C717.602 247.262 697.745 248.913 683.909 241.884C679.883 239.839 676.074 236.646 673.128 233.25C672.262 232.253 671.249 231.153 670.909 229.852C669.531 224.575 676.977 215.014 679.235 210.145C680.809 206.749 682.014 203.091 682.904 199.461C683.972 195.104 684.674 190.527 685.172 186.067L686.56 168.877C686.737 166.281 686.488 161.323 687.818 159.217C688.188 158.63 688.432 158.723 689.062 158.551C690.23 159.089 690.72 159.418 691.391 160.526C692.055 164.94 691.432 169.852 691.091 174.282C690.35 183.885 689.6 192.87 687.144 202.23C685.917 205.931 684.666 209.639 683.028 213.184C680.502 218.65 677.439 223.78 675.261 229.413C676.02 230.3 676.803 231.112 677.706 231.852C687.58 239.938 699.627 242.223 712.158 240.908C711.033 240.172 709.827 239.328 708.548 238.896C705.179 237.76 698.754 236.951 696.853 233.551C696.494 232.908 696.64 232.951 696.846 232.312C698.973 231.052 701.787 231.297 704.202 231.17C703.43 215.946 701.015 199.135 696.786 184.5C696.445 183.321 696.212 182.252 695.464 181.256C695.11 180.784 694.962 180.654 694.815 180.037C694.652 179.356 695.285 178.532 695.649 177.984C696.22 177.125 695.135 171.344 694.958 169.875L695.438 169.34L697.875 169.549C700.284 171.021 701.43 178.787 702.094 181.644C705.88 197.923 707.399 214.638 711.457 230.859C712.266 234.093 712.753 237.514 714.095 240.572C723.38 239.19 734.556 237.006 742.657 232.087C741.027 227.543 740.352 222.55 739.513 217.804L735.642 195.072L730.284 162.751C729.767 159.429 728.233 153.752 728.768 150.446L728.887 149.812Z"/>
	<path fill="#191718" transform="scale(0.666667 0.666667)" d="M359.125 24.4147C361.689 25.5477 364.507 26.2597 367.119 27.3391L431.204 50.9764L538.957 93.9218L558.46 102.088C562.499 103.841 567.286 105.684 570.653 108.551C563.479 112.203 555.05 114.517 547.295 116.603L527.911 121.553C525.208 122.289 517.778 124.887 515.438 123.625L514.923 121.875C516.902 118.786 531.588 115.249 535.688 113.982C539.398 112.836 543.214 111.559 546.791 110.053C548.356 109.394 549.762 108.395 551.159 107.441C542.872 102.928 534.538 98.9555 525.835 95.3161L417.566 52.9178L375.078 37.0596C371.87 35.7827 355.922 29.9339 354.831 27.9375C356.003 26.3847 357.529 25.4776 359.125 24.4147Z"/>
	<path fill="#191718" transform="scale(0.666667 0.666667)" d="M664.969 24.0599C669.836 23.7769 673.928 24.8821 678.322 26.9579C683.861 29.5743 689.041 33.2258 693.933 36.9019C710.085 49.0396 723.11 64.1598 729.857 83.454C734.836 97.6924 735.484 113.752 733.549 128.625C732.856 133.957 731.798 139.171 729.482 144.06C728.502 146.131 726.866 147.377 725.149 148.823C728.372 135.564 729.75 122.416 729.352 108.75C728.7 86.385 719.161 66.929 703.004 51.5973C695.389 44.3721 677.202 28.8794 666.152 29.536C664.523 29.6328 663.117 30.2122 662.087 31.5087C661.191 32.635 661.31 34.2666 661.474 35.625C661.673 37.2733 662.53 38.8659 663.322 40.3065C667.336 47.6029 674.659 51.4525 680.983 56.4661C686.171 60.5794 691.115 65.3081 695.368 70.3921C697.756 73.2468 700.007 76.0196 700.405 79.8665C700.809 83.7679 700.796 89.1342 698.102 92.2866C696.481 94.1841 694.336 95.0599 691.865 95.2027C690.976 95.254 690.909 95.1814 690.123 95.6822C690.093 96.958 690.163 98.3774 689.623 99.5625C688.937 101.072 686.772 102.636 685.239 103.146C680.923 104.584 677.224 103.373 673.313 101.517C672.98 102.649 672.535 104.091 671.781 105.014C670.258 106.88 666.782 107.892 664.417 108.075C657.343 108.623 650.449 99.5491 645.906 95.1926L636.569 87.0829C633.697 84.9487 628.024 80.4408 624.188 80.9765C622.86 81.1618 621.96 81.6595 621.137 82.6875C621.187 83.6273 621.334 84.515 621.655 85.4005C632.546 115.456 656.677 142.601 688.883 149.675C691.114 150.165 693.343 150.553 695.623 150.712C697.604 150.85 699.64 151.029 701.625 150.997C703.482 150.967 706.222 150.262 707.86 151.215C708.365 151.509 708.267 151.915 708.361 152.438C706.91 154.117 704.749 155.084 702.609 155.576C700.315 156.104 697.815 156.098 695.473 156.188C692.982 156.283 690.225 156.571 687.75 156.322C685.971 156.142 684.033 155.452 682.307 154.956C676.159 153.188 670.455 150.63 665.001 147.29C645.848 135.562 630.906 118.107 621.25 97.9611C619.51 94.3305 617.415 90.5568 616.48 86.6357C615.848 83.9828 615.286 81.9488 616.908 79.5C618.314 77.3773 620.621 76.3086 623.058 75.8926C635.239 73.8138 647.888 91.2964 657.033 97.5428C659.872 99.4823 663.353 100.627 666.808 99.8639C668.061 99.5875 668.692 98.9382 669.381 97.875C668.23 95.2722 664.378 92.4926 662.244 90.5336C656.379 85.1492 650.695 79.7302 645.379 73.7967C642.124 70.1628 638.492 66.1553 637.156 61.3513C636.487 58.9435 636.622 56.1807 637.984 54.0205C638.902 52.5654 640.488 51.3751 642.188 51.0335C646.878 50.0909 652.838 54.4846 656.568 56.9294C658.313 53.4686 659.312 50.8953 663.131 49.4428L663.68 49.2372C661.646 46.8642 659.786 44.0563 658.467 41.218C657.052 38.1712 656.073 34.1821 657.37 30.9375C658.786 27.3978 661.609 25.4599 664.969 24.0599Z"/>
	<path fill="white" transform="scale(0.666667 0.666667)" d="M643.062 55.6875C644.201 55.398 645.301 55.401 646.427 55.7693C653.891 58.2106 659.266 66.9223 663.952 72.7691C667.093 76.688 670.423 80.637 673.976 84.1883C675.959 86.17 678.054 88.1317 680.23 89.9023C681.817 91.1934 685.03 92.9463 685.893 94.6875C685.486 96.3206 685.343 96.649 684.188 97.8633C683.841 97.9773 683.677 98.0559 683.33 98.0925C679.864 98.459 673.964 94.4001 671.296 92.2502C661.765 84.5701 653.187 75.4367 645.859 65.6578C644.513 63.8619 641.553 60.4851 641.611 58.125C641.64 56.9314 642.314 56.4783 643.062 55.6875Z"/>
	<path fill="white" transform="scale(0.666667 0.666667)" d="M664.745 51.9632C672.963 57.3298 680.976 63.4745 687.898 70.45C690.879 73.4545 694.429 77.2888 695.524 81.4933C696.078 83.6217 695.737 86.6488 694.529 88.5C693.662 89.8293 693.201 89.9993 691.688 90.3121C687.011 89.2923 683.656 86.7315 680.116 83.6541C676.142 80.1993 660.263 63.5982 660.264 59.332C660.265 56.5467 662.999 53.8766 664.745 51.9632Z"/>
	<path fill="#191718" transform="scale(0.666667 0.666667)" d="M54.0651 80.3472C56.7487 80.0098 58.7396 79.896 61.1651 81.2737C66.4826 84.294 68.5414 89.9142 70.0097 95.458C72.0447 92.2527 74.6254 89.8432 77.7761 87.7645C80.6774 85.8503 84.2033 83.9881 87.8016 84.8908C92.7439 86.1307 95.4894 92.3528 96.2769 96.9375C96.4929 98.1952 96.2718 99.7941 96.9375 100.867C97.38 100.714 97.7807 100.576 98.25 100.526C100.711 100.262 102.554 100.549 104.46 102.163C108.497 105.582 109.3 110.877 109.81 115.812C111.934 113.698 114.472 111.177 117.562 110.688C120.631 110.203 126.53 110.585 129.033 112.441C132.3 114.863 133.291 119.417 133.91 123.188C135.145 130.707 133.969 139.174 132.777 146.625C130.104 163.343 125.934 182.203 115.822 196.125C107.464 207.632 94.6082 213.578 80.8125 215.748C79.8423 215.419 79.8469 215.362 79.2765 214.5C79.9712 213.341 82.2173 212.994 83.5429 212.553C86.4546 211.583 89.3022 210.539 92.0666 209.197C98.2043 206.217 104.249 201.605 108.939 196.672C114.925 190.375 117.91 181.765 120.549 173.654C125.661 157.944 128.85 142.892 128.252 126.266C128.15 123.438 127.714 118.559 125.438 116.6C124.219 115.552 122.86 115.278 121.285 115.492C119.685 115.711 118.068 116.898 117.562 118.442C116.576 121.451 117.105 125.771 117.019 128.951C116.798 137.202 112 146.635 107.399 153.232L99.7212 161.438C96.3947 164.373 92.7086 166.245 88.145 165.717C85.3488 165.394 82.8274 162.752 81.2496 160.625L80.9651 160.235C79.2104 161.19 77.4012 162.103 75.4513 162.592C73.4996 163.081 71.0194 162.852 69.287 161.812C67.2098 160.566 66.1931 159.133 65.5856 156.806L65.4689 156.333L61.3574 158.77C59.1205 159.801 55.9368 160.063 53.6419 159.087C50.4332 157.723 47.7844 154.221 46.6849 151C44.1253 143.503 47.2578 137.27 50.612 130.754C48.8536 125.834 44.9088 118.113 40.9328 114.661C40.0635 113.906 39.2286 113.648 38.0738 113.807C35.6169 114.145 33.5982 116.315 32.1376 118.189C28.1842 123.259 28.6544 127.952 29.4031 133.973C31.3942 149.988 34.0776 166.623 39.4066 181.875C42.058 189.463 45.2878 196.871 50.9918 202.688C53.2497 204.99 55.8733 207.233 58.699 208.801C60.8948 210.02 63.2155 210.879 65.2091 212.438C65.012 212.757 65.0175 212.791 64.6875 213.079C63.1957 214.385 60.7663 214.414 58.9381 214.078C52.1969 212.837 46.6591 206.212 42.9326 200.855C38.8753 195.022 36.1652 189.014 33.9001 182.28C29.7516 169.947 28.0774 156.84 25.9929 144.043C24.979 137.818 22.8324 130.808 24.0112 124.5C25.0849 118.755 28.3695 112.904 33.3198 109.648C34.7004 108.74 37.0905 107.57 38.8125 108.03C39.5107 108.216 40.0304 108.769 40.8147 108.938C40.3298 102.743 41.0111 97.4242 43.4271 91.6553C45.6536 86.3384 48.6366 82.5779 54.0651 80.3472Z"/>
	<path fill="white" transform="scale(0.666667 0.666667)" d="M107.744 129.188L108.52 129.152C109.187 130.152 109.547 130.972 109.635 132.188C110.159 139.466 104.429 149.078 99.6705 154.304C96.8838 157.365 92.9611 160.733 88.6875 160.928C87.6165 160.37 87.188 159.777 86.5319 158.812C86.7724 157.714 88.1127 156.83 88.9491 156.102C90.7714 154.516 92.5449 152.982 94.1068 151.128C97.3838 147.238 100.078 142.983 102.533 138.538C104.15 135.611 105.415 131.54 107.744 129.188Z"/>
	<path fill="white" transform="scale(0.666667 0.666667)" d="M84.2 90.0201C85.0392 89.9513 85.762 89.9925 86.5966 90.1009C90.2201 93.2331 90.8141 97.7371 91.6931 102.203C90.3147 106.71 87.486 110.552 85.106 114.562C84.4949 115.592 84.0151 117.033 83.0625 117.735L82.3353 115.218C80.5882 110.737 77.4057 105.462 72.9173 103.333L72.4825 103.137C74.5891 97.0385 78.4337 92.9269 84.2 90.0201Z"/>
	<path fill="white" transform="scale(0.666667 0.666667)" d="M57.5401 84.9375L58.1415 84.9788C59.5382 85.288 60.5301 86.6109 61.1693 87.7965C63.0782 91.3373 63.7536 95.6368 64.9965 99.4377C65.167 99.9591 66.2021 102.369 66.1196 102.777C66.1173 102.788 61.3542 108.189 60.6891 109.314C57.7149 114.344 55.8622 120.038 54.0389 125.557L49.2896 115.901C48.0567 113.652 46.2831 111.245 45.6885 108.727C44.3595 103.097 46.7606 95.0728 49.9455 90.375C51.9024 87.4886 54.0671 85.5552 57.5401 84.9375Z"/>
	<path fill="white" transform="scale(0.666667 0.666667)" d="M68.3952 109.312C69.1685 109.097 69.8337 109.077 70.6201 109.219C72.4774 109.554 73.9997 111.28 75.0203 112.743C78.5654 117.825 79.1303 124.167 77.7637 130.129C77.3557 131.909 76.0281 133.841 75.1079 135.413C71.354 141.828 66.3178 149.311 60.0836 153.441C58.4578 154.101 57.119 154.732 55.4142 153.976C53.6004 153.17 52.3736 150.931 51.6872 149.169C50.9534 147.285 50.7024 145.291 51.1608 143.307C52.093 139.274 54.5538 136.073 56.1952 132.362L61.2574 119.465C62.6869 116.132 64.876 110.733 68.3952 109.312Z"/>
	<path fill="white" transform="scale(0.666667 0.666667)" d="M98.8744 105.188L100.312 105.051C102.865 107.068 103.973 110.219 104.623 113.312L104.761 113.989C105.595 117.744 103.713 123.05 102.349 126.628C98.7331 136.116 93.8702 146.418 85.276 152.348C82.308 154.395 78.9047 155.824 75.62 157.283C74.4167 157.678 73.4509 157.814 72.1875 157.848C71.5135 157.467 71.0763 157.2 70.632 156.54C70.003 155.606 69.964 154.037 70.1922 152.975C70.6258 150.958 72.017 148.877 73.1022 147.14L79.6729 136.958C84.8022 128.084 88.6715 118.922 94.5967 110.461C95.8869 108.619 97.0093 106.496 98.8744 105.188Z"/>
	<path fill="#191718" transform="scale(0.666667 0.666667)" d="M458.95 336.563C460.58 336.101 462.942 336.217 464.568 336.722C472.083 339.053 481.047 348.955 484.551 355.771C486.683 359.917 488.57 364.519 489.713 369.043C490.084 370.515 490.521 372.319 490.04 373.787L488.438 374.358L488.4 374.812C491.544 376.054 494.278 379.632 496.883 381.82C498.638 383.295 500.612 384.472 502.577 385.641C503.862 385.022 505.063 384.376 506.515 384.294C507.374 384.246 507.355 384.264 507.99 384.818L507.982 385.256C507.705 387.718 504.448 390.231 502.666 391.79C501.016 391.151 499.166 390.563 497.65 389.652C494.107 387.521 491.472 384.276 488.87 381.143C487.912 379.99 486.897 378.461 485.586 377.719C484.461 377.082 483.371 377.422 482.209 377.754C468.505 381.668 459.356 393.706 452.959 405.774C450.353 410.69 448.035 415.569 446.812 421.029C443.536 435.657 443.755 451.239 444.449 466.133C445.852 496.222 450.384 526.398 456.431 555.883L467.506 604.67L479.03 657.518C480 661.404 486.583 684.236 485.625 685.928C484.352 685.803 483.549 685.237 482.751 684.198C480.434 681.184 479.392 676.44 478.25 672.847C473.062 656.524 469.58 639.714 465.958 622.99L459.644 595.122L453.03 568.429C447.718 544.157 443.787 519.482 441.045 494.798C438.425 471.212 436.222 445.942 440.269 422.416L408.573 436.514C408.155 440.315 407.2 444.039 406.661 447.826L402.478 482.012L400.49 523.937C399.497 553.027 399.066 582.003 401.967 611.012C403.257 623.909 405.525 636.669 407.835 649.412L410.982 665.996C411.887 670.53 415.394 682.267 413.812 686.04L413.062 686.319C412.511 686.119 412.046 685.92 411.631 685.486C407.551 681.224 405.76 667.867 404.594 661.975C400.747 642.532 397.574 622.724 395.62 602.988L394.211 576.517L394.529 516.562L396.789 482.586L398.452 460.704C398.931 455.437 399.357 449.941 400.804 444.838C401.644 441.876 402.57 440.201 404.678 437.983C397.436 440.031 390.846 442.229 383.25 442.806C368.997 443.888 352.069 441.929 339.382 434.904C335.685 432.856 332.403 430.085 329.223 427.33L312.155 486.734L303.092 516.658C298.877 533.505 296.214 550.788 293.583 567.938L286.64 622.5C284.991 641.499 283.935 660.34 284.6 679.422L285.007 687.126C285.11 688.495 285.419 689.83 284.812 691.113L283.688 691.309C283.368 691.041 283.244 690.977 283.014 690.562C282.376 689.412 282.082 687.325 281.752 686.028C279.303 676.392 278.797 666.688 278.602 656.789C278.245 638.696 279.161 620.047 281.238 602.062L284.668 578.67C287.74 558.475 291.619 537.987 297.104 518.3L315.544 459.639L321.919 432.714C322.905 428.459 323.713 424.002 325.172 419.886C325.45 419.104 324.373 418.254 323.865 417.614C319.391 411.98 315.805 406.735 314.438 399.588C313.42 394.27 316.236 387.735 318.985 383.156C322.506 377.292 327.769 372.191 333.035 367.915C336.219 365.329 340.156 362.56 344.254 361.739C346.137 361.362 347.687 361.28 349.312 362.371C349.351 363.481 349.065 363.49 348.217 364.223C346.27 365.903 343.856 367.246 341.742 368.736C336.154 372.674 330.849 377.044 326.604 382.443C322.678 387.435 319.695 394.106 320.603 400.57C321.044 403.713 321.683 405.831 324.334 407.761C325.131 407.411 324.902 407.705 325.084 406.84C325.647 404.172 325.677 401.305 326.122 398.591C327.069 392.82 329.356 387.169 333.475 382.921C337.664 378.601 342.513 376.107 348.577 375.961L349.492 370.97C349.918 369.212 350.392 368.358 351.938 367.426L352.688 367.629C353.054 370.822 352.511 373.756 353.183 377.035C354.481 383.363 358.54 390.278 364.089 393.746C370.698 397.876 382.124 399.315 389.613 397.512C402.973 394.296 412.909 383.707 421.529 373.661C428.857 365.122 435.275 356.476 441.418 347.062C442.092 346.029 442.575 344.905 443.812 344.64C444.675 345.348 445.189 345.811 445.639 346.875C445.471 350.893 443.306 354.254 441.282 357.613C435.983 366.405 429.469 374.37 422.361 381.751C410.269 394.307 395.925 407.776 377.458 407.981C371.549 408.046 366.873 406.954 362.566 402.615C361.011 401.048 359.493 399.245 359.553 396.925L359.575 396.562C357.985 394.7 356.265 392.818 354.9 390.784C353.428 388.59 352.326 385.906 350.398 384.056C348.829 382.551 347.242 382.002 345.083 382.067C341.535 382.173 338.719 384.902 336.467 387.39C327.596 397.193 329.863 409.871 330.461 421.899C335.269 425.165 342.132 431.77 348.335 431.515C348.944 430.347 347.259 427.588 346.744 426.277C344.436 420.401 343.536 413.944 343.962 407.664C344.307 402.583 345.39 395.261 349.432 391.76C350.485 391.608 350.547 391.544 351.46 392.062C351.208 393.629 350.303 395.183 349.754 396.675C348.499 400.091 347.631 403.994 347.341 407.625C346.753 414.975 348.588 423.762 353.525 429.466C358.052 434.696 364.128 437.604 371.024 438.017C383.205 438.747 394.494 436.496 405.539 431.377C415.593 426.716 425.674 418.992 432.506 410.279C440.177 400.496 445.73 388.786 452.22 378.183C456.678 370.9 461.251 364.224 467.683 358.51C469.231 357.135 471.739 354.952 473.778 354.567C475.2 354.298 476.935 354.54 478.381 354.635C475.814 350.091 471.959 345.999 467.755 342.928C466.394 341.934 464.942 341.01 463.407 340.312C461.635 339.507 458.881 339.125 457.974 337.312L458.95 336.563Z"/>
	<path fill="#252324" transform="scale(0.666667 0.666667)" d="M761.887 246.938L762.732 246.994C762.967 247.382 763.094 247.545 763.247 247.946C763.718 249.189 763.519 250.875 763.447 252.2L762.51 262.401C759.165 292.649 751.962 322.747 738.173 350.041C718.3 389.381 681.998 413.59 642.971 431.34L583.152 455.687L565.038 463.375L544.101 471.786C536.024 475.223 528.201 479.274 519.845 482.03C518.066 480.932 516.461 478.131 515.209 476.409C510.504 469.941 505.989 463.397 502.45 456.197C494.85 440.734 494.079 422.208 496.005 405.375C496.403 401.898 496.711 397.764 498.011 394.5C498.451 393.397 498.832 393.094 499.875 392.598C501.465 393.605 500.121 396.202 501.467 397.688C504.145 397.586 507.727 395.348 510.47 394.629L535.053 388.695C546.122 385.652 556.613 381.463 566.958 376.524C587.851 366.04 607.65 352.374 623.747 335.357C626.518 332.428 629.874 329.199 631.896 325.701L613.569 340.92C593.09 356.477 569.898 369.17 545.812 378.167L522.389 385.627C522.576 385.008 523.532 384.287 524.024 383.822C530.466 377.738 540.36 375.226 548.479 372.036L560.329 367.053C567.156 363.968 573.73 360.313 580.257 356.646C607.809 341.163 634.511 319.85 651.124 292.65C654.261 287.514 656.95 282.261 659.25 276.696L662.59 267.737C663.065 266.357 663.581 263.976 664.438 262.869C665.07 262.053 665.874 262.281 666.75 262.584C668.491 263.186 670.262 264.597 671.779 265.615L679.937 270.795C691.606 277.583 705.614 281.37 719.098 279.216C733.423 276.927 747.109 268.439 755.812 256.92C758.128 253.854 759.425 250.247 761.68 247.207L761.887 246.938Z"/>
	<path fill="#252324" transform="scale(0.666667 0.666667)" d="M366.957 42.9618L367.882 43.4971C371.043 45.2257 373.764 48.3728 377.215 49.3355C392.177 53.5086 406.933 59.173 421.629 64.229L496.503 90.5557L524.361 100.624C529.095 102.276 534.273 103.552 538.813 105.632C540.266 106.298 541.525 107.342 542.764 108.337C533.457 107.671 524.743 104.435 515.991 101.438L476.237 87.1554L429.735 71.0314L377.111 52.2463C378.892 56.0637 380.855 59.8528 384.037 62.699C389.062 67.193 397.014 70.3598 403.043 73.4527L434.351 89.1267L474.346 106.396L494.024 114.991C498.509 116.876 503.291 118.508 507.615 120.716C509.433 121.645 510.361 122.806 511.637 124.368C514.533 127.915 514.456 133.532 515.126 137.967C517.11 151.106 520.308 164.387 530.026 174.07C531.866 175.904 534.016 177.8 536.3 179.062C537.938 179.967 539.577 180.509 541.066 181.688C541.548 182.687 541.774 183.022 541.577 184.162C541.05 187.217 537.759 189.838 536.062 192.301C534.838 194.078 533.954 196.142 532.841 198C530.287 202.262 527.114 205.968 522.934 208.707C520.855 210.07 514.958 213.344 512.517 212.635C508.306 211.411 503.99 207.932 499.988 205.975C485.721 198.995 470.003 192.36 459.339 180.06C456.452 176.731 454.006 172.623 451.916 168.755C445.113 156.168 441.705 138.927 445.834 124.945L444.809 124.384C439.946 121.755 433.289 118.719 427.643 119.461C418.531 120.659 411.172 127.688 404.381 133.255C399.731 137.067 395.046 140.855 390.098 144.276C378.403 152.363 365.402 159.911 351.711 163.984C353.021 164.115 354.268 164.354 355.531 164.734C358.823 165.725 363.458 167.708 364.972 171C365.396 171.923 365.281 172.378 364.948 173.293C364.536 173.615 364.106 174.13 363.558 174.156C362.403 174.211 360.614 173.078 359.544 172.587C355.515 170.738 349.839 168.562 345.399 169.939L345.506 170.438C352.161 172.837 358.227 175.996 363.851 180.304C367.66 183.222 371.109 186.632 374.738 189.768L376.625 189.221C382.303 187.618 383.995 188.735 388.982 191.532C390.173 190.058 391.403 188.336 392.9 187.168C395.301 185.295 398.297 184.384 401.177 183.551C408.602 181.404 414.849 181.221 422.476 182.356C442.509 186.243 460.824 194.82 478.221 205.296L485.303 210.025C489.127 212.834 492.767 215.946 496.84 218.396C497.335 218.695 498.903 219.823 499.395 219.884C499.566 219.906 502.64 218.124 503.21 217.863C505.469 216.827 507.869 216.216 510.348 215.99C517.659 215.325 525.665 217.907 531.28 222.63C535.827 226.457 538.251 231.155 538.726 237.091C539.273 243.93 536.325 249.804 531.943 254.815C525.596 262.072 513.938 267.71 504.279 268.197C501.42 268.341 498.186 267.846 496.013 265.884C496.546 264.723 502.592 263.73 504.059 263.377C512.792 261.274 522.581 257.514 528.428 250.312C531.476 246.559 533.427 242.056 532.805 237.141C532.141 231.897 529.121 227.657 524.897 224.598C520.354 221.307 514.854 219.71 509.25 220.674C497.994 222.611 492.03 233.433 489.067 243.375C488.409 245.583 488.063 249.129 486.678 250.875C485.99 251.743 485.589 252.091 484.5 252.265C484.063 251.983 483.445 251.779 483.299 251.248C483.006 250.18 483.406 248.606 483.562 247.516C484.359 241.958 486.296 237.314 488.544 232.205L478.816 223.798C476.198 232.943 473.097 242.766 466.914 250.223C461.002 257.356 452.539 261.619 443.339 262.438C432.544 263.398 422.87 261.587 412.998 257.134C401.127 251.779 391.657 244.791 388.421 231.56C387.326 227.083 386.915 222.469 385.871 217.988C385.354 215.769 384.902 213.648 383.036 212.187C380.781 210.424 377.457 209.521 374.625 210.036C373.182 210.298 371.724 211.337 370.688 212.332C365.986 216.85 362.616 223.562 358.855 228.897L352.029 238.019C350.757 239.841 349.668 241.636 350.185 243.951C350.53 245.492 351.903 246.653 353.219 247.397C357.797 249.987 365.981 252.494 371.121 250.909C371.771 250.709 372.273 250.496 372.962 250.472C373.984 250.437 374.752 250.611 375.42 251.438C375.808 251.919 376.103 252.644 375.955 253.245C375.659 254.441 374.867 255.003 373.849 255.58C369.151 258.238 361.499 256.297 356.551 254.894C353.161 253.933 347.535 252.339 345.85 249.01C344.673 246.685 345.256 243.837 345.953 241.456L346.122 240.888C345.231 240.745 341.373 242.874 340.092 243.269C335.818 244.587 330.956 244.845 326.517 244.476C314.051 243.441 299.817 236.1 291.817 226.532C285.706 219.224 284.844 209.768 285.8 200.625C286.495 193.978 289.174 186.819 293.658 181.777C295.306 179.923 297.493 178.347 299.432 176.797C294.455 174.797 290.539 171.944 286.491 168.451C275.518 158.981 265.913 145.298 261.38 131.486C260.409 128.528 259.459 125.947 259.221 122.814L266.672 125.019C270.641 126.028 274.529 126.431 278.625 126.49C286.38 126.601 296.657 125.792 302.482 120.141C303.184 115.775 301.22 109.26 300.442 104.863C299.811 101.299 299.414 97.6782 299.166 94.0675C303.438 95.1333 307.656 96.4445 312.047 96.9479C326.32 98.5841 341.238 93.1997 352.289 84.4118C356.709 80.8968 360.192 76.1027 365.069 73.1909C370.012 70.2403 375.651 69.1763 381.018 67.2595L374.57 56.4336C371.873 51.9015 369.182 47.7658 366.957 42.9618Z"/>
	<path fill="white" transform="scale(0.666667 0.666667)" d="M475.207 209.062L475.585 208.986C479.142 208.814 485.814 216.34 488.561 218.653C490.568 220.343 492.798 221.834 494.936 223.354L491.778 226.333C491.171 226.773 490.998 226.861 490.312 227.034L481.403 219.474C479.97 218.472 479.576 218.599 477.938 218.841L477.92 218.438L478.955 218.062C479.389 216.444 475.919 211.049 475.207 209.062Z"/>
	<path fill="white" transform="scale(0.666667 0.666667)" d="M379.55 192.938C379.915 192.954 380.046 192.94 380.438 193.069C382.713 193.816 383.827 194.781 384.769 196.869L385.5 196.939C386.982 196.987 387.598 197.203 388.936 197.908C389.054 198.126 389.247 198.318 389.292 198.562C389.446 199.405 388.723 201.689 388.618 202.668C388.375 204.939 388.391 207.257 388.354 209.539C386.371 208.22 384.446 207.112 382.278 206.125C377.714 204.69 374.666 205.231 370.087 206.179C371.811 202.44 372.469 198.256 374.584 194.75C376.179 194.771 377.737 194.843 379.312 194.545C379.263 193.827 379.326 193.596 379.55 192.938Z"/>
	<path fill="white" transform="scale(0.666667 0.666667)" d="M303.789 178.312C306.284 177.52 308.063 179.793 311.062 178.062L311.558 178.312C311.687 180.468 312.499 184.359 311.062 186.013C310.446 185.551 309.784 185.193 309.006 185.088C308.159 184.973 307.303 185.355 306.677 185.881C304.42 187.777 303.104 191.942 302.167 194.639C299.44 202.498 297.402 210.038 296.773 218.353L297.131 223.441C295.783 221.555 294.417 219.597 293.56 217.433C289.723 207.744 292.423 194.729 298.082 186.192C299.609 183.888 302.647 181.336 303.579 178.904L303.789 178.312Z"/>
	<path fill="white" transform="scale(0.666667 0.666667)" d="M368.779 102.188L369.333 102.562C369.83 107.067 367.433 112.256 365.145 116.062C360.026 124.582 351.32 129.967 342.901 134.792C333.481 140.192 322.676 145.313 312.082 147.963C306.59 149.336 300.831 148.795 295.277 150.153C298.894 152.512 303.153 153.716 307.024 155.599C313.431 158.717 319.023 162.922 326.061 164.533C323.217 165.205 320.288 166.247 317.6 167.396C313.824 169.01 312.774 172.075 311.36 175.64C309.646 175.328 307.902 174.452 306.287 173.796C300.215 171.332 295.1 168.241 290.122 163.978C279.646 154.644 271.463 142.917 264.693 130.685C266.047 131.035 271.841 136.961 273.483 138.313C278.895 142.768 284.012 146.543 290.381 149.515C299.353 148.65 307.149 143.79 314.625 139.143L336.938 124.114L354.562 111.794C358.919 108.707 363.854 104.195 368.779 102.188Z"/>
	<path fill="white" transform="scale(0.666667 0.666667)" d="M364.973 201.628C365.62 203.786 358.528 218.302 357.047 221.113C352.602 229.554 346.717 236.175 337.353 238.963C328.199 241.687 316.924 237.413 308.937 233.002C305.415 231.057 302.295 228.492 301.234 224.419C300.166 220.321 301.151 215.381 302.025 211.308C303.92 202.485 306.623 193.824 311.197 186.007C312.207 190.027 313.57 193.859 315.368 197.595C316.941 200.865 321.025 209.152 324.668 210.141C325.934 210.485 326.487 210.049 327.562 209.488L327.726 208.688C325.77 206.718 324.475 204.153 323.211 201.712C319.926 195.368 317.481 188.278 316.898 181.115C316.666 178.277 317.108 175.394 319.075 173.198C321.105 170.933 325.124 170.572 327.983 170.355C332.192 170.037 335.553 171.878 339.39 173.431C343.638 175.15 348.1 176.743 352.125 178.935C358.524 182.42 364.04 187.204 369.546 191.918C369.344 193.089 368.314 194.291 367.774 195.375C366.838 197.255 366.197 199.236 365.098 201.038L364.934 201.299L364.973 201.628Z"/>
	<path fill="#191718" transform="scale(0.666667 0.666667)" d="M364.973 201.628C364.556 201.995 364.157 202.303 363.625 202.499C362.817 202.797 362.119 202.716 361.312 202.514C356.672 201.354 352.119 199.224 347.532 197.769C343.489 196.487 339.201 195.798 335.248 194.31C334.674 194.094 334.937 194.27 334.595 193.518C336.195 192.162 337.847 191.628 339.938 191.569C346.321 191.388 352.34 193.831 357.918 196.717C360.353 197.977 362.939 199.4 364.934 201.299L364.973 201.628Z"/>
	<path fill="white" transform="scale(0.666667 0.666667)" d="M410.318 187.643L415.125 187.54C428.854 187.835 460.34 197.872 469.775 208.112C471.113 209.564 472.242 211.459 472.863 213.339C473.413 215.005 472.94 217.201 474.215 218.467L474.562 218.788L474.254 218.93C473.839 219.166 473.205 219.76 473.017 220.202C472.679 221 472.662 222.598 472.502 223.5C472.081 225.871 471.497 228.181 470.739 230.466C467.398 240.539 463.577 248.951 453.78 253.89C443.712 258.209 432.352 257.752 422.005 254.619C412.186 251.646 400.363 245.567 395.44 236.097C392.818 231.051 392.159 224.989 391.794 219.396C391.599 216.4 391.365 213.219 392.372 210.328C392.941 208.696 392.889 206.998 393.101 205.292C393.499 202.097 394.041 199.087 395.091 196.035C395.534 194.744 395.936 193.135 396.796 192.074C399.587 188.632 406.23 188.082 410.318 187.643Z"/>
	<path fill="#191718" transform="scale(0.666667 0.666667)" d="M410.107 206.413L411.188 206.361C415.343 206.399 419.434 207.632 423.375 208.834C432.772 211.699 441.408 215.562 449.974 220.307C452.961 221.961 456.761 223.875 459.188 226.262C458.93 227.217 458.221 227.62 457.474 228.188C456.16 228.11 454.931 227.518 453.717 227.04C444.986 222.663 436.318 218.261 426.952 215.386L410.492 210.538C407.652 209.725 404.492 209.221 401.795 208.012C404.644 207.049 407.104 206.567 410.107 206.413Z"/>
	<path fill="#252324" transform="scale(0.666667 0.666667)" d="M111.016 326.812C113.388 326.488 115.303 331.793 116.373 333.731C127.743 354.321 144.147 370.796 163.311 384.22C193.269 405.205 227.191 417.582 262.816 425.029L277.839 427.574C284.723 428.504 290.398 428.999 296.844 431.848L302.987 411.562C303.88 408.738 304.777 403.653 307.312 401.983C308.15 401.431 309.148 401.161 310.125 401.546C311.759 402.189 310.007 406.248 309.646 407.597L291.975 464.963L278.246 509.792L271.466 540.297C269.637 549.564 267.748 558.812 266.933 568.24C264.736 593.656 267.081 619.267 270.365 644.461C272.697 662.35 274.943 681.499 281.348 698.438L280.875 698.939C280.115 698.83 279.508 698.711 278.878 698.243C271.144 692.501 266.065 654.547 264.498 644.346C262.138 628.227 260.104 611.674 260.015 595.362C259.885 571.29 263.966 547.173 269.196 523.768C270.972 515.818 272.279 507.742 274.579 499.923C268.801 501.363 264.74 504.714 258.398 504.183C257.133 504.077 256.226 503.898 255.379 502.875C255.969 501.405 257.103 501.932 257.902 500.812L204.687 499.123L115.334 495.648L98.9119 494.616C92.3302 494.237 85.5237 493.881 79.2188 491.815C75.2728 490.522 71.5611 488.198 68.1056 485.931C50.0373 474.075 37.2714 455.601 27.7419 436.569C21.6657 424.433 16.6242 410.506 13.9166 397.211C11.0044 382.913 10.2725 368.152 10.6753 353.596C10.8926 345.744 10.9329 337.885 13.435 330.365C16.2432 332.592 18.5765 335.454 21.0411 338.053C27.5542 344.92 35.0042 349.743 44.178 352.292C61.0465 356.979 81.3904 353.251 96.3206 344.453C103.723 340.09 108.81 335.233 111.016 326.812Z"/>
</svg>
