<?xml version="1.0" encoding="utf-8" ?>
<svg xmlns="http://www.w3.org/2000/svg" xmlns:xlink="http://www.w3.org/1999/xlink" width="512" height="512">
	<path fill="white" transform="scale(0.666667 0.666667)" d="M-0 -0L768 0L768 768L-0 768L0 -0Z"/>
	<path fill="#8B8A8A" transform="scale(0.666667 0.666667)" d="M142.626 359.062C143.482 358.772 143.554 358.809 144.43 359.062C145.103 359.992 145.402 360.123 145.312 361.299L144.188 362.233C143.399 362.455 143.263 362.421 142.5 362.245C141.558 361.369 141.538 361.461 141.467 360.188L142.626 359.062Z"/>
	<path fill="#8B8A8A" transform="scale(0.666667 0.666667)" d="M151.624 272.438L153.188 272.29C154.274 273.029 154.848 273.519 155.469 274.688C155.28 276.107 154.902 276.631 153.938 277.671C152.794 278.213 152.882 278.228 151.688 277.824C150.914 276.888 150.486 276.554 150.421 275.25C150.363 274.091 150.891 273.257 151.624 272.438Z"/>
	<path fill="#8B8A8A" transform="scale(0.666667 0.666667)" d="M662.257 412.688C663.426 412.268 663.895 412.306 665.062 412.556C665.921 413.382 666.291 413.73 666.57 414.938C666.047 416.315 665.774 416.514 664.688 417.429C663.869 417.83 663.112 417.659 662.242 417.562C660.988 416.749 660.986 416.73 660.504 415.312C660.882 413.764 661.008 413.701 662.257 412.688Z"/>
	<path fill="#2A2929" transform="scale(0.666667 0.666667)" d="M203.038 639.562C203.35 639.488 203.479 639.439 203.834 639.452C204.873 639.49 205.944 639.872 206.629 640.688C207.484 641.704 207.363 642.463 207.335 643.688C206.461 644.759 205.811 645.223 204.562 645.806C204.186 645.92 203.841 646.047 203.438 646.053C202.479 646.067 201.283 645.325 200.722 644.55C200.01 643.566 200.196 642.77 200.364 641.66C201.203 640.545 201.75 640.112 203.038 639.562Z"/>
	<path fill="#8B8A8A" transform="scale(0.666667 0.666667)" d="M593.544 213.027C594.344 213.133 594.839 213.347 595.544 213.734C595.697 214.165 595.805 214.384 595.827 214.875C595.876 215.963 595.26 216.897 594.548 217.635C593.278 218.95 591.807 219.138 590.062 219.215C588.701 218.805 588.081 218.486 587.242 217.312L587.438 216.206C589.289 214.345 591.076 213.677 593.544 213.027Z"/>
	<path fill="#8B8A8A" transform="scale(0.666667 0.666667)" d="M131.951 459.938C132.413 459.825 132.832 459.711 133.312 459.769C134.524 459.915 136.381 460.692 137.062 461.774C137.677 462.75 137.524 463.03 137.253 464.062C136.331 465.064 135.717 465.516 134.438 465.995L133.416 466.064C132.008 466.06 130.355 465.754 129.406 464.625C128.801 463.905 128.817 463.251 128.898 462.37C129.852 461.248 130.625 460.584 131.951 459.938Z"/>
	<path fill="#2A2929" transform="scale(0.666667 0.666667)" d="M252.764 583.312C253.28 583.234 253.737 583.184 254.251 583.315C255.181 583.552 256.071 584.123 256.52 585C257.051 586.038 256.73 586.782 256.45 587.812C255.246 589.154 254.272 589.774 252.6 590.438C252.175 590.412 251.849 590.333 251.466 590.142C250.434 589.628 249.368 588.841 249.035 587.685C248.813 586.915 248.705 586.428 249.137 585.722C249.881 584.506 251.452 583.721 252.764 583.312Z"/>
	<path fill="#8B8A8A" transform="scale(0.666667 0.666667)" d="M523.234 58.3125C523.973 57.9795 524.657 57.9902 525.448 58.0981C526.953 58.3034 528.554 59.3795 529.455 60.5826C530.23 61.617 530.792 62.9265 530.492 64.2305C530.327 64.9432 529.716 65.0753 529.135 65.4375C527.321 65.6071 525.53 65.3153 524.055 64.1615C522.756 63.1446 521.909 62.2122 521.666 60.5625C521.892 59.5172 522.501 59.0261 523.234 58.3125Z"/>
	<path fill="#2A2929" transform="scale(0.666667 0.666667)" d="M49.017 504.562L49.1908 504.543C53.8628 504.099 55.466 509.711 58.5058 511.881C59.6899 512.727 61.3044 512.096 62.5398 513.079C62.5905 514.462 62.3768 514.662 61.6912 515.812C60.7385 516.347 59.9947 516.513 58.8984 516.324C55.5244 515.743 51.6525 510.929 49.8888 508.163C49.0554 506.855 48.6679 506.047 49.017 504.562Z"/>
	<path fill="#2A2929" transform="scale(0.666667 0.666667)" d="M165.147 507.562L165.918 507.5C166.678 507.861 167.6 508.217 168.135 508.889C168.707 509.606 168.739 509.906 168.6 510.781C168.294 512.715 167.164 514.022 165.54 515.086C162.125 517.323 157.417 516.33 153.67 515.668L150.383 514.312C149.68 513.384 149.505 513.406 149.644 512.271C152.368 510.646 157.726 511.37 160.96 510.953C163.376 510.642 163.7 509.43 165.147 507.562Z"/>
	<path fill="#8B8A8A" transform="scale(0.666667 0.666667)" d="M674.274 268.515C676.26 268.504 678.191 268.508 680.119 269.05C682.172 269.628 684.382 270.931 685.342 272.922C685.963 274.21 685.961 275.424 685.525 276.75C684.46 277.879 684.142 277.877 682.688 278.244C679.484 277.805 675.725 276.309 673.186 274.273C671.943 273.276 671.083 272.34 670.925 270.75C671.935 269.704 672.983 269.167 674.274 268.515Z"/>
	<path fill="#2A2929" transform="scale(0.666667 0.666667)" d="M513.503 606.188L513.813 606.029C515.041 605.583 516.62 606.106 517.77 606.577C521.259 608.001 524.145 610.678 527.396 612.534C529.648 613.82 532.282 614.477 534.501 615.803C535.264 616.258 535.815 616.579 536.155 617.438L535.312 618.341C534.835 618.563 534.787 618.612 534.188 618.735C528.461 619.91 519.98 613.686 515.398 610.497C514.274 609.715 512.872 608.73 512.619 607.312L513.503 606.188Z"/>
	<path fill="#2A2929" transform="scale(0.666667 0.666667)" d="M598.652 235.544L602.25 235.533C603.692 236.433 604.366 237.305 604.863 238.95C605.376 240.651 605.377 242.172 604.484 243.75C603.428 245.615 601.796 246.291 599.812 246.788C599.186 246.829 598.6 246.778 597.984 246.666C596.187 246.337 594.218 245.169 593.333 243.506C592.746 242.402 592.562 240.974 593.045 239.795C594.003 237.463 596.505 236.485 598.652 235.544Z"/>
	<path fill="white" transform="scale(0.666667 0.666667)" d="M597.301 240.188C598.674 239.768 599.314 239.882 600.562 240.468C601.225 241.305 601.758 242.036 601.502 243.188C601.244 244.351 600.727 244.559 599.812 245.189C598.864 245.291 598.227 245.201 597.31 245.006C596.269 244.141 596.015 243.73 595.613 242.438C595.983 241.121 596.275 241.029 597.301 240.188Z"/>
	<path fill="#2A2929" transform="scale(0.666667 0.666667)" d="M106.491 410.684C107.843 410.535 109.629 410.404 110.918 410.836C112.195 411.264 113.599 412.491 114.177 413.698C114.945 415.302 114.896 417.186 114.272 418.831C113.73 420.261 111.76 421.374 110.438 421.959C110.155 422.078 110 422.166 109.664 422.18C107.734 422.258 104.152 420.764 103.037 419.219C102.149 417.989 102.082 416.739 102.428 415.312C102.981 413.032 104.585 411.847 106.491 410.684Z"/>
	<path fill="white" transform="scale(0.666667 0.666667)" d="M107.65 414.938C109.199 414.758 109.415 414.796 110.812 415.487C111.594 416.602 111.741 416.699 111.741 418.125C111.016 419.156 110.519 419.559 109.425 420.188C108.234 420.515 106.966 420.515 105.897 419.814C105.493 419.548 105.512 419.553 105.492 419.044C105.425 417.291 106.448 416.068 107.65 414.938Z"/>
	<path fill="#2A2929" transform="scale(0.666667 0.666667)" d="M701.544 355.312C702.132 355.262 702.528 355.433 703.086 355.604C703.665 356.127 704.286 356.584 704.526 357.357C704.802 358.247 704.134 359.673 703.747 360.458C701.114 365.806 695.966 371.841 690.188 373.849C689.572 373.865 688.975 373.763 688.365 373.688C687.247 372.871 687.257 372.982 687.04 371.625C688.029 369.343 691.475 367.509 693.23 365.653C696.275 362.434 698.181 358.257 701.544 355.312Z"/>
	<path fill="#8B8A8A" transform="scale(0.666667 0.666667)" d="M372.644 652.242C373.832 652.349 375.197 652.4 376.312 652.85C379.096 653.975 381.017 656.259 382.13 658.993C383.044 661.24 384.036 664.612 382.924 666.926C382.232 668.364 381.141 668.953 379.688 669.426C378.216 669.492 376.878 669.429 375.493 668.873C373.807 668.195 372.743 667.085 372.061 665.405C371.046 662.906 370.543 659.956 369.815 657.336C369.649 656.739 369.063 655.312 369.098 654.75C369.12 654.407 369.385 654.125 369.528 653.812C370.568 653.029 371.406 652.635 372.644 652.242Z"/>
	<path fill="#8B8A8A" transform="scale(0.666667 0.666667)" d="M36.6813 369.562C37.6425 369.257 38.6352 369.266 39.6331 369.362C42.8206 369.665 45.9901 372.986 47.8147 375.482C49.2521 377.448 50.1687 380.042 49.3845 382.49C48.8455 384.173 46.9689 384.871 45.473 385.37C43.9572 385.445 42.344 385.343 40.8568 385.037C37.7796 384.405 35.5734 382.789 33.9198 380.136C32.7126 378.199 32.2579 375.946 32.8948 373.718C33.4933 371.625 34.8017 370.506 36.6813 369.562Z"/>
	<path fill="#2A2929" transform="scale(0.666667 0.666667)" d="M257.285 640.16C257.445 639.444 257.407 639.732 257.465 639.028L257.707 636.304C257.939 634.29 258.391 632.396 260.036 631.097C261.13 632.676 261.593 634.09 261.9 635.988C262.791 641.486 262.529 647.322 262.699 652.882C262.928 660.369 264.063 668.944 262.59 676.264C262.419 677.111 262.15 677.589 261.537 678.188L260.438 678.371C257.586 675.667 257.381 670.768 257.276 667.039L256.599 645.765L257.285 640.16Z"/>
	<path fill="#8B8A8A" transform="scale(0.666667 0.666667)" d="M60.8098 355.262C64.3636 355.413 67.5328 355.691 70.7608 357.339C73.3468 358.66 76.3252 361.202 77.1109 364.104C77.3972 365.161 77.4551 366.743 76.9171 367.711C75.911 369.522 73.9122 369.957 72.0751 370.498C68.8961 370.539 65.9812 370.279 63.0796 368.861C59.9711 367.342 56.6213 364.572 55.5138 361.174C55.1385 360.022 54.9519 358.869 55.5869 357.767C56.5985 356.011 59 355.527 60.8098 355.262Z"/>
	<path fill="#D1D0D1" transform="scale(0.666667 0.666667)" d="M161.131 578.826L161.545 579.039C165.635 581.195 168.715 584.648 172.404 587.362C179.124 592.305 186.533 596.705 194.062 600.278C201.898 603.997 209.863 607.146 218.194 609.593C224.89 611.56 232.785 613.12 239.127 616.016L238.072 616.688C234.871 616.792 231.667 616.302 228.505 615.854C216.268 614.118 203.896 609.26 193.028 603.478C183.936 598.641 174.631 592.606 166.908 585.784C164.791 583.915 161.98 581.595 161.131 578.826Z"/>
	<path fill="#2A2929" transform="scale(0.666667 0.666667)" d="M615.914 263.812L617.062 263.624C617.778 264.001 618.386 264.307 618.843 265.002C621.555 269.124 623.85 277.405 622.655 282.308L622.539 282.75L622.185 284.045C621.124 286.852 619.063 289.199 616.312 290.402C614.653 290.595 613.316 290.445 611.904 289.467C610.437 288.452 609.67 286.926 609.433 285.188C608.745 280.148 610.503 275.416 612.352 270.826C613.326 268.406 614.256 265.859 615.914 263.812Z"/>
	<path fill="white" transform="scale(0.666667 0.666667)" d="M617.632 282.938L618.707 282.813C618.815 283.67 618.569 284.325 618.097 285.047C617.391 286.126 616.709 286.245 615.562 286.56L614.605 286.163L614.288 285.375C615.162 284.237 616.411 283.642 617.632 282.938Z"/>
	<path fill="white" transform="scale(0.666667 0.666667)" d="M616.204 271.312L617.025 271.232C617.275 271.844 617.283 271.757 617.384 272.31C617.981 275.564 616.623 278.191 614.812 280.795L614.039 281.282L613.576 280.875C614.033 277.595 615.028 274.399 616.204 271.312Z"/>
	<path fill="#2A2929" transform="scale(0.666667 0.666667)" d="M137.017 589.312C137.521 589.15 137.397 589.172 138.063 589.075C144.293 588.17 144.445 597.455 145.999 601.348C147.208 604.377 149.009 607.373 150.869 610.044C156.481 618.103 164.51 624.565 173.428 628.651C176.49 630.053 180.415 631.27 183.011 633.375L182.812 633.883L180.943 634.196C177.213 633.903 173.783 633.444 170.296 632.015C154.296 625.46 145.614 612.617 139.158 597.222C137.459 596.838 136.023 596.529 134.727 595.312C134.275 594.389 134.051 593.678 134.25 592.637C134.542 591.112 135.781 590.101 137.017 589.312Z"/>
	<path fill="#8B8A8A" transform="scale(0.666667 0.666667)" d="M82.0276 267.461L85.5 267.703C93.4019 268.503 102.068 272.869 106.983 279.188C109.075 281.877 109.91 284.627 109.487 288C108.542 289.07 108.407 288.98 107.062 289.207C102.398 288.376 97.5387 286.481 93.3762 284.237C87.3909 281.01 81.4319 276.391 79.3993 269.625C79.9708 268.404 80.8852 268.139 82.0276 267.461Z"/>
	<path fill="#2A2929" transform="scale(0.666667 0.666667)" d="M622.875 594.476L625.261 598.502C626.485 600.784 628.947 605.762 628.031 608.299C627.693 609.238 627.469 609.275 626.625 609.665L626.06 609.356C623.664 607.967 621.685 604.302 620.378 601.911C616.009 593.919 612.78 585.387 608.986 577.125L600.538 560.377C598.627 556.976 596.237 553.976 593.854 550.906C592.576 549.261 590.731 547.254 590.151 545.25L590.764 544.671C591.232 544.657 591.665 544.641 592.125 544.748C598.261 546.182 602.974 554.05 605.932 559.073C607.834 564.391 610.605 569.37 612.95 574.498C616.013 581.198 618.258 588.564 622.812 594.448L622.875 594.476Z"/>
	<path fill="#2A2929" transform="scale(0.666667 0.666667)" d="M137.956 307.688C139.553 307.612 139.59 307.834 140.812 308.761C143.263 313.862 143.323 322.479 142.611 327.976L142.516 328.688L142.293 330.141C141.476 333.681 138.657 336.955 135.562 338.783C134.149 339.617 132.236 339.638 130.685 339.186C127.629 338.296 125.937 335.582 124.455 332.985L123.861 330.793C122.564 323.823 127.293 316.934 130.986 311.505C134.062 314.878 136.21 318.309 138.491 322.231L137.139 312.34C136.895 310.37 136.641 309.367 137.956 307.688Z"/>
	<path fill="white" transform="scale(0.666667 0.666667)" d="M126.566 324.234C127.576 326.01 128.372 328.532 129.777 329.991C131.408 331.684 134.706 332.186 135.688 334.312L134.88 335.438C134.407 335.819 133.858 336.029 133.312 336.289C131.86 336.112 130.638 335.833 129.551 334.778C126.649 331.962 126.725 327.988 126.566 324.234Z"/>
	<path fill="#2A2929" transform="scale(0.666667 0.666667)" d="M692.171 218.438C693.423 218.602 693.497 218.706 694.443 219.562C696.183 224.28 695.256 230.729 694.984 235.754C696.011 234.325 696.675 232.545 697.538 231C698.804 228.733 700.373 226.647 702.064 224.682C704.709 221.61 708.266 218.466 712.507 218.207C715.28 218.039 717.689 218.334 719.8 220.281C722.317 222.603 722.57 225.531 722.751 228.734C722.269 232.031 721.254 234.527 718.808 236.873C713.39 242.071 704.117 243.135 696.938 242.922C695.642 242.883 693.678 242.79 692.812 241.766C691.587 240.315 691.239 238.014 690.879 236.192C690.052 231.998 688.971 227.074 689.801 222.82C690.132 221.128 690.736 219.461 692.171 218.438Z"/>
	<path fill="#2A2929" transform="scale(0.666667 0.666667)" d="M134.586 68.7313L136.688 68.6967C142.998 68.9118 145.96 72.1662 150.014 76.3906C150.468 76.4592 150.841 76.4866 151.295 76.3949C152.7 76.1116 154.2 76.1009 155.586 76.5443C157.255 77.0786 158.48 78.6395 159.049 80.2383C159.911 82.6632 159.54 85.9126 158.441 88.19C156.867 91.4529 153.336 93.0922 150.081 94.1755C146.081 95.0656 141.665 94.8394 137.8 93.5107C133.039 91.8736 128.406 88.0973 126.324 83.4887C125.219 81.042 125.507 78.5096 126.493 76.079C128.041 72.2632 130.942 70.2833 134.586 68.7313Z"/>
	<path fill="#2A2929" transform="scale(0.666667 0.666667)" d="M65.6199 431.438L66.1381 431.287C67.4498 430.984 69.2728 431.971 70.3653 432.62C73.0406 434.21 75.2568 436.511 77.4415 438.699C82.3478 443.612 87.7043 449.781 89.3824 456.703C90.5463 461.505 89.6512 464.53 87.1838 468.601L87.3828 468.863C88.7066 470.612 90.8746 472.748 90.5625 474.998C86.8154 475.299 86.9478 472.733 84.3275 471.169C83.594 470.731 81.1324 470.821 80.2371 470.738C77.7011 470.505 75.3697 470.052 73.125 468.77C68.1582 465.933 65.2059 460.643 63.7806 455.242C61.9482 448.299 61.8589 437.794 65.6199 431.438Z"/>
	<path fill="white" transform="scale(0.666667 0.666667)" d="M67.7211 436.656C70.4331 439.25 72.5456 442.046 74.6627 445.138C73.1434 445.025 71.2345 444.673 69.826 445.312C69.7235 445.813 69.6944 445.84 69.7102 446.438C69.907 453.88 77.7303 459.763 82.9935 463.933C83.4258 464.368 83.6835 464.854 84.0005 465.375L83.6178 466.063C82.9205 466.31 82.3678 466.493 81.6172 466.426C78.0274 466.108 74.5423 463.645 72.2939 460.959C66.6763 454.247 66.8578 444.812 67.7211 436.656Z"/>
	<path fill="#2A2929" transform="scale(0.666667 0.666667)" d="M652.737 302.438L653.491 302.487C654.015 302.974 654.57 303.465 654.905 304.111C655.657 305.562 655.647 307.788 655.753 309.394C656.305 317.76 655.231 325.049 652.978 333.034C654.811 332.222 657.185 330.965 659.25 331.203C660.544 331.353 660.996 331.877 661.814 332.812C661.977 337.693 659.082 343.689 656.297 347.625C650.711 355.522 643.092 355.074 634.484 356.532L630.396 357.602C630.322 352.259 631.085 347.235 632.321 342.057L626.473 345.406C627.886 340.814 629.425 336.467 631.517 332.126C635.182 324.521 640.02 317.501 645.132 310.807C647.393 307.846 649.649 304.588 652.737 302.438Z"/>
	<path fill="#B7B6B5" transform="scale(0.666667 0.666667)" d="M650.279 319.123C649.318 318.373 648.519 318.715 648.082 317.625C649.003 314.727 650.249 312.21 651.762 309.58L651.378 316.619C651.334 317.424 651.444 318.772 651.199 319.517L650.279 319.123Z"/>
	<path fill="#D1D0D1" transform="scale(0.666667 0.666667)" d="M650.279 319.123L651.199 319.517C650.777 324.492 649.468 328.912 648.089 333.694L640.811 336.502C642.079 333.79 643.317 330.984 644.862 328.417C646.865 325.091 649.012 322.922 650.279 319.123Z"/>
	<path fill="white" transform="scale(0.666667 0.666667)" d="M656.322 335.812L656.784 335.745L657.343 336.188C655.786 342.745 652.044 347.263 646.701 351.108L647.485 345.938L647.429 345.281C646.032 343.234 642.136 343.017 639.835 342.556C645.661 340.956 650.89 338.407 656.322 335.812Z"/>
	<path fill="#2A2929" transform="scale(0.666667 0.666667)" d="M551.369 157.312C555.24 156.635 559.309 158.837 562.461 160.899C572.491 167.459 582.817 178.114 585.162 190.302C585.612 192.637 585.544 195.211 584.062 197.187C582.272 199.576 579.557 201.141 576.579 201.397C564.092 202.471 552.594 195.384 543.538 187.566C538.183 182.353 533.66 177.339 531.946 169.908L533.923 167.91C542.71 160.129 554.104 163.322 562.121 170.404C564.461 172.471 566.449 175.527 569.003 177.25C569.98 177.909 571.3 177.925 572.437 177.988L572.699 177.375C568.959 172.328 564.18 167.806 559.011 164.244C556.332 162.398 552.97 160.669 550.786 158.256L551.369 157.312Z"/>
	<path fill="#646262" transform="scale(0.666667 0.666667)" d="M541.595 170.438C544.528 169.451 549.122 170.946 551.797 172.207L552.375 172.485C554.65 173.564 556.558 175.111 558.551 176.632C554.146 175.734 550.04 174.44 545.833 172.869C544.308 172.3 542.557 171.825 541.595 170.438Z"/>
	<path fill="white" transform="scale(0.666667 0.666667)" d="M574.239 180.562C575.021 180.716 575.403 181.402 575.812 182.059C577.426 184.647 578.965 188.994 578.376 192.061C577.72 193.28 576.788 193.705 575.496 194.066C568.569 196.001 560.922 192.444 554.937 189.25C551.736 187.325 548.656 184.889 546.08 182.184L551.382 183.952C559.192 185.989 567.378 184.593 574.239 180.562Z"/>
	<path fill="#2A2929" transform="scale(0.666667 0.666667)" d="M523.81 316.485C512.46 300.711 507.577 281.685 505.321 262.623C504.315 254.116 503.694 245.327 505.103 236.83C506.345 229.338 510.213 221.931 516.521 217.496C519.054 215.715 522.411 214.342 525.552 214.937C531.696 216.101 535.908 221.271 539.106 226.25C548.131 240.297 553.675 256.728 559.726 272.215L584.438 333.566L593.98 353.625L604.964 376.494L620.034 405.322L635.983 442.125L663.775 505.231L678.2 535.122L684.9 547.731C686.053 549.866 688.046 552.743 688.198 555.188L687.75 555.612C685.214 555.366 683.974 554.326 682.235 552.557C681.824 550.933 680.606 549.396 679.766 547.946L675.156 539.544L661.744 511.448L621.553 420.139L607.942 392.758L581.487 338.194C568.932 311.257 560.18 282.612 548.287 255.375C543.824 245.154 539.12 233.764 532.12 225.042C530.577 223.119 528.091 220.127 525.469 219.974C522.833 219.821 519.912 221.536 517.965 223.221C504.942 234.494 509.129 256.283 511.891 270.938C512.835 275.948 513.546 280.992 515.052 285.886L520.112 300.387C522.182 305.979 524.263 310.367 523.81 316.485Z"/>
	<path fill="#2A2929" transform="scale(0.666667 0.666667)" d="M104.01 187.688C105.912 187.319 108.133 188.335 109.878 189.08C123.719 194.992 138.701 207.807 144.138 222.022C146.064 227.058 147.47 233.359 146.121 238.699C145.598 240.773 144.448 242.748 143.564 244.688C143.901 245.551 144.105 246.014 143.911 246.938C140.811 247.643 138.047 249.206 135.013 250.071C132.856 250.686 130.371 250.651 128.139 250.762L120.647 249.8C109.972 247.371 101.143 240.753 95.4375 231.438C92.9592 227.392 90.9839 222.523 90.3204 217.808C90.1659 216.71 89.8684 215.251 90.2158 214.196C90.3371 213.828 90.3864 213.747 90.7398 213.614C93.5537 212.559 99.6961 216.143 102.254 217.536L100.73 208.211C100.372 204.043 100.924 199.582 101.514 195.455C101.896 192.779 102.226 189.827 104.01 187.688Z"/>
	<path fill="#8B8A8A" transform="scale(0.666667 0.666667)" d="M106.679 195.188L107.26 195.393C108.375 197.803 108.556 200.569 108.851 203.18C109.232 206.557 109.618 209.919 110.277 213.257C111.279 218.337 112.875 223.264 113.791 228.364L110.995 225.632C108.198 222.478 106.019 217.837 105.793 213.572C105.654 210.964 106.155 208.291 106.304 205.688L106.679 195.188Z"/>
	<path fill="white" transform="scale(0.666667 0.666667)" d="M94.6276 218.776C96.6977 219.023 99.7667 219.152 101.462 220.445C103.211 221.779 104.709 226.244 105.818 228.188C106.844 229.986 108.177 231.638 109.514 233.211C113.834 238.295 119.504 241.625 124.222 246.285C120.603 245.369 116.991 244.338 113.682 242.573C103.822 237.316 97.833 229.305 94.6276 218.776Z"/>
	<path fill="white" transform="scale(0.666667 0.666667)" d="M116.521 202.076C122.458 204.937 128.304 209.165 132.641 214.141C138.853 221.266 142.574 230.275 141.934 239.812L141.343 240.284L141.056 240.211C139.55 239.636 137.531 237.226 136.395 236.074C126.686 226.241 121.679 214.618 116.521 202.076Z"/>
	<path fill="#2A2929" transform="scale(0.666667 0.666667)" d="M161.131 578.826C151.432 571.106 142.972 559.754 137.417 548.747L89.3251 627.588L91.6125 629.438C93.2833 631.018 93.7433 632.987 93.7993 635.215C93.9997 643.189 89.8188 651.513 86.6067 658.619C85.2339 661.655 83.9595 665.246 81.6553 667.688L80.9448 667.688C80.4031 666.899 80.3978 666.336 80.4689 665.418C80.9828 658.784 84.7428 651.678 86.6519 645.275C87.6385 641.966 88.5687 638.535 88.1541 635.062C87.0851 633.592 84.0467 632.95 82.2691 632.301C84.0504 624.474 90.2039 616.585 94.5177 609.92L106.24 591.531C116.188 575.66 125.435 559.862 132.875 542.634C133.612 540.927 135.488 537.694 135.509 535.953C135.517 535.242 135.065 534.008 134.886 533.256C133.721 528.363 134.799 523.75 135.171 518.839C135.342 516.579 135.185 513.865 135.78 511.688C136.109 510.486 136.621 509.731 137.683 509.062C139.946 509.041 140.761 510.513 141.633 512.418C143.338 516.138 144.852 519.951 146.971 523.463C153.067 533.563 163.063 541.691 172.372 548.723C188.385 560.82 206.495 568.596 225.953 573.229C228.362 573.803 230.784 574.317 233.241 574.64C235.284 574.909 240.031 574.828 241.652 576.078C242.246 576.535 242.136 576.806 242.271 577.5L241.688 578.308C232.876 580.92 216.222 575.774 207.632 572.833C191.027 567.149 175.744 557.816 162.427 546.455C156.548 541.44 150.781 535.96 146.213 529.705C143.491 525.977 141.461 521.881 139.431 517.75L139.531 540.181C139.739 543.24 141.016 546.683 142.3 549.461C146.468 558.478 153.77 567.445 161.335 573.786C166.553 574.651 171.895 580.207 176.341 583.037L187.979 589.797C196.777 594.597 205.954 598.673 215.637 601.318C220.761 602.718 234.837 605.833 237.632 609.866L238.239 610.949L238.609 611.015C248.073 612.639 258.633 611.818 266.606 606.075L268.933 604.14C263.097 605.518 251.344 608.516 245.948 604.965C245.437 604.629 245.006 604.156 244.607 603.697C244.709 602.575 244.741 602.461 245.438 601.578C252.621 600.403 260.201 601.856 267.286 599.734C269.633 599.032 273.23 597.136 275.445 598.312C276.347 601.416 274.277 605.33 272.812 608.021C271.172 611.036 269.192 613.91 267.354 616.812C266.223 618.597 265.199 620.552 263.89 622.211C262.123 624.45 259.517 626.237 258.115 628.695L260.036 631.097C258.391 632.396 257.939 634.29 257.707 636.304L257.465 639.028C257.407 639.732 257.445 639.444 257.285 640.16L256.599 645.765C256.512 644.702 256.616 643.806 256.02 642.902L253.331 643.778L250.295 647.446C248.633 650.885 247.213 654.534 245.99 658.153L242.313 669.44C241.199 673.012 240.124 679.071 237 681.339C235.809 681.181 235.752 680.871 234.971 680.004C233.703 673.532 241.893 654.154 244.442 647.345C238.833 653.465 234.038 658.91 226.463 662.593C230.373 655.929 235.577 650.395 240.52 644.499C244.912 639.26 248.912 633.878 252.56 628.094C246.882 629.695 235.479 633.013 230.03 631.417C228.947 631.1 227.655 630.185 227.228 629.124C227.008 628.577 227.191 628.08 227.437 627.568C228.062 626.273 230.193 624.996 231.54 624.674C233.641 624.17 235.755 625.713 237.475 626.742C244.228 625.874 252.225 624.996 257.854 620.854C259.63 619.548 261.066 617.616 262.488 615.946C254.474 617.833 247.114 618.143 239.127 616.016C232.785 613.12 224.89 611.56 218.194 609.593C209.863 607.146 201.898 603.997 194.062 600.278C186.533 596.705 179.124 592.305 172.404 587.362C168.715 584.648 165.635 581.195 161.545 579.039L161.131 578.826Z"/>
	<path fill="#8B8A8A" transform="scale(0.666667 0.666667)" d="M250.295 647.446L250.172 646.951C249.134 641.895 255.431 632.99 258.115 628.695L260.036 631.097C258.391 632.396 257.939 634.29 257.707 636.304L257.465 639.028C257.407 639.732 257.445 639.444 257.285 640.16L256.599 645.765C256.512 644.702 256.616 643.806 256.02 642.902L253.331 643.778L250.295 647.446Z"/>
	<path fill="#B7B6B5" transform="scale(0.666667 0.666667)" d="M253.331 643.778C253.77 641.995 254.404 640.099 255.493 638.603C255.997 637.913 256.248 637.355 257.106 637.234L257.285 640.16L256.599 645.765C256.512 644.702 256.616 643.806 256.02 642.902L253.331 643.778Z"/>
	<path fill="#D1D0D1" transform="scale(0.666667 0.666667)" d="M161.335 573.786C166.553 574.651 171.895 580.207 176.341 583.037L187.979 589.797C196.777 594.597 205.954 598.673 215.637 601.318C220.761 602.718 234.837 605.833 237.632 609.866L238.239 610.949L214.312 605.621C198.811 601.623 183.106 592.475 170.541 582.697C167.232 580.123 163.48 577.476 161.335 573.786Z"/>
	<path fill="#B7B6B5" transform="scale(0.666667 0.666667)" d="M523.81 316.485C524.263 310.367 522.182 305.979 520.112 300.387L515.052 285.886C513.546 280.992 512.835 275.948 511.891 270.938C509.129 256.283 504.942 234.494 517.965 223.221C519.912 221.536 522.833 219.821 525.469 219.974C528.091 220.127 530.577 223.119 532.12 225.042C539.12 233.764 543.824 245.154 548.287 255.375C560.18 282.612 568.932 311.257 581.487 338.194L607.942 392.758L621.553 420.139L661.744 511.448L675.156 539.544L679.766 547.946C680.606 549.396 681.824 550.933 682.235 552.557C679.536 553.366 677.17 554.34 674.753 555.822L674.623 555.899C661.044 562.393 648.358 569.995 638.013 581.116C634.942 584.417 632.249 587.883 629.601 591.523C629.089 592.226 627.325 594.961 626.441 594.593C625.634 594.258 624.998 593.632 624.342 593.069L622.875 594.476L622.812 594.448C618.258 588.564 616.013 581.198 612.95 574.498C610.605 569.37 607.834 564.391 605.932 559.073C606.743 558.367 606.912 557.43 607.05 556.404C607.549 552.679 607.073 548.234 604.631 545.249C600.456 540.147 591.666 538.724 585.486 538.06C584.602 536.547 583.476 535.718 581.81 535.143C577.588 533.686 572.556 533.737 568.125 533.216C562.669 532.575 557.475 531.383 552.267 529.635C543.492 526.69 535.383 521.938 527.894 516.557C505.15 500.217 490.047 478.472 474.658 455.542C468.186 445.899 461.713 436.026 454.075 427.252C444.973 416.795 433.437 409.564 422.87 400.801C418.301 397.012 414.059 392.256 413.569 386.044C413.139 380.602 415.36 374.772 418.943 370.722C421.597 367.724 425.751 364.51 429.884 364.312C434.261 364.103 438.88 366.065 442.973 367.421L456.445 371.726L503.111 383.953C514.876 387.023 526.658 391.08 538.729 392.762C542.958 393.352 547.37 393.03 551.619 392.748L495.731 376.796C496.275 374.976 496.126 372.888 496.12 370.996L497.062 372.915L497.966 373.013C498.388 372.723 498.826 372.441 499.189 372.074C500.352 370.898 500.473 369.082 500.611 367.532C501.107 361.963 500.452 356.387 500.343 350.812L500.122 323.226C504.715 323.174 509.422 323.004 513.996 323.453C521.817 324.222 529.629 326.728 536.569 330.397C541.789 333.157 546.629 336.058 552.5 337.198C545.809 328.595 535.015 324.755 525.385 320.398C525.149 318.975 524.45 317.76 523.81 316.485Z"/>
	<path fill="#2A2929" transform="scale(0.666667 0.666667)" d="M624.342 593.069C626.14 587.78 628.719 583.821 632.434 579.672C640.976 570.13 651.316 562.518 662.301 556.03C664.306 554.846 667.355 552.689 669.738 552.691C671.767 552.693 673.308 554.55 674.623 555.899C661.044 562.393 648.358 569.995 638.013 581.116C634.942 584.417 632.249 587.883 629.601 591.523C629.089 592.226 627.325 594.961 626.441 594.593C625.634 594.258 624.998 593.632 624.342 593.069Z"/>
	<path fill="#2A2929" transform="scale(0.666667 0.666667)" d="M585.486 538.06L568.224 538.771C555.203 538.809 541.901 532.19 530.921 525.776C523.765 521.595 516.809 517.023 510.404 511.752C505.062 507.355 500.245 502.373 495.358 497.486C496.909 506.387 497.206 514.702 497.176 523.707C497.143 533.975 497.283 544.855 491.714 553.897C487.487 560.76 480.275 565.246 472.509 567.001C462.299 569.309 451.162 568.451 440.739 568.517L394.029 569.111L345.405 571.637C330.751 572.617 315.858 574.017 301.176 573.102C291.197 572.479 281.523 571.206 272.922 565.676C262.336 558.871 257.972 547.991 256.19 536.004C255.742 532.993 255.797 529.815 255.17 526.859C253.279 531.965 251.137 536.642 248.551 541.42C250.633 543.902 251.807 547.374 253.091 550.312C257.084 559.449 262.661 566.921 271.128 572.389C279.589 577.854 289.382 580.134 299.332 580.816C311.018 581.616 322.698 580.495 334.356 579.699L371.062 577.294L395.062 575.69L443.495 575.309L464.266 574.925C467.253 574.72 470.363 574.641 473.287 573.976C478.613 572.764 483.368 570.986 487.949 567.938C496.246 562.416 503.521 553.203 505.462 543.251C505.984 540.575 506.234 538.321 506.218 535.577C506.204 533.296 505.923 530.643 506.341 528.407C506.506 527.525 506.871 526.457 507.666 525.991C508.493 525.507 509.143 525.349 510.083 525.61C511.51 526.007 512.393 526.767 513.069 528.077C513.5 528.914 513.451 530.177 513.442 531.103C513.403 535.028 512.461 539.202 511.518 543C510.543 546.921 509.186 550.781 507.316 554.369C501.678 565.188 491.78 573.628 480.119 577.273C465.737 581.769 450.01 580.428 435.152 580.506L406.321 581.085L387.927 581.455L338.73 584.847C325.918 585.832 313.048 587.036 300.182 586.43C290.422 585.97 280.563 583.915 271.875 579.334C257.602 571.81 251.404 559.852 246.825 544.969C242.526 549.152 237.45 551.903 231.506 552.936C219.117 555.089 206.906 548.968 197.138 541.918C175.808 526.524 168.165 503.746 162.423 479.227L157.044 453.15C150.47 411.583 157.593 366.003 179.944 329.982L193.939 308.812C201.217 297.292 207.014 284.806 210.824 271.717C213.82 261.426 215.636 250.714 216.85 240.075L218.446 222.581C219.114 211.156 218.197 196.641 225.401 186.987C227.468 184.217 230.852 181.171 234.375 180.737C240.655 179.964 245.243 183.48 249.789 187.219L245.657 110.835C245.266 93.984 246.966 74.2771 259.312 61.5684C265.449 55.2523 273.289 51.4479 281.947 50.0177C292.9 48.2084 304.163 49.3603 315.188 49.6985L361.707 50.5413L391.647 49.7832L416.935 49.0643L451.271 47.38C463.189 47.2212 475.702 49.3899 484.514 58.1005C492.398 65.8935 496.27 76.5694 498.102 87.3029C500.024 98.5556 499.637 110.207 499.692 121.585L499.803 166.482L500.233 318.404C508.848 317.995 517.008 318.009 525.385 320.398C535.015 324.755 545.809 328.595 552.5 337.198C546.629 336.058 541.789 333.157 536.569 330.397C529.629 326.728 521.817 324.222 513.996 323.453C509.422 323.004 504.715 323.174 500.122 323.226L500.343 350.812C500.452 356.387 501.107 361.963 500.611 367.532C500.473 369.082 500.352 370.898 499.189 372.074C498.826 372.441 498.388 372.723 497.966 373.013L497.062 372.915L496.12 370.996C496.126 372.888 496.275 374.976 495.731 376.796L551.619 392.748C547.37 393.03 542.958 393.352 538.729 392.762C526.658 391.08 514.876 387.023 503.111 383.953L456.445 371.726L442.973 367.421C438.88 366.065 434.261 364.103 429.884 364.312C425.751 364.51 421.597 367.724 418.943 370.722C415.36 374.772 413.139 380.602 413.569 386.044C414.059 392.256 418.301 397.012 422.87 400.801C433.437 409.564 444.973 416.795 454.075 427.252C461.713 436.026 468.186 445.899 474.658 455.542C490.047 478.472 505.15 500.217 527.894 516.557C535.383 521.938 543.492 526.69 552.267 529.635C557.475 531.383 562.669 532.575 568.125 533.216C572.556 533.737 577.588 533.686 581.81 535.143C583.476 535.718 584.602 536.547 585.486 538.06Z"/>
	<path fill="#D1D0D1" transform="scale(0.666667 0.666667)" d="M176.773 506.321C178.784 506.137 180.82 506.085 182.642 505.128L183.007 507.048C181.821 509.119 179.831 508.755 178.299 510.389L176.773 506.321Z"/>
	<path fill="white" transform="scale(0.666667 0.666667)" d="M257.595 335.062L258.771 335.062C259.419 336.926 259.1 339.696 259.093 341.699L253.691 339.724L249.56 338.608L257.595 335.062Z"/>
	<path fill="#8B8A8A" transform="scale(0.666667 0.666667)" d="M246.787 345.119L259.087 345.484C259.216 349.34 260.083 356.04 258.671 359.541L258.007 359.062C254.776 353.207 250.74 349.841 245.438 345.97L245.566 345.562L246.787 345.119Z"/>
	<path fill="white" transform="scale(0.666667 0.666667)" d="M263.12 153.188C263.808 153.311 263.761 153.404 264.221 153.88C264.744 158.808 264.663 163.862 264.788 168.816L265.475 189.837L266.029 202.501C266.231 205.511 266.82 209.428 266.1 212.328C265.819 213.459 265.506 213.507 264.562 214.048C264.109 213.95 263.727 213.752 263.305 213.562C262.917 212.597 262.806 211.834 262.769 210.804L261.953 178.347L261.561 165.705C261.455 162.709 261.208 159.579 261.562 156.595C261.744 155.063 262.076 154.314 263.12 153.188Z"/>
	<path fill="white" transform="scale(0.666667 0.666667)" d="M258.078 281.686L259.157 311.827L248.012 314.812C247.143 314.942 247.141 315.094 246.339 314.625C246.354 311.058 248.144 307.053 249.366 303.75L258.078 281.686Z"/>
	<path fill="#D1D0D1" transform="scale(0.666667 0.666667)" d="M256.876 315.938C257.71 315.822 257.271 315.807 258.188 316.043C259.106 320.596 258.657 326.28 258.787 330.976C254.245 331.997 250.589 333.706 246.473 335.812L245.555 335.625C244.182 330.375 244.353 324.804 244.734 319.435L256.876 315.938Z"/>
	<path fill="white" transform="scale(0.666667 0.666667)" d="M379.056 84.9172L390.001 84.7249C391.673 84.7283 393.816 84.5082 395.416 85.0261C396.794 85.4722 397.477 86.5513 398.149 87.75C398.302 89.222 398.278 90.3171 397.221 91.4963C394.818 94.1789 373.465 93.5734 368.575 93.6943L355.203 93.8085C353.606 93.7509 351.636 93.804 350.305 92.76C349.325 91.991 348.693 90.4766 348.728 89.25C348.749 88.5143 349.175 87.9516 349.66 87.4429C350.756 86.2955 352.256 85.9079 353.778 85.642C356.748 85.1229 360.277 85.4998 363.303 85.4558L379.056 84.9172Z"/>
	<path fill="#B7B6B5" transform="scale(0.666667 0.666667)" d="M183.007 507.048L183.621 507.457C185.585 508.713 188.152 509.574 190.371 510.283C198.977 513.032 209.258 513.525 218.062 511.396C233.61 507.635 244.579 496.961 252.725 483.636L253.504 504.059L254.059 509.207C254.137 509.787 254.478 511.02 254.389 511.568C254.083 513.445 252.244 516.343 251.514 518.254C248.35 526.547 246.584 535.52 240.219 542.129C236.179 546.324 231.452 548.93 225.546 548.987C214.168 549.096 200.492 539.416 192.767 531.72C186.614 525.59 181.567 518.466 178.299 510.389C179.831 508.755 181.821 509.119 183.007 507.048Z"/>
	<path fill="white" transform="scale(0.666667 0.666667)" d="M495.731 376.796C493.499 376.218 489.714 375.697 487.857 374.413C487.004 367.174 487.497 359.465 487.494 352.166L487.323 313.909L486.319 172.089L486.188 131.126C486.201 118.35 486.467 105.515 485.145 92.7891C484.044 82.1959 480.852 71.7484 472.203 64.9132C467.084 60.8676 460.947 59.3767 454.547 58.9285C445.837 58.3185 437.081 59.3252 428.386 59.7975L390.32 61.1338L318.75 61.4877L298.023 60.95C294.173 60.8378 290.04 60.4826 286.218 60.9526C278.735 61.8725 272.523 64.0345 267.261 69.716C261.658 75.7667 259.151 83.6002 257.825 91.582C255.564 105.192 257.022 118.899 257.228 132.583L257.715 177.06L258.779 203.503L254.276 189.789L254.111 189.061C253.294 185.593 253.524 182.076 253.499 178.536L253.122 164.238L251.431 125.419C251.165 118.403 250.665 111.39 250.928 104.365C251.505 88.9185 253.794 73.8728 265.768 62.9441C271.066 58.1094 277.632 55.7205 284.654 54.8592C297.818 53.2447 311.08 54.6893 324.269 55.0525L375.723 55.278L426.565 53.5704C435.786 53.1439 445.096 52.0723 454.329 52.6139C465.4 53.2633 475.747 56.2886 483.224 64.9438C489.411 72.1062 492.19 82.0673 493.412 91.2603C495.192 104.657 494.714 118.326 494.73 131.813L494.912 184.302L496.12 370.996C496.126 372.888 496.275 374.976 495.731 376.796Z"/>
	<path fill="white" transform="scale(0.666667 0.666667)" d="M179.487 342.261C180.677 338.127 183.593 334.236 185.911 330.656L196.477 314.417C204.078 302.355 210.214 289.891 214.453 276.238C219.024 261.513 221.491 246.171 222.643 230.812L223.862 213.245C224.185 208.47 224.421 203.757 225.756 199.125C227.178 194.194 229.589 190.634 233.246 187.063C235.083 187.027 236.765 186.946 238.545 187.509C245.889 190.405 249.741 195.955 252.815 202.992C256.438 211.286 257.699 221.304 258.379 230.247C259.452 244.365 258.539 258.624 254.755 272.304C251.022 285.801 244.63 298.491 241.159 312.059C239.283 319.394 238.543 327.076 238.839 334.64C238.959 337.73 239.657 340.873 240.08 343.939L236.058 345.349C237.657 347.489 241.387 349.243 243.561 350.914C245.997 352.787 248.205 355.151 250.127 357.541C261.822 372.077 263.443 390.667 262.778 408.571C262.517 415.593 262.065 422.622 261.041 429.58C258.197 448.912 251.756 468.386 238.96 483.508C234.849 488.366 229.901 491.079 227.044 497.033C228.155 496.985 229.441 496.284 230.464 495.85C235.443 493.739 239.959 490.021 243.569 486.04C246.81 482.466 249.133 478.181 252.051 474.342C248.733 485.507 237.607 497.179 227.522 502.539C217.644 507.79 204.983 509.492 194.23 506.076L184.367 502.166L182.642 505.128C180.82 506.085 178.784 506.137 176.773 506.321C175.998 502.437 174.207 498.295 172.956 494.518C170.189 486.163 167.413 477.801 165.288 469.253C159.499 445.964 159.125 423.091 161.945 399.375C163.165 389.112 164.991 378.646 168.196 368.798C171.198 359.577 175.73 351.446 179.364 342.568L179.487 342.261Z"/>
	<path fill="#B7B6B5" transform="scale(0.666667 0.666667)" d="M179.487 342.261C180.677 338.127 183.593 334.236 185.911 330.656L196.477 314.417C204.078 302.355 210.214 289.891 214.453 276.238C219.024 261.513 221.491 246.171 222.643 230.812L223.862 213.245C224.185 208.47 224.421 203.757 225.756 199.125C227.178 194.194 229.589 190.634 233.246 187.063C235.083 187.027 236.765 186.946 238.545 187.509L234.188 187.432L233.762 187.875C235.064 191.987 237.87 194.59 240.119 198.116C244.305 204.677 246.004 213.798 247.018 221.418C249.255 238.242 249.291 255.605 245.483 272.208C241.703 288.696 232.629 303.298 229.4 320.006C228.816 323.026 228.101 326.456 228.626 329.527C229.232 333.075 231.978 336.653 233.783 339.734C231.929 341.458 230.875 342.534 228.237 342.428C225.679 342.326 223.07 340.937 220.671 340.101C217.907 339.139 215.037 338.456 212.132 338.087C203.987 337.054 195.411 337.618 187.498 339.783C184.949 340.48 182.08 341.978 179.487 342.261Z"/>
	<path fill="white" transform="scale(0.666667 0.666667)" d="M438.673 119.438C447.886 119.21 460.995 118.647 468.136 125.566C471.828 129.144 473.741 133.588 474.372 138.647C475.395 146.845 474.52 155.42 474.502 163.672L474.697 210.747L475.824 370.846L451.998 363.738C445.534 361.745 438.458 358.998 431.685 358.595C429.35 358.456 426.922 358.935 424.727 359.719C418.492 361.947 413.314 367.532 410.567 373.453C409.309 376.163 406.646 382.473 407.895 385.327C408.549 386.822 408.662 388.634 409.025 390.245C409.79 393.638 411.045 396.794 413.034 399.662C418.163 407.057 427.441 411.437 434.391 416.954C449.376 428.851 460.365 445.111 469.436 461.764C473.583 469.376 475.449 477.915 475.682 486.535C475.754 489.18 475.796 492.292 474.994 494.839L474.812 495.375C474.082 497.611 473.025 499.546 471.352 501.231C469.004 503.595 465.794 505.237 462.549 505.967C452.417 508.245 441.064 507.236 430.724 507.379L392.299 508.365L312.188 511.151C303.55 511.428 289.174 512.263 282.49 505.817C278.564 502.032 277.774 496.425 277.625 491.229L277.53 416.896L277.58 275.816L277.504 184.904L277.446 160.658C277.362 154.312 277.03 147.967 277.545 141.629C277.884 137.456 279.517 133.223 282.482 130.217C285.337 127.322 289.126 125.791 293.06 125.02C299.981 123.665 307.402 123.434 314.438 123.148L344.686 122.257L438.673 119.438Z"/>
</svg>
